<?xml version="1.0" encoding="UTF-8" standalone="no"?>
<!DOCTYPE svg PUBLIC "-//W3C//DTD SVG 1.0//EN"
 "http://www.w3.org/TR/2001/REC-SVG-20010904/DTD/svg10.dtd" [
 <!ATTLIST svg xmlns:xlink CDATA #FIXED "http://www.w3.org/1999/xlink">
]>
<!-- Generated by Graphviz version 2.12 (Mon Dec  4 22:04:37 UTC 2006)
     For user: Bill Gates -->
<!-- Title: finite_state_machine Pages: 1 -->
<svg width="9.50in" height="5.93in"
 xmlns="http://www.w3.org/2000/svg" xmlns:xlink="http://www.w3.org/1999/xlink">
<g id="graph0" class="graph" transform="scale(0.656587 0.656587) rotate(0) translate(4 864)">
<title>finite_state_machine</title>
<polygon style="fill:white;stroke:white;" points="-4,4 -4,-864 1385,-864 1385,4 -4,4"/>
<text text-anchor="middle" x="690" y="-8" style="font-family:Nimbus Roman No9 L;font-weight:medium;font-size:19.44pt;">Accurate Ref Pos &#45; LBS &#45; MT&#45;LR</text>
<!-- Idle -->
<g id="node2" class="node"><title>Idle</title>
<polygon style="fill:greenyellow;stroke:greenyellow;" points="303,-822 273,-822 261,-810 261,-798 273,-786 303,-786 315,-798 315,-810 303,-822"/>
<path style="fill:greenyellow;stroke:greenyellow;" d="M273,-822C267,-822 261,-816 261,-810"/>
<path style="fill:greenyellow;stroke:greenyellow;" d="M261,-798C261,-792 267,-786 273,-786"/>
<path style="fill:greenyellow;stroke:greenyellow;" d="M303,-786C309,-786 315,-792 315,-798"/>
<path style="fill:greenyellow;stroke:greenyellow;" d="M315,-810C315,-816 309,-822 303,-822"/>
<polyline style="fill:none;stroke:greenyellow;" points="303,-822 273,-822 "/>
<path style="fill:none;stroke:greenyellow;" d="M273,-822C267,-822 261,-816 261,-810"/>
<polyline style="fill:none;stroke:greenyellow;" points="261,-810 261,-798 "/>
<path style="fill:none;stroke:greenyellow;" d="M261,-798C261,-792 267,-786 273,-786"/>
<polyline style="fill:none;stroke:greenyellow;" points="273,-786 303,-786 "/>
<path style="fill:none;stroke:greenyellow;" d="M303,-786C309,-786 315,-792 315,-798"/>
<polyline style="fill:none;stroke:greenyellow;" points="315,-798 315,-810 "/>
<path style="fill:none;stroke:greenyellow;" d="M315,-810C315,-816 309,-822 303,-822"/>
<text text-anchor="middle" x="288" y="-798" style="font-family:Nimbus Roman No9 L;font-weight:medium;font-size:12.96pt;">Idle</text>
</g>
<!-- Priv_Request -->
<g id="node3" class="node"><title>Priv_Request</title>
<polygon style="fill:greenyellow;stroke:greenyellow;" points="689,-822 501,-822 489,-810 489,-798 501,-786 689,-786 701,-798 701,-810 689,-822"/>
<path style="fill:greenyellow;stroke:greenyellow;" d="M501,-822C495,-822 489,-816 489,-810"/>
<path style="fill:greenyellow;stroke:greenyellow;" d="M489,-798C489,-792 495,-786 501,-786"/>
<path style="fill:greenyellow;stroke:greenyellow;" d="M689,-786C695,-786 701,-792 701,-798"/>
<path style="fill:greenyellow;stroke:greenyellow;" d="M701,-810C701,-816 695,-822 689,-822"/>
<polyline style="fill:none;stroke:greenyellow;" points="689,-822 501,-822 "/>
<path style="fill:none;stroke:greenyellow;" d="M501,-822C495,-822 489,-816 489,-810"/>
<polyline style="fill:none;stroke:greenyellow;" points="489,-810 489,-798 "/>
<path style="fill:none;stroke:greenyellow;" d="M489,-798C489,-792 495,-786 501,-786"/>
<polyline style="fill:none;stroke:greenyellow;" points="501,-786 689,-786 "/>
<path style="fill:none;stroke:greenyellow;" d="M689,-786C695,-786 701,-792 701,-798"/>
<polyline style="fill:none;stroke:greenyellow;" points="701,-798 701,-810 "/>
<path style="fill:none;stroke:greenyellow;" d="M701,-810C701,-816 695,-822 689,-822"/>
<text text-anchor="middle" x="595" y="-798" style="font-family:Nimbus Roman No9 L;font-weight:medium;font-size:12.96pt;">Performing Privacy Request</text>
</g>
<!-- Idle&#45;&gt;Priv_Request -->
<g id="edge3" class="edge"><title>Idle&#45;&gt;Priv_Request</title>
<path style="fill:none;stroke:red;" d="M315,-804C352,-804 419,-804 478,-804"/>
<polygon style="fill:red;stroke:red;" points="478,-807.5 488,-804 478,-800.5 478,-807.5"/>
<a xlink:title="NotifyStartLcsMT&#45;LR/\nStart Privacy Request">
</a>
<a xlink:title="NotifyStartLcsMT&#45;LR/\nStart Privacy Request">
</a>
<text text-anchor="middle" x="402" y="-826" style="font-family:Nimbus Sans L;font-weight:regular;font-size:12.96pt;fill:red;">NotifyStartLcsMT&#45;LR/</text>
<text text-anchor="middle" x="402" y="-807" style="font-family:Nimbus Sans L;font-weight:regular;font-size:12.96pt;fill:red;">Start Privacy Request</text>
</g>
<!-- Waiting_MCStartup -->
<g id="node4" class="node"><title>Waiting_MCStartup</title>
<polygon style="fill:greenyellow;stroke:greenyellow;" points="1041,-822 873,-822 861,-810 861,-798 873,-786 1041,-786 1053,-798 1053,-810 1041,-822"/>
<path style="fill:greenyellow;stroke:greenyellow;" d="M873,-822C867,-822 861,-816 861,-810"/>
<path style="fill:greenyellow;stroke:greenyellow;" d="M861,-798C861,-792 867,-786 873,-786"/>
<path style="fill:greenyellow;stroke:greenyellow;" d="M1041,-786C1047,-786 1053,-792 1053,-798"/>
<path style="fill:greenyellow;stroke:greenyellow;" d="M1053,-810C1053,-816 1047,-822 1041,-822"/>
<polyline style="fill:none;stroke:greenyellow;" points="1041,-822 873,-822 "/>
<path style="fill:none;stroke:greenyellow;" d="M873,-822C867,-822 861,-816 861,-810"/>
<polyline style="fill:none;stroke:greenyellow;" points="861,-810 861,-798 "/>
<path style="fill:none;stroke:greenyellow;" d="M861,-798C861,-792 867,-786 873,-786"/>
<polyline style="fill:none;stroke:greenyellow;" points="873,-786 1041,-786 "/>
<path style="fill:none;stroke:greenyellow;" d="M1041,-786C1047,-786 1053,-792 1053,-798"/>
<polyline style="fill:none;stroke:greenyellow;" points="1053,-798 1053,-810 "/>
<path style="fill:none;stroke:greenyellow;" d="M1053,-810C1053,-816 1047,-822 1041,-822"/>
<text text-anchor="middle" x="957" y="-798" style="font-family:Nimbus Roman No9 L;font-weight:medium;font-size:12.96pt;">Waiting for M.C. Startup</text>
</g>
<!-- Priv_Request&#45;&gt;Waiting_MCStartup -->
<g id="edge5" class="edge"><title>Priv_Request&#45;&gt;Waiting_MCStartup</title>
<path style="fill:none;stroke:red;" d="M702,-804C749,-804 804,-804 851,-804"/>
<polygon style="fill:red;stroke:red;" points="851,-807.5 861,-804 851,-800.5 851,-807.5"/>
<a xlink:title="Request Accepted/\nSend Release\n(Request Accepted)">
</a>
<a xlink:title="Request Accepted/\nSend Release\n(Request Accepted)">
</a>
<text text-anchor="middle" x="781" y="-845" style="font-family:Nimbus Sans L;font-weight:regular;font-size:12.96pt;fill:red;">Request Accepted/</text>
<text text-anchor="middle" x="781" y="-826" style="font-family:Nimbus Sans L;font-weight:regular;font-size:12.96pt;fill:red;">Send Release</text>
<text text-anchor="middle" x="781" y="-807" style="font-family:Nimbus Sans L;font-weight:regular;font-size:12.96pt;fill:red;">(Request Accepted)</text>
</g>
<!-- UE_Based -->
<g id="node5" class="node"><title>UE_Based</title>
<polygon style="fill:greenyellow;stroke:greenyellow;" points="855,-652 629,-652 617,-640 617,-618 629,-606 855,-606 867,-618 867,-640 855,-652"/>
<path style="fill:greenyellow;stroke:greenyellow;" d="M629,-652C623,-652 617,-646 617,-640"/>
<path style="fill:greenyellow;stroke:greenyellow;" d="M617,-618C617,-612 623,-606 629,-606"/>
<path style="fill:greenyellow;stroke:greenyellow;" d="M855,-606C861,-606 867,-612 867,-618"/>
<path style="fill:greenyellow;stroke:greenyellow;" d="M867,-640C867,-646 861,-652 855,-652"/>
<polyline style="fill:none;stroke:greenyellow;" points="855,-652 629,-652 "/>
<path style="fill:none;stroke:greenyellow;" d="M629,-652C623,-652 617,-646 617,-640"/>
<polyline style="fill:none;stroke:greenyellow;" points="617,-640 617,-618 "/>
<path style="fill:none;stroke:greenyellow;" d="M617,-618C617,-612 623,-606 629,-606"/>
<polyline style="fill:none;stroke:greenyellow;" points="629,-606 855,-606 "/>
<path style="fill:none;stroke:greenyellow;" d="M855,-606C861,-606 867,-612 867,-618"/>
<polyline style="fill:none;stroke:greenyellow;" points="867,-618 867,-640 "/>
<path style="fill:none;stroke:greenyellow;" d="M867,-640C867,-646 861,-652 855,-652"/>
<text text-anchor="middle" x="742" y="-632" style="font-family:Nimbus Roman No9 L;font-weight:medium;font-size:12.96pt;">Performing UE&#45;Based positioning</text>
<text text-anchor="middle" x="742" y="-613" style="font-family:Nimbus Roman No9 L;font-weight:medium;font-size:12.96pt;">under Hybrid Positioning</text>
</g>
<!-- Waiting_MCStartup&#45;&gt;UE_Based -->
<g id="edge7" class="edge"><title>Waiting_MCStartup&#45;&gt;UE_Based</title>
<path style="fill:none;stroke:black;" d="M935,-786C898,-756 823,-695 779,-658"/>
<polygon style="fill:black;stroke:black;" points="781.1,-655.2 771,-652 776.9,-660.8 781.1,-655.2"/>
<a xlink:title="Receive M.C./\nStart UE Based Positioning\nStart a2,a4">
</a>
<a xlink:title="Receive M.C./\nStart UE Based Positioning\nStart a2,a4">
</a>
<text text-anchor="middle" x="964" y="-729" style="font-family:Nimbus Sans L;font-weight:regular;font-size:11.34pt;">Receive M.C./</text>
<text text-anchor="middle" x="964" y="-713" style="font-family:Nimbus Sans L;font-weight:regular;font-size:11.34pt;">Start UE Based Positioning</text>
<text text-anchor="middle" x="964" y="-697" style="font-family:Nimbus Sans L;font-weight:regular;font-size:11.34pt;">Start a2,a4</text>
</g>
<!-- Waiting_MC -->
<g id="node7" class="node"><title>Waiting_MC</title>
<polygon style="fill:greenyellow;stroke:greenyellow;" points="578,-226 410,-226 398,-214 398,-202 410,-190 578,-190 590,-202 590,-214 578,-226"/>
<path style="fill:greenyellow;stroke:greenyellow;" d="M410,-226C404,-226 398,-220 398,-214"/>
<path style="fill:greenyellow;stroke:greenyellow;" d="M398,-202C398,-196 404,-190 410,-190"/>
<path style="fill:greenyellow;stroke:greenyellow;" d="M578,-190C584,-190 590,-196 590,-202"/>
<path style="fill:greenyellow;stroke:greenyellow;" d="M590,-214C590,-220 584,-226 578,-226"/>
<polyline style="fill:none;stroke:greenyellow;" points="578,-226 410,-226 "/>
<path style="fill:none;stroke:greenyellow;" d="M410,-226C404,-226 398,-220 398,-214"/>
<polyline style="fill:none;stroke:greenyellow;" points="398,-214 398,-202 "/>
<path style="fill:none;stroke:greenyellow;" d="M398,-202C398,-196 404,-190 410,-190"/>
<polyline style="fill:none;stroke:greenyellow;" points="410,-190 578,-190 "/>
<path style="fill:none;stroke:greenyellow;" d="M578,-190C584,-190 590,-196 590,-202"/>
<polyline style="fill:none;stroke:greenyellow;" points="590,-202 590,-214 "/>
<path style="fill:none;stroke:greenyellow;" d="M590,-214C590,-220 584,-226 578,-226"/>
<text text-anchor="middle" x="494" y="-202" style="font-family:Nimbus Roman No9 L;font-weight:medium;font-size:12.96pt;">Waiting for M.C. Release</text>
</g>
<!-- Waiting_MCStartup&#45;&gt;Waiting_MC -->
<g id="edge9" class="edge"><title>Waiting_MCStartup&#45;&gt;Waiting_MC</title>
<path style="fill:none;stroke:red;" d="M1002,-786C1021,-776 1041,-762 1052,-743 1135,-602 1165,-511 1074,-376 1020,-297 752,-245 600,-223"/>
<polygon style="fill:red;stroke:red;" points="600.492,-219.529 590,-221 599.119,-226.393 600.492,-219.529"/>
<a xlink:title="Receive M.C. &amp;&amp; Use Ref Position/\nSend M.R.\n(confidence=0)">
</a>
<a xlink:title="Receive M.C. &amp;&amp; Use Ref Position/\nSend M.R.\n(confidence=0)">
</a>
<text text-anchor="middle" x="1255" y="-536" style="font-family:Nimbus Sans L;font-weight:regular;font-size:12.96pt;fill:red;">Receive M.C. &amp;&amp; Use Ref Position/</text>
<text text-anchor="middle" x="1255" y="-517" style="font-family:Nimbus Sans L;font-weight:regular;font-size:12.96pt;fill:red;">Send M.R.</text>
<text text-anchor="middle" x="1255" y="-498" style="font-family:Nimbus Sans L;font-weight:regular;font-size:12.96pt;fill:red;">(confidence=0)</text>
</g>
<!-- UE_Assisted -->
<g id="node6" class="node"><title>UE_Assisted</title>
<polygon style="fill:greenyellow;stroke:greenyellow;" points="419,-431 179,-431 167,-419 167,-397 179,-385 419,-385 431,-397 431,-419 419,-431"/>
<path style="fill:greenyellow;stroke:greenyellow;" d="M179,-431C173,-431 167,-425 167,-419"/>
<path style="fill:greenyellow;stroke:greenyellow;" d="M167,-397C167,-391 173,-385 179,-385"/>
<path style="fill:greenyellow;stroke:greenyellow;" d="M419,-385C425,-385 431,-391 431,-397"/>
<path style="fill:greenyellow;stroke:greenyellow;" d="M431,-419C431,-425 425,-431 419,-431"/>
<polyline style="fill:none;stroke:greenyellow;" points="419,-431 179,-431 "/>
<path style="fill:none;stroke:greenyellow;" d="M179,-431C173,-431 167,-425 167,-419"/>
<polyline style="fill:none;stroke:greenyellow;" points="167,-419 167,-397 "/>
<path style="fill:none;stroke:greenyellow;" d="M167,-397C167,-391 173,-385 179,-385"/>
<polyline style="fill:none;stroke:greenyellow;" points="179,-385 419,-385 "/>
<path style="fill:none;stroke:greenyellow;" d="M419,-385C425,-385 431,-391 431,-397"/>
<polyline style="fill:none;stroke:greenyellow;" points="431,-397 431,-419 "/>
<path style="fill:none;stroke:greenyellow;" d="M431,-419C431,-425 425,-431 419,-431"/>
<text text-anchor="middle" x="299" y="-411" style="font-family:Nimbus Roman No9 L;font-weight:medium;font-size:12.96pt;">Performing UE&#45;Assisted positioning</text>
<text text-anchor="middle" x="299" y="-392" style="font-family:Nimbus Roman No9 L;font-weight:medium;font-size:12.96pt;">(UE&#45;Based positioning continue)</text>
</g>
<!-- UE_Based&#45;&gt;UE_Assisted -->
<g id="edge11" class="edge"><title>UE_Based&#45;&gt;UE_Assisted</title>
<path style="fill:none;stroke:black;" d="M617,-606C576,-596 531,-582 493,-563 428,-530 364,-473 328,-438"/>
<polygon style="fill:black;stroke:black;" points="330.546,-435.596 321,-431 325.596,-440.546 330.546,-435.596"/>
<a xlink:title="Timer a2 expired/\nSend M.R\nReceive M.C.\n(Modify,Reporting Interval=t)\nStart up Timer t">
</a>
<a xlink:title="Timer a2 expired/\nSend M.R\nReceive M.C.\n(Modify,Reporting Interval=t)\nStart up Timer t">
</a>
<text text-anchor="middle" x="580" y="-549" style="font-family:Nimbus Sans L;font-weight:regular;font-size:11.34pt;">Timer a2 expired/</text>
<text text-anchor="middle" x="580" y="-533" style="font-family:Nimbus Sans L;font-weight:regular;font-size:11.34pt;">Send M.R</text>
<text text-anchor="middle" x="580" y="-517" style="font-family:Nimbus Sans L;font-weight:regular;font-size:11.34pt;">Receive M.C.</text>
<text text-anchor="middle" x="580" y="-501" style="font-family:Nimbus Sans L;font-weight:regular;font-size:11.34pt;">(Modify,Reporting Interval=t)</text>
<text text-anchor="middle" x="580" y="-485" style="font-family:Nimbus Sans L;font-weight:regular;font-size:11.34pt;">Start up Timer t</text>
</g>
<!-- UE_Based&#45;&gt;Waiting_MC -->
<g id="edge13" class="edge"><title>UE_Based&#45;&gt;Waiting_MC</title>
<path style="fill:none;stroke:black;" d="M736,-606C726,-570 707,-500 695,-440 679,-364 716,-328 667,-269 654,-254 616,-240 579,-229"/>
<polygon style="fill:black;stroke:black;" points="579.584,-225.521 569,-226 577.573,-232.226 579.584,-225.521"/>
<a xlink:title="UE&#45;Based success/\nStop UE&#45;Based Positioning,\nSend M.R.\n(confidence=68)">
</a>
<a xlink:title="UE&#45;Based success/\nStop UE&#45;Based Positioning,\nSend M.R.\n(confidence=68)">
</a>
<text text-anchor="middle" x="781" y="-426" style="font-family:Nimbus Sans L;font-weight:regular;font-size:11.34pt;">UE&#45;Based success/</text>
<text text-anchor="middle" x="781" y="-410" style="font-family:Nimbus Sans L;font-weight:regular;font-size:11.34pt;">Stop UE&#45;Based Positioning,</text>
<text text-anchor="middle" x="781" y="-394" style="font-family:Nimbus Sans L;font-weight:regular;font-size:11.34pt;">Send M.R.</text>
<text text-anchor="middle" x="781" y="-378" style="font-family:Nimbus Sans L;font-weight:regular;font-size:11.34pt;">(confidence=68)</text>
</g>
<!-- UE_Based&#45;&gt;Waiting_MC -->
<g id="edge15" class="edge"><title>UE_Based&#45;&gt;Waiting_MC</title>
<path style="fill:none;stroke:black;" d="M769,-606C818,-561 913,-458 867,-376 814,-281 690,-239 600,-222"/>
<polygon style="fill:black;stroke:black;" points="600.492,-218.529 590,-220 599.119,-225.393 600.492,-218.529"/>
<a xlink:title="UE&#45;Based fix accuracy too low/\nStop UE&#45;Based Positioning,\nSend M.R.\n(confidence=100)">
</a>
<a xlink:title="UE&#45;Based fix accuracy too low/\nStop UE&#45;Based Positioning,\nSend M.R.\n(confidence=100)">
</a>
<text text-anchor="middle" x="974" y="-426" style="font-family:Nimbus Sans L;font-weight:regular;font-size:11.34pt;">UE&#45;Based fix accuracy too low/</text>
<text text-anchor="middle" x="974" y="-410" style="font-family:Nimbus Sans L;font-weight:regular;font-size:11.34pt;">Stop UE&#45;Based Positioning,</text>
<text text-anchor="middle" x="974" y="-394" style="font-family:Nimbus Sans L;font-weight:regular;font-size:11.34pt;">Send M.R.</text>
<text text-anchor="middle" x="974" y="-378" style="font-family:Nimbus Sans L;font-weight:regular;font-size:11.34pt;">(confidence=100)</text>
</g>
<!-- UE_Assisted&#45;&gt;UE_Assisted -->
<g id="edge17" class="edge"><title>UE_Assisted&#45;&gt;UE_Assisted</title>
<path style="fill:none;stroke:black;" d="M299,-431C249,-484 149,-484 149,-419 149,-359 159,-355 166,-398"/>
<polygon style="fill:black;stroke:black;" points="162.522,-398.398 167,-408 169.488,-397.701 162.522,-398.398"/>
<a xlink:title="Timer t expired/\nSend M.R,\nrestart timer t">
</a>
<a xlink:title="Timer t expired/\nSend M.R,\nrestart timer t">
</a>
<text text-anchor="middle" x="101" y="-418" style="font-family:Nimbus Sans L;font-weight:regular;font-size:11.34pt;">Timer t expired/</text>
<text text-anchor="middle" x="101" y="-402" style="font-family:Nimbus Sans L;font-weight:regular;font-size:11.34pt;">Send M.R,</text>
<text text-anchor="middle" x="101" y="-386" style="font-family:Nimbus Sans L;font-weight:regular;font-size:11.34pt;">restart timer t</text>
</g>
<!-- UE_Assisted&#45;&gt;Waiting_MC -->
<g id="edge23" class="edge"><title>UE_Assisted&#45;&gt;Waiting_MC</title>
<path style="fill:none;stroke:black;" d="M201,-385C152,-371 100,-353 86,-333 69,-309 67,-290 86,-269 105,-246 273,-227 388,-217"/>
<polygon style="fill:black;stroke:black;" points="388.398,-220.478 398,-216 387.701,-213.512 388.398,-220.478"/>
<a xlink:title="UE&#45;Based fix accuracy too low/\nStop UE&#45;Based Positioning,\nSend M.R.\n(confidence=100)">
</a>
<a xlink:title="UE&#45;Based fix accuracy too low/\nStop UE&#45;Based Positioning,\nSend M.R.\n(confidence=100)">
</a>
<text text-anchor="middle" x="182" y="-319" style="font-family:Nimbus Sans L;font-weight:regular;font-size:11.34pt;">UE&#45;Based fix accuracy too low/</text>
<text text-anchor="middle" x="182" y="-303" style="font-family:Nimbus Sans L;font-weight:regular;font-size:11.34pt;">Stop UE&#45;Based Positioning,</text>
<text text-anchor="middle" x="182" y="-287" style="font-family:Nimbus Sans L;font-weight:regular;font-size:11.34pt;">Send M.R.</text>
<text text-anchor="middle" x="182" y="-271" style="font-family:Nimbus Sans L;font-weight:regular;font-size:11.34pt;">(confidence=100)</text>
</g>
<!-- UE_Assisted&#45;&gt;Waiting_MC -->
<g id="edge19" class="edge"><title>UE_Assisted&#45;&gt;Waiting_MC</title>
<path style="fill:none;stroke:black;" d="M292,-385C283,-355 275,-302 300,-269 311,-252 351,-239 391,-228"/>
<polygon style="fill:black;stroke:black;" points="391.881,-231.393 401,-226 390.508,-224.529 391.881,-231.393"/>
<a xlink:title="timer a4 expired/\nStop UE&#45;Based Positioning,\nSend M.R.\n(confidence=100)">
</a>
<a xlink:title="timer a4 expired/\nStop UE&#45;Based Positioning,\nSend M.R.\n(confidence=100)">
</a>
<text text-anchor="middle" x="386" y="-319" style="font-family:Nimbus Sans L;font-weight:regular;font-size:11.34pt;">timer a4 expired/</text>
<text text-anchor="middle" x="386" y="-303" style="font-family:Nimbus Sans L;font-weight:regular;font-size:11.34pt;">Stop UE&#45;Based Positioning,</text>
<text text-anchor="middle" x="386" y="-287" style="font-family:Nimbus Sans L;font-weight:regular;font-size:11.34pt;">Send M.R.</text>
<text text-anchor="middle" x="386" y="-271" style="font-family:Nimbus Sans L;font-weight:regular;font-size:11.34pt;">(confidence=100)</text>
</g>
<!-- UE_Assisted&#45;&gt;Waiting_MC -->
<g id="edge21" class="edge"><title>UE_Assisted&#45;&gt;Waiting_MC</title>
<path style="fill:none;stroke:black;" d="M395,-385C424,-374 453,-357 472,-333 493,-305 496,-263 496,-236"/>
<polygon style="fill:black;stroke:black;" points="499.5,-236 496,-226 492.5,-236 499.5,-236"/>
<a xlink:title="UE&#45;Based success/\nStop UE&#45;Based Positioning,\nSend M.R.\n(confidence=68)">
</a>
<a xlink:title="UE&#45;Based success/\nStop UE&#45;Based Positioning,\nSend M.R.\n(confidence=68)">
</a>
<text text-anchor="middle" x="579" y="-319" style="font-family:Nimbus Sans L;font-weight:regular;font-size:11.34pt;">UE&#45;Based success/</text>
<text text-anchor="middle" x="579" y="-303" style="font-family:Nimbus Sans L;font-weight:regular;font-size:11.34pt;">Stop UE&#45;Based Positioning,</text>
<text text-anchor="middle" x="579" y="-287" style="font-family:Nimbus Sans L;font-weight:regular;font-size:11.34pt;">Send M.R.</text>
<text text-anchor="middle" x="579" y="-271" style="font-family:Nimbus Sans L;font-weight:regular;font-size:11.34pt;">(confidence=68)</text>
</g>
<!-- End -->
<g id="node8" class="node"><title>End</title>
<polygon style="fill:greenyellow;stroke:greenyellow;" points="303,-72 195,-72 183,-60 183,-48 195,-36 303,-36 315,-48 315,-60 303,-72"/>
<path style="fill:greenyellow;stroke:greenyellow;" d="M195,-72C189,-72 183,-66 183,-60"/>
<path style="fill:greenyellow;stroke:greenyellow;" d="M183,-48C183,-42 189,-36 195,-36"/>
<path style="fill:greenyellow;stroke:greenyellow;" d="M303,-36C309,-36 315,-42 315,-48"/>
<path style="fill:greenyellow;stroke:greenyellow;" d="M315,-60C315,-66 309,-72 303,-72"/>
<polyline style="fill:none;stroke:greenyellow;" points="303,-72 195,-72 "/>
<path style="fill:none;stroke:greenyellow;" d="M195,-72C189,-72 183,-66 183,-60"/>
<polyline style="fill:none;stroke:greenyellow;" points="183,-60 183,-48 "/>
<path style="fill:none;stroke:greenyellow;" d="M183,-48C183,-42 189,-36 195,-36"/>
<polyline style="fill:none;stroke:greenyellow;" points="195,-36 303,-36 "/>
<path style="fill:none;stroke:greenyellow;" d="M303,-36C309,-36 315,-42 315,-48"/>
<polyline style="fill:none;stroke:greenyellow;" points="315,-48 315,-60 "/>
<path style="fill:none;stroke:greenyellow;" d="M315,-60C315,-66 309,-72 303,-72"/>
<text text-anchor="middle" x="249" y="-48" style="font-family:Nimbus Roman No9 L;font-weight:medium;font-size:12.96pt;">Positioning Ends</text>
</g>
<!-- UE_Assisted&#45;&gt;End -->
<g id="edge25" class="edge"><title>UE_Assisted&#45;&gt;End</title>
<path style="fill:none;stroke:black;" d="M188,-385C136,-372 82,-354 67,-333 0,-241 142,-127 212,-78"/>
<polygon style="fill:black;stroke:black;" points="214.621,-80.4592 221,-72 210.738,-74.6349 214.621,-80.4592"/>
<a xlink:title="Receive M.C. Release/\nStop UE&#45;Based Positioning">
</a>
<a xlink:title="Receive M.C. Release/\nStop UE&#45;Based Positioning">
</a>
<text text-anchor="middle" x="167" y="-210" style="font-family:Nimbus Sans L;font-weight:regular;font-size:11.34pt;">Receive M.C. Release/</text>
<text text-anchor="middle" x="167" y="-194" style="font-family:Nimbus Sans L;font-weight:regular;font-size:11.34pt;">Stop UE&#45;Based Positioning</text>
</g>
<!-- Waiting_MC&#45;&gt;End -->
<g id="edge27" class="edge"><title>Waiting_MC&#45;&gt;End</title>
<path style="fill:none;stroke:red;" d="M495,-190C495,-169 491,-135 472,-115 451,-94 382,-77 325,-66"/>
<polygon style="fill:red;stroke:red;" points="325.492,-62.5292 315,-64 324.119,-69.3933 325.492,-62.5292"/>
<a xlink:title="Receive M.C. Release">
</a>
<a xlink:title="Receive M.C. Release">
</a>
<text text-anchor="middle" x="568" y="-125" style="font-family:Nimbus Sans L;font-weight:regular;font-size:12.96pt;fill:red;">Receive M.C. Release</text>
</g>
<!-- Waiting_MC&#45;&gt;End -->
<g id="edge29" class="edge"><title>Waiting_MC&#45;&gt;End</title>
<path style="fill:none;stroke:black;" d="M398,-196C336,-187 265,-171 246,-147 232,-128 234,-102 239,-82"/>
<polygon style="fill:black;stroke:black;" points="242.479,-82.584 242,-72 235.774,-80.5725 242.479,-82.584"/>
<a xlink:title="M.C. Wait timer expired/nSend M.R.\n(Undefined Error)">
</a>
<a xlink:title="M.C. Wait timer expired/nSend M.R.\n(Undefined Error)">
</a>
<text text-anchor="middle" x="357" y="-133" style="font-family:Nimbus Sans L;font-weight:regular;font-size:11.34pt;">M.C. Wait timer expired/nSend M.R.</text>
<text text-anchor="middle" x="357" y="-117" style="font-family:Nimbus Sans L;font-weight:regular;font-size:11.34pt;">(Undefined Error)</text>
</g>
</g>
</svg>
