<?xml version="1.0" encoding="UTF-8" standalone="no"?>
<!DOCTYPE svg PUBLIC "-//W3C//DTD SVG 1.0//EN"
 "http://www.w3.org/TR/2001/REC-SVG-20010904/DTD/svg10.dtd" [
 <!ATTLIST svg xmlns:xlink CDATA #FIXED "http://www.w3.org/1999/xlink">
]>
<!-- Generated by Graphviz version 2.12 (Mon Dec  4 22:04:37 UTC 2006)
     For user: Bill Gates -->
<!-- Title: finite_state_machine Pages: 1 -->
<svg width="8.00in" height="6.08in"
 xmlns="http://www.w3.org/2000/svg" xmlns:xlink="http://www.w3.org/1999/xlink">
<g id="graph0" class="graph" transform="scale(0.70073 0.70073) rotate(0) translate(4 830)">
<title>finite_state_machine</title>
<polygon style="fill:white;stroke:white;" points="-4,4 -4,-830 1092,-830 1092,4 -4,4"/>
<text text-anchor="middle" x="544" y="-8" style="font-family:Nimbus Roman No9 L;font-weight:medium;font-size:19.44pt;">Hybrid &#45; UE&#45;Based MT&#45;LR</text>
<!-- Idle -->
<g id="node2" class="node"><title>Idle</title>
<polygon style="fill:greenyellow;stroke:greenyellow;" points="42,-788 12,-788 2.13163e-014,-776 1.42109e-014,-764 12,-752 42,-752 54,-764 54,-776 42,-788"/>
<path style="fill:greenyellow;stroke:greenyellow;" d="M12,-788C6,-788 2.4869e-014,-782 2.13163e-014,-776"/>
<path style="fill:greenyellow;stroke:greenyellow;" d="M1.42109e-014,-764C1.06581e-014,-758 6,-752 12,-752"/>
<path style="fill:greenyellow;stroke:greenyellow;" d="M42,-752C48,-752 54,-758 54,-764"/>
<path style="fill:greenyellow;stroke:greenyellow;" d="M54,-776C54,-782 48,-788 42,-788"/>
<polyline style="fill:none;stroke:greenyellow;" points="42,-788 12,-788 "/>
<path style="fill:none;stroke:greenyellow;" d="M12,-788C6,-788 2.4869e-014,-782 2.13163e-014,-776"/>
<polyline style="fill:none;stroke:greenyellow;" points="2.13163e-014,-776 1.42109e-014,-764 "/>
<path style="fill:none;stroke:greenyellow;" d="M1.42109e-014,-764C1.06581e-014,-758 6,-752 12,-752"/>
<polyline style="fill:none;stroke:greenyellow;" points="12,-752 42,-752 "/>
<path style="fill:none;stroke:greenyellow;" d="M42,-752C48,-752 54,-758 54,-764"/>
<polyline style="fill:none;stroke:greenyellow;" points="54,-764 54,-776 "/>
<path style="fill:none;stroke:greenyellow;" d="M54,-776C54,-782 48,-788 42,-788"/>
<text text-anchor="middle" x="27" y="-764" style="font-family:Nimbus Roman No9 L;font-weight:medium;font-size:12.96pt;">Idle</text>
</g>
<!-- Priv_Request -->
<g id="node3" class="node"><title>Priv_Request</title>
<polygon style="fill:greenyellow;stroke:greenyellow;" points="428,-788 240,-788 228,-776 228,-764 240,-752 428,-752 440,-764 440,-776 428,-788"/>
<path style="fill:greenyellow;stroke:greenyellow;" d="M240,-788C234,-788 228,-782 228,-776"/>
<path style="fill:greenyellow;stroke:greenyellow;" d="M228,-764C228,-758 234,-752 240,-752"/>
<path style="fill:greenyellow;stroke:greenyellow;" d="M428,-752C434,-752 440,-758 440,-764"/>
<path style="fill:greenyellow;stroke:greenyellow;" d="M440,-776C440,-782 434,-788 428,-788"/>
<polyline style="fill:none;stroke:greenyellow;" points="428,-788 240,-788 "/>
<path style="fill:none;stroke:greenyellow;" d="M240,-788C234,-788 228,-782 228,-776"/>
<polyline style="fill:none;stroke:greenyellow;" points="228,-776 228,-764 "/>
<path style="fill:none;stroke:greenyellow;" d="M228,-764C228,-758 234,-752 240,-752"/>
<polyline style="fill:none;stroke:greenyellow;" points="240,-752 428,-752 "/>
<path style="fill:none;stroke:greenyellow;" d="M428,-752C434,-752 440,-758 440,-764"/>
<polyline style="fill:none;stroke:greenyellow;" points="440,-764 440,-776 "/>
<path style="fill:none;stroke:greenyellow;" d="M440,-776C440,-782 434,-788 428,-788"/>
<text text-anchor="middle" x="334" y="-764" style="font-family:Nimbus Roman No9 L;font-weight:medium;font-size:12.96pt;">Performing Privacy Request</text>
</g>
<!-- Idle&#45;&gt;Priv_Request -->
<g id="edge3" class="edge"><title>Idle&#45;&gt;Priv_Request</title>
<path style="fill:none;stroke:red;" d="M54,-770C91,-770 158,-770 217,-770"/>
<polygon style="fill:red;stroke:red;" points="217,-773.5 227,-770 217,-766.5 217,-773.5"/>
<a xlink:title="NotifyStartLcsMT&#45;LR/\nStart Privacy Request">
</a>
<a xlink:title="NotifyStartLcsMT&#45;LR/\nStart Privacy Request">
</a>
<text text-anchor="middle" x="141" y="-792" style="font-family:Nimbus Sans L;font-weight:regular;font-size:12.96pt;fill:red;">NotifyStartLcsMT&#45;LR/</text>
<text text-anchor="middle" x="141" y="-773" style="font-family:Nimbus Sans L;font-weight:regular;font-size:12.96pt;fill:red;">Start Privacy Request</text>
</g>
<!-- Waiting_MCStartup -->
<g id="node4" class="node"><title>Waiting_MCStartup</title>
<polygon style="fill:greenyellow;stroke:greenyellow;" points="780,-788 612,-788 600,-776 600,-764 612,-752 780,-752 792,-764 792,-776 780,-788"/>
<path style="fill:greenyellow;stroke:greenyellow;" d="M612,-788C606,-788 600,-782 600,-776"/>
<path style="fill:greenyellow;stroke:greenyellow;" d="M600,-764C600,-758 606,-752 612,-752"/>
<path style="fill:greenyellow;stroke:greenyellow;" d="M780,-752C786,-752 792,-758 792,-764"/>
<path style="fill:greenyellow;stroke:greenyellow;" d="M792,-776C792,-782 786,-788 780,-788"/>
<polyline style="fill:none;stroke:greenyellow;" points="780,-788 612,-788 "/>
<path style="fill:none;stroke:greenyellow;" d="M612,-788C606,-788 600,-782 600,-776"/>
<polyline style="fill:none;stroke:greenyellow;" points="600,-776 600,-764 "/>
<path style="fill:none;stroke:greenyellow;" d="M600,-764C600,-758 606,-752 612,-752"/>
<polyline style="fill:none;stroke:greenyellow;" points="612,-752 780,-752 "/>
<path style="fill:none;stroke:greenyellow;" d="M780,-752C786,-752 792,-758 792,-764"/>
<polyline style="fill:none;stroke:greenyellow;" points="792,-764 792,-776 "/>
<path style="fill:none;stroke:greenyellow;" d="M792,-776C792,-782 786,-788 780,-788"/>
<text text-anchor="middle" x="696" y="-764" style="font-family:Nimbus Roman No9 L;font-weight:medium;font-size:12.96pt;">Waiting for M.C. Startup</text>
</g>
<!-- Priv_Request&#45;&gt;Waiting_MCStartup -->
<g id="edge5" class="edge"><title>Priv_Request&#45;&gt;Waiting_MCStartup</title>
<path style="fill:none;stroke:red;" d="M441,-770C488,-770 543,-770 590,-770"/>
<polygon style="fill:red;stroke:red;" points="590,-773.5 600,-770 590,-766.5 590,-773.5"/>
<a xlink:title="Request Accepted/\nSend Release\n(Request Accepted)">
</a>
<a xlink:title="Request Accepted/\nSend Release\n(Request Accepted)">
</a>
<text text-anchor="middle" x="520" y="-811" style="font-family:Nimbus Sans L;font-weight:regular;font-size:12.96pt;fill:red;">Request Accepted/</text>
<text text-anchor="middle" x="520" y="-792" style="font-family:Nimbus Sans L;font-weight:regular;font-size:12.96pt;fill:red;">Send Release</text>
<text text-anchor="middle" x="520" y="-773" style="font-family:Nimbus Sans L;font-weight:regular;font-size:12.96pt;fill:red;">(Request Accepted)</text>
</g>
<!-- UE_Based -->
<g id="node5" class="node"><title>UE_Based</title>
<polygon style="fill:greenyellow;stroke:greenyellow;" points="809,-622 583,-622 571,-610 571,-588 583,-576 809,-576 821,-588 821,-610 809,-622"/>
<path style="fill:greenyellow;stroke:greenyellow;" d="M583,-622C577,-622 571,-616 571,-610"/>
<path style="fill:greenyellow;stroke:greenyellow;" d="M571,-588C571,-582 577,-576 583,-576"/>
<path style="fill:greenyellow;stroke:greenyellow;" d="M809,-576C815,-576 821,-582 821,-588"/>
<path style="fill:greenyellow;stroke:greenyellow;" d="M821,-610C821,-616 815,-622 809,-622"/>
<polyline style="fill:none;stroke:greenyellow;" points="809,-622 583,-622 "/>
<path style="fill:none;stroke:greenyellow;" d="M583,-622C577,-622 571,-616 571,-610"/>
<polyline style="fill:none;stroke:greenyellow;" points="571,-610 571,-588 "/>
<path style="fill:none;stroke:greenyellow;" d="M571,-588C571,-582 577,-576 583,-576"/>
<polyline style="fill:none;stroke:greenyellow;" points="583,-576 809,-576 "/>
<path style="fill:none;stroke:greenyellow;" d="M809,-576C815,-576 821,-582 821,-588"/>
<polyline style="fill:none;stroke:greenyellow;" points="821,-588 821,-610 "/>
<path style="fill:none;stroke:greenyellow;" d="M821,-610C821,-616 815,-622 809,-622"/>
<text text-anchor="middle" x="696" y="-602" style="font-family:Nimbus Roman No9 L;font-weight:medium;font-size:12.96pt;">Performing UE&#45;Based positioning</text>
<text text-anchor="middle" x="696" y="-583" style="font-family:Nimbus Roman No9 L;font-weight:medium;font-size:12.96pt;">under Hybrid Positioning</text>
</g>
<!-- Waiting_MCStartup&#45;&gt;UE_Based -->
<g id="edge7" class="edge"><title>Waiting_MCStartup&#45;&gt;UE_Based</title>
<path style="fill:none;stroke:red;" d="M696,-752C696,-724 696,-668 696,-632"/>
<polygon style="fill:red;stroke:red;" points="699.5,-632 696,-622 692.5,-632 699.5,-632"/>
<a xlink:title="Receive M.C./\nStart UE Based Positioning\nStart a2,a4">
</a>
<a xlink:title="Receive M.C./\nStart UE Based Positioning\nStart a2,a4">
</a>
<text text-anchor="middle" x="793" y="-700" style="font-family:Nimbus Sans L;font-weight:regular;font-size:12.96pt;fill:red;">Receive M.C./</text>
<text text-anchor="middle" x="793" y="-681" style="font-family:Nimbus Sans L;font-weight:regular;font-size:12.96pt;fill:red;">Start UE Based Positioning</text>
<text text-anchor="middle" x="793" y="-662" style="font-family:Nimbus Sans L;font-weight:regular;font-size:12.96pt;fill:red;">Start a2,a4</text>
</g>
<!-- UE_Assisted -->
<g id="node6" class="node"><title>UE_Assisted</title>
<polygon style="fill:greenyellow;stroke:greenyellow;" points="434,-409 194,-409 182,-397 182,-375 194,-363 434,-363 446,-375 446,-397 434,-409"/>
<path style="fill:greenyellow;stroke:greenyellow;" d="M194,-409C188,-409 182,-403 182,-397"/>
<path style="fill:greenyellow;stroke:greenyellow;" d="M182,-375C182,-369 188,-363 194,-363"/>
<path style="fill:greenyellow;stroke:greenyellow;" d="M434,-363C440,-363 446,-369 446,-375"/>
<path style="fill:greenyellow;stroke:greenyellow;" d="M446,-397C446,-403 440,-409 434,-409"/>
<polyline style="fill:none;stroke:greenyellow;" points="434,-409 194,-409 "/>
<path style="fill:none;stroke:greenyellow;" d="M194,-409C188,-409 182,-403 182,-397"/>
<polyline style="fill:none;stroke:greenyellow;" points="182,-397 182,-375 "/>
<path style="fill:none;stroke:greenyellow;" d="M182,-375C182,-369 188,-363 194,-363"/>
<polyline style="fill:none;stroke:greenyellow;" points="194,-363 434,-363 "/>
<path style="fill:none;stroke:greenyellow;" d="M434,-363C440,-363 446,-369 446,-375"/>
<polyline style="fill:none;stroke:greenyellow;" points="446,-375 446,-397 "/>
<path style="fill:none;stroke:greenyellow;" d="M446,-397C446,-403 440,-409 434,-409"/>
<text text-anchor="middle" x="314" y="-389" style="font-family:Nimbus Roman No9 L;font-weight:medium;font-size:12.96pt;">Performing UE&#45;Assisted positioning</text>
<text text-anchor="middle" x="314" y="-370" style="font-family:Nimbus Roman No9 L;font-weight:medium;font-size:12.96pt;">(UE&#45;Based positioning continue)</text>
</g>
<!-- UE_Based&#45;&gt;UE_Assisted -->
<g id="edge9" class="edge"><title>UE_Based&#45;&gt;UE_Assisted</title>
<path style="fill:none;stroke:black;" d="M599,-576C569,-567 536,-555 508,-540 444,-506 381,-450 344,-416"/>
<polygon style="fill:black;stroke:black;" points="346.546,-413.596 337,-409 341.596,-418.546 346.546,-413.596"/>
<a xlink:title="Timer a2 expired/\nSend M.R\nReceive M.C.\n(Modify,Reporting Interval=t)\nStart up Timer t">
</a>
<a xlink:title="Timer a2 expired/\nSend M.R\nReceive M.C.\n(Modify,Reporting Interval=t)\nStart up Timer t">
</a>
<text text-anchor="middle" x="598" y="-526" style="font-family:Nimbus Sans L;font-weight:regular;font-size:11.34pt;">Timer a2 expired/</text>
<text text-anchor="middle" x="598" y="-510" style="font-family:Nimbus Sans L;font-weight:regular;font-size:11.34pt;">Send M.R</text>
<text text-anchor="middle" x="598" y="-494" style="font-family:Nimbus Sans L;font-weight:regular;font-size:11.34pt;">Receive M.C.</text>
<text text-anchor="middle" x="598" y="-478" style="font-family:Nimbus Sans L;font-weight:regular;font-size:11.34pt;">(Modify,Reporting Interval=t)</text>
<text text-anchor="middle" x="598" y="-462" style="font-family:Nimbus Sans L;font-weight:regular;font-size:11.34pt;">Start up Timer t</text>
</g>
<!-- Waiting_MC -->
<g id="node7" class="node"><title>Waiting_MC</title>
<polygon style="fill:greenyellow;stroke:greenyellow;" points="522,-212 354,-212 342,-200 342,-188 354,-176 522,-176 534,-188 534,-200 522,-212"/>
<path style="fill:greenyellow;stroke:greenyellow;" d="M354,-212C348,-212 342,-206 342,-200"/>
<path style="fill:greenyellow;stroke:greenyellow;" d="M342,-188C342,-182 348,-176 354,-176"/>
<path style="fill:greenyellow;stroke:greenyellow;" d="M522,-176C528,-176 534,-182 534,-188"/>
<path style="fill:greenyellow;stroke:greenyellow;" d="M534,-200C534,-206 528,-212 522,-212"/>
<polyline style="fill:none;stroke:greenyellow;" points="522,-212 354,-212 "/>
<path style="fill:none;stroke:greenyellow;" d="M354,-212C348,-212 342,-206 342,-200"/>
<polyline style="fill:none;stroke:greenyellow;" points="342,-200 342,-188 "/>
<path style="fill:none;stroke:greenyellow;" d="M342,-188C342,-182 348,-176 354,-176"/>
<polyline style="fill:none;stroke:greenyellow;" points="354,-176 522,-176 "/>
<path style="fill:none;stroke:greenyellow;" d="M522,-176C528,-176 534,-182 534,-188"/>
<polyline style="fill:none;stroke:greenyellow;" points="534,-188 534,-200 "/>
<path style="fill:none;stroke:greenyellow;" d="M534,-200C534,-206 528,-212 522,-212"/>
<text text-anchor="middle" x="438" y="-188" style="font-family:Nimbus Roman No9 L;font-weight:medium;font-size:12.96pt;">Waiting for M.C. Release</text>
</g>
<!-- UE_Based&#45;&gt;Waiting_MC -->
<g id="edge11" class="edge"><title>UE_Based&#45;&gt;Waiting_MC</title>
<path style="fill:none;stroke:red;" d="M698,-576C702,-506 712,-297 671,-248 654,-228 597,-215 544,-206"/>
<polygon style="fill:red;stroke:red;" points="544.299,-202.512 534,-205 543.602,-209.478 544.299,-202.512"/>
<a xlink:title="UE&#45;Based success/\nStop UE&#45;Based Positioning,\nSend M.R.\n(confidence=68)">
</a>
<a xlink:title="UE&#45;Based success/\nStop UE&#45;Based Positioning,\nSend M.R.\n(confidence=68)">
</a>
<text text-anchor="middle" x="800" y="-408" style="font-family:Nimbus Sans L;font-weight:regular;font-size:12.96pt;fill:red;">UE&#45;Based success/</text>
<text text-anchor="middle" x="800" y="-389" style="font-family:Nimbus Sans L;font-weight:regular;font-size:12.96pt;fill:red;">Stop UE&#45;Based Positioning,</text>
<text text-anchor="middle" x="800" y="-370" style="font-family:Nimbus Sans L;font-weight:regular;font-size:12.96pt;fill:red;">Send M.R.</text>
<text text-anchor="middle" x="800" y="-351" style="font-family:Nimbus Sans L;font-weight:regular;font-size:12.96pt;fill:red;">(confidence=68)</text>
</g>
<!-- UE_Based&#45;&gt;Waiting_MC -->
<g id="edge13" class="edge"><title>UE_Based&#45;&gt;Waiting_MC</title>
<path style="fill:none;stroke:black;" d="M741,-576C818,-533 961,-439 904,-348 849,-260 792,-281 695,-248 646,-231 591,-219 544,-210"/>
<polygon style="fill:black;stroke:black;" points="544.492,-206.529 534,-208 543.119,-213.393 544.492,-206.529"/>
<a xlink:title="UE&#45;Based fix (Futile)/\nStop UE&#45;Based Positioning,\nSend M.R.(RefPos)\n(confidence=100)">
</a>
<a xlink:title="UE&#45;Based fix (Futile)/\nStop UE&#45;Based Positioning,\nSend M.R.(RefPos)\n(confidence=100)">
</a>
<text text-anchor="middle" x="1002" y="-404" style="font-family:Nimbus Sans L;font-weight:regular;font-size:11.34pt;">UE&#45;Based fix (Futile)/</text>
<text text-anchor="middle" x="1002" y="-388" style="font-family:Nimbus Sans L;font-weight:regular;font-size:11.34pt;">Stop UE&#45;Based Positioning,</text>
<text text-anchor="middle" x="1002" y="-372" style="font-family:Nimbus Sans L;font-weight:regular;font-size:11.34pt;">Send M.R.(RefPos)</text>
<text text-anchor="middle" x="1002" y="-356" style="font-family:Nimbus Sans L;font-weight:regular;font-size:11.34pt;">(confidence=100)</text>
</g>
<!-- UE_Assisted&#45;&gt;UE_Assisted -->
<g id="edge15" class="edge"><title>UE_Assisted&#45;&gt;UE_Assisted</title>
<path style="fill:none;stroke:black;" d="M314,-409C264,-462 164,-462 164,-397 164,-337 174,-333 181,-376"/>
<polygon style="fill:black;stroke:black;" points="177.522,-376.398 182,-386 184.488,-375.701 177.522,-376.398"/>
<a xlink:title="Timer t expired/\nSend M.R">
</a>
<a xlink:title="Timer t expired/\nSend M.R">
</a>
<text text-anchor="middle" x="116" y="-388" style="font-family:Nimbus Sans L;font-weight:regular;font-size:11.34pt;">Timer t expired/</text>
<text text-anchor="middle" x="116" y="-372" style="font-family:Nimbus Sans L;font-weight:regular;font-size:11.34pt;">Send M.R</text>
</g>
<!-- UE_Assisted&#45;&gt;Waiting_MC -->
<g id="edge17" class="edge"><title>UE_Assisted&#45;&gt;Waiting_MC</title>
<path style="fill:none;stroke:black;" d="M307,-363C300,-333 292,-282 315,-248 324,-234 337,-224 352,-216"/>
<polygon style="fill:black;stroke:black;" points="353.283,-219.26 361,-212 350.44,-212.863 353.283,-219.26"/>
<a xlink:title="timer a4 expired/\nStop UE&#45;Based Positioning,\nSend M.R.\n(confidence=100)">
</a>
<a xlink:title="timer a4 expired/\nStop UE&#45;Based Positioning,\nSend M.R.\n(confidence=100)">
</a>
<text text-anchor="middle" x="401" y="-298" style="font-family:Nimbus Sans L;font-weight:regular;font-size:11.34pt;">timer a4 expired/</text>
<text text-anchor="middle" x="401" y="-282" style="font-family:Nimbus Sans L;font-weight:regular;font-size:11.34pt;">Stop UE&#45;Based Positioning,</text>
<text text-anchor="middle" x="401" y="-266" style="font-family:Nimbus Sans L;font-weight:regular;font-size:11.34pt;">Send M.R.</text>
<text text-anchor="middle" x="401" y="-250" style="font-family:Nimbus Sans L;font-weight:regular;font-size:11.34pt;">(confidence=100)</text>
</g>
<!-- UE_Assisted&#45;&gt;Waiting_MC -->
<g id="edge19" class="edge"><title>UE_Assisted&#45;&gt;Waiting_MC</title>
<path style="fill:none;stroke:black;" d="M419,-363C445,-352 471,-336 487,-312 502,-288 497,-274 487,-248 483,-237 476,-228 468,-219"/>
<polygon style="fill:black;stroke:black;" points="470.546,-216.596 461,-212 465.596,-221.546 470.546,-216.596"/>
<a xlink:title="UE&#45;Based success/\nStop UE&#45;Based Positioning,\nSend M.R.\n(confidence=68)">
</a>
<a xlink:title="UE&#45;Based success/\nStop UE&#45;Based Positioning,\nSend M.R.\n(confidence=68)">
</a>
<text text-anchor="middle" x="581" y="-298" style="font-family:Nimbus Sans L;font-weight:regular;font-size:11.34pt;">UE&#45;Based success/</text>
<text text-anchor="middle" x="581" y="-282" style="font-family:Nimbus Sans L;font-weight:regular;font-size:11.34pt;">Stop UE&#45;Based Positioning,</text>
<text text-anchor="middle" x="581" y="-266" style="font-family:Nimbus Sans L;font-weight:regular;font-size:11.34pt;">Send M.R.</text>
<text text-anchor="middle" x="581" y="-250" style="font-family:Nimbus Sans L;font-weight:regular;font-size:11.34pt;">(confidence=68)</text>
</g>
<!-- UE_Assisted&#45;&gt;Waiting_MC -->
<g id="edge21" class="edge"><title>UE_Assisted&#45;&gt;Waiting_MC</title>
<path style="fill:none;stroke:black;" d="M228,-363C183,-349 135,-331 122,-312 105,-288 103,-269 122,-248 135,-232 245,-215 332,-205"/>
<polygon style="fill:black;stroke:black;" points="332.398,-208.478 342,-204 331.701,-201.512 332.398,-208.478"/>
<a xlink:title="UE&#45;Based fix (Futile)/\nStop UE&#45;Based Positioning,\nSend M.R.(RefPos)\n(confidence=100)">
</a>
<a xlink:title="UE&#45;Based fix (Futile)/\nStop UE&#45;Based Positioning,\nSend M.R.(RefPos)\n(confidence=100)">
</a>
<text text-anchor="middle" x="208" y="-298" style="font-family:Nimbus Sans L;font-weight:regular;font-size:11.34pt;">UE&#45;Based fix (Futile)/</text>
<text text-anchor="middle" x="208" y="-282" style="font-family:Nimbus Sans L;font-weight:regular;font-size:11.34pt;">Stop UE&#45;Based Positioning,</text>
<text text-anchor="middle" x="208" y="-266" style="font-family:Nimbus Sans L;font-weight:regular;font-size:11.34pt;">Send M.R.(RefPos)</text>
<text text-anchor="middle" x="208" y="-250" style="font-family:Nimbus Sans L;font-weight:regular;font-size:11.34pt;">(confidence=100)</text>
</g>
<!-- End -->
<g id="node8" class="node"><title>End</title>
<polygon style="fill:greenyellow;stroke:greenyellow;" points="247,-72 139,-72 127,-60 127,-48 139,-36 247,-36 259,-48 259,-60 247,-72"/>
<path style="fill:greenyellow;stroke:greenyellow;" d="M139,-72C133,-72 127,-66 127,-60"/>
<path style="fill:greenyellow;stroke:greenyellow;" d="M127,-48C127,-42 133,-36 139,-36"/>
<path style="fill:greenyellow;stroke:greenyellow;" d="M247,-36C253,-36 259,-42 259,-48"/>
<path style="fill:greenyellow;stroke:greenyellow;" d="M259,-60C259,-66 253,-72 247,-72"/>
<polyline style="fill:none;stroke:greenyellow;" points="247,-72 139,-72 "/>
<path style="fill:none;stroke:greenyellow;" d="M139,-72C133,-72 127,-66 127,-60"/>
<polyline style="fill:none;stroke:greenyellow;" points="127,-60 127,-48 "/>
<path style="fill:none;stroke:greenyellow;" d="M127,-48C127,-42 133,-36 139,-36"/>
<polyline style="fill:none;stroke:greenyellow;" points="139,-36 247,-36 "/>
<path style="fill:none;stroke:greenyellow;" d="M247,-36C253,-36 259,-42 259,-48"/>
<polyline style="fill:none;stroke:greenyellow;" points="259,-48 259,-60 "/>
<path style="fill:none;stroke:greenyellow;" d="M259,-60C259,-66 253,-72 247,-72"/>
<text text-anchor="middle" x="193" y="-48" style="font-family:Nimbus Roman No9 L;font-weight:medium;font-size:12.96pt;">Positioning Ends</text>
</g>
<!-- UE_Assisted&#45;&gt;End -->
<g id="edge23" class="edge"><title>UE_Assisted&#45;&gt;End</title>
<path style="fill:none;stroke:black;" d="M215,-363C167,-350 117,-331 103,-312 50,-237 128,-128 169,-80"/>
<polygon style="fill:black;stroke:black;" points="172.049,-81.8306 176,-72 166.781,-77.221 172.049,-81.8306"/>
<a xlink:title="Receive M.C. Release/\nStop UE&#45;Based Positioning">
</a>
<a xlink:title="Receive M.C. Release/\nStop UE&#45;Based Positioning">
</a>
<text text-anchor="middle" x="186" y="-196" style="font-family:Nimbus Sans L;font-weight:regular;font-size:11.34pt;">Receive M.C. Release/</text>
<text text-anchor="middle" x="186" y="-180" style="font-family:Nimbus Sans L;font-weight:regular;font-size:11.34pt;">Stop UE&#45;Based Positioning</text>
</g>
<!-- Waiting_MC&#45;&gt;End -->
<g id="edge25" class="edge"><title>Waiting_MC&#45;&gt;End</title>
<path style="fill:none;stroke:red;" d="M438,-176C438,-156 434,-125 416,-108 395,-87 325,-73 269,-64"/>
<polygon style="fill:red;stroke:red;" points="269.492,-60.5292 259,-62 268.119,-67.3933 269.492,-60.5292"/>
<a xlink:title="Receive M.C. Release">
</a>
<a xlink:title="Receive M.C. Release">
</a>
<text text-anchor="middle" x="512" y="-118" style="font-family:Nimbus Sans L;font-weight:regular;font-size:12.96pt;fill:red;">Receive M.C. Release</text>
</g>
<!-- Waiting_MC&#45;&gt;End -->
<g id="edge27" class="edge"><title>Waiting_MC&#45;&gt;End</title>
<path style="fill:none;stroke:black;" d="M342,-185C280,-177 209,-163 190,-140 177,-124 179,-100 183,-82"/>
<polygon style="fill:black;stroke:black;" points="186.479,-82.584 186,-72 179.774,-80.5725 186.479,-82.584"/>
<a xlink:title="M.C. Wait timer expired/nSend M.R.\n(Undefined Error)">
</a>
<a xlink:title="M.C. Wait timer expired/nSend M.R.\n(Undefined Error)">
</a>
<text text-anchor="middle" x="301" y="-126" style="font-family:Nimbus Sans L;font-weight:regular;font-size:11.34pt;">M.C. Wait timer expired/nSend M.R.</text>
<text text-anchor="middle" x="301" y="-110" style="font-family:Nimbus Sans L;font-weight:regular;font-size:11.34pt;">(Undefined Error)</text>
</g>
</g>
</svg>
