<?xml version="1.0" encoding="UTF-8" standalone="no"?>
<!DOCTYPE svg PUBLIC "-//W3C//DTD SVG 1.0//EN"
 "http://www.w3.org/TR/2001/REC-SVG-20010904/DTD/svg10.dtd" [
 <!ATTLIST svg xmlns:xlink CDATA #FIXED "http://www.w3.org/1999/xlink">
]>
<!-- Generated by Graphviz version 2.12 (Mon Dec  4 22:04:37 UTC 2006)
     For user: Bill Gates -->
<!-- Title: finite_state_machine Pages: 1 -->
<svg width="8.00in" height="6.29in"
 xmlns="http://www.w3.org/2000/svg" xmlns:xlink="http://www.w3.org/1999/xlink">
<g id="graph0" class="graph" transform="scale(0.719775 0.719775) rotate(0) translate(4 836)">
<title>finite_state_machine</title>
<polygon style="fill:white;stroke:white;" points="-4,4 -4,-836 1063,-836 1063,4 -4,4"/>
<text text-anchor="middle" x="529" y="-8" style="font-family:Nimbus Roman No9 L;font-weight:medium;font-size:19.44pt;">Hybrid &#45; LBS &#45; UE&#45;Assisted MT&#45;LR &#45; Inaccurate GPS Result</text>
<!-- Idle -->
<g id="node2" class="node"><title>Idle</title>
<polygon style="fill:greenyellow;stroke:greenyellow;" points="42,-794 12,-794 2.13163e-014,-782 1.42109e-014,-770 12,-758 42,-758 54,-770 54,-782 42,-794"/>
<path style="fill:greenyellow;stroke:greenyellow;" d="M12,-794C6,-794 2.4869e-014,-788 2.13163e-014,-782"/>
<path style="fill:greenyellow;stroke:greenyellow;" d="M1.42109e-014,-770C1.06581e-014,-764 6,-758 12,-758"/>
<path style="fill:greenyellow;stroke:greenyellow;" d="M42,-758C48,-758 54,-764 54,-770"/>
<path style="fill:greenyellow;stroke:greenyellow;" d="M54,-782C54,-788 48,-794 42,-794"/>
<polyline style="fill:none;stroke:greenyellow;" points="42,-794 12,-794 "/>
<path style="fill:none;stroke:greenyellow;" d="M12,-794C6,-794 2.4869e-014,-788 2.13163e-014,-782"/>
<polyline style="fill:none;stroke:greenyellow;" points="2.13163e-014,-782 1.42109e-014,-770 "/>
<path style="fill:none;stroke:greenyellow;" d="M1.42109e-014,-770C1.06581e-014,-764 6,-758 12,-758"/>
<polyline style="fill:none;stroke:greenyellow;" points="12,-758 42,-758 "/>
<path style="fill:none;stroke:greenyellow;" d="M42,-758C48,-758 54,-764 54,-770"/>
<polyline style="fill:none;stroke:greenyellow;" points="54,-770 54,-782 "/>
<path style="fill:none;stroke:greenyellow;" d="M54,-782C54,-788 48,-794 42,-794"/>
<text text-anchor="middle" x="27" y="-770" style="font-family:Nimbus Roman No9 L;font-weight:medium;font-size:12.96pt;">Idle</text>
</g>
<!-- Priv_Request -->
<g id="node3" class="node"><title>Priv_Request</title>
<polygon style="fill:greenyellow;stroke:greenyellow;" points="428,-794 240,-794 228,-782 228,-770 240,-758 428,-758 440,-770 440,-782 428,-794"/>
<path style="fill:greenyellow;stroke:greenyellow;" d="M240,-794C234,-794 228,-788 228,-782"/>
<path style="fill:greenyellow;stroke:greenyellow;" d="M228,-770C228,-764 234,-758 240,-758"/>
<path style="fill:greenyellow;stroke:greenyellow;" d="M428,-758C434,-758 440,-764 440,-770"/>
<path style="fill:greenyellow;stroke:greenyellow;" d="M440,-782C440,-788 434,-794 428,-794"/>
<polyline style="fill:none;stroke:greenyellow;" points="428,-794 240,-794 "/>
<path style="fill:none;stroke:greenyellow;" d="M240,-794C234,-794 228,-788 228,-782"/>
<polyline style="fill:none;stroke:greenyellow;" points="228,-782 228,-770 "/>
<path style="fill:none;stroke:greenyellow;" d="M228,-770C228,-764 234,-758 240,-758"/>
<polyline style="fill:none;stroke:greenyellow;" points="240,-758 428,-758 "/>
<path style="fill:none;stroke:greenyellow;" d="M428,-758C434,-758 440,-764 440,-770"/>
<polyline style="fill:none;stroke:greenyellow;" points="440,-770 440,-782 "/>
<path style="fill:none;stroke:greenyellow;" d="M440,-782C440,-788 434,-794 428,-794"/>
<text text-anchor="middle" x="334" y="-770" style="font-family:Nimbus Roman No9 L;font-weight:medium;font-size:12.96pt;">Performing Privacy Request</text>
</g>
<!-- Idle&#45;&gt;Priv_Request -->
<g id="edge3" class="edge"><title>Idle&#45;&gt;Priv_Request</title>
<path style="fill:none;stroke:red;" d="M54,-776C91,-776 158,-776 217,-776"/>
<polygon style="fill:red;stroke:red;" points="217,-779.5 227,-776 217,-772.5 217,-779.5"/>
<a xlink:title="NotifyStartLcsMT&#45;LR/\nStart Privacy Request">
</a>
<a xlink:title="NotifyStartLcsMT&#45;LR/\nStart Privacy Request">
</a>
<text text-anchor="middle" x="141" y="-798" style="font-family:Nimbus Sans L;font-weight:regular;font-size:12.96pt;fill:red;">NotifyStartLcsMT&#45;LR/</text>
<text text-anchor="middle" x="141" y="-779" style="font-family:Nimbus Sans L;font-weight:regular;font-size:12.96pt;fill:red;">Start Privacy Request</text>
</g>
<!-- Waiting_MCStartup -->
<g id="node4" class="node"><title>Waiting_MCStartup</title>
<polygon style="fill:greenyellow;stroke:greenyellow;" points="780,-794 612,-794 600,-782 600,-770 612,-758 780,-758 792,-770 792,-782 780,-794"/>
<path style="fill:greenyellow;stroke:greenyellow;" d="M612,-794C606,-794 600,-788 600,-782"/>
<path style="fill:greenyellow;stroke:greenyellow;" d="M600,-770C600,-764 606,-758 612,-758"/>
<path style="fill:greenyellow;stroke:greenyellow;" d="M780,-758C786,-758 792,-764 792,-770"/>
<path style="fill:greenyellow;stroke:greenyellow;" d="M792,-782C792,-788 786,-794 780,-794"/>
<polyline style="fill:none;stroke:greenyellow;" points="780,-794 612,-794 "/>
<path style="fill:none;stroke:greenyellow;" d="M612,-794C606,-794 600,-788 600,-782"/>
<polyline style="fill:none;stroke:greenyellow;" points="600,-782 600,-770 "/>
<path style="fill:none;stroke:greenyellow;" d="M600,-770C600,-764 606,-758 612,-758"/>
<polyline style="fill:none;stroke:greenyellow;" points="612,-758 780,-758 "/>
<path style="fill:none;stroke:greenyellow;" d="M780,-758C786,-758 792,-764 792,-770"/>
<polyline style="fill:none;stroke:greenyellow;" points="792,-770 792,-782 "/>
<path style="fill:none;stroke:greenyellow;" d="M792,-782C792,-788 786,-794 780,-794"/>
<text text-anchor="middle" x="696" y="-770" style="font-family:Nimbus Roman No9 L;font-weight:medium;font-size:12.96pt;">Waiting for M.C. Startup</text>
</g>
<!-- Priv_Request&#45;&gt;Waiting_MCStartup -->
<g id="edge5" class="edge"><title>Priv_Request&#45;&gt;Waiting_MCStartup</title>
<path style="fill:none;stroke:red;" d="M441,-776C488,-776 543,-776 590,-776"/>
<polygon style="fill:red;stroke:red;" points="590,-779.5 600,-776 590,-772.5 590,-779.5"/>
<a xlink:title="Request Accepted/\nSend Release\n(Request Accepted)">
</a>
<a xlink:title="Request Accepted/\nSend Release\n(Request Accepted)">
</a>
<text text-anchor="middle" x="520" y="-817" style="font-family:Nimbus Sans L;font-weight:regular;font-size:12.96pt;fill:red;">Request Accepted/</text>
<text text-anchor="middle" x="520" y="-798" style="font-family:Nimbus Sans L;font-weight:regular;font-size:12.96pt;fill:red;">Send Release</text>
<text text-anchor="middle" x="520" y="-779" style="font-family:Nimbus Sans L;font-weight:regular;font-size:12.96pt;fill:red;">(Request Accepted)</text>
</g>
<!-- UE_Based -->
<g id="node5" class="node"><title>UE_Based</title>
<polygon style="fill:greenyellow;stroke:greenyellow;" points="809,-628 583,-628 571,-616 571,-594 583,-582 809,-582 821,-594 821,-616 809,-628"/>
<path style="fill:greenyellow;stroke:greenyellow;" d="M583,-628C577,-628 571,-622 571,-616"/>
<path style="fill:greenyellow;stroke:greenyellow;" d="M571,-594C571,-588 577,-582 583,-582"/>
<path style="fill:greenyellow;stroke:greenyellow;" d="M809,-582C815,-582 821,-588 821,-594"/>
<path style="fill:greenyellow;stroke:greenyellow;" d="M821,-616C821,-622 815,-628 809,-628"/>
<polyline style="fill:none;stroke:greenyellow;" points="809,-628 583,-628 "/>
<path style="fill:none;stroke:greenyellow;" d="M583,-628C577,-628 571,-622 571,-616"/>
<polyline style="fill:none;stroke:greenyellow;" points="571,-616 571,-594 "/>
<path style="fill:none;stroke:greenyellow;" d="M571,-594C571,-588 577,-582 583,-582"/>
<polyline style="fill:none;stroke:greenyellow;" points="583,-582 809,-582 "/>
<path style="fill:none;stroke:greenyellow;" d="M809,-582C815,-582 821,-588 821,-594"/>
<polyline style="fill:none;stroke:greenyellow;" points="821,-594 821,-616 "/>
<path style="fill:none;stroke:greenyellow;" d="M821,-616C821,-622 815,-628 809,-628"/>
<text text-anchor="middle" x="696" y="-608" style="font-family:Nimbus Roman No9 L;font-weight:medium;font-size:12.96pt;">Performing UE&#45;Based positioning</text>
<text text-anchor="middle" x="696" y="-589" style="font-family:Nimbus Roman No9 L;font-weight:medium;font-size:12.96pt;">under Hybrid Positioning</text>
</g>
<!-- Waiting_MCStartup&#45;&gt;UE_Based -->
<g id="edge7" class="edge"><title>Waiting_MCStartup&#45;&gt;UE_Based</title>
<path style="fill:none;stroke:red;" d="M696,-758C696,-730 696,-674 696,-638"/>
<polygon style="fill:red;stroke:red;" points="699.5,-638 696,-628 692.5,-638 699.5,-638"/>
<a xlink:title="Receive M.C./\nStart UE Based Positioning\nStart a2,a4">
</a>
<a xlink:title="Receive M.C./\nStart UE Based Positioning\nStart a2,a4">
</a>
<text text-anchor="middle" x="793" y="-706" style="font-family:Nimbus Sans L;font-weight:regular;font-size:12.96pt;fill:red;">Receive M.C./</text>
<text text-anchor="middle" x="793" y="-687" style="font-family:Nimbus Sans L;font-weight:regular;font-size:12.96pt;fill:red;">Start UE Based Positioning</text>
<text text-anchor="middle" x="793" y="-668" style="font-family:Nimbus Sans L;font-weight:regular;font-size:12.96pt;fill:red;">Start a2,a4</text>
</g>
<!-- UE_Assisted -->
<g id="node6" class="node"><title>UE_Assisted</title>
<polygon style="fill:greenyellow;stroke:greenyellow;" points="434,-405 194,-405 182,-393 182,-371 194,-359 434,-359 446,-371 446,-393 434,-405"/>
<path style="fill:greenyellow;stroke:greenyellow;" d="M194,-405C188,-405 182,-399 182,-393"/>
<path style="fill:greenyellow;stroke:greenyellow;" d="M182,-371C182,-365 188,-359 194,-359"/>
<path style="fill:greenyellow;stroke:greenyellow;" d="M434,-359C440,-359 446,-365 446,-371"/>
<path style="fill:greenyellow;stroke:greenyellow;" d="M446,-393C446,-399 440,-405 434,-405"/>
<polyline style="fill:none;stroke:greenyellow;" points="434,-405 194,-405 "/>
<path style="fill:none;stroke:greenyellow;" d="M194,-405C188,-405 182,-399 182,-393"/>
<polyline style="fill:none;stroke:greenyellow;" points="182,-393 182,-371 "/>
<path style="fill:none;stroke:greenyellow;" d="M182,-371C182,-365 188,-359 194,-359"/>
<polyline style="fill:none;stroke:greenyellow;" points="194,-359 434,-359 "/>
<path style="fill:none;stroke:greenyellow;" d="M434,-359C440,-359 446,-365 446,-371"/>
<polyline style="fill:none;stroke:greenyellow;" points="446,-371 446,-393 "/>
<path style="fill:none;stroke:greenyellow;" d="M446,-393C446,-399 440,-405 434,-405"/>
<text text-anchor="middle" x="314" y="-385" style="font-family:Nimbus Roman No9 L;font-weight:medium;font-size:12.96pt;">Performing UE&#45;Assisted positioning</text>
<text text-anchor="middle" x="314" y="-366" style="font-family:Nimbus Roman No9 L;font-weight:medium;font-size:12.96pt;">(UE&#45;Based positioning continue)</text>
</g>
<!-- UE_Based&#45;&gt;UE_Assisted -->
<g id="edge9" class="edge"><title>UE_Based&#45;&gt;UE_Assisted</title>
<path style="fill:none;stroke:red;" d="M571,-582C540,-573 508,-562 480,-546 420,-512 366,-450 337,-413"/>
<polygon style="fill:red;stroke:red;" points="339.8,-410.9 331,-405 334.2,-415.1 339.8,-410.9"/>
<a xlink:title="Timer a2 expired/\nSend M.R\nReceive M.C.\n(Modify,Reporting Interval=t)\nStart up Timer t">
</a>
<a xlink:title="Timer a2 expired/\nSend M.R\nReceive M.C.\n(Modify,Reporting Interval=t)\nStart up Timer t">
</a>
<text text-anchor="middle" x="584" y="-530" style="font-family:Nimbus Sans L;font-weight:regular;font-size:12.96pt;fill:red;">Timer a2 expired/</text>
<text text-anchor="middle" x="584" y="-511" style="font-family:Nimbus Sans L;font-weight:regular;font-size:12.96pt;fill:red;">Send M.R</text>
<text text-anchor="middle" x="584" y="-492" style="font-family:Nimbus Sans L;font-weight:regular;font-size:12.96pt;fill:red;">Receive M.C.</text>
<text text-anchor="middle" x="584" y="-473" style="font-family:Nimbus Sans L;font-weight:regular;font-size:12.96pt;fill:red;">(Modify,Reporting Interval=t)</text>
<text text-anchor="middle" x="584" y="-454" style="font-family:Nimbus Sans L;font-weight:regular;font-size:12.96pt;fill:red;">Start up Timer t</text>
</g>
<!-- Waiting_MC -->
<g id="node7" class="node"><title>Waiting_MC</title>
<polygon style="fill:greenyellow;stroke:greenyellow;" points="536,-213 368,-213 356,-201 356,-189 368,-177 536,-177 548,-189 548,-201 536,-213"/>
<path style="fill:greenyellow;stroke:greenyellow;" d="M368,-213C362,-213 356,-207 356,-201"/>
<path style="fill:greenyellow;stroke:greenyellow;" d="M356,-189C356,-183 362,-177 368,-177"/>
<path style="fill:greenyellow;stroke:greenyellow;" d="M536,-177C542,-177 548,-183 548,-189"/>
<path style="fill:greenyellow;stroke:greenyellow;" d="M548,-201C548,-207 542,-213 536,-213"/>
<polyline style="fill:none;stroke:greenyellow;" points="536,-213 368,-213 "/>
<path style="fill:none;stroke:greenyellow;" d="M368,-213C362,-213 356,-207 356,-201"/>
<polyline style="fill:none;stroke:greenyellow;" points="356,-201 356,-189 "/>
<path style="fill:none;stroke:greenyellow;" d="M356,-189C356,-183 362,-177 368,-177"/>
<polyline style="fill:none;stroke:greenyellow;" points="368,-177 536,-177 "/>
<path style="fill:none;stroke:greenyellow;" d="M536,-177C542,-177 548,-183 548,-189"/>
<polyline style="fill:none;stroke:greenyellow;" points="548,-189 548,-201 "/>
<path style="fill:none;stroke:greenyellow;" d="M548,-201C548,-207 542,-213 536,-213"/>
<text text-anchor="middle" x="452" y="-189" style="font-family:Nimbus Roman No9 L;font-weight:medium;font-size:12.96pt;">Waiting for M.C. Release</text>
</g>
<!-- UE_Based&#45;&gt;Waiting_MC -->
<g id="edge11" class="edge"><title>UE_Based&#45;&gt;Waiting_MC</title>
<path style="fill:none;stroke:black;" d="M698,-582C702,-511 711,-300 670,-250 654,-231 606,-219 558,-210"/>
<polygon style="fill:black;stroke:black;" points="558.492,-206.529 548,-208 557.119,-213.393 558.492,-206.529"/>
<a xlink:title="UE&#45;Based success/\nStop UE&#45;Based Positioning,\nSend M.R.\n(confidence=68)">
</a>
<a xlink:title="UE&#45;Based success/\nStop UE&#45;Based Positioning,\nSend M.R.\n(confidence=68)">
</a>
<text text-anchor="middle" x="786" y="-400" style="font-family:Nimbus Sans L;font-weight:regular;font-size:11.34pt;">UE&#45;Based success/</text>
<text text-anchor="middle" x="786" y="-384" style="font-family:Nimbus Sans L;font-weight:regular;font-size:11.34pt;">Stop UE&#45;Based Positioning,</text>
<text text-anchor="middle" x="786" y="-368" style="font-family:Nimbus Sans L;font-weight:regular;font-size:11.34pt;">Send M.R.</text>
<text text-anchor="middle" x="786" y="-352" style="font-family:Nimbus Sans L;font-weight:regular;font-size:11.34pt;">(confidence=68)</text>
</g>
<!-- UE_Based&#45;&gt;Waiting_MC -->
<g id="edge13" class="edge"><title>UE_Based&#45;&gt;Waiting_MC</title>
<path style="fill:none;stroke:black;" d="M734,-582C801,-538 929,-439 876,-350 829,-270 780,-282 694,-250 650,-233 601,-221 558,-212"/>
<polygon style="fill:black;stroke:black;" points="558.492,-208.529 548,-210 557.119,-215.393 558.492,-208.529"/>
<a xlink:title="UE&#45;Based fix (Futile)/\nStop UE&#45;Based Positioning,\nSend M.R.(RefPos)\n(confidence=100)">
</a>
<a xlink:title="UE&#45;Based fix (Futile)/\nStop UE&#45;Based Positioning,\nSend M.R.(RefPos)\n(confidence=100)">
</a>
<text text-anchor="middle" x="973" y="-400" style="font-family:Nimbus Sans L;font-weight:regular;font-size:11.34pt;">UE&#45;Based fix (Futile)/</text>
<text text-anchor="middle" x="973" y="-384" style="font-family:Nimbus Sans L;font-weight:regular;font-size:11.34pt;">Stop UE&#45;Based Positioning,</text>
<text text-anchor="middle" x="973" y="-368" style="font-family:Nimbus Sans L;font-weight:regular;font-size:11.34pt;">Send M.R.(RefPos)</text>
<text text-anchor="middle" x="973" y="-352" style="font-family:Nimbus Sans L;font-weight:regular;font-size:11.34pt;">(confidence=100)</text>
</g>
<!-- UE_Assisted&#45;&gt;UE_Assisted -->
<g id="edge15" class="edge"><title>UE_Assisted&#45;&gt;UE_Assisted</title>
<path style="fill:none;stroke:red;" d="M314,-405C264,-455 164,-455 164,-393 164,-336 174,-332 181,-372"/>
<polygon style="fill:red;stroke:red;" points="177.522,-372.398 182,-382 184.488,-371.701 177.522,-372.398"/>
<a xlink:title="Timer t expired/\nSend M.R,\nrestart timer t">
</a>
<a xlink:title="Timer t expired/\nSend M.R,\nrestart timer t">
</a>
<text text-anchor="middle" x="108" y="-395" style="font-family:Nimbus Sans L;font-weight:regular;font-size:12.96pt;fill:red;">Timer t expired/</text>
<text text-anchor="middle" x="108" y="-376" style="font-family:Nimbus Sans L;font-weight:regular;font-size:12.96pt;fill:red;">Send M.R,</text>
<text text-anchor="middle" x="108" y="-357" style="font-family:Nimbus Sans L;font-weight:regular;font-size:12.96pt;fill:red;">restart timer t</text>
</g>
<!-- UE_Assisted&#45;&gt;Waiting_MC -->
<g id="edge17" class="edge"><title>UE_Assisted&#45;&gt;Waiting_MC</title>
<path style="fill:none;stroke:black;" d="M307,-359C300,-330 292,-282 315,-250 324,-236 338,-225 353,-217"/>
<polygon style="fill:black;stroke:black;" points="354.283,-220.26 362,-213 351.44,-213.863 354.283,-220.26"/>
<a xlink:title="timer a4 expired/\nStop UE&#45;Based Positioning,\nSend M.R.\n(confidence=100)">
</a>
<a xlink:title="timer a4 expired/\nStop UE&#45;Based Positioning,\nSend M.R.\n(confidence=100)">
</a>
<text text-anchor="middle" x="401" y="-300" style="font-family:Nimbus Sans L;font-weight:regular;font-size:11.34pt;">timer a4 expired/</text>
<text text-anchor="middle" x="401" y="-284" style="font-family:Nimbus Sans L;font-weight:regular;font-size:11.34pt;">Stop UE&#45;Based Positioning,</text>
<text text-anchor="middle" x="401" y="-268" style="font-family:Nimbus Sans L;font-weight:regular;font-size:11.34pt;">Send M.R.</text>
<text text-anchor="middle" x="401" y="-252" style="font-family:Nimbus Sans L;font-weight:regular;font-size:11.34pt;">(confidence=100)</text>
</g>
<!-- UE_Assisted&#45;&gt;Waiting_MC -->
<g id="edge19" class="edge"><title>UE_Assisted&#45;&gt;Waiting_MC</title>
<path style="fill:none;stroke:black;" d="M397,-359C436,-346 476,-330 487,-314 506,-285 489,-247 472,-222"/>
<polygon style="fill:black;stroke:black;" points="474.459,-219.379 466,-213 468.635,-223.262 474.459,-219.379"/>
<a xlink:title="UE&#45;Based success/\nStop UE&#45;Based Positioning,\nSend M.R.\n(confidence=68)">
</a>
<a xlink:title="UE&#45;Based success/\nStop UE&#45;Based Positioning,\nSend M.R.\n(confidence=68)">
</a>
<text text-anchor="middle" x="580" y="-300" style="font-family:Nimbus Sans L;font-weight:regular;font-size:11.34pt;">UE&#45;Based success/</text>
<text text-anchor="middle" x="580" y="-284" style="font-family:Nimbus Sans L;font-weight:regular;font-size:11.34pt;">Stop UE&#45;Based Positioning,</text>
<text text-anchor="middle" x="580" y="-268" style="font-family:Nimbus Sans L;font-weight:regular;font-size:11.34pt;">Send M.R.</text>
<text text-anchor="middle" x="580" y="-252" style="font-family:Nimbus Sans L;font-weight:regular;font-size:11.34pt;">(confidence=68)</text>
</g>
<!-- UE_Assisted&#45;&gt;Waiting_MC -->
<g id="edge21" class="edge"><title>UE_Assisted&#45;&gt;Waiting_MC</title>
<path style="fill:none;stroke:black;" d="M219,-359C177,-347 134,-331 122,-314 105,-290 103,-271 122,-250 130,-240 252,-222 346,-209"/>
<polygon style="fill:black;stroke:black;" points="346.398,-212.478 356,-208 345.701,-205.512 346.398,-212.478"/>
<a xlink:title="UE&#45;Based fix (Futile)/\nStop UE&#45;Based Positioning,\nSend M.R.(RefPos)\n(confidence=100)">
</a>
<a xlink:title="UE&#45;Based fix (Futile)/\nStop UE&#45;Based Positioning,\nSend M.R.(RefPos)\n(confidence=100)">
</a>
<text text-anchor="middle" x="208" y="-300" style="font-family:Nimbus Sans L;font-weight:regular;font-size:11.34pt;">UE&#45;Based fix (Futile)/</text>
<text text-anchor="middle" x="208" y="-284" style="font-family:Nimbus Sans L;font-weight:regular;font-size:11.34pt;">Stop UE&#45;Based Positioning,</text>
<text text-anchor="middle" x="208" y="-268" style="font-family:Nimbus Sans L;font-weight:regular;font-size:11.34pt;">Send M.R.(RefPos)</text>
<text text-anchor="middle" x="208" y="-252" style="font-family:Nimbus Sans L;font-weight:regular;font-size:11.34pt;">(confidence=100)</text>
</g>
<!-- End -->
<g id="node8" class="node"><title>End</title>
<polygon style="fill:greenyellow;stroke:greenyellow;" points="261,-72 153,-72 141,-60 141,-48 153,-36 261,-36 273,-48 273,-60 261,-72"/>
<path style="fill:greenyellow;stroke:greenyellow;" d="M153,-72C147,-72 141,-66 141,-60"/>
<path style="fill:greenyellow;stroke:greenyellow;" d="M141,-48C141,-42 147,-36 153,-36"/>
<path style="fill:greenyellow;stroke:greenyellow;" d="M261,-36C267,-36 273,-42 273,-48"/>
<path style="fill:greenyellow;stroke:greenyellow;" d="M273,-60C273,-66 267,-72 261,-72"/>
<polyline style="fill:none;stroke:greenyellow;" points="261,-72 153,-72 "/>
<path style="fill:none;stroke:greenyellow;" d="M153,-72C147,-72 141,-66 141,-60"/>
<polyline style="fill:none;stroke:greenyellow;" points="141,-60 141,-48 "/>
<path style="fill:none;stroke:greenyellow;" d="M141,-48C141,-42 147,-36 153,-36"/>
<polyline style="fill:none;stroke:greenyellow;" points="153,-36 261,-36 "/>
<path style="fill:none;stroke:greenyellow;" d="M261,-36C267,-36 273,-42 273,-48"/>
<polyline style="fill:none;stroke:greenyellow;" points="273,-48 273,-60 "/>
<path style="fill:none;stroke:greenyellow;" d="M273,-60C273,-66 267,-72 261,-72"/>
<text text-anchor="middle" x="207" y="-48" style="font-family:Nimbus Roman No9 L;font-weight:medium;font-size:12.96pt;">Positioning Ends</text>
</g>
<!-- UE_Assisted&#45;&gt;End -->
<g id="edge23" class="edge"><title>UE_Assisted&#45;&gt;End</title>
<path style="fill:none;stroke:red;" d="M205,-359C160,-347 116,-332 103,-314 47,-238 135,-129 181,-79"/>
<polygon style="fill:red;stroke:red;" points="183.404,-81.546 188,-72 178.454,-76.5962 183.404,-81.546"/>
<a xlink:title="Receive M.C. Release/\nStop UE&#45;Based Positioning">
</a>
<a xlink:title="Receive M.C. Release/\nStop UE&#45;Based Positioning">
</a>
<text text-anchor="middle" x="203" y="-198" style="font-family:Nimbus Sans L;font-weight:regular;font-size:12.96pt;fill:red;">Receive M.C. Release/</text>
<text text-anchor="middle" x="203" y="-179" style="font-family:Nimbus Sans L;font-weight:regular;font-size:12.96pt;fill:red;">Stop UE&#45;Based Positioning</text>
</g>
<!-- Waiting_MC&#45;&gt;End -->
<g id="edge25" class="edge"><title>Waiting_MC&#45;&gt;End</title>
<path style="fill:none;stroke:black;" d="M452,-177C452,-157 448,-126 430,-108 409,-87 339,-73 283,-64"/>
<polygon style="fill:black;stroke:black;" points="283.492,-60.5292 273,-62 282.119,-67.3933 283.492,-60.5292"/>
<a xlink:title="Receive M.C. Release">
</a>
<a xlink:title="Receive M.C. Release">
</a>
<text text-anchor="middle" x="515" y="-118" style="font-family:Nimbus Sans L;font-weight:regular;font-size:11.34pt;">Receive M.C. Release</text>
</g>
<!-- Waiting_MC&#45;&gt;End -->
<g id="edge27" class="edge"><title>Waiting_MC&#45;&gt;End</title>
<path style="fill:none;stroke:black;" d="M356,-186C294,-178 223,-164 204,-140 191,-124 193,-100 197,-82"/>
<polygon style="fill:black;stroke:black;" points="200.479,-82.584 200,-72 193.774,-80.5725 200.479,-82.584"/>
<a xlink:title="M.C. Wait timer expired/nSend M.R.\n(Undefined Error)">
</a>
<a xlink:title="M.C. Wait timer expired/nSend M.R.\n(Undefined Error)">
</a>
<text text-anchor="middle" x="315" y="-126" style="font-family:Nimbus Sans L;font-weight:regular;font-size:11.34pt;">M.C. Wait timer expired/nSend M.R.</text>
<text text-anchor="middle" x="315" y="-110" style="font-family:Nimbus Sans L;font-weight:regular;font-size:11.34pt;">(Undefined Error)</text>
</g>
</g>
</svg>
