<?xml version="1.0" encoding="UTF-8" standalone="no"?>
<!DOCTYPE svg PUBLIC "-//W3C//DTD SVG 1.0//EN"
 "http://www.w3.org/TR/2001/REC-SVG-20010904/DTD/svg10.dtd" [
 <!ATTLIST svg xmlns:xlink CDATA #FIXED "http://www.w3.org/1999/xlink">
]>
<!-- Generated by Graphviz version 2.12 (Mon Dec  4 22:04:37 UTC 2006)
     For user: Bill Gates -->
<!-- Title: finite_state_machine Pages: 1 -->
<svg width="8.00in" height="6.35in"
 xmlns="http://www.w3.org/2000/svg" xmlns:xlink="http://www.w3.org/1999/xlink">
<g id="graph0" class="graph" transform="scale(0.718428 0.718428) rotate(0) translate(4 846)">
<title>finite_state_machine</title>
<polygon style="fill:white;stroke:white;" points="-4,4 -4,-846 1065,-846 1065,4 -4,4"/>
<text text-anchor="middle" x="530" y="-8" style="font-family:Nimbus Roman No9 L;font-weight:medium;font-size:19.44pt;">Hybrid &#45; UE&#45;Based MT&#45;LR &#45; Futile</text>
<!-- Idle -->
<g id="node2" class="node"><title>Idle</title>
<polygon style="fill:greenyellow;stroke:greenyellow;" points="42,-804 12,-804 2.13163e-014,-792 1.42109e-014,-780 12,-768 42,-768 54,-780 54,-792 42,-804"/>
<path style="fill:greenyellow;stroke:greenyellow;" d="M12,-804C6,-804 2.4869e-014,-798 2.13163e-014,-792"/>
<path style="fill:greenyellow;stroke:greenyellow;" d="M1.42109e-014,-780C1.06581e-014,-774 6,-768 12,-768"/>
<path style="fill:greenyellow;stroke:greenyellow;" d="M42,-768C48,-768 54,-774 54,-780"/>
<path style="fill:greenyellow;stroke:greenyellow;" d="M54,-792C54,-798 48,-804 42,-804"/>
<polyline style="fill:none;stroke:greenyellow;" points="42,-804 12,-804 "/>
<path style="fill:none;stroke:greenyellow;" d="M12,-804C6,-804 2.4869e-014,-798 2.13163e-014,-792"/>
<polyline style="fill:none;stroke:greenyellow;" points="2.13163e-014,-792 1.42109e-014,-780 "/>
<path style="fill:none;stroke:greenyellow;" d="M1.42109e-014,-780C1.06581e-014,-774 6,-768 12,-768"/>
<polyline style="fill:none;stroke:greenyellow;" points="12,-768 42,-768 "/>
<path style="fill:none;stroke:greenyellow;" d="M42,-768C48,-768 54,-774 54,-780"/>
<polyline style="fill:none;stroke:greenyellow;" points="54,-780 54,-792 "/>
<path style="fill:none;stroke:greenyellow;" d="M54,-792C54,-798 48,-804 42,-804"/>
<text text-anchor="middle" x="27" y="-780" style="font-family:Nimbus Roman No9 L;font-weight:medium;font-size:12.96pt;">Idle</text>
</g>
<!-- Priv_Request -->
<g id="node3" class="node"><title>Priv_Request</title>
<polygon style="fill:greenyellow;stroke:greenyellow;" points="428,-804 240,-804 228,-792 228,-780 240,-768 428,-768 440,-780 440,-792 428,-804"/>
<path style="fill:greenyellow;stroke:greenyellow;" d="M240,-804C234,-804 228,-798 228,-792"/>
<path style="fill:greenyellow;stroke:greenyellow;" d="M228,-780C228,-774 234,-768 240,-768"/>
<path style="fill:greenyellow;stroke:greenyellow;" d="M428,-768C434,-768 440,-774 440,-780"/>
<path style="fill:greenyellow;stroke:greenyellow;" d="M440,-792C440,-798 434,-804 428,-804"/>
<polyline style="fill:none;stroke:greenyellow;" points="428,-804 240,-804 "/>
<path style="fill:none;stroke:greenyellow;" d="M240,-804C234,-804 228,-798 228,-792"/>
<polyline style="fill:none;stroke:greenyellow;" points="228,-792 228,-780 "/>
<path style="fill:none;stroke:greenyellow;" d="M228,-780C228,-774 234,-768 240,-768"/>
<polyline style="fill:none;stroke:greenyellow;" points="240,-768 428,-768 "/>
<path style="fill:none;stroke:greenyellow;" d="M428,-768C434,-768 440,-774 440,-780"/>
<polyline style="fill:none;stroke:greenyellow;" points="440,-780 440,-792 "/>
<path style="fill:none;stroke:greenyellow;" d="M440,-792C440,-798 434,-804 428,-804"/>
<text text-anchor="middle" x="334" y="-780" style="font-family:Nimbus Roman No9 L;font-weight:medium;font-size:12.96pt;">Performing Privacy Request</text>
</g>
<!-- Idle&#45;&gt;Priv_Request -->
<g id="edge3" class="edge"><title>Idle&#45;&gt;Priv_Request</title>
<path style="fill:none;stroke:red;" d="M54,-786C91,-786 158,-786 217,-786"/>
<polygon style="fill:red;stroke:red;" points="217,-789.5 227,-786 217,-782.5 217,-789.5"/>
<a xlink:title="NotifyStartLcsMT&#45;LR/\nStart Privacy Request">
</a>
<a xlink:title="NotifyStartLcsMT&#45;LR/\nStart Privacy Request">
</a>
<text text-anchor="middle" x="141" y="-808" style="font-family:Nimbus Sans L;font-weight:regular;font-size:12.96pt;fill:red;">NotifyStartLcsMT&#45;LR/</text>
<text text-anchor="middle" x="141" y="-789" style="font-family:Nimbus Sans L;font-weight:regular;font-size:12.96pt;fill:red;">Start Privacy Request</text>
</g>
<!-- Waiting_MCStartup -->
<g id="node4" class="node"><title>Waiting_MCStartup</title>
<polygon style="fill:greenyellow;stroke:greenyellow;" points="780,-804 612,-804 600,-792 600,-780 612,-768 780,-768 792,-780 792,-792 780,-804"/>
<path style="fill:greenyellow;stroke:greenyellow;" d="M612,-804C606,-804 600,-798 600,-792"/>
<path style="fill:greenyellow;stroke:greenyellow;" d="M600,-780C600,-774 606,-768 612,-768"/>
<path style="fill:greenyellow;stroke:greenyellow;" d="M780,-768C786,-768 792,-774 792,-780"/>
<path style="fill:greenyellow;stroke:greenyellow;" d="M792,-792C792,-798 786,-804 780,-804"/>
<polyline style="fill:none;stroke:greenyellow;" points="780,-804 612,-804 "/>
<path style="fill:none;stroke:greenyellow;" d="M612,-804C606,-804 600,-798 600,-792"/>
<polyline style="fill:none;stroke:greenyellow;" points="600,-792 600,-780 "/>
<path style="fill:none;stroke:greenyellow;" d="M600,-780C600,-774 606,-768 612,-768"/>
<polyline style="fill:none;stroke:greenyellow;" points="612,-768 780,-768 "/>
<path style="fill:none;stroke:greenyellow;" d="M780,-768C786,-768 792,-774 792,-780"/>
<polyline style="fill:none;stroke:greenyellow;" points="792,-780 792,-792 "/>
<path style="fill:none;stroke:greenyellow;" d="M792,-792C792,-798 786,-804 780,-804"/>
<text text-anchor="middle" x="696" y="-780" style="font-family:Nimbus Roman No9 L;font-weight:medium;font-size:12.96pt;">Waiting for M.C. Startup</text>
</g>
<!-- Priv_Request&#45;&gt;Waiting_MCStartup -->
<g id="edge5" class="edge"><title>Priv_Request&#45;&gt;Waiting_MCStartup</title>
<path style="fill:none;stroke:red;" d="M441,-786C488,-786 543,-786 590,-786"/>
<polygon style="fill:red;stroke:red;" points="590,-789.5 600,-786 590,-782.5 590,-789.5"/>
<a xlink:title="Request Accepted/\nSend Release\n(Request Accepted)">
</a>
<a xlink:title="Request Accepted/\nSend Release\n(Request Accepted)">
</a>
<text text-anchor="middle" x="520" y="-827" style="font-family:Nimbus Sans L;font-weight:regular;font-size:12.96pt;fill:red;">Request Accepted/</text>
<text text-anchor="middle" x="520" y="-808" style="font-family:Nimbus Sans L;font-weight:regular;font-size:12.96pt;fill:red;">Send Release</text>
<text text-anchor="middle" x="520" y="-789" style="font-family:Nimbus Sans L;font-weight:regular;font-size:12.96pt;fill:red;">(Request Accepted)</text>
</g>
<!-- UE_Based -->
<g id="node5" class="node"><title>UE_Based</title>
<polygon style="fill:greenyellow;stroke:greenyellow;" points="809,-638 583,-638 571,-626 571,-604 583,-592 809,-592 821,-604 821,-626 809,-638"/>
<path style="fill:greenyellow;stroke:greenyellow;" d="M583,-638C577,-638 571,-632 571,-626"/>
<path style="fill:greenyellow;stroke:greenyellow;" d="M571,-604C571,-598 577,-592 583,-592"/>
<path style="fill:greenyellow;stroke:greenyellow;" d="M809,-592C815,-592 821,-598 821,-604"/>
<path style="fill:greenyellow;stroke:greenyellow;" d="M821,-626C821,-632 815,-638 809,-638"/>
<polyline style="fill:none;stroke:greenyellow;" points="809,-638 583,-638 "/>
<path style="fill:none;stroke:greenyellow;" d="M583,-638C577,-638 571,-632 571,-626"/>
<polyline style="fill:none;stroke:greenyellow;" points="571,-626 571,-604 "/>
<path style="fill:none;stroke:greenyellow;" d="M571,-604C571,-598 577,-592 583,-592"/>
<polyline style="fill:none;stroke:greenyellow;" points="583,-592 809,-592 "/>
<path style="fill:none;stroke:greenyellow;" d="M809,-592C815,-592 821,-598 821,-604"/>
<polyline style="fill:none;stroke:greenyellow;" points="821,-604 821,-626 "/>
<path style="fill:none;stroke:greenyellow;" d="M821,-626C821,-632 815,-638 809,-638"/>
<text text-anchor="middle" x="696" y="-618" style="font-family:Nimbus Roman No9 L;font-weight:medium;font-size:12.96pt;">Performing UE&#45;Based positioning</text>
<text text-anchor="middle" x="696" y="-599" style="font-family:Nimbus Roman No9 L;font-weight:medium;font-size:12.96pt;">under Hybrid Positioning</text>
</g>
<!-- Waiting_MCStartup&#45;&gt;UE_Based -->
<g id="edge7" class="edge"><title>Waiting_MCStartup&#45;&gt;UE_Based</title>
<path style="fill:none;stroke:red;" d="M696,-768C696,-740 696,-684 696,-648"/>
<polygon style="fill:red;stroke:red;" points="699.5,-648 696,-638 692.5,-648 699.5,-648"/>
<a xlink:title="Receive M.C./\nStart UE Based Positioning\nStart a2,a4">
</a>
<a xlink:title="Receive M.C./\nStart UE Based Positioning\nStart a2,a4">
</a>
<text text-anchor="middle" x="793" y="-716" style="font-family:Nimbus Sans L;font-weight:regular;font-size:12.96pt;fill:red;">Receive M.C./</text>
<text text-anchor="middle" x="793" y="-697" style="font-family:Nimbus Sans L;font-weight:regular;font-size:12.96pt;fill:red;">Start UE Based Positioning</text>
<text text-anchor="middle" x="793" y="-678" style="font-family:Nimbus Sans L;font-weight:regular;font-size:12.96pt;fill:red;">Start a2,a4</text>
</g>
<!-- UE_Assisted -->
<g id="node6" class="node"><title>UE_Assisted</title>
<polygon style="fill:greenyellow;stroke:greenyellow;" points="434,-415 194,-415 182,-403 182,-381 194,-369 434,-369 446,-381 446,-403 434,-415"/>
<path style="fill:greenyellow;stroke:greenyellow;" d="M194,-415C188,-415 182,-409 182,-403"/>
<path style="fill:greenyellow;stroke:greenyellow;" d="M182,-381C182,-375 188,-369 194,-369"/>
<path style="fill:greenyellow;stroke:greenyellow;" d="M434,-369C440,-369 446,-375 446,-381"/>
<path style="fill:greenyellow;stroke:greenyellow;" d="M446,-403C446,-409 440,-415 434,-415"/>
<polyline style="fill:none;stroke:greenyellow;" points="434,-415 194,-415 "/>
<path style="fill:none;stroke:greenyellow;" d="M194,-415C188,-415 182,-409 182,-403"/>
<polyline style="fill:none;stroke:greenyellow;" points="182,-403 182,-381 "/>
<path style="fill:none;stroke:greenyellow;" d="M182,-381C182,-375 188,-369 194,-369"/>
<polyline style="fill:none;stroke:greenyellow;" points="194,-369 434,-369 "/>
<path style="fill:none;stroke:greenyellow;" d="M434,-369C440,-369 446,-375 446,-381"/>
<polyline style="fill:none;stroke:greenyellow;" points="446,-381 446,-403 "/>
<path style="fill:none;stroke:greenyellow;" d="M446,-403C446,-409 440,-415 434,-415"/>
<text text-anchor="middle" x="314" y="-395" style="font-family:Nimbus Roman No9 L;font-weight:medium;font-size:12.96pt;">Performing UE&#45;Assisted positioning</text>
<text text-anchor="middle" x="314" y="-376" style="font-family:Nimbus Roman No9 L;font-weight:medium;font-size:12.96pt;">(UE&#45;Based positioning continue)</text>
</g>
<!-- UE_Based&#45;&gt;UE_Assisted -->
<g id="edge9" class="edge"><title>UE_Based&#45;&gt;UE_Assisted</title>
<path style="fill:none;stroke:red;" d="M571,-592C540,-583 508,-572 480,-556 420,-522 366,-460 337,-423"/>
<polygon style="fill:red;stroke:red;" points="339.8,-420.9 331,-415 334.2,-425.1 339.8,-420.9"/>
<a xlink:title="Timer a2 expired/\nSend M.R\nReceive M.C.\n(Modify,Reporting Interval=t)\nStart up Timer t">
</a>
<a xlink:title="Timer a2 expired/\nSend M.R\nReceive M.C.\n(Modify,Reporting Interval=t)\nStart up Timer t">
</a>
<text text-anchor="middle" x="584" y="-540" style="font-family:Nimbus Sans L;font-weight:regular;font-size:12.96pt;fill:red;">Timer a2 expired/</text>
<text text-anchor="middle" x="584" y="-521" style="font-family:Nimbus Sans L;font-weight:regular;font-size:12.96pt;fill:red;">Send M.R</text>
<text text-anchor="middle" x="584" y="-502" style="font-family:Nimbus Sans L;font-weight:regular;font-size:12.96pt;fill:red;">Receive M.C.</text>
<text text-anchor="middle" x="584" y="-483" style="font-family:Nimbus Sans L;font-weight:regular;font-size:12.96pt;fill:red;">(Modify,Reporting Interval=t)</text>
<text text-anchor="middle" x="584" y="-464" style="font-family:Nimbus Sans L;font-weight:regular;font-size:12.96pt;fill:red;">Start up Timer t</text>
</g>
<!-- Waiting_MC -->
<g id="node7" class="node"><title>Waiting_MC</title>
<polygon style="fill:greenyellow;stroke:greenyellow;" points="509,-212 341,-212 329,-200 329,-188 341,-176 509,-176 521,-188 521,-200 509,-212"/>
<path style="fill:greenyellow;stroke:greenyellow;" d="M341,-212C335,-212 329,-206 329,-200"/>
<path style="fill:greenyellow;stroke:greenyellow;" d="M329,-188C329,-182 335,-176 341,-176"/>
<path style="fill:greenyellow;stroke:greenyellow;" d="M509,-176C515,-176 521,-182 521,-188"/>
<path style="fill:greenyellow;stroke:greenyellow;" d="M521,-200C521,-206 515,-212 509,-212"/>
<polyline style="fill:none;stroke:greenyellow;" points="509,-212 341,-212 "/>
<path style="fill:none;stroke:greenyellow;" d="M341,-212C335,-212 329,-206 329,-200"/>
<polyline style="fill:none;stroke:greenyellow;" points="329,-200 329,-188 "/>
<path style="fill:none;stroke:greenyellow;" d="M329,-188C329,-182 335,-176 341,-176"/>
<polyline style="fill:none;stroke:greenyellow;" points="341,-176 509,-176 "/>
<path style="fill:none;stroke:greenyellow;" d="M509,-176C515,-176 521,-182 521,-188"/>
<polyline style="fill:none;stroke:greenyellow;" points="521,-188 521,-200 "/>
<path style="fill:none;stroke:greenyellow;" d="M521,-200C521,-206 515,-212 509,-212"/>
<text text-anchor="middle" x="425" y="-188" style="font-family:Nimbus Roman No9 L;font-weight:medium;font-size:12.96pt;">Waiting for M.C. Release</text>
</g>
<!-- UE_Based&#45;&gt;Waiting_MC -->
<g id="edge11" class="edge"><title>UE_Based&#45;&gt;Waiting_MC</title>
<path style="fill:none;stroke:black;" d="M698,-592C704,-519 718,-300 674,-248 655,-226 590,-213 531,-204"/>
<polygon style="fill:black;stroke:black;" points="531.299,-200.512 521,-203 530.602,-207.478 531.299,-200.512"/>
<a xlink:title="UE&#45;Based success/\nStop UE&#45;Based Positioning,\nSend M.R.\n(confidence=68)">
</a>
<a xlink:title="UE&#45;Based success/\nStop UE&#45;Based Positioning,\nSend M.R.\n(confidence=68)">
</a>
<text text-anchor="middle" x="789" y="-410" style="font-family:Nimbus Sans L;font-weight:regular;font-size:11.34pt;">UE&#45;Based success/</text>
<text text-anchor="middle" x="789" y="-394" style="font-family:Nimbus Sans L;font-weight:regular;font-size:11.34pt;">Stop UE&#45;Based Positioning,</text>
<text text-anchor="middle" x="789" y="-378" style="font-family:Nimbus Sans L;font-weight:regular;font-size:11.34pt;">Send M.R.</text>
<text text-anchor="middle" x="789" y="-362" style="font-family:Nimbus Sans L;font-weight:regular;font-size:11.34pt;">(confidence=68)</text>
</g>
<!-- UE_Based&#45;&gt;Waiting_MC -->
<g id="edge13" class="edge"><title>UE_Based&#45;&gt;Waiting_MC</title>
<path style="fill:none;stroke:black;" d="M735,-592C802,-548 929,-451 879,-360 833,-277 786,-282 699,-248 645,-226 583,-214 531,-206"/>
<polygon style="fill:black;stroke:black;" points="531.492,-202.529 521,-204 530.119,-209.393 531.492,-202.529"/>
<a xlink:title="UE&#45;Based fix (Futile)/\nStop UE&#45;Based Positioning,\nSend M.R.(RefPos)\n(confidence=100)">
</a>
<a xlink:title="UE&#45;Based fix (Futile)/\nStop UE&#45;Based Positioning,\nSend M.R.(RefPos)\n(confidence=100)">
</a>
<text text-anchor="middle" x="975" y="-410" style="font-family:Nimbus Sans L;font-weight:regular;font-size:11.34pt;">UE&#45;Based fix (Futile)/</text>
<text text-anchor="middle" x="975" y="-394" style="font-family:Nimbus Sans L;font-weight:regular;font-size:11.34pt;">Stop UE&#45;Based Positioning,</text>
<text text-anchor="middle" x="975" y="-378" style="font-family:Nimbus Sans L;font-weight:regular;font-size:11.34pt;">Send M.R.(RefPos)</text>
<text text-anchor="middle" x="975" y="-362" style="font-family:Nimbus Sans L;font-weight:regular;font-size:11.34pt;">(confidence=100)</text>
</g>
<!-- UE_Assisted&#45;&gt;UE_Assisted -->
<g id="edge15" class="edge"><title>UE_Assisted&#45;&gt;UE_Assisted</title>
<path style="fill:none;stroke:black;" d="M314,-415C264,-468 164,-468 164,-403 164,-343 174,-339 181,-382"/>
<polygon style="fill:black;stroke:black;" points="177.522,-382.398 182,-392 184.488,-381.701 177.522,-382.398"/>
<a xlink:title="Timer t expired/\nSend M.R">
</a>
<a xlink:title="Timer t expired/\nSend M.R">
</a>
<text text-anchor="middle" x="116" y="-394" style="font-family:Nimbus Sans L;font-weight:regular;font-size:11.34pt;">Timer t expired/</text>
<text text-anchor="middle" x="116" y="-378" style="font-family:Nimbus Sans L;font-weight:regular;font-size:11.34pt;">Send M.R</text>
</g>
<!-- UE_Assisted&#45;&gt;Waiting_MC -->
<g id="edge17" class="edge"><title>UE_Assisted&#45;&gt;Waiting_MC</title>
<path style="fill:none;stroke:black;" d="M307,-369C299,-339 291,-285 315,-248 323,-235 335,-224 349,-217"/>
<polygon style="fill:black;stroke:black;" points="350.958,-219.916 358,-212 347.559,-213.797 350.958,-219.916"/>
<a xlink:title="timer a4 expired/\nStop UE&#45;Based Positioning,\nSend M.R.\n(confidence=100)">
</a>
<a xlink:title="timer a4 expired/\nStop UE&#45;Based Positioning,\nSend M.R.\n(confidence=100)">
</a>
<text text-anchor="middle" x="401" y="-304" style="font-family:Nimbus Sans L;font-weight:regular;font-size:11.34pt;">timer a4 expired/</text>
<text text-anchor="middle" x="401" y="-288" style="font-family:Nimbus Sans L;font-weight:regular;font-size:11.34pt;">Stop UE&#45;Based Positioning,</text>
<text text-anchor="middle" x="401" y="-272" style="font-family:Nimbus Sans L;font-weight:regular;font-size:11.34pt;">Send M.R.</text>
<text text-anchor="middle" x="401" y="-256" style="font-family:Nimbus Sans L;font-weight:regular;font-size:11.34pt;">(confidence=100)</text>
</g>
<!-- UE_Assisted&#45;&gt;Waiting_MC -->
<g id="edge19" class="edge"><title>UE_Assisted&#45;&gt;Waiting_MC</title>
<path style="fill:none;stroke:black;" d="M397,-369C436,-356 476,-340 487,-324 506,-296 500,-278 487,-248 482,-236 472,-226 463,-218"/>
<polygon style="fill:black;stroke:black;" points="465.1,-215.2 455,-212 460.9,-220.8 465.1,-215.2"/>
<a xlink:title="UE&#45;Based success/\nStop UE&#45;Based Positioning,\nSend M.R.\n(confidence=68)">
</a>
<a xlink:title="UE&#45;Based success/\nStop UE&#45;Based Positioning,\nSend M.R.\n(confidence=68)">
</a>
<text text-anchor="middle" x="584" y="-304" style="font-family:Nimbus Sans L;font-weight:regular;font-size:11.34pt;">UE&#45;Based success/</text>
<text text-anchor="middle" x="584" y="-288" style="font-family:Nimbus Sans L;font-weight:regular;font-size:11.34pt;">Stop UE&#45;Based Positioning,</text>
<text text-anchor="middle" x="584" y="-272" style="font-family:Nimbus Sans L;font-weight:regular;font-size:11.34pt;">Send M.R.</text>
<text text-anchor="middle" x="584" y="-256" style="font-family:Nimbus Sans L;font-weight:regular;font-size:11.34pt;">(confidence=68)</text>
</g>
<!-- UE_Assisted&#45;&gt;Waiting_MC -->
<g id="edge21" class="edge"><title>UE_Assisted&#45;&gt;Waiting_MC</title>
<path style="fill:none;stroke:red;" d="M197,-369C152,-357 107,-342 94,-324 73,-296 72,-273 94,-248 108,-231 228,-214 319,-204"/>
<polygon style="fill:red;stroke:red;" points="319.398,-207.478 329,-203 318.701,-200.512 319.398,-207.478"/>
<a xlink:title="UE&#45;Based fix (Futile)/\nStop UE&#45;Based Positioning,\nSend M.R.(RefPos)\n(confidence=100)">
</a>
<a xlink:title="UE&#45;Based fix (Futile)/\nStop UE&#45;Based Positioning,\nSend M.R.(RefPos)\n(confidence=100)">
</a>
<text text-anchor="middle" x="193" y="-308" style="font-family:Nimbus Sans L;font-weight:regular;font-size:12.96pt;fill:red;">UE&#45;Based fix (Futile)/</text>
<text text-anchor="middle" x="193" y="-289" style="font-family:Nimbus Sans L;font-weight:regular;font-size:12.96pt;fill:red;">Stop UE&#45;Based Positioning,</text>
<text text-anchor="middle" x="193" y="-270" style="font-family:Nimbus Sans L;font-weight:regular;font-size:12.96pt;fill:red;">Send M.R.(RefPos)</text>
<text text-anchor="middle" x="193" y="-251" style="font-family:Nimbus Sans L;font-weight:regular;font-size:12.96pt;fill:red;">(confidence=100)</text>
</g>
<!-- End -->
<g id="node8" class="node"><title>End</title>
<polygon style="fill:greenyellow;stroke:greenyellow;" points="234,-72 126,-72 114,-60 114,-48 126,-36 234,-36 246,-48 246,-60 234,-72"/>
<path style="fill:greenyellow;stroke:greenyellow;" d="M126,-72C120,-72 114,-66 114,-60"/>
<path style="fill:greenyellow;stroke:greenyellow;" d="M114,-48C114,-42 120,-36 126,-36"/>
<path style="fill:greenyellow;stroke:greenyellow;" d="M234,-36C240,-36 246,-42 246,-48"/>
<path style="fill:greenyellow;stroke:greenyellow;" d="M246,-60C246,-66 240,-72 234,-72"/>
<polyline style="fill:none;stroke:greenyellow;" points="234,-72 126,-72 "/>
<path style="fill:none;stroke:greenyellow;" d="M126,-72C120,-72 114,-66 114,-60"/>
<polyline style="fill:none;stroke:greenyellow;" points="114,-60 114,-48 "/>
<path style="fill:none;stroke:greenyellow;" d="M114,-48C114,-42 120,-36 126,-36"/>
<polyline style="fill:none;stroke:greenyellow;" points="126,-36 234,-36 "/>
<path style="fill:none;stroke:greenyellow;" d="M234,-36C240,-36 246,-42 246,-48"/>
<polyline style="fill:none;stroke:greenyellow;" points="246,-48 246,-60 "/>
<path style="fill:none;stroke:greenyellow;" d="M246,-60C246,-66 240,-72 234,-72"/>
<text text-anchor="middle" x="180" y="-48" style="font-family:Nimbus Roman No9 L;font-weight:medium;font-size:12.96pt;">Positioning Ends</text>
</g>
<!-- UE_Assisted&#45;&gt;End -->
<g id="edge23" class="edge"><title>UE_Assisted&#45;&gt;End</title>
<path style="fill:none;stroke:black;" d="M182,-369C133,-358 87,-343 73,-324 14,-246 107,-130 155,-79"/>
<polygon style="fill:black;stroke:black;" points="157.404,-81.546 162,-72 152.454,-76.5962 157.404,-81.546"/>
<a xlink:title="Receive M.C. Release/\nStop UE&#45;Based Positioning">
</a>
<a xlink:title="Receive M.C. Release/\nStop UE&#45;Based Positioning">
</a>
<text text-anchor="middle" x="164" y="-196" style="font-family:Nimbus Sans L;font-weight:regular;font-size:11.34pt;">Receive M.C. Release/</text>
<text text-anchor="middle" x="164" y="-180" style="font-family:Nimbus Sans L;font-weight:regular;font-size:11.34pt;">Stop UE&#45;Based Positioning</text>
</g>
<!-- Waiting_MC&#45;&gt;End -->
<g id="edge25" class="edge"><title>Waiting_MC&#45;&gt;End</title>
<path style="fill:none;stroke:red;" d="M425,-176C425,-156 421,-125 403,-108 382,-87 312,-73 256,-64"/>
<polygon style="fill:red;stroke:red;" points="256.492,-60.5292 246,-62 255.119,-67.3933 256.492,-60.5292"/>
<a xlink:title="Receive M.C. Release">
</a>
<a xlink:title="Receive M.C. Release">
</a>
<text text-anchor="middle" x="499" y="-118" style="font-family:Nimbus Sans L;font-weight:regular;font-size:12.96pt;fill:red;">Receive M.C. Release</text>
</g>
<!-- Waiting_MC&#45;&gt;End -->
<g id="edge27" class="edge"><title>Waiting_MC&#45;&gt;End</title>
<path style="fill:none;stroke:black;" d="M329,-185C267,-177 196,-163 177,-140 164,-124 166,-100 170,-82"/>
<polygon style="fill:black;stroke:black;" points="173.479,-82.584 173,-72 166.774,-80.5725 173.479,-82.584"/>
<a xlink:title="M.C. Wait timer expired/nSend M.R.\n(Undefined Error)">
</a>
<a xlink:title="M.C. Wait timer expired/nSend M.R.\n(Undefined Error)">
</a>
<text text-anchor="middle" x="288" y="-126" style="font-family:Nimbus Sans L;font-weight:regular;font-size:11.34pt;">M.C. Wait timer expired/nSend M.R.</text>
<text text-anchor="middle" x="288" y="-110" style="font-family:Nimbus Sans L;font-weight:regular;font-size:11.34pt;">(Undefined Error)</text>
</g>
</g>
</svg>
