<?xml version="1.0" encoding="UTF-8" standalone="no"?>
<!DOCTYPE svg PUBLIC "-//W3C//DTD SVG 1.0//EN"
 "http://www.w3.org/TR/2001/REC-SVG-20010904/DTD/svg10.dtd" [
 <!ATTLIST svg xmlns:xlink CDATA #FIXED "http://www.w3.org/1999/xlink">
]>
<!-- Generated by Graphviz version 2.12 (Mon Dec  4 22:04:37 UTC 2006)
     For user: Bill Gates -->
<!-- Title: finite_state_machine Pages: 1 -->
<svg width="8.00in" height="6.27in"
 xmlns="http://www.w3.org/2000/svg" xmlns:xlink="http://www.w3.org/1999/xlink">
<g id="graph0" class="graph" transform="scale(0.749268 0.749268) rotate(0) translate(4 800)">
<title>finite_state_machine</title>
<polygon style="fill:white;stroke:white;" points="-4,4 -4,-800 1021,-800 1021,4 -4,4"/>
<text text-anchor="middle" x="508" y="-8" style="font-family:Nimbus Roman No9 L;font-weight:medium;font-size:19.44pt;">MT LR Finite State Machine</text>
<!-- Idle -->
<g id="node2" class="node"><title>Idle</title>
<polygon style="fill:greenyellow;stroke:greenyellow;" points="42,-766 12,-766 2.13163e-014,-754 1.42109e-014,-742 12,-730 42,-730 54,-742 54,-754 42,-766"/>
<path style="fill:greenyellow;stroke:greenyellow;" d="M12,-766C6,-766 2.4869e-014,-760 2.13163e-014,-754"/>
<path style="fill:greenyellow;stroke:greenyellow;" d="M1.42109e-014,-742C1.06581e-014,-736 6,-730 12,-730"/>
<path style="fill:greenyellow;stroke:greenyellow;" d="M42,-730C48,-730 54,-736 54,-742"/>
<path style="fill:greenyellow;stroke:greenyellow;" d="M54,-754C54,-760 48,-766 42,-766"/>
<polyline style="fill:none;stroke:greenyellow;" points="42,-766 12,-766 "/>
<path style="fill:none;stroke:greenyellow;" d="M12,-766C6,-766 2.4869e-014,-760 2.13163e-014,-754"/>
<polyline style="fill:none;stroke:greenyellow;" points="2.13163e-014,-754 1.42109e-014,-742 "/>
<path style="fill:none;stroke:greenyellow;" d="M1.42109e-014,-742C1.06581e-014,-736 6,-730 12,-730"/>
<polyline style="fill:none;stroke:greenyellow;" points="12,-730 42,-730 "/>
<path style="fill:none;stroke:greenyellow;" d="M42,-730C48,-730 54,-736 54,-742"/>
<polyline style="fill:none;stroke:greenyellow;" points="54,-742 54,-754 "/>
<path style="fill:none;stroke:greenyellow;" d="M54,-754C54,-760 48,-766 42,-766"/>
<text text-anchor="middle" x="27" y="-742" style="font-family:Nimbus Roman No9 L;font-weight:medium;font-size:12.96pt;">Idle</text>
</g>
<!-- Priv_Request -->
<g id="node3" class="node"><title>Priv_Request</title>
<polygon style="fill:greenyellow;stroke:greenyellow;" points="406,-766 218,-766 206,-754 206,-742 218,-730 406,-730 418,-742 418,-754 406,-766"/>
<path style="fill:greenyellow;stroke:greenyellow;" d="M218,-766C212,-766 206,-760 206,-754"/>
<path style="fill:greenyellow;stroke:greenyellow;" d="M206,-742C206,-736 212,-730 218,-730"/>
<path style="fill:greenyellow;stroke:greenyellow;" d="M406,-730C412,-730 418,-736 418,-742"/>
<path style="fill:greenyellow;stroke:greenyellow;" d="M418,-754C418,-760 412,-766 406,-766"/>
<polyline style="fill:none;stroke:greenyellow;" points="406,-766 218,-766 "/>
<path style="fill:none;stroke:greenyellow;" d="M218,-766C212,-766 206,-760 206,-754"/>
<polyline style="fill:none;stroke:greenyellow;" points="206,-754 206,-742 "/>
<path style="fill:none;stroke:greenyellow;" d="M206,-742C206,-736 212,-730 218,-730"/>
<polyline style="fill:none;stroke:greenyellow;" points="218,-730 406,-730 "/>
<path style="fill:none;stroke:greenyellow;" d="M406,-730C412,-730 418,-736 418,-742"/>
<polyline style="fill:none;stroke:greenyellow;" points="418,-742 418,-754 "/>
<path style="fill:none;stroke:greenyellow;" d="M418,-754C418,-760 412,-766 406,-766"/>
<text text-anchor="middle" x="312" y="-742" style="font-family:Nimbus Roman No9 L;font-weight:medium;font-size:12.96pt;">Performing Privacy Request</text>
</g>
<!-- Idle&#45;&gt;Priv_Request -->
<g id="edge3" class="edge"><title>Idle&#45;&gt;Priv_Request</title>
<path style="fill:none;stroke:black;" d="M54,-748C87,-748 143,-748 195,-748"/>
<polygon style="fill:black;stroke:black;" points="195,-751.5 205,-748 195,-744.5 195,-751.5"/>
<a xlink:title="NotifyStartLcsMT&#45;LR/\nStart Privacy Request">
</a>
<a xlink:title="NotifyStartLcsMT&#45;LR/\nStart Privacy Request">
</a>
<text text-anchor="middle" x="130" y="-766" style="font-family:Nimbus Sans L;font-weight:regular;font-size:11.34pt;">NotifyStartLcsMT&#45;LR/</text>
<text text-anchor="middle" x="130" y="-750" style="font-family:Nimbus Sans L;font-weight:regular;font-size:11.34pt;">Start Privacy Request</text>
</g>
<!-- Waiting_MCStartup -->
<g id="node4" class="node"><title>Waiting_MCStartup</title>
<polygon style="fill:greenyellow;stroke:greenyellow;" points="738,-766 570,-766 558,-754 558,-742 570,-730 738,-730 750,-742 750,-754 738,-766"/>
<path style="fill:greenyellow;stroke:greenyellow;" d="M570,-766C564,-766 558,-760 558,-754"/>
<path style="fill:greenyellow;stroke:greenyellow;" d="M558,-742C558,-736 564,-730 570,-730"/>
<path style="fill:greenyellow;stroke:greenyellow;" d="M738,-730C744,-730 750,-736 750,-742"/>
<path style="fill:greenyellow;stroke:greenyellow;" d="M750,-754C750,-760 744,-766 738,-766"/>
<polyline style="fill:none;stroke:greenyellow;" points="738,-766 570,-766 "/>
<path style="fill:none;stroke:greenyellow;" d="M570,-766C564,-766 558,-760 558,-754"/>
<polyline style="fill:none;stroke:greenyellow;" points="558,-754 558,-742 "/>
<path style="fill:none;stroke:greenyellow;" d="M558,-742C558,-736 564,-730 570,-730"/>
<polyline style="fill:none;stroke:greenyellow;" points="570,-730 738,-730 "/>
<path style="fill:none;stroke:greenyellow;" d="M738,-730C744,-730 750,-736 750,-742"/>
<polyline style="fill:none;stroke:greenyellow;" points="750,-742 750,-754 "/>
<path style="fill:none;stroke:greenyellow;" d="M750,-754C750,-760 744,-766 738,-766"/>
<text text-anchor="middle" x="654" y="-742" style="font-family:Nimbus Roman No9 L;font-weight:medium;font-size:12.96pt;">Waiting for M.C. Startup</text>
</g>
<!-- Priv_Request&#45;&gt;Waiting_MCStartup -->
<g id="edge5" class="edge"><title>Priv_Request&#45;&gt;Waiting_MCStartup</title>
<path style="fill:none;stroke:black;" d="M419,-748C460,-748 507,-748 548,-748"/>
<polygon style="fill:black;stroke:black;" points="548,-751.5 558,-748 548,-744.5 548,-751.5"/>
<a xlink:title="Request Accepted/\nSend Release\n(Request Accepted)">
</a>
<a xlink:title="Request Accepted/\nSend Release\n(Request Accepted)">
</a>
<text text-anchor="middle" x="488" y="-782" style="font-family:Nimbus Sans L;font-weight:regular;font-size:11.34pt;">Request Accepted/</text>
<text text-anchor="middle" x="488" y="-766" style="font-family:Nimbus Sans L;font-weight:regular;font-size:11.34pt;">Send Release</text>
<text text-anchor="middle" x="488" y="-750" style="font-family:Nimbus Sans L;font-weight:regular;font-size:11.34pt;">(Request Accepted)</text>
</g>
<!-- UE_Based -->
<g id="node5" class="node"><title>UE_Based</title>
<polygon style="fill:greenyellow;stroke:greenyellow;" points="767,-610 541,-610 529,-598 529,-576 541,-564 767,-564 779,-576 779,-598 767,-610"/>
<path style="fill:greenyellow;stroke:greenyellow;" d="M541,-610C535,-610 529,-604 529,-598"/>
<path style="fill:greenyellow;stroke:greenyellow;" d="M529,-576C529,-570 535,-564 541,-564"/>
<path style="fill:greenyellow;stroke:greenyellow;" d="M767,-564C773,-564 779,-570 779,-576"/>
<path style="fill:greenyellow;stroke:greenyellow;" d="M779,-598C779,-604 773,-610 767,-610"/>
<polyline style="fill:none;stroke:greenyellow;" points="767,-610 541,-610 "/>
<path style="fill:none;stroke:greenyellow;" d="M541,-610C535,-610 529,-604 529,-598"/>
<polyline style="fill:none;stroke:greenyellow;" points="529,-598 529,-576 "/>
<path style="fill:none;stroke:greenyellow;" d="M529,-576C529,-570 535,-564 541,-564"/>
<polyline style="fill:none;stroke:greenyellow;" points="541,-564 767,-564 "/>
<path style="fill:none;stroke:greenyellow;" d="M767,-564C773,-564 779,-570 779,-576"/>
<polyline style="fill:none;stroke:greenyellow;" points="779,-576 779,-598 "/>
<path style="fill:none;stroke:greenyellow;" d="M779,-598C779,-604 773,-610 767,-610"/>
<text text-anchor="middle" x="654" y="-590" style="font-family:Nimbus Roman No9 L;font-weight:medium;font-size:12.96pt;">Performing UE&#45;Based positioning</text>
<text text-anchor="middle" x="654" y="-571" style="font-family:Nimbus Roman No9 L;font-weight:medium;font-size:12.96pt;">under Hybrid Positioning</text>
</g>
<!-- Waiting_MCStartup&#45;&gt;UE_Based -->
<g id="edge7" class="edge"><title>Waiting_MCStartup&#45;&gt;UE_Based</title>
<path style="fill:none;stroke:black;" d="M654,-730C654,-704 654,-653 654,-620"/>
<polygon style="fill:black;stroke:black;" points="657.5,-620 654,-610 650.5,-620 657.5,-620"/>
<a xlink:title="Receive M.C./\nStart UE Based Positioning\nStart a2,a4">
</a>
<a xlink:title="Receive M.C./\nStart UE Based Positioning\nStart a2,a4">
</a>
<text text-anchor="middle" x="738" y="-680" style="font-family:Nimbus Sans L;font-weight:regular;font-size:11.34pt;">Receive M.C./</text>
<text text-anchor="middle" x="738" y="-664" style="font-family:Nimbus Sans L;font-weight:regular;font-size:11.34pt;">Start UE Based Positioning</text>
<text text-anchor="middle" x="738" y="-648" style="font-family:Nimbus Sans L;font-weight:regular;font-size:11.34pt;">Start a2,a4</text>
</g>
<!-- UE_Assisted -->
<g id="node6" class="node"><title>UE_Assisted</title>
<polygon style="fill:greenyellow;stroke:greenyellow;" points="392,-403 152,-403 140,-391 140,-369 152,-357 392,-357 404,-369 404,-391 392,-403"/>
<path style="fill:greenyellow;stroke:greenyellow;" d="M152,-403C146,-403 140,-397 140,-391"/>
<path style="fill:greenyellow;stroke:greenyellow;" d="M140,-369C140,-363 146,-357 152,-357"/>
<path style="fill:greenyellow;stroke:greenyellow;" d="M392,-357C398,-357 404,-363 404,-369"/>
<path style="fill:greenyellow;stroke:greenyellow;" d="M404,-391C404,-397 398,-403 392,-403"/>
<polyline style="fill:none;stroke:greenyellow;" points="392,-403 152,-403 "/>
<path style="fill:none;stroke:greenyellow;" d="M152,-403C146,-403 140,-397 140,-391"/>
<polyline style="fill:none;stroke:greenyellow;" points="140,-391 140,-369 "/>
<path style="fill:none;stroke:greenyellow;" d="M140,-369C140,-363 146,-357 152,-357"/>
<polyline style="fill:none;stroke:greenyellow;" points="152,-357 392,-357 "/>
<path style="fill:none;stroke:greenyellow;" d="M392,-357C398,-357 404,-363 404,-369"/>
<polyline style="fill:none;stroke:greenyellow;" points="404,-369 404,-391 "/>
<path style="fill:none;stroke:greenyellow;" d="M404,-391C404,-397 398,-403 392,-403"/>
<text text-anchor="middle" x="272" y="-383" style="font-family:Nimbus Roman No9 L;font-weight:medium;font-size:12.96pt;">Performing UE&#45;Assisted positioning</text>
<text text-anchor="middle" x="272" y="-364" style="font-family:Nimbus Roman No9 L;font-weight:medium;font-size:12.96pt;">(UE&#45;Based positioning continue)</text>
</g>
<!-- UE_Based&#45;&gt;UE_Assisted -->
<g id="edge9" class="edge"><title>UE_Based&#45;&gt;UE_Assisted</title>
<path style="fill:none;stroke:black;" d="M558,-564C528,-555 495,-543 466,-528 404,-495 341,-443 304,-410"/>
<polygon style="fill:black;stroke:black;" points="305.831,-406.951 296,-403 301.221,-412.219 305.831,-406.951"/>
<a xlink:title="Timer a2 expired/\nSend M.R\nReceive M.C.\n(Modify,Reporting Interval=t)\nStart up Timer t">
</a>
<a xlink:title="Timer a2 expired/\nSend M.R\nReceive M.C.\n(Modify,Reporting Interval=t)\nStart up Timer t">
</a>
<text text-anchor="middle" x="556" y="-514" style="font-family:Nimbus Sans L;font-weight:regular;font-size:11.34pt;">Timer a2 expired/</text>
<text text-anchor="middle" x="556" y="-498" style="font-family:Nimbus Sans L;font-weight:regular;font-size:11.34pt;">Send M.R</text>
<text text-anchor="middle" x="556" y="-482" style="font-family:Nimbus Sans L;font-weight:regular;font-size:11.34pt;">Receive M.C.</text>
<text text-anchor="middle" x="556" y="-466" style="font-family:Nimbus Sans L;font-weight:regular;font-size:11.34pt;">(Modify,Reporting Interval=t)</text>
<text text-anchor="middle" x="556" y="-450" style="font-family:Nimbus Sans L;font-weight:regular;font-size:11.34pt;">Start up Timer t</text>
</g>
<!-- Waiting_MC -->
<g id="node7" class="node"><title>Waiting_MC</title>
<polygon style="fill:greenyellow;stroke:greenyellow;" points="480,-212 312,-212 300,-200 300,-188 312,-176 480,-176 492,-188 492,-200 480,-212"/>
<path style="fill:greenyellow;stroke:greenyellow;" d="M312,-212C306,-212 300,-206 300,-200"/>
<path style="fill:greenyellow;stroke:greenyellow;" d="M300,-188C300,-182 306,-176 312,-176"/>
<path style="fill:greenyellow;stroke:greenyellow;" d="M480,-176C486,-176 492,-182 492,-188"/>
<path style="fill:greenyellow;stroke:greenyellow;" d="M492,-200C492,-206 486,-212 480,-212"/>
<polyline style="fill:none;stroke:greenyellow;" points="480,-212 312,-212 "/>
<path style="fill:none;stroke:greenyellow;" d="M312,-212C306,-212 300,-206 300,-200"/>
<polyline style="fill:none;stroke:greenyellow;" points="300,-200 300,-188 "/>
<path style="fill:none;stroke:greenyellow;" d="M300,-188C300,-182 306,-176 312,-176"/>
<polyline style="fill:none;stroke:greenyellow;" points="312,-176 480,-176 "/>
<path style="fill:none;stroke:greenyellow;" d="M480,-176C486,-176 492,-182 492,-188"/>
<polyline style="fill:none;stroke:greenyellow;" points="492,-188 492,-200 "/>
<path style="fill:none;stroke:greenyellow;" d="M492,-200C492,-206 486,-212 480,-212"/>
<text text-anchor="middle" x="396" y="-188" style="font-family:Nimbus Roman No9 L;font-weight:medium;font-size:12.96pt;">Waiting for M.C. Release</text>
</g>
<!-- UE_Based&#45;&gt;Waiting_MC -->
<g id="edge11" class="edge"><title>UE_Based&#45;&gt;Waiting_MC</title>
<path style="fill:none;stroke:black;" d="M656,-564C661,-495 670,-295 630,-248 613,-228 555,-215 502,-206"/>
<polygon style="fill:black;stroke:black;" points="502.492,-202.529 492,-204 501.119,-209.393 502.492,-202.529"/>
<a xlink:title="UE&#45;Based success/\nStop UE&#45;Based Positioning,\nSend M.R.\n(confidence=68)">
</a>
<a xlink:title="UE&#45;Based success/\nStop UE&#45;Based Positioning,\nSend M.R.\n(confidence=68)">
</a>
<text text-anchor="middle" x="745" y="-398" style="font-family:Nimbus Sans L;font-weight:regular;font-size:11.34pt;">UE&#45;Based success/</text>
<text text-anchor="middle" x="745" y="-382" style="font-family:Nimbus Sans L;font-weight:regular;font-size:11.34pt;">Stop UE&#45;Based Positioning,</text>
<text text-anchor="middle" x="745" y="-366" style="font-family:Nimbus Sans L;font-weight:regular;font-size:11.34pt;">Send M.R.</text>
<text text-anchor="middle" x="745" y="-350" style="font-family:Nimbus Sans L;font-weight:regular;font-size:11.34pt;">(confidence=68)</text>
</g>
<!-- UE_Based&#45;&gt;Waiting_MC -->
<g id="edge13" class="edge"><title>UE_Based&#45;&gt;Waiting_MC</title>
<path style="fill:none;stroke:black;" d="M695,-564C762,-523 885,-432 835,-348 788,-268 740,-279 654,-248 605,-230 550,-217 502,-209"/>
<polygon style="fill:black;stroke:black;" points="502.492,-205.529 492,-207 501.119,-212.393 502.492,-205.529"/>
<a xlink:title="UE&#45;Based fix (Futile)/\nStop UE&#45;Based Positioning,\nSend M.R.(RefPos)\n(confidence=100)">
</a>
<a xlink:title="UE&#45;Based fix (Futile)/\nStop UE&#45;Based Positioning,\nSend M.R.(RefPos)\n(confidence=100)">
</a>
<text text-anchor="middle" x="931" y="-398" style="font-family:Nimbus Sans L;font-weight:regular;font-size:11.34pt;">UE&#45;Based fix (Futile)/</text>
<text text-anchor="middle" x="931" y="-382" style="font-family:Nimbus Sans L;font-weight:regular;font-size:11.34pt;">Stop UE&#45;Based Positioning,</text>
<text text-anchor="middle" x="931" y="-366" style="font-family:Nimbus Sans L;font-weight:regular;font-size:11.34pt;">Send M.R.(RefPos)</text>
<text text-anchor="middle" x="931" y="-350" style="font-family:Nimbus Sans L;font-weight:regular;font-size:11.34pt;">(confidence=100)</text>
</g>
<!-- UE_Assisted&#45;&gt;UE_Assisted -->
<g id="edge15" class="edge"><title>UE_Assisted&#45;&gt;UE_Assisted</title>
<path style="fill:none;stroke:black;" d="M272,-403C222,-453 122,-453 122,-391 122,-334 132,-330 139,-370"/>
<polygon style="fill:black;stroke:black;" points="135.522,-370.398 140,-380 142.488,-369.701 135.522,-370.398"/>
<a xlink:title="Timer t expired/\nSend M.R,\nrestart timer t">
</a>
<a xlink:title="Timer t expired/\nSend M.R,\nrestart timer t">
</a>
<text text-anchor="middle" x="74" y="-390" style="font-family:Nimbus Sans L;font-weight:regular;font-size:11.34pt;">Timer t expired/</text>
<text text-anchor="middle" x="74" y="-374" style="font-family:Nimbus Sans L;font-weight:regular;font-size:11.34pt;">Send M.R,</text>
<text text-anchor="middle" x="74" y="-358" style="font-family:Nimbus Sans L;font-weight:regular;font-size:11.34pt;">restart timer t</text>
</g>
<!-- UE_Assisted&#45;&gt;Waiting_MC -->
<g id="edge17" class="edge"><title>UE_Assisted&#45;&gt;Waiting_MC</title>
<path style="fill:none;stroke:black;" d="M265,-357C258,-328 251,-280 273,-248 282,-234 295,-224 310,-216"/>
<polygon style="fill:black;stroke:black;" points="311.283,-219.26 319,-212 308.44,-212.863 311.283,-219.26"/>
<a xlink:title="timer a4 expired/\nStop UE&#45;Based Positioning,\nSend M.R.\n(confidence=100)">
</a>
<a xlink:title="timer a4 expired/\nStop UE&#45;Based Positioning,\nSend M.R.\n(confidence=100)">
</a>
<text text-anchor="middle" x="359" y="-298" style="font-family:Nimbus Sans L;font-weight:regular;font-size:11.34pt;">timer a4 expired/</text>
<text text-anchor="middle" x="359" y="-282" style="font-family:Nimbus Sans L;font-weight:regular;font-size:11.34pt;">Stop UE&#45;Based Positioning,</text>
<text text-anchor="middle" x="359" y="-266" style="font-family:Nimbus Sans L;font-weight:regular;font-size:11.34pt;">Send M.R.</text>
<text text-anchor="middle" x="359" y="-250" style="font-family:Nimbus Sans L;font-weight:regular;font-size:11.34pt;">(confidence=100)</text>
</g>
<!-- UE_Assisted&#45;&gt;Waiting_MC -->
<g id="edge19" class="edge"><title>UE_Assisted&#45;&gt;Waiting_MC</title>
<path style="fill:none;stroke:black;" d="M355,-357C394,-344 434,-328 445,-312 461,-288 455,-274 445,-248 441,-237 434,-228 426,-219"/>
<polygon style="fill:black;stroke:black;" points="428.546,-216.596 419,-212 423.596,-221.546 428.546,-216.596"/>
<a xlink:title="UE&#45;Based success/\nStop UE&#45;Based Positioning,\nSend M.R.\n(confidence=68)">
</a>
<a xlink:title="UE&#45;Based success/\nStop UE&#45;Based Positioning,\nSend M.R.\n(confidence=68)">
</a>
<text text-anchor="middle" x="540" y="-298" style="font-family:Nimbus Sans L;font-weight:regular;font-size:11.34pt;">UE&#45;Based success/</text>
<text text-anchor="middle" x="540" y="-282" style="font-family:Nimbus Sans L;font-weight:regular;font-size:11.34pt;">Stop UE&#45;Based Positioning,</text>
<text text-anchor="middle" x="540" y="-266" style="font-family:Nimbus Sans L;font-weight:regular;font-size:11.34pt;">Send M.R.</text>
<text text-anchor="middle" x="540" y="-250" style="font-family:Nimbus Sans L;font-weight:regular;font-size:11.34pt;">(confidence=68)</text>
</g>
<!-- UE_Assisted&#45;&gt;Waiting_MC -->
<g id="edge21" class="edge"><title>UE_Assisted&#45;&gt;Waiting_MC</title>
<path style="fill:none;stroke:black;" d="M177,-357C135,-345 92,-329 80,-312 63,-288 61,-269 80,-248 93,-232 203,-215 290,-205"/>
<polygon style="fill:black;stroke:black;" points="290.398,-208.478 300,-204 289.701,-201.512 290.398,-208.478"/>
<a xlink:title="UE&#45;Based fix (Futile)/\nStop UE&#45;Based Positioning,\nSend M.R.(RefPos)\n(confidence=100)">
</a>
<a xlink:title="UE&#45;Based fix (Futile)/\nStop UE&#45;Based Positioning,\nSend M.R.(RefPos)\n(confidence=100)">
</a>
<text text-anchor="middle" x="166" y="-298" style="font-family:Nimbus Sans L;font-weight:regular;font-size:11.34pt;">UE&#45;Based fix (Futile)/</text>
<text text-anchor="middle" x="166" y="-282" style="font-family:Nimbus Sans L;font-weight:regular;font-size:11.34pt;">Stop UE&#45;Based Positioning,</text>
<text text-anchor="middle" x="166" y="-266" style="font-family:Nimbus Sans L;font-weight:regular;font-size:11.34pt;">Send M.R.(RefPos)</text>
<text text-anchor="middle" x="166" y="-250" style="font-family:Nimbus Sans L;font-weight:regular;font-size:11.34pt;">(confidence=100)</text>
</g>
<!-- End -->
<g id="node8" class="node"><title>End</title>
<polygon style="fill:greenyellow;stroke:greenyellow;" points="205,-72 97,-72 85,-60 85,-48 97,-36 205,-36 217,-48 217,-60 205,-72"/>
<path style="fill:greenyellow;stroke:greenyellow;" d="M97,-72C91,-72 85,-66 85,-60"/>
<path style="fill:greenyellow;stroke:greenyellow;" d="M85,-48C85,-42 91,-36 97,-36"/>
<path style="fill:greenyellow;stroke:greenyellow;" d="M205,-36C211,-36 217,-42 217,-48"/>
<path style="fill:greenyellow;stroke:greenyellow;" d="M217,-60C217,-66 211,-72 205,-72"/>
<polyline style="fill:none;stroke:greenyellow;" points="205,-72 97,-72 "/>
<path style="fill:none;stroke:greenyellow;" d="M97,-72C91,-72 85,-66 85,-60"/>
<polyline style="fill:none;stroke:greenyellow;" points="85,-60 85,-48 "/>
<path style="fill:none;stroke:greenyellow;" d="M85,-48C85,-42 91,-36 97,-36"/>
<polyline style="fill:none;stroke:greenyellow;" points="97,-36 205,-36 "/>
<path style="fill:none;stroke:greenyellow;" d="M205,-36C211,-36 217,-42 217,-48"/>
<polyline style="fill:none;stroke:greenyellow;" points="217,-48 217,-60 "/>
<path style="fill:none;stroke:greenyellow;" d="M217,-60C217,-66 211,-72 205,-72"/>
<text text-anchor="middle" x="151" y="-48" style="font-family:Nimbus Roman No9 L;font-weight:medium;font-size:12.96pt;">Positioning Ends</text>
</g>
<!-- UE_Assisted&#45;&gt;End -->
<g id="edge23" class="edge"><title>UE_Assisted&#45;&gt;End</title>
<path style="fill:none;stroke:black;" d="M163,-357C118,-345 74,-330 61,-312 7,-237 85,-129 127,-80"/>
<polygon style="fill:black;stroke:black;" points="130.049,-81.8306 134,-72 124.781,-77.221 130.049,-81.8306"/>
<a xlink:title="Receive M.C. Release/\nStop UE&#45;Based Positioning">
</a>
<a xlink:title="Receive M.C. Release/\nStop UE&#45;Based Positioning">
</a>
<text text-anchor="middle" x="144" y="-196" style="font-family:Nimbus Sans L;font-weight:regular;font-size:11.34pt;">Receive M.C. Release/</text>
<text text-anchor="middle" x="144" y="-180" style="font-family:Nimbus Sans L;font-weight:regular;font-size:11.34pt;">Stop UE&#45;Based Positioning</text>
</g>
<!-- Waiting_MC&#45;&gt;End -->
<g id="edge25" class="edge"><title>Waiting_MC&#45;&gt;End</title>
<path style="fill:none;stroke:black;" d="M396,-176C396,-156 392,-125 374,-108 353,-87 283,-73 227,-64"/>
<polygon style="fill:black;stroke:black;" points="227.492,-60.5292 217,-62 226.119,-67.3933 227.492,-60.5292"/>
<a xlink:title="Receive M.C. Release">
</a>
<a xlink:title="Receive M.C. Release">
</a>
<text text-anchor="middle" x="459" y="-118" style="font-family:Nimbus Sans L;font-weight:regular;font-size:11.34pt;">Receive M.C. Release</text>
</g>
<!-- Waiting_MC&#45;&gt;End -->
<g id="edge27" class="edge"><title>Waiting_MC&#45;&gt;End</title>
<path style="fill:none;stroke:black;" d="M300,-185C238,-177 167,-163 148,-140 135,-124 137,-100 141,-82"/>
<polygon style="fill:black;stroke:black;" points="144.479,-82.584 144,-72 137.774,-80.5725 144.479,-82.584"/>
<a xlink:title="M.C. Wait timer expired/nSend M.R.\n(Undefined Error)">
</a>
<a xlink:title="M.C. Wait timer expired/nSend M.R.\n(Undefined Error)">
</a>
<text text-anchor="middle" x="259" y="-126" style="font-family:Nimbus Sans L;font-weight:regular;font-size:11.34pt;">M.C. Wait timer expired/nSend M.R.</text>
<text text-anchor="middle" x="259" y="-110" style="font-family:Nimbus Sans L;font-weight:regular;font-size:11.34pt;">(Undefined Error)</text>
</g>
</g>
</svg>
