<?xml version="1.0" encoding="UTF-8" standalone="no"?>
<!DOCTYPE svg PUBLIC "-//W3C//DTD SVG 1.0//EN"
 "http://www.w3.org/TR/2001/REC-SVG-20010904/DTD/svg10.dtd" [
 <!ATTLIST svg xmlns:xlink CDATA #FIXED "http://www.w3.org/1999/xlink">
]>
<!-- Generated by Graphviz version 2.12 (Mon Dec  4 22:04:37 UTC 2006)
     For user: Bill Gates -->
<!-- Title: finite_state_machine Pages: 1 -->
<svg width="10.00in" height="5.96in"
 xmlns="http://www.w3.org/2000/svg" xmlns:xlink="http://www.w3.org/1999/xlink">
<g id="graph0" class="graph" transform="scale(0.691145 0.691145) rotate(0) translate(4 824)">
<title>finite_state_machine</title>
<polygon style="fill:white;stroke:white;" points="-4,4 -4,-824 1385,-824 1385,4 -4,4"/>
<text text-anchor="middle" x="690" y="-8" style="font-family:Nimbus Roman No9 L;font-weight:medium;font-size:19.44pt;">Hybrid &#45; LBS &#45; UE&#45;Assisted MO&#45;LR &#45; GPS Result Futile</text>
<!-- Idle -->
<g id="node2" class="node"><title>Idle</title>
<polygon style="fill:greenyellow;stroke:greenyellow;" points="267,-769 237,-769 225,-757 225,-745 237,-733 267,-733 279,-745 279,-757 267,-769"/>
<path style="fill:greenyellow;stroke:greenyellow;" d="M237,-769C231,-769 225,-763 225,-757"/>
<path style="fill:greenyellow;stroke:greenyellow;" d="M225,-745C225,-739 231,-733 237,-733"/>
<path style="fill:greenyellow;stroke:greenyellow;" d="M267,-733C273,-733 279,-739 279,-745"/>
<path style="fill:greenyellow;stroke:greenyellow;" d="M279,-757C279,-763 273,-769 267,-769"/>
<polyline style="fill:none;stroke:greenyellow;" points="267,-769 237,-769 "/>
<path style="fill:none;stroke:greenyellow;" d="M237,-769C231,-769 225,-763 225,-757"/>
<polyline style="fill:none;stroke:greenyellow;" points="225,-757 225,-745 "/>
<path style="fill:none;stroke:greenyellow;" d="M225,-745C225,-739 231,-733 237,-733"/>
<polyline style="fill:none;stroke:greenyellow;" points="237,-733 267,-733 "/>
<path style="fill:none;stroke:greenyellow;" d="M267,-733C273,-733 279,-739 279,-745"/>
<polyline style="fill:none;stroke:greenyellow;" points="279,-745 279,-757 "/>
<path style="fill:none;stroke:greenyellow;" d="M279,-757C279,-763 273,-769 267,-769"/>
<text text-anchor="middle" x="252" y="-745" style="font-family:Nimbus Sans L;font-weight:bold;font-size:12.96pt;">Idle</text>
</g>
<!-- Autonomous -->
<g id="node3" class="node"><title>Autonomous</title>
<polygon style="fill:greenyellow;stroke:greenyellow;" points="665,-774 519,-774 507,-762 507,-740 519,-728 665,-728 677,-740 677,-762 665,-774"/>
<path style="fill:greenyellow;stroke:greenyellow;" d="M519,-774C513,-774 507,-768 507,-762"/>
<path style="fill:greenyellow;stroke:greenyellow;" d="M507,-740C507,-734 513,-728 519,-728"/>
<path style="fill:greenyellow;stroke:greenyellow;" d="M665,-728C671,-728 677,-734 677,-740"/>
<path style="fill:greenyellow;stroke:greenyellow;" d="M677,-762C677,-768 671,-774 665,-774"/>
<polyline style="fill:none;stroke:greenyellow;" points="665,-774 519,-774 "/>
<path style="fill:none;stroke:greenyellow;" d="M519,-774C513,-774 507,-768 507,-762"/>
<polyline style="fill:none;stroke:greenyellow;" points="507,-762 507,-740 "/>
<path style="fill:none;stroke:greenyellow;" d="M507,-740C507,-734 513,-728 519,-728"/>
<polyline style="fill:none;stroke:greenyellow;" points="519,-728 665,-728 "/>
<path style="fill:none;stroke:greenyellow;" d="M665,-728C671,-728 677,-734 677,-740"/>
<polyline style="fill:none;stroke:greenyellow;" points="677,-740 677,-762 "/>
<path style="fill:none;stroke:greenyellow;" d="M677,-762C677,-768 671,-774 665,-774"/>
<text text-anchor="middle" x="592" y="-754" style="font-family:Nimbus Sans L;font-weight:bold;font-size:12.96pt;">Autonomous</text>
<text text-anchor="middle" x="592" y="-735" style="font-family:Nimbus Sans L;font-weight:bold;font-size:12.96pt;">UE&#45;Based positioning</text>
</g>
<!-- Idle&#45;&gt;Autonomous -->
<g id="edge6" class="edge"><title>Idle&#45;&gt;Autonomous</title>
<path style="fill:none;stroke:red;" d="M279,-751C326,-751 423,-751 496,-751"/>
<polygon style="fill:red;stroke:red;" points="496,-754.5 506,-751 496,-747.5 496,-754.5"/>
<a xlink:title="User starts Location check\nStart Autonomous positioning\nStart LcsMOLR">
</a>
<a xlink:title="User starts Location check\nStart Autonomous positioning\nStart LcsMOLR">
</a>
<text text-anchor="middle" x="393" y="-792" style="font-family:Nimbus Sans L;font-weight:regular;font-size:12.96pt;fill:red;">User starts Location check</text>
<text text-anchor="middle" x="393" y="-773" style="font-family:Nimbus Sans L;font-weight:regular;font-size:12.96pt;fill:red;">Start Autonomous positioning</text>
<text text-anchor="middle" x="393" y="-754" style="font-family:Nimbus Sans L;font-weight:regular;font-size:12.96pt;fill:red;">Start LcsMOLR</text>
</g>
<!-- UE_Based -->
<g id="node4" class="node"><title>UE_Based</title>
<polygon style="fill:greenyellow;stroke:greenyellow;" points="1095,-774 865,-774 853,-762 853,-740 865,-728 1095,-728 1107,-740 1107,-762 1095,-774"/>
<path style="fill:greenyellow;stroke:greenyellow;" d="M865,-774C859,-774 853,-768 853,-762"/>
<path style="fill:greenyellow;stroke:greenyellow;" d="M853,-740C853,-734 859,-728 865,-728"/>
<path style="fill:greenyellow;stroke:greenyellow;" d="M1095,-728C1101,-728 1107,-734 1107,-740"/>
<path style="fill:greenyellow;stroke:greenyellow;" d="M1107,-762C1107,-768 1101,-774 1095,-774"/>
<polyline style="fill:none;stroke:greenyellow;" points="1095,-774 865,-774 "/>
<path style="fill:none;stroke:greenyellow;" d="M865,-774C859,-774 853,-768 853,-762"/>
<polyline style="fill:none;stroke:greenyellow;" points="853,-762 853,-740 "/>
<path style="fill:none;stroke:greenyellow;" d="M853,-740C853,-734 859,-728 865,-728"/>
<polyline style="fill:none;stroke:greenyellow;" points="865,-728 1095,-728 "/>
<path style="fill:none;stroke:greenyellow;" d="M1095,-728C1101,-728 1107,-734 1107,-740"/>
<polyline style="fill:none;stroke:greenyellow;" points="1107,-740 1107,-762 "/>
<path style="fill:none;stroke:greenyellow;" d="M1107,-762C1107,-768 1101,-774 1095,-774"/>
<text text-anchor="middle" x="980" y="-754" style="font-family:Nimbus Sans L;font-weight:bold;font-size:12.96pt;">Performing UE&#45;Based positioning</text>
<text text-anchor="middle" x="980" y="-735" style="font-family:Nimbus Sans L;font-weight:bold;font-size:12.96pt;">under Hybrid Positioning</text>
</g>
<!-- Autonomous&#45;&gt;UE_Based -->
<g id="edge8" class="edge"><title>Autonomous&#45;&gt;UE_Based</title>
<path style="fill:none;stroke:red;" d="M678,-751C726,-751 787,-751 843,-751"/>
<polygon style="fill:red;stroke:red;" points="843,-754.5 853,-751 843,-747.5 843,-754.5"/>
<a xlink:title="Receives M.C.(Setup)\nStart a2,a4 timer">
</a>
<a xlink:title="Receives M.C.(Setup)\nStart a2,a4 timer">
</a>
<text text-anchor="middle" x="765" y="-773" style="font-family:Nimbus Sans L;font-weight:regular;font-size:12.96pt;fill:red;">Receives M.C.(Setup)</text>
<text text-anchor="middle" x="765" y="-754" style="font-family:Nimbus Sans L;font-weight:regular;font-size:12.96pt;fill:red;">Start a2,a4 timer</text>
</g>
<!-- UE_Assisted -->
<g id="node5" class="node"><title>UE_Assisted</title>
<polygon style="fill:greenyellow;stroke:greenyellow;" points="698,-629 452,-629 440,-617 440,-595 452,-583 698,-583 710,-595 710,-617 698,-629"/>
<path style="fill:greenyellow;stroke:greenyellow;" d="M452,-629C446,-629 440,-623 440,-617"/>
<path style="fill:greenyellow;stroke:greenyellow;" d="M440,-595C440,-589 446,-583 452,-583"/>
<path style="fill:greenyellow;stroke:greenyellow;" d="M698,-583C704,-583 710,-589 710,-595"/>
<path style="fill:greenyellow;stroke:greenyellow;" d="M710,-617C710,-623 704,-629 698,-629"/>
<polyline style="fill:none;stroke:greenyellow;" points="698,-629 452,-629 "/>
<path style="fill:none;stroke:greenyellow;" d="M452,-629C446,-629 440,-623 440,-617"/>
<polyline style="fill:none;stroke:greenyellow;" points="440,-617 440,-595 "/>
<path style="fill:none;stroke:greenyellow;" d="M440,-595C440,-589 446,-583 452,-583"/>
<polyline style="fill:none;stroke:greenyellow;" points="452,-583 698,-583 "/>
<path style="fill:none;stroke:greenyellow;" d="M698,-583C704,-583 710,-589 710,-595"/>
<polyline style="fill:none;stroke:greenyellow;" points="710,-595 710,-617 "/>
<path style="fill:none;stroke:greenyellow;" d="M710,-617C710,-623 704,-629 698,-629"/>
<text text-anchor="middle" x="575" y="-609" style="font-family:Nimbus Sans L;font-weight:bold;font-size:12.96pt;">Performing UE&#45;Assisted positioning</text>
<text text-anchor="middle" x="575" y="-590" style="font-family:Nimbus Sans L;font-weight:bold;font-size:12.96pt;">(UE&#45;Based positioning continue)</text>
</g>
<!-- UE_Based&#45;&gt;UE_Assisted -->
<g id="edge10" class="edge"><title>UE_Based&#45;&gt;UE_Assisted</title>
<path style="fill:none;stroke:red;" d="M853,-728C806,-681 739,-650 682,-632"/>
<polygon style="fill:red;stroke:red;" points="682.584,-628.521 672,-629 680.573,-635.226 682.584,-628.521"/>
<a xlink:title="\n\n\n\n\nTimer a2 expired/\nSend M.R\nReceive M.C.\n(Modify,Reporting Interval=t)\nStart up Timer t">
</a>
<text text-anchor="middle" x="843" y="-709" style="font-family:Nimbus Sans L;font-weight:regular;font-size:12.96pt;fill:red;">Timer a2 expired/</text>
<text text-anchor="middle" x="843" y="-690" style="font-family:Nimbus Sans L;font-weight:regular;font-size:12.96pt;fill:red;">Send M.R</text>
<text text-anchor="middle" x="843" y="-671" style="font-family:Nimbus Sans L;font-weight:regular;font-size:12.96pt;fill:red;">Receive M.C.</text>
<text text-anchor="middle" x="843" y="-652" style="font-family:Nimbus Sans L;font-weight:regular;font-size:12.96pt;fill:red;">(Modify,Reporting Interval=t)</text>
<text text-anchor="middle" x="843" y="-633" style="font-family:Nimbus Sans L;font-weight:regular;font-size:12.96pt;fill:red;">Start up Timer t</text>
</g>
<!-- Waiting_MC_UEBasedStop -->
<g id="node8" class="node"><title>Waiting_MC_UEBasedStop</title>
<polygon style="fill:greenyellow;stroke:greenyellow;" points="1006,-390 784,-390 772,-378 772,-356 784,-344 1006,-344 1018,-356 1018,-378 1006,-390"/>
<path style="fill:greenyellow;stroke:greenyellow;" d="M784,-390C778,-390 772,-384 772,-378"/>
<path style="fill:greenyellow;stroke:greenyellow;" d="M772,-356C772,-350 778,-344 784,-344"/>
<path style="fill:greenyellow;stroke:greenyellow;" d="M1006,-344C1012,-344 1018,-350 1018,-356"/>
<path style="fill:greenyellow;stroke:greenyellow;" d="M1018,-378C1018,-384 1012,-390 1006,-390"/>
<polyline style="fill:none;stroke:greenyellow;" points="1006,-390 784,-390 "/>
<path style="fill:none;stroke:greenyellow;" d="M784,-390C778,-390 772,-384 772,-378"/>
<polyline style="fill:none;stroke:greenyellow;" points="772,-378 772,-356 "/>
<path style="fill:none;stroke:greenyellow;" d="M772,-356C772,-350 778,-344 784,-344"/>
<polyline style="fill:none;stroke:greenyellow;" points="784,-344 1006,-344 "/>
<path style="fill:none;stroke:greenyellow;" d="M1006,-344C1012,-344 1018,-350 1018,-356"/>
<polyline style="fill:none;stroke:greenyellow;" points="1018,-356 1018,-378 "/>
<path style="fill:none;stroke:greenyellow;" d="M1018,-378C1018,-384 1012,-390 1006,-390"/>
<text text-anchor="middle" x="895" y="-370" style="font-family:Nimbus Sans L;font-weight:bold;font-size:12.96pt;">Waiting for M.C.(Release)</text>
<text text-anchor="middle" x="895" y="-351" style="font-family:Nimbus Sans L;font-weight:bold;font-size:12.96pt;">(UE&#45;Based positioning Stopped)</text>
</g>
<!-- UE_Based&#45;&gt;Waiting_MC_UEBasedStop -->
<g id="edge12" class="edge"><title>UE_Based&#45;&gt;Waiting_MC_UEBasedStop</title>
<path style="fill:none;stroke:black;" d="M980,-728C982,-692 987,-619 994,-558 1003,-476 1094,-376 1028,-368"/>
<polygon style="fill:black;stroke:black;" points="1028.3,-364.512 1018,-367 1027.6,-371.478 1028.3,-364.512"/>
<a xlink:title="UE&#45;Based success/\nStop UE&#45;Based Positioning\nComplete User request\n(UE Based result)\nSend M.R.\n(confidence=68)">
</a>
<a xlink:title="UE&#45;Based success/\nStop UE&#45;Based Positioning\nComplete User request\n(UE Based result)\nSend M.R.\n(confidence=68)">
</a>
<text text-anchor="middle" x="1078" y="-640" style="font-family:Nimbus Sans L;font-weight:regular;font-size:11.34pt;">UE&#45;Based success/</text>
<text text-anchor="middle" x="1078" y="-624" style="font-family:Nimbus Sans L;font-weight:regular;font-size:11.34pt;">Stop UE&#45;Based Positioning</text>
<text text-anchor="middle" x="1078" y="-608" style="font-family:Nimbus Sans L;font-weight:regular;font-size:11.34pt;">Complete User request</text>
<text text-anchor="middle" x="1078" y="-592" style="font-family:Nimbus Sans L;font-weight:regular;font-size:11.34pt;">(UE Based result)</text>
<text text-anchor="middle" x="1078" y="-576" style="font-family:Nimbus Sans L;font-weight:regular;font-size:11.34pt;">Send M.R.</text>
<text text-anchor="middle" x="1078" y="-560" style="font-family:Nimbus Sans L;font-weight:regular;font-size:11.34pt;">(confidence=68)</text>
</g>
<!-- UE_Based&#45;&gt;Waiting_MC_UEBasedStop -->
<g id="edge14" class="edge"><title>UE_Based&#45;&gt;Waiting_MC_UEBasedStop</title>
<path style="fill:none;stroke:black;" d="M1107,-751C1279,-751 1196,-382 1028,-367"/>
<polygon style="fill:black;stroke:black;" points="1028,-363.5 1018,-367 1028,-370.5 1028,-363.5"/>
<a xlink:title="UE&#45;Based fix\n(Futile)/\nStop UE&#45;Based\nPositioning,\nSend M.R.(RefPos)\n(confidence=100)">
</a>
<a xlink:title="UE&#45;Based fix\n(Futile)/\nStop UE&#45;Based\nPositioning,\nSend M.R.(RefPos)\n(confidence=100)">
</a>
<text text-anchor="middle" x="1261" y="-640" style="font-family:Nimbus Sans L;font-weight:regular;font-size:11.34pt;">UE&#45;Based fix</text>
<text text-anchor="middle" x="1261" y="-624" style="font-family:Nimbus Sans L;font-weight:regular;font-size:11.34pt;">(Futile)/</text>
<text text-anchor="middle" x="1261" y="-608" style="font-family:Nimbus Sans L;font-weight:regular;font-size:11.34pt;">Stop UE&#45;Based</text>
<text text-anchor="middle" x="1261" y="-592" style="font-family:Nimbus Sans L;font-weight:regular;font-size:11.34pt;">Positioning,</text>
<text text-anchor="middle" x="1261" y="-576" style="font-family:Nimbus Sans L;font-weight:regular;font-size:11.34pt;">Send M.R.(RefPos)</text>
<text text-anchor="middle" x="1261" y="-560" style="font-family:Nimbus Sans L;font-weight:regular;font-size:11.34pt;">(confidence=100)</text>
</g>
<!-- UE_Assisted&#45;&gt;UE_Assisted -->
<g id="edge16" class="edge"><title>UE_Assisted&#45;&gt;UE_Assisted</title>
<path style="fill:none;stroke:black;" d="M531,-629C480,-645 422,-635 422,-594 422,-546 432,-541 438,-573"/>
<polygon style="fill:black;stroke:black;" points="434.607,-573.881 440,-583 441.471,-572.508 434.607,-573.881"/>
<a xlink:title="\n\n\nTimer t expired/\nSend M.R,\nrestart timer t">
</a>
<text text-anchor="middle" x="434" y="-561" style="font-family:Nimbus Sans L;font-weight:regular;font-size:11.34pt;">Timer t expired/</text>
<text text-anchor="middle" x="434" y="-545" style="font-family:Nimbus Sans L;font-weight:regular;font-size:11.34pt;">Send M.R,</text>
<text text-anchor="middle" x="434" y="-529" style="font-family:Nimbus Sans L;font-weight:regular;font-size:11.34pt;">restart timer t</text>
</g>
<!-- Waiting_MC_UEBasedCont -->
<g id="node7" class="node"><title>Waiting_MC_UEBasedCont</title>
<polygon style="fill:greenyellow;stroke:greenyellow;" points="405,-390 183,-390 171,-378 171,-356 183,-344 405,-344 417,-356 417,-378 405,-390"/>
<path style="fill:greenyellow;stroke:greenyellow;" d="M183,-390C177,-390 171,-384 171,-378"/>
<path style="fill:greenyellow;stroke:greenyellow;" d="M171,-356C171,-350 177,-344 183,-344"/>
<path style="fill:greenyellow;stroke:greenyellow;" d="M405,-344C411,-344 417,-350 417,-356"/>
<path style="fill:greenyellow;stroke:greenyellow;" d="M417,-378C417,-384 411,-390 405,-390"/>
<polyline style="fill:none;stroke:greenyellow;" points="405,-390 183,-390 "/>
<path style="fill:none;stroke:greenyellow;" d="M183,-390C177,-390 171,-384 171,-378"/>
<polyline style="fill:none;stroke:greenyellow;" points="171,-378 171,-356 "/>
<path style="fill:none;stroke:greenyellow;" d="M171,-356C171,-350 177,-344 183,-344"/>
<polyline style="fill:none;stroke:greenyellow;" points="183,-344 405,-344 "/>
<path style="fill:none;stroke:greenyellow;" d="M405,-344C411,-344 417,-350 417,-356"/>
<polyline style="fill:none;stroke:greenyellow;" points="417,-356 417,-378 "/>
<path style="fill:none;stroke:greenyellow;" d="M417,-378C417,-384 411,-390 405,-390"/>
<text text-anchor="middle" x="294" y="-370" style="font-family:Nimbus Sans L;font-weight:bold;font-size:12.96pt;">Waiting for M.C.(Release)</text>
<text text-anchor="middle" x="294" y="-351" style="font-family:Nimbus Sans L;font-weight:bold;font-size:12.96pt;">(UE&#45;Based positioning continue)</text>
</g>
<!-- UE_Assisted&#45;&gt;Waiting_MC_UEBasedCont -->
<g id="edge20" class="edge"><title>UE_Assisted&#45;&gt;Waiting_MC_UEBasedCont</title>
<path style="fill:none;stroke:black;" d="M439,-606C343,-606 310,-466 299,-400"/>
<polygon style="fill:black;stroke:black;" points="302.393,-399.119 297,-390 295.529,-400.492 302.393,-399.119"/>
<a xlink:title="timer a4 expired/\nSend M.R.\n(confidence=100)">
</a>
<a xlink:title="timer a4 expired/\nSend M.R.\n(confidence=100)">
</a>
<text text-anchor="middle" x="387" y="-484" style="font-family:Nimbus Sans L;font-weight:regular;font-size:11.34pt;">timer a4 expired/</text>
<text text-anchor="middle" x="387" y="-468" style="font-family:Nimbus Sans L;font-weight:regular;font-size:11.34pt;">Send M.R.</text>
<text text-anchor="middle" x="387" y="-452" style="font-family:Nimbus Sans L;font-weight:regular;font-size:11.34pt;">(confidence=100)</text>
</g>
<!-- UE_Assisted&#45;&gt;Waiting_MC_UEBasedStop -->
<g id="edge22" class="edge"><title>UE_Assisted&#45;&gt;Waiting_MC_UEBasedStop</title>
<path style="fill:none;stroke:black;" d="M575,-583C575,-513 529,-477 576,-426 621,-375 867,-452 893,-400"/>
<polygon style="fill:black;stroke:black;" points="896.471,-400.492 895,-390 889.607,-399.119 896.471,-400.492"/>
<a xlink:title="UE&#45;Based success/\nStop UE&#45;Based Positioning\nComplete User request\n(UE Based result)\nSend M.R.\n(confidence=68)">
</a>
<a xlink:title="UE&#45;Based success/\nStop UE&#45;Based Positioning\nComplete User request\n(UE Based result)\nSend M.R.\n(confidence=68)">
</a>
<text text-anchor="middle" x="660" y="-508" style="font-family:Nimbus Sans L;font-weight:regular;font-size:11.34pt;">UE&#45;Based success/</text>
<text text-anchor="middle" x="660" y="-492" style="font-family:Nimbus Sans L;font-weight:regular;font-size:11.34pt;">Stop UE&#45;Based Positioning</text>
<text text-anchor="middle" x="660" y="-476" style="font-family:Nimbus Sans L;font-weight:regular;font-size:11.34pt;">Complete User request</text>
<text text-anchor="middle" x="660" y="-460" style="font-family:Nimbus Sans L;font-weight:regular;font-size:11.34pt;">(UE Based result)</text>
<text text-anchor="middle" x="660" y="-444" style="font-family:Nimbus Sans L;font-weight:regular;font-size:11.34pt;">Send M.R.</text>
<text text-anchor="middle" x="660" y="-428" style="font-family:Nimbus Sans L;font-weight:regular;font-size:11.34pt;">(confidence=68)</text>
</g>
<!-- UE_Assisted&#45;&gt;Waiting_MC_UEBasedStop -->
<g id="edge24" class="edge"><title>UE_Assisted&#45;&gt;Waiting_MC_UEBasedStop</title>
<path style="fill:none;stroke:red;" d="M711,-606C734,-606 766,-426 767,-426 804,-386 884,-441 894,-400"/>
<polygon style="fill:red;stroke:red;" points="897.488,-400.299 895,-390 890.522,-399.602 897.488,-400.299"/>
<a xlink:title="UE&#45;Based fix\n(Futile)/\nStop UE&#45;Based Positioning,\nSend M.R.(RefPos)\n(confidence=100)">
</a>
<a xlink:title="UE&#45;Based fix\n(Futile)/\nStop UE&#45;Based Positioning,\nSend M.R.(RefPos)\n(confidence=100)">
</a>
<text text-anchor="middle" x="866" y="-506" style="font-family:Nimbus Sans L;font-weight:regular;font-size:12.96pt;fill:red;">UE&#45;Based fix</text>
<text text-anchor="middle" x="866" y="-487" style="font-family:Nimbus Sans L;font-weight:regular;font-size:12.96pt;fill:red;">(Futile)/</text>
<text text-anchor="middle" x="866" y="-468" style="font-family:Nimbus Sans L;font-weight:regular;font-size:12.96pt;fill:red;">Stop UE&#45;Based Positioning,</text>
<text text-anchor="middle" x="866" y="-449" style="font-family:Nimbus Sans L;font-weight:regular;font-size:12.96pt;fill:red;">Send M.R.(RefPos)</text>
<text text-anchor="middle" x="866" y="-430" style="font-family:Nimbus Sans L;font-weight:regular;font-size:12.96pt;fill:red;">(confidence=100)</text>
</g>
<!-- Waiting_Facility_UEBasedCont -->
<g id="node10" class="node"><title>Waiting_Facility_UEBasedCont</title>
<polygon style="fill:greenyellow;stroke:greenyellow;" points="405,-261 183,-261 171,-249 171,-227 183,-215 405,-215 417,-227 417,-249 405,-261"/>
<path style="fill:greenyellow;stroke:greenyellow;" d="M183,-261C177,-261 171,-255 171,-249"/>
<path style="fill:greenyellow;stroke:greenyellow;" d="M171,-227C171,-221 177,-215 183,-215"/>
<path style="fill:greenyellow;stroke:greenyellow;" d="M405,-215C411,-215 417,-221 417,-227"/>
<path style="fill:greenyellow;stroke:greenyellow;" d="M417,-249C417,-255 411,-261 405,-261"/>
<polyline style="fill:none;stroke:greenyellow;" points="405,-261 183,-261 "/>
<path style="fill:none;stroke:greenyellow;" d="M183,-261C177,-261 171,-255 171,-249"/>
<polyline style="fill:none;stroke:greenyellow;" points="171,-249 171,-227 "/>
<path style="fill:none;stroke:greenyellow;" d="M171,-227C171,-221 177,-215 183,-215"/>
<polyline style="fill:none;stroke:greenyellow;" points="183,-215 405,-215 "/>
<path style="fill:none;stroke:greenyellow;" d="M405,-215C411,-215 417,-221 417,-227"/>
<polyline style="fill:none;stroke:greenyellow;" points="417,-227 417,-249 "/>
<path style="fill:none;stroke:greenyellow;" d="M417,-249C417,-255 411,-261 405,-261"/>
<text text-anchor="middle" x="294" y="-241" style="font-family:Nimbus Sans L;font-weight:bold;font-size:12.96pt;">Waiting for Facility</text>
<text text-anchor="middle" x="294" y="-222" style="font-family:Nimbus Sans L;font-weight:bold;font-size:12.96pt;">(UE&#45;Based positioning continue)</text>
</g>
<!-- UE_Assisted&#45;&gt;Waiting_Facility_UEBasedCont -->
<g id="edge18" class="edge"><title>UE_Assisted&#45;&gt;Waiting_Facility_UEBasedCont</title>
<path style="fill:none;stroke:black;" d="M566,-583C547,-534 497,-418 426,-344 381,-296 303,-326 295,-271"/>
<polygon style="fill:black;stroke:black;" points="298.478,-270.602 294,-261 291.512,-271.299 298.478,-270.602"/>
<a xlink:title="Receive M.C.(Release)">
</a>
<text text-anchor="middle" x="299" y="-264" style="font-family:Nimbus Sans L;font-weight:regular;font-size:11.34pt;">Receive M.C.(Release)</text>
</g>
<!-- Waiting_MC_UEBasedCont&#45;&gt;Waiting_MC_UEBasedStop -->
<g id="edge26" class="edge"><title>Waiting_MC_UEBasedCont&#45;&gt;Waiting_MC_UEBasedStop</title>
<path style="fill:none;stroke:black;" d="M418,-348C424,-348 429,-347 435,-347 577,-336 614,-336 755,-347 757,-347 760,-347 762,-347"/>
<polygon style="fill:black;stroke:black;" points="761.701,-350.488 772,-348 762.398,-343.522 761.701,-350.488"/>
<a xlink:title="UE&#45;Based fix accuracy too low/Stop UE&#45;Based Pos.">
</a>
<a xlink:title="UE&#45;Based fix accuracy too low/Stop UE&#45;Based Pos.">
</a>
<text text-anchor="middle" x="595" y="-349" style="font-family:Nimbus Sans L;font-weight:regular;font-size:11.34pt;">UE&#45;Based fix accuracy too low/Stop UE&#45;Based Pos.</text>
</g>
<!-- Waiting_MC_UEBasedCont&#45;&gt;Waiting_MC_UEBasedStop -->
<g id="edge28" class="edge"><title>Waiting_MC_UEBasedCont&#45;&gt;Waiting_MC_UEBasedStop</title>
<path style="fill:none;stroke:black;" d="M418,-367C519,-367 660,-367 762,-367"/>
<polygon style="fill:black;stroke:black;" points="762,-370.5 772,-367 762,-363.5 762,-370.5"/>
<a xlink:title="UE&#45;Based success/Stop UE&#45;Based Pos.,\nComplete User request(UE Based result)\n">
</a>
<a xlink:title="UE&#45;Based success/Stop UE&#45;Based Pos.,\nComplete User request(UE Based result)\n">
</a>
<text text-anchor="middle" x="595" y="-377" style="font-family:Nimbus Sans L;font-weight:regular;font-size:11.34pt;">UE&#45;Based success/Stop UE&#45;Based Pos.,</text>
<text text-anchor="middle" x="595" y="-361" style="font-family:Nimbus Sans L;font-weight:regular;font-size:11.34pt;">Complete User request(UE Based result)</text>
</g>
<!-- Waiting_MC_UEBasedCont&#45;&gt;Waiting_Facility_UEBasedCont -->
<g id="edge30" class="edge"><title>Waiting_MC_UEBasedCont&#45;&gt;Waiting_Facility_UEBasedCont</title>
<path style="fill:none;stroke:black;" d="M294,-344C294,-311 294,-299 294,-271"/>
<polygon style="fill:black;stroke:black;" points="297.5,-271 294,-261 290.5,-271 297.5,-271"/>
</g>
<!-- End -->
<g id="node13" class="node"><title>End</title>
<polygon style="fill:greenyellow;stroke:greenyellow;" points="684,-101.5 486,-101.5 474,-89.5 474,-48.5 486,-36.5 684,-36.5 696,-48.5 696,-89.5 684,-101.5"/>
<path style="fill:greenyellow;stroke:greenyellow;" d="M486,-101.5C480,-101.5 474,-95.5 474,-89.5"/>
<path style="fill:greenyellow;stroke:greenyellow;" d="M474,-48.5C474,-42.5 480,-36.5 486,-36.5"/>
<path style="fill:greenyellow;stroke:greenyellow;" d="M684,-36.5C690,-36.5 696,-42.5 696,-48.5"/>
<path style="fill:greenyellow;stroke:greenyellow;" d="M696,-89.5C696,-95.5 690,-101.5 684,-101.5"/>
<polyline style="fill:none;stroke:greenyellow;" points="684,-101.5 486,-101.5 "/>
<path style="fill:none;stroke:greenyellow;" d="M486,-101.5C480,-101.5 474,-95.5 474,-89.5"/>
<polyline style="fill:none;stroke:greenyellow;" points="474,-89.5 474,-48.5 "/>
<path style="fill:none;stroke:greenyellow;" d="M474,-48.5C474,-42.5 480,-36.5 486,-36.5"/>
<polyline style="fill:none;stroke:greenyellow;" points="486,-36.5 684,-36.5 "/>
<path style="fill:none;stroke:greenyellow;" d="M684,-36.5C690,-36.5 696,-42.5 696,-48.5"/>
<polyline style="fill:none;stroke:greenyellow;" points="696,-48.5 696,-89.5 "/>
<path style="fill:none;stroke:greenyellow;" d="M696,-89.5C696,-95.5 690,-101.5 684,-101.5"/>
<text text-anchor="middle" x="585" y="-82" style="font-family:Nimbus Sans L;font-weight:bold;font-size:12.96pt;">Positioning Ends</text>
<text text-anchor="middle" x="585" y="-63" style="font-family:Nimbus Sans L;font-weight:bold;font-size:12.96pt;">Complete User Request</text>
<text text-anchor="middle" x="585" y="-44" style="font-family:Nimbus Sans L;font-weight:bold;font-size:12.96pt;">For no UE&#45;Based positioning</text>
</g>
<!-- Waiting_MC_UEBasedCont&#45;&gt;End -->
<g id="edge32" class="edge"><title>Waiting_MC_UEBasedCont&#45;&gt;End</title>
<path style="fill:none;stroke:black;" d="M170,-344C116,-290 56,-334 16,-270 1,-245 0,-228 16,-206 77,-123 350,-72 464,-69"/>
<polygon style="fill:black;stroke:black;" points="464,-72.5001 474,-69 464,-65.5001 464,-72.5001"/>
<a xlink:title="M.C. wait timer expired/\nStop UE&#45;Based\nSend M.R.\n(undefined Error)">
</a>
<a xlink:title="M.C. wait timer expired/\nStop UE&#45;Based\nSend M.R.\n(undefined Error)">
</a>
<text text-anchor="middle" x="92" y="-256" style="font-family:Nimbus Sans L;font-weight:regular;font-size:11.34pt;">M.C. wait timer expired/</text>
<text text-anchor="middle" x="92" y="-240" style="font-family:Nimbus Sans L;font-weight:regular;font-size:11.34pt;">Stop UE&#45;Based</text>
<text text-anchor="middle" x="92" y="-224" style="font-family:Nimbus Sans L;font-weight:regular;font-size:11.34pt;">Send M.R.</text>
<text text-anchor="middle" x="92" y="-208" style="font-family:Nimbus Sans L;font-weight:regular;font-size:11.34pt;">(undefined Error)</text>
</g>
<!-- Waiting_Facility_UEBasedStop -->
<g id="node11" class="node"><title>Waiting_Facility_UEBasedStop</title>
<polygon style="fill:greenyellow;stroke:greenyellow;" points="1178,-261 956,-261 944,-249 944,-227 956,-215 1178,-215 1190,-227 1190,-249 1178,-261"/>
<path style="fill:greenyellow;stroke:greenyellow;" d="M956,-261C950,-261 944,-255 944,-249"/>
<path style="fill:greenyellow;stroke:greenyellow;" d="M944,-227C944,-221 950,-215 956,-215"/>
<path style="fill:greenyellow;stroke:greenyellow;" d="M1178,-215C1184,-215 1190,-221 1190,-227"/>
<path style="fill:greenyellow;stroke:greenyellow;" d="M1190,-249C1190,-255 1184,-261 1178,-261"/>
<polyline style="fill:none;stroke:greenyellow;" points="1178,-261 956,-261 "/>
<path style="fill:none;stroke:greenyellow;" d="M956,-261C950,-261 944,-255 944,-249"/>
<polyline style="fill:none;stroke:greenyellow;" points="944,-249 944,-227 "/>
<path style="fill:none;stroke:greenyellow;" d="M944,-227C944,-221 950,-215 956,-215"/>
<polyline style="fill:none;stroke:greenyellow;" points="956,-215 1178,-215 "/>
<path style="fill:none;stroke:greenyellow;" d="M1178,-215C1184,-215 1190,-221 1190,-227"/>
<polyline style="fill:none;stroke:greenyellow;" points="1190,-227 1190,-249 "/>
<path style="fill:none;stroke:greenyellow;" d="M1190,-249C1190,-255 1184,-261 1178,-261"/>
<text text-anchor="middle" x="1067" y="-241" style="font-family:Nimbus Sans L;font-weight:bold;font-size:12.96pt;">Waiting for Facility</text>
<text text-anchor="middle" x="1067" y="-222" style="font-family:Nimbus Sans L;font-weight:bold;font-size:12.96pt;">(UE&#45;Based positioning Stopped)</text>
</g>
<!-- Waiting_MC_UEBasedStop&#45;&gt;Waiting_Facility_UEBasedStop -->
<g id="edge34" class="edge"><title>Waiting_MC_UEBasedStop&#45;&gt;Waiting_Facility_UEBasedStop</title>
<path style="fill:none;stroke:red;" d="M990,-344C1027,-329 1061,-306 1066,-271"/>
<polygon style="fill:red;stroke:red;" points="1069.49,-271.299 1067,-261 1062.52,-270.602 1069.49,-271.299"/>
<a xlink:title="Receive M.C.(Release)">
</a>
<text text-anchor="middle" x="1070" y="-264" style="font-family:Nimbus Sans L;font-weight:regular;font-size:12.96pt;fill:red;">Receive M.C.(Release)</text>
</g>
<!-- Waiting_MC_UEBasedStop&#45;&gt;End -->
<g id="edge36" class="edge"><title>Waiting_MC_UEBasedStop&#45;&gt;End</title>
<path style="fill:none;stroke:black;" d="M1018,-367C1150,-367 1297,-237 1210,-138 1174,-96 791,-71 706,-69"/>
<polygon style="fill:black;stroke:black;" points="706,-65.5001 696,-69 706,-72.5001 706,-65.5001"/>
<a xlink:title="M.C. wait timer expired/\nSend M.R.\n(undefined Error)">
</a>
<a xlink:title="M.C. wait timer expired/\nSend M.R.\n(undefined Error)">
</a>
<text text-anchor="middle" x="1308" y="-248" style="font-family:Nimbus Sans L;font-weight:regular;font-size:11.34pt;">M.C. wait timer expired/</text>
<text text-anchor="middle" x="1308" y="-232" style="font-family:Nimbus Sans L;font-weight:regular;font-size:11.34pt;">Send M.R.</text>
<text text-anchor="middle" x="1308" y="-216" style="font-family:Nimbus Sans L;font-weight:regular;font-size:11.34pt;">(undefined Error)</text>
</g>
<!-- Waiting_Facility_UEBasedCont&#45;&gt;Waiting_Facility_UEBasedStop -->
<g id="edge38" class="edge"><title>Waiting_Facility_UEBasedCont&#45;&gt;Waiting_Facility_UEBasedStop</title>
<path style="fill:none;stroke:black;" d="M418,-225C451,-222 486,-219 519,-218 663,-211 700,-211 843,-218 873,-219 904,-221 934,-224"/>
<polygon style="fill:black;stroke:black;" points="933.701,-227.488 944,-225 934.398,-220.522 933.701,-227.488"/>
<a xlink:title="UE&#45;Based fix accuracy too low/ Stop UE&#45;Based Pos.">
</a>
<a xlink:title="UE&#45;Based fix accuracy too low/ Stop UE&#45;Based Pos.">
</a>
<text text-anchor="middle" x="681" y="-220" style="font-family:Nimbus Sans L;font-weight:regular;font-size:11.34pt;">UE&#45;Based fix accuracy too low/ Stop UE&#45;Based Pos.</text>
</g>
<!-- Waiting_Facility_UEBasedCont&#45;&gt;Waiting_Facility_UEBasedStop -->
<g id="edge40" class="edge"><title>Waiting_Facility_UEBasedCont&#45;&gt;Waiting_Facility_UEBasedStop</title>
<path style="fill:none;stroke:black;" d="M418,-238C559,-238 789,-238 934,-238"/>
<polygon style="fill:black;stroke:black;" points="934,-241.5 944,-238 934,-234.5 934,-241.5"/>
<a xlink:title="UE&#45;Based success/Stop UE&#45;Based Pos., Complete User request(UE Based result)">
</a>
<a xlink:title="UE&#45;Based success/Stop UE&#45;Based Pos., Complete User request(UE Based result)">
</a>
<text text-anchor="middle" x="681" y="-240" style="font-family:Nimbus Sans L;font-weight:regular;font-size:11.34pt;">UE&#45;Based success/Stop UE&#45;Based Pos., Complete User request(UE Based result)</text>
</g>
<!-- Waiting_Facility_UEBasedCont&#45;&gt;End -->
<g id="edge42" class="edge"><title>Waiting_Facility_UEBasedCont&#45;&gt;End</title>
<path style="fill:none;stroke:black;" d="M293,-214C293,-113 365,-72 464,-69"/>
<polygon style="fill:black;stroke:black;" points="464,-72.5001 474,-69 464,-65.5001 464,-72.5001"/>
<a xlink:title="\n\n\nFacility wait timer expired/\nStop UE&#45;Based Positioning">
</a>
<text text-anchor="middle" x="289" y="-183" style="font-family:Nimbus Sans L;font-weight:regular;font-size:11.34pt;">Facility wait timer expired/</text>
<text text-anchor="middle" x="289" y="-167" style="font-family:Nimbus Sans L;font-weight:regular;font-size:11.34pt;">Stop UE&#45;Based Positioning</text>
</g>
<!-- Waiting_Facility_UEBasedCont&#45;&gt;End -->
<g id="edge44" class="edge"><title>Waiting_Facility_UEBasedCont&#45;&gt;End</title>
<path style="fill:none;stroke:black;" d="M417,-238C492,-238 403,-84 464,-70"/>
<polygon style="fill:black;stroke:black;" points="464.398,-73.4778 474,-69 463.701,-66.5125 464.398,-73.4778"/>
<a xlink:title="Recv Facility/\nStop UE&#45;Based Positioning">
</a>
<a xlink:title="Recv Facility/\nStop UE&#45;Based Positioning">
</a>
<text text-anchor="middle" x="530" y="-156" style="font-family:Nimbus Sans L;font-weight:regular;font-size:11.34pt;">Recv Facility/</text>
<text text-anchor="middle" x="530" y="-140" style="font-family:Nimbus Sans L;font-weight:regular;font-size:11.34pt;">Stop UE&#45;Based Positioning</text>
</g>
<!-- Waiting_Facility_UEBasedStop&#45;&gt;End -->
<g id="edge46" class="edge"><title>Waiting_Facility_UEBasedStop&#45;&gt;End</title>
<path style="fill:none;stroke:red;" d="M943,-214C915,-186 900,-189 867,-170 793,-127 785,-74 706,-69"/>
<polygon style="fill:red;stroke:red;" points="706,-65.5001 696,-69 706,-72.5001 706,-65.5001"/>
<a xlink:title="Recv Facility">
</a>
<a xlink:title="Recv Facility">
</a>
<text text-anchor="middle" x="916" y="-148" style="font-family:Nimbus Sans L;font-weight:regular;font-size:12.96pt;fill:red;">Recv Facility</text>
</g>
<!-- Waiting_Facility_UEBasedStop&#45;&gt;End -->
<g id="edge48" class="edge"><title>Waiting_Facility_UEBasedStop&#45;&gt;End</title>
<path style="fill:none;stroke:black;" d="M1066,-214C1066,-98 807,-71 706,-69"/>
<polygon style="fill:black;stroke:black;" points="706,-65.5001 696,-69 706,-72.5001 706,-65.5001"/>
<a xlink:title="Facility wait timer expired">
</a>
<a xlink:title="Facility wait timer expired">
</a>
<text text-anchor="middle" x="1128" y="-148" style="font-family:Nimbus Sans L;font-weight:regular;font-size:11.34pt;">Facility wait timer expired</text>
</g>
</g>
</svg>
