<?xml version="1.0" encoding="UTF-8" standalone="no"?>
<!DOCTYPE svg PUBLIC "-//W3C//DTD SVG 1.0//EN"
 "http://www.w3.org/TR/2001/REC-SVG-20010904/DTD/svg10.dtd" [
 <!ATTLIST svg xmlns:xlink CDATA #FIXED "http://www.w3.org/1999/xlink">
]>
<!-- Generated by Graphviz version 2.12 (Mon Dec  4 22:04:37 UTC 2006)
     For user: Bill Gates -->
<!-- Title: finite_state_machine Pages: 1 -->
<svg width="10.00in" height="5.63in"
 xmlns="http://www.w3.org/2000/svg" xmlns:xlink="http://www.w3.org/1999/xlink">
<g id="graph0" class="graph" transform="scale(0.652617 0.652617) rotate(0) translate(4 824)">
<title>finite_state_machine</title>
<polygon style="fill:white;stroke:white;" points="-4,4 -4,-824 1467,-824 1467,4 -4,4"/>
<text text-anchor="middle" x="731" y="-8" style="font-family:Nimbus Roman No9 L;font-weight:medium;font-size:19.44pt;">Hybrid &#45; LBS &#45; UE&#45;Assisted MO&#45;LR &#45; Late GPS Result</text>
<!-- Idle -->
<g id="node2" class="node"><title>Idle</title>
<polygon style="fill:greenyellow;stroke:greenyellow;" points="274,-769 244,-769 232,-757 232,-745 244,-733 274,-733 286,-745 286,-757 274,-769"/>
<path style="fill:greenyellow;stroke:greenyellow;" d="M244,-769C238,-769 232,-763 232,-757"/>
<path style="fill:greenyellow;stroke:greenyellow;" d="M232,-745C232,-739 238,-733 244,-733"/>
<path style="fill:greenyellow;stroke:greenyellow;" d="M274,-733C280,-733 286,-739 286,-745"/>
<path style="fill:greenyellow;stroke:greenyellow;" d="M286,-757C286,-763 280,-769 274,-769"/>
<polyline style="fill:none;stroke:greenyellow;" points="274,-769 244,-769 "/>
<path style="fill:none;stroke:greenyellow;" d="M244,-769C238,-769 232,-763 232,-757"/>
<polyline style="fill:none;stroke:greenyellow;" points="232,-757 232,-745 "/>
<path style="fill:none;stroke:greenyellow;" d="M232,-745C232,-739 238,-733 244,-733"/>
<polyline style="fill:none;stroke:greenyellow;" points="244,-733 274,-733 "/>
<path style="fill:none;stroke:greenyellow;" d="M274,-733C280,-733 286,-739 286,-745"/>
<polyline style="fill:none;stroke:greenyellow;" points="286,-745 286,-757 "/>
<path style="fill:none;stroke:greenyellow;" d="M286,-757C286,-763 280,-769 274,-769"/>
<text text-anchor="middle" x="259" y="-745" style="font-family:Nimbus Sans L;font-weight:bold;font-size:12.96pt;">Idle</text>
</g>
<!-- Autonomous -->
<g id="node3" class="node"><title>Autonomous</title>
<polygon style="fill:greenyellow;stroke:greenyellow;" points="672,-774 526,-774 514,-762 514,-740 526,-728 672,-728 684,-740 684,-762 672,-774"/>
<path style="fill:greenyellow;stroke:greenyellow;" d="M526,-774C520,-774 514,-768 514,-762"/>
<path style="fill:greenyellow;stroke:greenyellow;" d="M514,-740C514,-734 520,-728 526,-728"/>
<path style="fill:greenyellow;stroke:greenyellow;" d="M672,-728C678,-728 684,-734 684,-740"/>
<path style="fill:greenyellow;stroke:greenyellow;" d="M684,-762C684,-768 678,-774 672,-774"/>
<polyline style="fill:none;stroke:greenyellow;" points="672,-774 526,-774 "/>
<path style="fill:none;stroke:greenyellow;" d="M526,-774C520,-774 514,-768 514,-762"/>
<polyline style="fill:none;stroke:greenyellow;" points="514,-762 514,-740 "/>
<path style="fill:none;stroke:greenyellow;" d="M514,-740C514,-734 520,-728 526,-728"/>
<polyline style="fill:none;stroke:greenyellow;" points="526,-728 672,-728 "/>
<path style="fill:none;stroke:greenyellow;" d="M672,-728C678,-728 684,-734 684,-740"/>
<polyline style="fill:none;stroke:greenyellow;" points="684,-740 684,-762 "/>
<path style="fill:none;stroke:greenyellow;" d="M684,-762C684,-768 678,-774 672,-774"/>
<text text-anchor="middle" x="599" y="-754" style="font-family:Nimbus Sans L;font-weight:bold;font-size:12.96pt;">Autonomous</text>
<text text-anchor="middle" x="599" y="-735" style="font-family:Nimbus Sans L;font-weight:bold;font-size:12.96pt;">UE&#45;Based positioning</text>
</g>
<!-- Idle&#45;&gt;Autonomous -->
<g id="edge6" class="edge"><title>Idle&#45;&gt;Autonomous</title>
<path style="fill:none;stroke:red;" d="M286,-751C333,-751 430,-751 503,-751"/>
<polygon style="fill:red;stroke:red;" points="503,-754.5 513,-751 503,-747.5 503,-754.5"/>
<a xlink:title="User starts Location check\nStart Autonomous positioning\nStart LcsMOLR">
</a>
<a xlink:title="User starts Location check\nStart Autonomous positioning\nStart LcsMOLR">
</a>
<text text-anchor="middle" x="400" y="-792" style="font-family:Nimbus Sans L;font-weight:regular;font-size:12.96pt;fill:red;">User starts Location check</text>
<text text-anchor="middle" x="400" y="-773" style="font-family:Nimbus Sans L;font-weight:regular;font-size:12.96pt;fill:red;">Start Autonomous positioning</text>
<text text-anchor="middle" x="400" y="-754" style="font-family:Nimbus Sans L;font-weight:regular;font-size:12.96pt;fill:red;">Start LcsMOLR</text>
</g>
<!-- UE_Based -->
<g id="node4" class="node"><title>UE_Based</title>
<polygon style="fill:greenyellow;stroke:greenyellow;" points="1102,-774 872,-774 860,-762 860,-740 872,-728 1102,-728 1114,-740 1114,-762 1102,-774"/>
<path style="fill:greenyellow;stroke:greenyellow;" d="M872,-774C866,-774 860,-768 860,-762"/>
<path style="fill:greenyellow;stroke:greenyellow;" d="M860,-740C860,-734 866,-728 872,-728"/>
<path style="fill:greenyellow;stroke:greenyellow;" d="M1102,-728C1108,-728 1114,-734 1114,-740"/>
<path style="fill:greenyellow;stroke:greenyellow;" d="M1114,-762C1114,-768 1108,-774 1102,-774"/>
<polyline style="fill:none;stroke:greenyellow;" points="1102,-774 872,-774 "/>
<path style="fill:none;stroke:greenyellow;" d="M872,-774C866,-774 860,-768 860,-762"/>
<polyline style="fill:none;stroke:greenyellow;" points="860,-762 860,-740 "/>
<path style="fill:none;stroke:greenyellow;" d="M860,-740C860,-734 866,-728 872,-728"/>
<polyline style="fill:none;stroke:greenyellow;" points="872,-728 1102,-728 "/>
<path style="fill:none;stroke:greenyellow;" d="M1102,-728C1108,-728 1114,-734 1114,-740"/>
<polyline style="fill:none;stroke:greenyellow;" points="1114,-740 1114,-762 "/>
<path style="fill:none;stroke:greenyellow;" d="M1114,-762C1114,-768 1108,-774 1102,-774"/>
<text text-anchor="middle" x="987" y="-754" style="font-family:Nimbus Sans L;font-weight:bold;font-size:12.96pt;">Performing UE&#45;Based positioning</text>
<text text-anchor="middle" x="987" y="-735" style="font-family:Nimbus Sans L;font-weight:bold;font-size:12.96pt;">under Hybrid Positioning</text>
</g>
<!-- Autonomous&#45;&gt;UE_Based -->
<g id="edge8" class="edge"><title>Autonomous&#45;&gt;UE_Based</title>
<path style="fill:none;stroke:red;" d="M685,-751C733,-751 794,-751 850,-751"/>
<polygon style="fill:red;stroke:red;" points="850,-754.5 860,-751 850,-747.5 850,-754.5"/>
<a xlink:title="Receives M.C.(Setup)\nStart a2,a4 timer">
</a>
<a xlink:title="Receives M.C.(Setup)\nStart a2,a4 timer">
</a>
<text text-anchor="middle" x="772" y="-773" style="font-family:Nimbus Sans L;font-weight:regular;font-size:12.96pt;fill:red;">Receives M.C.(Setup)</text>
<text text-anchor="middle" x="772" y="-754" style="font-family:Nimbus Sans L;font-weight:regular;font-size:12.96pt;fill:red;">Start a2,a4 timer</text>
</g>
<!-- UE_Assisted -->
<g id="node5" class="node"><title>UE_Assisted</title>
<polygon style="fill:greenyellow;stroke:greenyellow;" points="732,-629 486,-629 474,-617 474,-595 486,-583 732,-583 744,-595 744,-617 732,-629"/>
<path style="fill:greenyellow;stroke:greenyellow;" d="M486,-629C480,-629 474,-623 474,-617"/>
<path style="fill:greenyellow;stroke:greenyellow;" d="M474,-595C474,-589 480,-583 486,-583"/>
<path style="fill:greenyellow;stroke:greenyellow;" d="M732,-583C738,-583 744,-589 744,-595"/>
<path style="fill:greenyellow;stroke:greenyellow;" d="M744,-617C744,-623 738,-629 732,-629"/>
<polyline style="fill:none;stroke:greenyellow;" points="732,-629 486,-629 "/>
<path style="fill:none;stroke:greenyellow;" d="M486,-629C480,-629 474,-623 474,-617"/>
<polyline style="fill:none;stroke:greenyellow;" points="474,-617 474,-595 "/>
<path style="fill:none;stroke:greenyellow;" d="M474,-595C474,-589 480,-583 486,-583"/>
<polyline style="fill:none;stroke:greenyellow;" points="486,-583 732,-583 "/>
<path style="fill:none;stroke:greenyellow;" d="M732,-583C738,-583 744,-589 744,-595"/>
<polyline style="fill:none;stroke:greenyellow;" points="744,-595 744,-617 "/>
<path style="fill:none;stroke:greenyellow;" d="M744,-617C744,-623 738,-629 732,-629"/>
<text text-anchor="middle" x="609" y="-609" style="font-family:Nimbus Sans L;font-weight:bold;font-size:12.96pt;">Performing UE&#45;Assisted positioning</text>
<text text-anchor="middle" x="609" y="-590" style="font-family:Nimbus Sans L;font-weight:bold;font-size:12.96pt;">(UE&#45;Based positioning continue)</text>
</g>
<!-- UE_Based&#45;&gt;UE_Assisted -->
<g id="edge10" class="edge"><title>UE_Based&#45;&gt;UE_Assisted</title>
<path style="fill:none;stroke:red;" d="M860,-728C815,-683 750,-652 698,-632"/>
<polygon style="fill:red;stroke:red;" points="698.584,-628.521 688,-629 696.573,-635.226 698.584,-628.521"/>
<a xlink:title="\n\n\n\n\nTimer a2 expired/\nSend M.R\nReceive M.C.\n(Modify,Reporting Interval=t)\nStart up Timer t">
</a>
<text text-anchor="middle" x="850" y="-709" style="font-family:Nimbus Sans L;font-weight:regular;font-size:12.96pt;fill:red;">Timer a2 expired/</text>
<text text-anchor="middle" x="850" y="-690" style="font-family:Nimbus Sans L;font-weight:regular;font-size:12.96pt;fill:red;">Send M.R</text>
<text text-anchor="middle" x="850" y="-671" style="font-family:Nimbus Sans L;font-weight:regular;font-size:12.96pt;fill:red;">Receive M.C.</text>
<text text-anchor="middle" x="850" y="-652" style="font-family:Nimbus Sans L;font-weight:regular;font-size:12.96pt;fill:red;">(Modify,Reporting Interval=t)</text>
<text text-anchor="middle" x="850" y="-633" style="font-family:Nimbus Sans L;font-weight:regular;font-size:12.96pt;fill:red;">Start up Timer t</text>
</g>
<!-- Waiting_MC_UEBasedStop -->
<g id="node8" class="node"><title>Waiting_MC_UEBasedStop</title>
<polygon style="fill:greenyellow;stroke:greenyellow;" points="1027,-390 805,-390 793,-378 793,-356 805,-344 1027,-344 1039,-356 1039,-378 1027,-390"/>
<path style="fill:greenyellow;stroke:greenyellow;" d="M805,-390C799,-390 793,-384 793,-378"/>
<path style="fill:greenyellow;stroke:greenyellow;" d="M793,-356C793,-350 799,-344 805,-344"/>
<path style="fill:greenyellow;stroke:greenyellow;" d="M1027,-344C1033,-344 1039,-350 1039,-356"/>
<path style="fill:greenyellow;stroke:greenyellow;" d="M1039,-378C1039,-384 1033,-390 1027,-390"/>
<polyline style="fill:none;stroke:greenyellow;" points="1027,-390 805,-390 "/>
<path style="fill:none;stroke:greenyellow;" d="M805,-390C799,-390 793,-384 793,-378"/>
<polyline style="fill:none;stroke:greenyellow;" points="793,-378 793,-356 "/>
<path style="fill:none;stroke:greenyellow;" d="M793,-356C793,-350 799,-344 805,-344"/>
<polyline style="fill:none;stroke:greenyellow;" points="805,-344 1027,-344 "/>
<path style="fill:none;stroke:greenyellow;" d="M1027,-344C1033,-344 1039,-350 1039,-356"/>
<polyline style="fill:none;stroke:greenyellow;" points="1039,-356 1039,-378 "/>
<path style="fill:none;stroke:greenyellow;" d="M1039,-378C1039,-384 1033,-390 1027,-390"/>
<text text-anchor="middle" x="916" y="-370" style="font-family:Nimbus Sans L;font-weight:bold;font-size:12.96pt;">Waiting for M.C.(Release)</text>
<text text-anchor="middle" x="916" y="-351" style="font-family:Nimbus Sans L;font-weight:bold;font-size:12.96pt;">(UE&#45;Based positioning Stopped)</text>
</g>
<!-- UE_Based&#45;&gt;Waiting_MC_UEBasedStop -->
<g id="edge12" class="edge"><title>UE_Based&#45;&gt;Waiting_MC_UEBasedStop</title>
<path style="fill:none;stroke:black;" d="M987,-728C988,-692 992,-619 1001,-558 1012,-476 1116,-376 1049,-368"/>
<polygon style="fill:black;stroke:black;" points="1049.3,-364.512 1039,-367 1048.6,-371.478 1049.3,-364.512"/>
<a xlink:title="UE&#45;Based success/\nStop UE&#45;Based Positioning\nComplete User request\n(UE Based result)\nSend M.R.\n(confidence=68)">
</a>
<a xlink:title="UE&#45;Based success/\nStop UE&#45;Based Positioning\nComplete User request\n(UE Based result)\nSend M.R.\n(confidence=68)">
</a>
<text text-anchor="middle" x="1085" y="-640" style="font-family:Nimbus Sans L;font-weight:regular;font-size:11.34pt;">UE&#45;Based success/</text>
<text text-anchor="middle" x="1085" y="-624" style="font-family:Nimbus Sans L;font-weight:regular;font-size:11.34pt;">Stop UE&#45;Based Positioning</text>
<text text-anchor="middle" x="1085" y="-608" style="font-family:Nimbus Sans L;font-weight:regular;font-size:11.34pt;">Complete User request</text>
<text text-anchor="middle" x="1085" y="-592" style="font-family:Nimbus Sans L;font-weight:regular;font-size:11.34pt;">(UE Based result)</text>
<text text-anchor="middle" x="1085" y="-576" style="font-family:Nimbus Sans L;font-weight:regular;font-size:11.34pt;">Send M.R.</text>
<text text-anchor="middle" x="1085" y="-560" style="font-family:Nimbus Sans L;font-weight:regular;font-size:11.34pt;">(confidence=68)</text>
</g>
<!-- UE_Based&#45;&gt;Waiting_MC_UEBasedStop -->
<g id="edge14" class="edge"><title>UE_Based&#45;&gt;Waiting_MC_UEBasedStop</title>
<path style="fill:none;stroke:black;" d="M1114,-751C1284,-751 1215,-382 1049,-367"/>
<polygon style="fill:black;stroke:black;" points="1049,-363.5 1039,-367 1049,-370.5 1049,-363.5"/>
<a xlink:title="UE&#45;Based fix\n(Futile)/\nStop UE&#45;Based\nPositioning,\nSend M.R.(RefPos)\n(confidence=100)">
</a>
<a xlink:title="UE&#45;Based fix\n(Futile)/\nStop UE&#45;Based\nPositioning,\nSend M.R.(RefPos)\n(confidence=100)">
</a>
<text text-anchor="middle" x="1271" y="-640" style="font-family:Nimbus Sans L;font-weight:regular;font-size:11.34pt;">UE&#45;Based fix</text>
<text text-anchor="middle" x="1271" y="-624" style="font-family:Nimbus Sans L;font-weight:regular;font-size:11.34pt;">(Futile)/</text>
<text text-anchor="middle" x="1271" y="-608" style="font-family:Nimbus Sans L;font-weight:regular;font-size:11.34pt;">Stop UE&#45;Based</text>
<text text-anchor="middle" x="1271" y="-592" style="font-family:Nimbus Sans L;font-weight:regular;font-size:11.34pt;">Positioning,</text>
<text text-anchor="middle" x="1271" y="-576" style="font-family:Nimbus Sans L;font-weight:regular;font-size:11.34pt;">Send M.R.(RefPos)</text>
<text text-anchor="middle" x="1271" y="-560" style="font-family:Nimbus Sans L;font-weight:regular;font-size:11.34pt;">(confidence=100)</text>
</g>
<!-- UE_Assisted&#45;&gt;UE_Assisted -->
<g id="edge16" class="edge"><title>UE_Assisted&#45;&gt;UE_Assisted</title>
<path style="fill:none;stroke:red;" d="M565,-629C514,-645 456,-635 456,-594 456,-546 466,-541 472,-573"/>
<polygon style="fill:red;stroke:red;" points="468.607,-573.881 474,-583 475.471,-572.508 468.607,-573.881"/>
<a xlink:title="\n\n\nTimer t expired/\nSend M.R,\nrestart timer t">
</a>
<text text-anchor="middle" x="468" y="-559" style="font-family:Nimbus Sans L;font-weight:regular;font-size:12.96pt;fill:red;">Timer t expired/</text>
<text text-anchor="middle" x="468" y="-540" style="font-family:Nimbus Sans L;font-weight:regular;font-size:12.96pt;fill:red;">Send M.R,</text>
<text text-anchor="middle" x="468" y="-521" style="font-family:Nimbus Sans L;font-weight:regular;font-size:12.96pt;fill:red;">restart timer t</text>
</g>
<!-- Waiting_MC_UEBasedCont -->
<g id="node7" class="node"><title>Waiting_MC_UEBasedCont</title>
<polygon style="fill:greenyellow;stroke:greenyellow;" points="406,-390 184,-390 172,-378 172,-356 184,-344 406,-344 418,-356 418,-378 406,-390"/>
<path style="fill:greenyellow;stroke:greenyellow;" d="M184,-390C178,-390 172,-384 172,-378"/>
<path style="fill:greenyellow;stroke:greenyellow;" d="M172,-356C172,-350 178,-344 184,-344"/>
<path style="fill:greenyellow;stroke:greenyellow;" d="M406,-344C412,-344 418,-350 418,-356"/>
<path style="fill:greenyellow;stroke:greenyellow;" d="M418,-378C418,-384 412,-390 406,-390"/>
<polyline style="fill:none;stroke:greenyellow;" points="406,-390 184,-390 "/>
<path style="fill:none;stroke:greenyellow;" d="M184,-390C178,-390 172,-384 172,-378"/>
<polyline style="fill:none;stroke:greenyellow;" points="172,-378 172,-356 "/>
<path style="fill:none;stroke:greenyellow;" d="M172,-356C172,-350 178,-344 184,-344"/>
<polyline style="fill:none;stroke:greenyellow;" points="184,-344 406,-344 "/>
<path style="fill:none;stroke:greenyellow;" d="M406,-344C412,-344 418,-350 418,-356"/>
<polyline style="fill:none;stroke:greenyellow;" points="418,-356 418,-378 "/>
<path style="fill:none;stroke:greenyellow;" d="M418,-378C418,-384 412,-390 406,-390"/>
<text text-anchor="middle" x="295" y="-370" style="font-family:Nimbus Sans L;font-weight:bold;font-size:12.96pt;">Waiting for M.C.(Release)</text>
<text text-anchor="middle" x="295" y="-351" style="font-family:Nimbus Sans L;font-weight:bold;font-size:12.96pt;">(UE&#45;Based positioning continue)</text>
</g>
<!-- UE_Assisted&#45;&gt;Waiting_MC_UEBasedCont -->
<g id="edge20" class="edge"><title>UE_Assisted&#45;&gt;Waiting_MC_UEBasedCont</title>
<path style="fill:none;stroke:black;" d="M473,-606C371,-606 321,-465 303,-400"/>
<polygon style="fill:black;stroke:black;" points="306.226,-398.573 300,-390 299.521,-400.584 306.226,-398.573"/>
<a xlink:title="timer a4 expired/\nSend M.R.\n(confidence=100)">
</a>
<a xlink:title="timer a4 expired/\nSend M.R.\n(confidence=100)">
</a>
<text text-anchor="middle" x="406" y="-484" style="font-family:Nimbus Sans L;font-weight:regular;font-size:11.34pt;">timer a4 expired/</text>
<text text-anchor="middle" x="406" y="-468" style="font-family:Nimbus Sans L;font-weight:regular;font-size:11.34pt;">Send M.R.</text>
<text text-anchor="middle" x="406" y="-452" style="font-family:Nimbus Sans L;font-weight:regular;font-size:11.34pt;">(confidence=100)</text>
</g>
<!-- UE_Assisted&#45;&gt;Waiting_MC_UEBasedStop -->
<g id="edge22" class="edge"><title>UE_Assisted&#45;&gt;Waiting_MC_UEBasedStop</title>
<path style="fill:none;stroke:black;" d="M609,-583C609,-513 563,-477 610,-426 653,-377 888,-449 914,-400"/>
<polygon style="fill:black;stroke:black;" points="917.471,-400.492 916,-390 910.607,-399.119 917.471,-400.492"/>
<a xlink:title="UE&#45;Based success/\nStop UE&#45;Based Positioning\nComplete User request\n(UE Based result)\nSend M.R.\n(confidence=68)">
</a>
<a xlink:title="UE&#45;Based success/\nStop UE&#45;Based Positioning\nComplete User request\n(UE Based result)\nSend M.R.\n(confidence=68)">
</a>
<text text-anchor="middle" x="694" y="-508" style="font-family:Nimbus Sans L;font-weight:regular;font-size:11.34pt;">UE&#45;Based success/</text>
<text text-anchor="middle" x="694" y="-492" style="font-family:Nimbus Sans L;font-weight:regular;font-size:11.34pt;">Stop UE&#45;Based Positioning</text>
<text text-anchor="middle" x="694" y="-476" style="font-family:Nimbus Sans L;font-weight:regular;font-size:11.34pt;">Complete User request</text>
<text text-anchor="middle" x="694" y="-460" style="font-family:Nimbus Sans L;font-weight:regular;font-size:11.34pt;">(UE Based result)</text>
<text text-anchor="middle" x="694" y="-444" style="font-family:Nimbus Sans L;font-weight:regular;font-size:11.34pt;">Send M.R.</text>
<text text-anchor="middle" x="694" y="-428" style="font-family:Nimbus Sans L;font-weight:regular;font-size:11.34pt;">(confidence=68)</text>
</g>
<!-- UE_Assisted&#45;&gt;Waiting_MC_UEBasedStop -->
<g id="edge24" class="edge"><title>UE_Assisted&#45;&gt;Waiting_MC_UEBasedStop</title>
<path style="fill:none;stroke:black;" d="M745,-606C768,-606 800,-426 801,-426 834,-389 905,-435 915,-400"/>
<polygon style="fill:black;stroke:black;" points="918.488,-400.299 916,-390 911.522,-399.602 918.488,-400.299"/>
<a xlink:title="UE&#45;Based fix\n(Futile)/\nStop UE&#45;Based Positioning,\nSend M.R.(RefPos)\n(confidence=100)">
</a>
<a xlink:title="UE&#45;Based fix\n(Futile)/\nStop UE&#45;Based Positioning,\nSend M.R.(RefPos)\n(confidence=100)">
</a>
<text text-anchor="middle" x="887" y="-500" style="font-family:Nimbus Sans L;font-weight:regular;font-size:11.34pt;">UE&#45;Based fix</text>
<text text-anchor="middle" x="887" y="-484" style="font-family:Nimbus Sans L;font-weight:regular;font-size:11.34pt;">(Futile)/</text>
<text text-anchor="middle" x="887" y="-468" style="font-family:Nimbus Sans L;font-weight:regular;font-size:11.34pt;">Stop UE&#45;Based Positioning,</text>
<text text-anchor="middle" x="887" y="-452" style="font-family:Nimbus Sans L;font-weight:regular;font-size:11.34pt;">Send M.R.(RefPos)</text>
<text text-anchor="middle" x="887" y="-436" style="font-family:Nimbus Sans L;font-weight:regular;font-size:11.34pt;">(confidence=100)</text>
</g>
<!-- Waiting_Facility_UEBasedCont -->
<g id="node10" class="node"><title>Waiting_Facility_UEBasedCont</title>
<polygon style="fill:greenyellow;stroke:greenyellow;" points="406,-261 184,-261 172,-249 172,-227 184,-215 406,-215 418,-227 418,-249 406,-261"/>
<path style="fill:greenyellow;stroke:greenyellow;" d="M184,-261C178,-261 172,-255 172,-249"/>
<path style="fill:greenyellow;stroke:greenyellow;" d="M172,-227C172,-221 178,-215 184,-215"/>
<path style="fill:greenyellow;stroke:greenyellow;" d="M406,-215C412,-215 418,-221 418,-227"/>
<path style="fill:greenyellow;stroke:greenyellow;" d="M418,-249C418,-255 412,-261 406,-261"/>
<polyline style="fill:none;stroke:greenyellow;" points="406,-261 184,-261 "/>
<path style="fill:none;stroke:greenyellow;" d="M184,-261C178,-261 172,-255 172,-249"/>
<polyline style="fill:none;stroke:greenyellow;" points="172,-249 172,-227 "/>
<path style="fill:none;stroke:greenyellow;" d="M172,-227C172,-221 178,-215 184,-215"/>
<polyline style="fill:none;stroke:greenyellow;" points="184,-215 406,-215 "/>
<path style="fill:none;stroke:greenyellow;" d="M406,-215C412,-215 418,-221 418,-227"/>
<polyline style="fill:none;stroke:greenyellow;" points="418,-227 418,-249 "/>
<path style="fill:none;stroke:greenyellow;" d="M418,-249C418,-255 412,-261 406,-261"/>
<text text-anchor="middle" x="295" y="-241" style="font-family:Nimbus Sans L;font-weight:bold;font-size:12.96pt;">Waiting for Facility</text>
<text text-anchor="middle" x="295" y="-222" style="font-family:Nimbus Sans L;font-weight:bold;font-size:12.96pt;">(UE&#45;Based positioning continue)</text>
</g>
<!-- UE_Assisted&#45;&gt;Waiting_Facility_UEBasedCont -->
<g id="edge18" class="edge"><title>UE_Assisted&#45;&gt;Waiting_Facility_UEBasedCont</title>
<path style="fill:none;stroke:red;" d="M597,-583C571,-534 506,-419 427,-344 379,-299 303,-327 296,-271"/>
<polygon style="fill:red;stroke:red;" points="299.478,-270.602 295,-261 292.512,-271.299 299.478,-270.602"/>
<a xlink:title="Receive M.C.(Release)">
</a>
<text text-anchor="middle" x="300" y="-264" style="font-family:Nimbus Sans L;font-weight:regular;font-size:12.96pt;fill:red;">Receive M.C.(Release)</text>
</g>
<!-- Waiting_MC_UEBasedCont&#45;&gt;Waiting_MC_UEBasedStop -->
<g id="edge26" class="edge"><title>Waiting_MC_UEBasedCont&#45;&gt;Waiting_MC_UEBasedStop</title>
<path style="fill:none;stroke:black;" d="M419,-349C428,-348 437,-348 446,-347 588,-337 625,-337 766,-347 772,-348 777,-348 783,-348"/>
<polygon style="fill:black;stroke:black;" points="782.701,-351.488 793,-349 783.398,-344.522 782.701,-351.488"/>
<a xlink:title="UE&#45;Based fix accuracy too low/Stop UE&#45;Based Pos.">
</a>
<a xlink:title="UE&#45;Based fix accuracy too low/Stop UE&#45;Based Pos.">
</a>
<text text-anchor="middle" x="606" y="-349" style="font-family:Nimbus Sans L;font-weight:regular;font-size:11.34pt;">UE&#45;Based fix accuracy too low/Stop UE&#45;Based Pos.</text>
</g>
<!-- Waiting_MC_UEBasedCont&#45;&gt;Waiting_MC_UEBasedStop -->
<g id="edge28" class="edge"><title>Waiting_MC_UEBasedCont&#45;&gt;Waiting_MC_UEBasedStop</title>
<path style="fill:none;stroke:black;" d="M419,-367C525,-367 675,-367 783,-367"/>
<polygon style="fill:black;stroke:black;" points="783,-370.5 793,-367 783,-363.5 783,-370.5"/>
<a xlink:title="UE&#45;Based success/Stop UE&#45;Based Pos.,\nComplete User request(UE Based result)\n">
</a>
<a xlink:title="UE&#45;Based success/Stop UE&#45;Based Pos.,\nComplete User request(UE Based result)\n">
</a>
<text text-anchor="middle" x="606" y="-377" style="font-family:Nimbus Sans L;font-weight:regular;font-size:11.34pt;">UE&#45;Based success/Stop UE&#45;Based Pos.,</text>
<text text-anchor="middle" x="606" y="-361" style="font-family:Nimbus Sans L;font-weight:regular;font-size:11.34pt;">Complete User request(UE Based result)</text>
</g>
<!-- Waiting_MC_UEBasedCont&#45;&gt;Waiting_Facility_UEBasedCont -->
<g id="edge30" class="edge"><title>Waiting_MC_UEBasedCont&#45;&gt;Waiting_Facility_UEBasedCont</title>
<path style="fill:none;stroke:black;" d="M295,-344C295,-311 295,-299 295,-271"/>
<polygon style="fill:black;stroke:black;" points="298.5,-271 295,-261 291.5,-271 298.5,-271"/>
</g>
<!-- End -->
<g id="node13" class="node"><title>End</title>
<polygon style="fill:greenyellow;stroke:greenyellow;" points="700,-101.5 502,-101.5 490,-89.5 490,-48.5 502,-36.5 700,-36.5 712,-48.5 712,-89.5 700,-101.5"/>
<path style="fill:greenyellow;stroke:greenyellow;" d="M502,-101.5C496,-101.5 490,-95.5 490,-89.5"/>
<path style="fill:greenyellow;stroke:greenyellow;" d="M490,-48.5C490,-42.5 496,-36.5 502,-36.5"/>
<path style="fill:greenyellow;stroke:greenyellow;" d="M700,-36.5C706,-36.5 712,-42.5 712,-48.5"/>
<path style="fill:greenyellow;stroke:greenyellow;" d="M712,-89.5C712,-95.5 706,-101.5 700,-101.5"/>
<polyline style="fill:none;stroke:greenyellow;" points="700,-101.5 502,-101.5 "/>
<path style="fill:none;stroke:greenyellow;" d="M502,-101.5C496,-101.5 490,-95.5 490,-89.5"/>
<polyline style="fill:none;stroke:greenyellow;" points="490,-89.5 490,-48.5 "/>
<path style="fill:none;stroke:greenyellow;" d="M490,-48.5C490,-42.5 496,-36.5 502,-36.5"/>
<polyline style="fill:none;stroke:greenyellow;" points="502,-36.5 700,-36.5 "/>
<path style="fill:none;stroke:greenyellow;" d="M700,-36.5C706,-36.5 712,-42.5 712,-48.5"/>
<polyline style="fill:none;stroke:greenyellow;" points="712,-48.5 712,-89.5 "/>
<path style="fill:none;stroke:greenyellow;" d="M712,-89.5C712,-95.5 706,-101.5 700,-101.5"/>
<text text-anchor="middle" x="601" y="-82" style="font-family:Nimbus Sans L;font-weight:bold;font-size:12.96pt;">Positioning Ends</text>
<text text-anchor="middle" x="601" y="-63" style="font-family:Nimbus Sans L;font-weight:bold;font-size:12.96pt;">Complete User Request</text>
<text text-anchor="middle" x="601" y="-44" style="font-family:Nimbus Sans L;font-weight:bold;font-size:12.96pt;">For no UE&#45;Based positioning</text>
</g>
<!-- Waiting_MC_UEBasedCont&#45;&gt;End -->
<g id="edge32" class="edge"><title>Waiting_MC_UEBasedCont&#45;&gt;End</title>
<path style="fill:none;stroke:black;" d="M171,-344C117,-290 58,-334 17,-270 2,-245 0,-228 17,-206 80,-121 363,-72 480,-69"/>
<polygon style="fill:black;stroke:black;" points="480,-72.5001 490,-69 480,-65.5001 480,-72.5001"/>
<a xlink:title="M.C. wait timer expired/\nStop UE&#45;Based\nSend M.R.\n(undefined Error)">
</a>
<a xlink:title="M.C. wait timer expired/\nStop UE&#45;Based\nSend M.R.\n(undefined Error)">
</a>
<text text-anchor="middle" x="93" y="-256" style="font-family:Nimbus Sans L;font-weight:regular;font-size:11.34pt;">M.C. wait timer expired/</text>
<text text-anchor="middle" x="93" y="-240" style="font-family:Nimbus Sans L;font-weight:regular;font-size:11.34pt;">Stop UE&#45;Based</text>
<text text-anchor="middle" x="93" y="-224" style="font-family:Nimbus Sans L;font-weight:regular;font-size:11.34pt;">Send M.R.</text>
<text text-anchor="middle" x="93" y="-208" style="font-family:Nimbus Sans L;font-weight:regular;font-size:11.34pt;">(undefined Error)</text>
</g>
<!-- Waiting_Facility_UEBasedStop -->
<g id="node11" class="node"><title>Waiting_Facility_UEBasedStop</title>
<polygon style="fill:greenyellow;stroke:greenyellow;" points="1261,-261 1039,-261 1027,-249 1027,-227 1039,-215 1261,-215 1273,-227 1273,-249 1261,-261"/>
<path style="fill:greenyellow;stroke:greenyellow;" d="M1039,-261C1033,-261 1027,-255 1027,-249"/>
<path style="fill:greenyellow;stroke:greenyellow;" d="M1027,-227C1027,-221 1033,-215 1039,-215"/>
<path style="fill:greenyellow;stroke:greenyellow;" d="M1261,-215C1267,-215 1273,-221 1273,-227"/>
<path style="fill:greenyellow;stroke:greenyellow;" d="M1273,-249C1273,-255 1267,-261 1261,-261"/>
<polyline style="fill:none;stroke:greenyellow;" points="1261,-261 1039,-261 "/>
<path style="fill:none;stroke:greenyellow;" d="M1039,-261C1033,-261 1027,-255 1027,-249"/>
<polyline style="fill:none;stroke:greenyellow;" points="1027,-249 1027,-227 "/>
<path style="fill:none;stroke:greenyellow;" d="M1027,-227C1027,-221 1033,-215 1039,-215"/>
<polyline style="fill:none;stroke:greenyellow;" points="1039,-215 1261,-215 "/>
<path style="fill:none;stroke:greenyellow;" d="M1261,-215C1267,-215 1273,-221 1273,-227"/>
<polyline style="fill:none;stroke:greenyellow;" points="1273,-227 1273,-249 "/>
<path style="fill:none;stroke:greenyellow;" d="M1273,-249C1273,-255 1267,-261 1261,-261"/>
<text text-anchor="middle" x="1150" y="-241" style="font-family:Nimbus Sans L;font-weight:bold;font-size:12.96pt;">Waiting for Facility</text>
<text text-anchor="middle" x="1150" y="-222" style="font-family:Nimbus Sans L;font-weight:bold;font-size:12.96pt;">(UE&#45;Based positioning Stopped)</text>
</g>
<!-- Waiting_MC_UEBasedStop&#45;&gt;Waiting_Facility_UEBasedStop -->
<g id="edge34" class="edge"><title>Waiting_MC_UEBasedStop&#45;&gt;Waiting_Facility_UEBasedStop</title>
<path style="fill:none;stroke:black;" d="M1006,-344C1065,-326 1134,-300 1148,-271"/>
<polygon style="fill:black;stroke:black;" points="1151.47,-271.492 1150,-261 1144.61,-270.119 1151.47,-271.492"/>
<a xlink:title="Receive M.C.(Release)">
</a>
<text text-anchor="middle" x="1152" y="-265" style="font-family:Nimbus Sans L;font-weight:regular;font-size:11.34pt;">Receive M.C.(Release)</text>
</g>
<!-- Waiting_MC_UEBasedStop&#45;&gt;End -->
<g id="edge36" class="edge"><title>Waiting_MC_UEBasedStop&#45;&gt;End</title>
<path style="fill:none;stroke:black;" d="M1039,-367C1190,-367 1392,-251 1292,-138 1250,-91 815,-71 722,-69"/>
<polygon style="fill:black;stroke:black;" points="722,-65.5001 712,-69 722,-72.5001 722,-65.5001"/>
<a xlink:title="M.C. wait timer expired/\nSend M.R.\n(undefined Error)">
</a>
<a xlink:title="M.C. wait timer expired/\nSend M.R.\n(undefined Error)">
</a>
<text text-anchor="middle" x="1390" y="-248" style="font-family:Nimbus Sans L;font-weight:regular;font-size:11.34pt;">M.C. wait timer expired/</text>
<text text-anchor="middle" x="1390" y="-232" style="font-family:Nimbus Sans L;font-weight:regular;font-size:11.34pt;">Send M.R.</text>
<text text-anchor="middle" x="1390" y="-216" style="font-family:Nimbus Sans L;font-weight:regular;font-size:11.34pt;">(undefined Error)</text>
</g>
<!-- Waiting_Facility_UEBasedCont&#45;&gt;Waiting_Facility_UEBasedStop -->
<g id="edge38" class="edge"><title>Waiting_Facility_UEBasedCont&#45;&gt;Waiting_Facility_UEBasedStop</title>
<path style="fill:none;stroke:black;" d="M419,-227C463,-223 515,-220 561,-218 705,-212 742,-212 885,-218 929,-220 975,-223 1017,-226"/>
<polygon style="fill:black;stroke:black;" points="1016.7,-229.488 1027,-227 1017.4,-222.522 1016.7,-229.488"/>
<a xlink:title="UE&#45;Based fix accuracy too low/ Stop UE&#45;Based Pos.">
</a>
<a xlink:title="UE&#45;Based fix accuracy too low/ Stop UE&#45;Based Pos.">
</a>
<text text-anchor="middle" x="723" y="-220" style="font-family:Nimbus Sans L;font-weight:regular;font-size:11.34pt;">UE&#45;Based fix accuracy too low/ Stop UE&#45;Based Pos.</text>
</g>
<!-- Waiting_Facility_UEBasedCont&#45;&gt;Waiting_Facility_UEBasedStop -->
<g id="edge40" class="edge"><title>Waiting_Facility_UEBasedCont&#45;&gt;Waiting_Facility_UEBasedStop</title>
<path style="fill:none;stroke:red;" d="M419,-238C578,-238 853,-238 1017,-238"/>
<polygon style="fill:red;stroke:red;" points="1017,-241.5 1027,-238 1017,-234.5 1017,-241.5"/>
<a xlink:title="UE&#45;Based success/Stop UE&#45;Based Pos., Complete User request(UE Based result)">
</a>
<a xlink:title="UE&#45;Based success/Stop UE&#45;Based Pos., Complete User request(UE Based result)">
</a>
<text text-anchor="middle" x="723" y="-240" style="font-family:Nimbus Sans L;font-weight:regular;font-size:12.96pt;fill:red;">UE&#45;Based success/Stop UE&#45;Based Pos., Complete User request(UE Based result)</text>
</g>
<!-- Waiting_Facility_UEBasedCont&#45;&gt;End -->
<g id="edge42" class="edge"><title>Waiting_Facility_UEBasedCont&#45;&gt;End</title>
<path style="fill:none;stroke:black;" d="M294,-214C294,-108 376,-71 480,-69"/>
<polygon style="fill:black;stroke:black;" points="480,-72.5001 490,-69 480,-65.5001 480,-72.5001"/>
<a xlink:title="\n\n\nFacility wait timer expired/\nStop UE&#45;Based Positioning">
</a>
<text text-anchor="middle" x="291" y="-183" style="font-family:Nimbus Sans L;font-weight:regular;font-size:11.34pt;">Facility wait timer expired/</text>
<text text-anchor="middle" x="291" y="-167" style="font-family:Nimbus Sans L;font-weight:regular;font-size:11.34pt;">Stop UE&#45;Based Positioning</text>
</g>
<!-- Waiting_Facility_UEBasedCont&#45;&gt;End -->
<g id="edge44" class="edge"><title>Waiting_Facility_UEBasedCont&#45;&gt;End</title>
<path style="fill:none;stroke:black;" d="M418,-238C495,-238 416,-84 480,-70"/>
<polygon style="fill:black;stroke:black;" points="480.398,-73.4778 490,-69 479.701,-66.5125 480.398,-73.4778"/>
<a xlink:title="Recv Facility/\nStop UE&#45;Based Positioning">
</a>
<a xlink:title="Recv Facility/\nStop UE&#45;Based Positioning">
</a>
<text text-anchor="middle" x="537" y="-156" style="font-family:Nimbus Sans L;font-weight:regular;font-size:11.34pt;">Recv Facility/</text>
<text text-anchor="middle" x="537" y="-140" style="font-family:Nimbus Sans L;font-weight:regular;font-size:11.34pt;">Stop UE&#45;Based Positioning</text>
</g>
<!-- Waiting_Facility_UEBasedStop&#45;&gt;End -->
<g id="edge46" class="edge"><title>Waiting_Facility_UEBasedStop&#45;&gt;End</title>
<path style="fill:none;stroke:red;" d="M1026,-214C992,-180 972,-189 929,-170 835,-126 819,-73 722,-69"/>
<polygon style="fill:red;stroke:red;" points="722,-65.5001 712,-69 722,-72.5001 722,-65.5001"/>
<a xlink:title="Recv Facility">
</a>
<a xlink:title="Recv Facility">
</a>
<text text-anchor="middle" x="981" y="-148" style="font-family:Nimbus Sans L;font-weight:regular;font-size:12.96pt;fill:red;">Recv Facility</text>
</g>
<!-- Waiting_Facility_UEBasedStop&#45;&gt;End -->
<g id="edge48" class="edge"><title>Waiting_Facility_UEBasedStop&#45;&gt;End</title>
<path style="fill:none;stroke:black;" d="M1149,-214C1149,-93 869,-70 722,-69"/>
<polygon style="fill:black;stroke:black;" points="722,-65.5001 712,-69 722,-72.5001 722,-65.5001"/>
<a xlink:title="Facility wait timer expired">
</a>
<a xlink:title="Facility wait timer expired">
</a>
<text text-anchor="middle" x="1210" y="-148" style="font-family:Nimbus Sans L;font-weight:regular;font-size:11.34pt;">Facility wait timer expired</text>
</g>
</g>
</svg>
