<?xml version="1.0" encoding="UTF-8" standalone="no"?>
<!DOCTYPE svg PUBLIC "-//W3C//DTD SVG 1.0//EN"
 "http://www.w3.org/TR/2001/REC-SVG-20010904/DTD/svg10.dtd" [
 <!ATTLIST svg xmlns:xlink CDATA #FIXED "http://www.w3.org/1999/xlink">
]>
<!-- Generated by Graphviz version 2.12 (Mon Dec  4 22:04:37 UTC 2006)
     For user: Bill Gates -->
<!-- Title: finite_state_machine Pages: 1 -->
<svg width="10.00in" height="6.03in"
 xmlns="http://www.w3.org/2000/svg" xmlns:xlink="http://www.w3.org/1999/xlink">
<g id="graph0" class="graph" transform="scale(0.694645 0.694645) rotate(0) translate(4 830)">
<title>finite_state_machine</title>
<polygon style="fill:white;stroke:white;" points="-4,4 -4,-830 1378,-830 1378,4 -4,4"/>
<text text-anchor="middle" x="687" y="-8" style="font-family:Nimbus Roman No9 L;font-weight:medium;font-size:19.44pt;">Hybrid &#45; LBS &#45; UE&#45;Assisted MO&#45;LR &#45; Inaccurate GPS Result</text>
<!-- Idle -->
<g id="node2" class="node"><title>Idle</title>
<polygon style="fill:greenyellow;stroke:greenyellow;" points="248,-775 218,-775 206,-763 206,-751 218,-739 248,-739 260,-751 260,-763 248,-775"/>
<path style="fill:greenyellow;stroke:greenyellow;" d="M218,-775C212,-775 206,-769 206,-763"/>
<path style="fill:greenyellow;stroke:greenyellow;" d="M206,-751C206,-745 212,-739 218,-739"/>
<path style="fill:greenyellow;stroke:greenyellow;" d="M248,-739C254,-739 260,-745 260,-751"/>
<path style="fill:greenyellow;stroke:greenyellow;" d="M260,-763C260,-769 254,-775 248,-775"/>
<polyline style="fill:none;stroke:greenyellow;" points="248,-775 218,-775 "/>
<path style="fill:none;stroke:greenyellow;" d="M218,-775C212,-775 206,-769 206,-763"/>
<polyline style="fill:none;stroke:greenyellow;" points="206,-763 206,-751 "/>
<path style="fill:none;stroke:greenyellow;" d="M206,-751C206,-745 212,-739 218,-739"/>
<polyline style="fill:none;stroke:greenyellow;" points="218,-739 248,-739 "/>
<path style="fill:none;stroke:greenyellow;" d="M248,-739C254,-739 260,-745 260,-751"/>
<polyline style="fill:none;stroke:greenyellow;" points="260,-751 260,-763 "/>
<path style="fill:none;stroke:greenyellow;" d="M260,-763C260,-769 254,-775 248,-775"/>
<text text-anchor="middle" x="233" y="-751" style="font-family:Nimbus Sans L;font-weight:bold;font-size:12.96pt;">Idle</text>
</g>
<!-- Autonomous -->
<g id="node3" class="node"><title>Autonomous</title>
<polygon style="fill:greenyellow;stroke:greenyellow;" points="646,-780 500,-780 488,-768 488,-746 500,-734 646,-734 658,-746 658,-768 646,-780"/>
<path style="fill:greenyellow;stroke:greenyellow;" d="M500,-780C494,-780 488,-774 488,-768"/>
<path style="fill:greenyellow;stroke:greenyellow;" d="M488,-746C488,-740 494,-734 500,-734"/>
<path style="fill:greenyellow;stroke:greenyellow;" d="M646,-734C652,-734 658,-740 658,-746"/>
<path style="fill:greenyellow;stroke:greenyellow;" d="M658,-768C658,-774 652,-780 646,-780"/>
<polyline style="fill:none;stroke:greenyellow;" points="646,-780 500,-780 "/>
<path style="fill:none;stroke:greenyellow;" d="M500,-780C494,-780 488,-774 488,-768"/>
<polyline style="fill:none;stroke:greenyellow;" points="488,-768 488,-746 "/>
<path style="fill:none;stroke:greenyellow;" d="M488,-746C488,-740 494,-734 500,-734"/>
<polyline style="fill:none;stroke:greenyellow;" points="500,-734 646,-734 "/>
<path style="fill:none;stroke:greenyellow;" d="M646,-734C652,-734 658,-740 658,-746"/>
<polyline style="fill:none;stroke:greenyellow;" points="658,-746 658,-768 "/>
<path style="fill:none;stroke:greenyellow;" d="M658,-768C658,-774 652,-780 646,-780"/>
<text text-anchor="middle" x="573" y="-760" style="font-family:Nimbus Sans L;font-weight:bold;font-size:12.96pt;">Autonomous</text>
<text text-anchor="middle" x="573" y="-741" style="font-family:Nimbus Sans L;font-weight:bold;font-size:12.96pt;">UE&#45;Based positioning</text>
</g>
<!-- Idle&#45;&gt;Autonomous -->
<g id="edge6" class="edge"><title>Idle&#45;&gt;Autonomous</title>
<path style="fill:none;stroke:red;" d="M260,-757C307,-757 404,-757 477,-757"/>
<polygon style="fill:red;stroke:red;" points="477,-760.5 487,-757 477,-753.5 477,-760.5"/>
<a xlink:title="User starts Location check\nStart Autonomous positioning\nStart LcsMOLR">
</a>
<a xlink:title="User starts Location check\nStart Autonomous positioning\nStart LcsMOLR">
</a>
<text text-anchor="middle" x="374" y="-798" style="font-family:Nimbus Sans L;font-weight:regular;font-size:12.96pt;fill:red;">User starts Location check</text>
<text text-anchor="middle" x="374" y="-779" style="font-family:Nimbus Sans L;font-weight:regular;font-size:12.96pt;fill:red;">Start Autonomous positioning</text>
<text text-anchor="middle" x="374" y="-760" style="font-family:Nimbus Sans L;font-weight:regular;font-size:12.96pt;fill:red;">Start LcsMOLR</text>
</g>
<!-- UE_Based -->
<g id="node4" class="node"><title>UE_Based</title>
<polygon style="fill:greenyellow;stroke:greenyellow;" points="1076,-780 846,-780 834,-768 834,-746 846,-734 1076,-734 1088,-746 1088,-768 1076,-780"/>
<path style="fill:greenyellow;stroke:greenyellow;" d="M846,-780C840,-780 834,-774 834,-768"/>
<path style="fill:greenyellow;stroke:greenyellow;" d="M834,-746C834,-740 840,-734 846,-734"/>
<path style="fill:greenyellow;stroke:greenyellow;" d="M1076,-734C1082,-734 1088,-740 1088,-746"/>
<path style="fill:greenyellow;stroke:greenyellow;" d="M1088,-768C1088,-774 1082,-780 1076,-780"/>
<polyline style="fill:none;stroke:greenyellow;" points="1076,-780 846,-780 "/>
<path style="fill:none;stroke:greenyellow;" d="M846,-780C840,-780 834,-774 834,-768"/>
<polyline style="fill:none;stroke:greenyellow;" points="834,-768 834,-746 "/>
<path style="fill:none;stroke:greenyellow;" d="M834,-746C834,-740 840,-734 846,-734"/>
<polyline style="fill:none;stroke:greenyellow;" points="846,-734 1076,-734 "/>
<path style="fill:none;stroke:greenyellow;" d="M1076,-734C1082,-734 1088,-740 1088,-746"/>
<polyline style="fill:none;stroke:greenyellow;" points="1088,-746 1088,-768 "/>
<path style="fill:none;stroke:greenyellow;" d="M1088,-768C1088,-774 1082,-780 1076,-780"/>
<text text-anchor="middle" x="961" y="-760" style="font-family:Nimbus Sans L;font-weight:bold;font-size:12.96pt;">Performing UE&#45;Based positioning</text>
<text text-anchor="middle" x="961" y="-741" style="font-family:Nimbus Sans L;font-weight:bold;font-size:12.96pt;">under Hybrid Positioning</text>
</g>
<!-- Autonomous&#45;&gt;UE_Based -->
<g id="edge8" class="edge"><title>Autonomous&#45;&gt;UE_Based</title>
<path style="fill:none;stroke:red;" d="M659,-757C707,-757 768,-757 824,-757"/>
<polygon style="fill:red;stroke:red;" points="824,-760.5 834,-757 824,-753.5 824,-760.5"/>
<a xlink:title="Receives M.C.(Setup)\nStart a2,a4 timer">
</a>
<a xlink:title="Receives M.C.(Setup)\nStart a2,a4 timer">
</a>
<text text-anchor="middle" x="746" y="-779" style="font-family:Nimbus Sans L;font-weight:regular;font-size:12.96pt;fill:red;">Receives M.C.(Setup)</text>
<text text-anchor="middle" x="746" y="-760" style="font-family:Nimbus Sans L;font-weight:regular;font-size:12.96pt;fill:red;">Start a2,a4 timer</text>
</g>
<!-- UE_Assisted -->
<g id="node5" class="node"><title>UE_Assisted</title>
<polygon style="fill:greenyellow;stroke:greenyellow;" points="706,-635 460,-635 448,-623 448,-601 460,-589 706,-589 718,-601 718,-623 706,-635"/>
<path style="fill:greenyellow;stroke:greenyellow;" d="M460,-635C454,-635 448,-629 448,-623"/>
<path style="fill:greenyellow;stroke:greenyellow;" d="M448,-601C448,-595 454,-589 460,-589"/>
<path style="fill:greenyellow;stroke:greenyellow;" d="M706,-589C712,-589 718,-595 718,-601"/>
<path style="fill:greenyellow;stroke:greenyellow;" d="M718,-623C718,-629 712,-635 706,-635"/>
<polyline style="fill:none;stroke:greenyellow;" points="706,-635 460,-635 "/>
<path style="fill:none;stroke:greenyellow;" d="M460,-635C454,-635 448,-629 448,-623"/>
<polyline style="fill:none;stroke:greenyellow;" points="448,-623 448,-601 "/>
<path style="fill:none;stroke:greenyellow;" d="M448,-601C448,-595 454,-589 460,-589"/>
<polyline style="fill:none;stroke:greenyellow;" points="460,-589 706,-589 "/>
<path style="fill:none;stroke:greenyellow;" d="M706,-589C712,-589 718,-595 718,-601"/>
<polyline style="fill:none;stroke:greenyellow;" points="718,-601 718,-623 "/>
<path style="fill:none;stroke:greenyellow;" d="M718,-623C718,-629 712,-635 706,-635"/>
<text text-anchor="middle" x="583" y="-615" style="font-family:Nimbus Sans L;font-weight:bold;font-size:12.96pt;">Performing UE&#45;Assisted positioning</text>
<text text-anchor="middle" x="583" y="-596" style="font-family:Nimbus Sans L;font-weight:bold;font-size:12.96pt;">(UE&#45;Based positioning continue)</text>
</g>
<!-- UE_Based&#45;&gt;UE_Assisted -->
<g id="edge10" class="edge"><title>UE_Based&#45;&gt;UE_Assisted</title>
<path style="fill:none;stroke:red;" d="M834,-734C789,-689 724,-658 672,-638"/>
<polygon style="fill:red;stroke:red;" points="672.584,-634.521 662,-635 670.573,-641.226 672.584,-634.521"/>
<a xlink:title="\n\n\n\n\nTimer a2 expired/\nSend M.R\nReceive M.C.\n(Modify,Reporting Interval=t)\nStart up Timer t">
</a>
<text text-anchor="middle" x="824" y="-715" style="font-family:Nimbus Sans L;font-weight:regular;font-size:12.96pt;fill:red;">Timer a2 expired/</text>
<text text-anchor="middle" x="824" y="-696" style="font-family:Nimbus Sans L;font-weight:regular;font-size:12.96pt;fill:red;">Send M.R</text>
<text text-anchor="middle" x="824" y="-677" style="font-family:Nimbus Sans L;font-weight:regular;font-size:12.96pt;fill:red;">Receive M.C.</text>
<text text-anchor="middle" x="824" y="-658" style="font-family:Nimbus Sans L;font-weight:regular;font-size:12.96pt;fill:red;">(Modify,Reporting Interval=t)</text>
<text text-anchor="middle" x="824" y="-639" style="font-family:Nimbus Sans L;font-weight:regular;font-size:12.96pt;fill:red;">Start up Timer t</text>
</g>
<!-- Waiting_MC_UEBasedStop -->
<g id="node8" class="node"><title>Waiting_MC_UEBasedStop</title>
<polygon style="fill:greenyellow;stroke:greenyellow;" points="991,-396 769,-396 757,-384 757,-362 769,-350 991,-350 1003,-362 1003,-384 991,-396"/>
<path style="fill:greenyellow;stroke:greenyellow;" d="M769,-396C763,-396 757,-390 757,-384"/>
<path style="fill:greenyellow;stroke:greenyellow;" d="M757,-362C757,-356 763,-350 769,-350"/>
<path style="fill:greenyellow;stroke:greenyellow;" d="M991,-350C997,-350 1003,-356 1003,-362"/>
<path style="fill:greenyellow;stroke:greenyellow;" d="M1003,-384C1003,-390 997,-396 991,-396"/>
<polyline style="fill:none;stroke:greenyellow;" points="991,-396 769,-396 "/>
<path style="fill:none;stroke:greenyellow;" d="M769,-396C763,-396 757,-390 757,-384"/>
<polyline style="fill:none;stroke:greenyellow;" points="757,-384 757,-362 "/>
<path style="fill:none;stroke:greenyellow;" d="M757,-362C757,-356 763,-350 769,-350"/>
<polyline style="fill:none;stroke:greenyellow;" points="769,-350 991,-350 "/>
<path style="fill:none;stroke:greenyellow;" d="M991,-350C997,-350 1003,-356 1003,-362"/>
<polyline style="fill:none;stroke:greenyellow;" points="1003,-362 1003,-384 "/>
<path style="fill:none;stroke:greenyellow;" d="M1003,-384C1003,-390 997,-396 991,-396"/>
<text text-anchor="middle" x="880" y="-376" style="font-family:Nimbus Sans L;font-weight:bold;font-size:12.96pt;">Waiting for M.C.(Release)</text>
<text text-anchor="middle" x="880" y="-357" style="font-family:Nimbus Sans L;font-weight:bold;font-size:12.96pt;">(UE&#45;Based positioning Stopped)</text>
</g>
<!-- UE_Based&#45;&gt;Waiting_MC_UEBasedStop -->
<g id="edge12" class="edge"><title>UE_Based&#45;&gt;Waiting_MC_UEBasedStop</title>
<path style="fill:none;stroke:black;" d="M961,-734C963,-698 967,-625 975,-564 985,-482 1079,-382 1013,-374"/>
<polygon style="fill:black;stroke:black;" points="1013.3,-370.512 1003,-373 1012.6,-377.478 1013.3,-370.512"/>
<a xlink:title="UE&#45;Based success/\nStop UE&#45;Based Positioning\nComplete User request\n(UE Based result)\nSend M.R.\n(confidence=68)">
</a>
<a xlink:title="UE&#45;Based success/\nStop UE&#45;Based Positioning\nComplete User request\n(UE Based result)\nSend M.R.\n(confidence=68)">
</a>
<text text-anchor="middle" x="1059" y="-646" style="font-family:Nimbus Sans L;font-weight:regular;font-size:11.34pt;">UE&#45;Based success/</text>
<text text-anchor="middle" x="1059" y="-630" style="font-family:Nimbus Sans L;font-weight:regular;font-size:11.34pt;">Stop UE&#45;Based Positioning</text>
<text text-anchor="middle" x="1059" y="-614" style="font-family:Nimbus Sans L;font-weight:regular;font-size:11.34pt;">Complete User request</text>
<text text-anchor="middle" x="1059" y="-598" style="font-family:Nimbus Sans L;font-weight:regular;font-size:11.34pt;">(UE Based result)</text>
<text text-anchor="middle" x="1059" y="-582" style="font-family:Nimbus Sans L;font-weight:regular;font-size:11.34pt;">Send M.R.</text>
<text text-anchor="middle" x="1059" y="-566" style="font-family:Nimbus Sans L;font-weight:regular;font-size:11.34pt;">(confidence=68)</text>
</g>
<!-- UE_Based&#45;&gt;Waiting_MC_UEBasedStop -->
<g id="edge14" class="edge"><title>UE_Based&#45;&gt;Waiting_MC_UEBasedStop</title>
<path style="fill:none;stroke:black;" d="M1088,-757C1259,-757 1180,-388 1013,-373"/>
<polygon style="fill:black;stroke:black;" points="1013,-369.5 1003,-373 1013,-376.5 1013,-369.5"/>
<a xlink:title="UE&#45;Based fix\n(Futile)/\nStop UE&#45;Based\nPositioning,\nSend M.R.(RefPos)\n(confidence=100)">
</a>
<a xlink:title="UE&#45;Based fix\n(Futile)/\nStop UE&#45;Based\nPositioning,\nSend M.R.(RefPos)\n(confidence=100)">
</a>
<text text-anchor="middle" x="1242" y="-646" style="font-family:Nimbus Sans L;font-weight:regular;font-size:11.34pt;">UE&#45;Based fix</text>
<text text-anchor="middle" x="1242" y="-630" style="font-family:Nimbus Sans L;font-weight:regular;font-size:11.34pt;">(Futile)/</text>
<text text-anchor="middle" x="1242" y="-614" style="font-family:Nimbus Sans L;font-weight:regular;font-size:11.34pt;">Stop UE&#45;Based</text>
<text text-anchor="middle" x="1242" y="-598" style="font-family:Nimbus Sans L;font-weight:regular;font-size:11.34pt;">Positioning,</text>
<text text-anchor="middle" x="1242" y="-582" style="font-family:Nimbus Sans L;font-weight:regular;font-size:11.34pt;">Send M.R.(RefPos)</text>
<text text-anchor="middle" x="1242" y="-566" style="font-family:Nimbus Sans L;font-weight:regular;font-size:11.34pt;">(confidence=100)</text>
</g>
<!-- UE_Assisted&#45;&gt;UE_Assisted -->
<g id="edge16" class="edge"><title>UE_Assisted&#45;&gt;UE_Assisted</title>
<path style="fill:none;stroke:red;" d="M539,-635C488,-651 430,-641 430,-600 430,-552 440,-547 446,-579"/>
<polygon style="fill:red;stroke:red;" points="442.607,-579.881 448,-589 449.471,-578.508 442.607,-579.881"/>
<a xlink:title="\n\n\nTimer t expired/\nSend M.R,\nrestart timer t">
</a>
<text text-anchor="middle" x="442" y="-565" style="font-family:Nimbus Sans L;font-weight:regular;font-size:12.96pt;fill:red;">Timer t expired/</text>
<text text-anchor="middle" x="442" y="-546" style="font-family:Nimbus Sans L;font-weight:regular;font-size:12.96pt;fill:red;">Send M.R,</text>
<text text-anchor="middle" x="442" y="-527" style="font-family:Nimbus Sans L;font-weight:regular;font-size:12.96pt;fill:red;">restart timer t</text>
</g>
<!-- Waiting_MC_UEBasedCont -->
<g id="node7" class="node"><title>Waiting_MC_UEBasedCont</title>
<polygon style="fill:greenyellow;stroke:greenyellow;" points="406,-396 184,-396 172,-384 172,-362 184,-350 406,-350 418,-362 418,-384 406,-396"/>
<path style="fill:greenyellow;stroke:greenyellow;" d="M184,-396C178,-396 172,-390 172,-384"/>
<path style="fill:greenyellow;stroke:greenyellow;" d="M172,-362C172,-356 178,-350 184,-350"/>
<path style="fill:greenyellow;stroke:greenyellow;" d="M406,-350C412,-350 418,-356 418,-362"/>
<path style="fill:greenyellow;stroke:greenyellow;" d="M418,-384C418,-390 412,-396 406,-396"/>
<polyline style="fill:none;stroke:greenyellow;" points="406,-396 184,-396 "/>
<path style="fill:none;stroke:greenyellow;" d="M184,-396C178,-396 172,-390 172,-384"/>
<polyline style="fill:none;stroke:greenyellow;" points="172,-384 172,-362 "/>
<path style="fill:none;stroke:greenyellow;" d="M172,-362C172,-356 178,-350 184,-350"/>
<polyline style="fill:none;stroke:greenyellow;" points="184,-350 406,-350 "/>
<path style="fill:none;stroke:greenyellow;" d="M406,-350C412,-350 418,-356 418,-362"/>
<polyline style="fill:none;stroke:greenyellow;" points="418,-362 418,-384 "/>
<path style="fill:none;stroke:greenyellow;" d="M418,-384C418,-390 412,-396 406,-396"/>
<text text-anchor="middle" x="295" y="-376" style="font-family:Nimbus Sans L;font-weight:bold;font-size:12.96pt;">Waiting for M.C.(Release)</text>
<text text-anchor="middle" x="295" y="-357" style="font-family:Nimbus Sans L;font-weight:bold;font-size:12.96pt;">(UE&#45;Based positioning continue)</text>
</g>
<!-- UE_Assisted&#45;&gt;Waiting_MC_UEBasedCont -->
<g id="edge20" class="edge"><title>UE_Assisted&#45;&gt;Waiting_MC_UEBasedCont</title>
<path style="fill:none;stroke:black;" d="M447,-612C350,-612 313,-471 300,-406"/>
<polygon style="fill:black;stroke:black;" points="303.393,-405.119 298,-396 296.529,-406.492 303.393,-405.119"/>
<a xlink:title="timer a4 expired/\nSend M.R.\n(confidence=100)">
</a>
<a xlink:title="timer a4 expired/\nSend M.R.\n(confidence=100)">
</a>
<text text-anchor="middle" x="392" y="-490" style="font-family:Nimbus Sans L;font-weight:regular;font-size:11.34pt;">timer a4 expired/</text>
<text text-anchor="middle" x="392" y="-474" style="font-family:Nimbus Sans L;font-weight:regular;font-size:11.34pt;">Send M.R.</text>
<text text-anchor="middle" x="392" y="-458" style="font-family:Nimbus Sans L;font-weight:regular;font-size:11.34pt;">(confidence=100)</text>
</g>
<!-- UE_Assisted&#45;&gt;Waiting_MC_UEBasedStop -->
<g id="edge22" class="edge"><title>UE_Assisted&#45;&gt;Waiting_MC_UEBasedStop</title>
<path style="fill:none;stroke:black;" d="M583,-589C583,-519 537,-484 584,-432 626,-385 852,-453 878,-406"/>
<polygon style="fill:black;stroke:black;" points="881.471,-406.492 880,-396 874.607,-405.119 881.471,-406.492"/>
<a xlink:title="UE&#45;Based success/\nStop UE&#45;Based Positioning\nComplete User request\n(UE Based result)\nSend M.R.\n(confidence=68)">
</a>
<a xlink:title="UE&#45;Based success/\nStop UE&#45;Based Positioning\nComplete User request\n(UE Based result)\nSend M.R.\n(confidence=68)">
</a>
<text text-anchor="middle" x="668" y="-514" style="font-family:Nimbus Sans L;font-weight:regular;font-size:11.34pt;">UE&#45;Based success/</text>
<text text-anchor="middle" x="668" y="-498" style="font-family:Nimbus Sans L;font-weight:regular;font-size:11.34pt;">Stop UE&#45;Based Positioning</text>
<text text-anchor="middle" x="668" y="-482" style="font-family:Nimbus Sans L;font-weight:regular;font-size:11.34pt;">Complete User request</text>
<text text-anchor="middle" x="668" y="-466" style="font-family:Nimbus Sans L;font-weight:regular;font-size:11.34pt;">(UE Based result)</text>
<text text-anchor="middle" x="668" y="-450" style="font-family:Nimbus Sans L;font-weight:regular;font-size:11.34pt;">Send M.R.</text>
<text text-anchor="middle" x="668" y="-434" style="font-family:Nimbus Sans L;font-weight:regular;font-size:11.34pt;">(confidence=68)</text>
</g>
<!-- UE_Assisted&#45;&gt;Waiting_MC_UEBasedStop -->
<g id="edge24" class="edge"><title>UE_Assisted&#45;&gt;Waiting_MC_UEBasedStop</title>
<path style="fill:none;stroke:black;" d="M719,-612C742,-612 774,-432 775,-432 805,-398 868,-437 879,-406"/>
<polygon style="fill:black;stroke:black;" points="882.488,-406.299 880,-396 875.522,-405.602 882.488,-406.299"/>
<a xlink:title="UE&#45;Based fix\n(Futile)/\nStop UE&#45;Based Positioning,\nSend M.R.(RefPos)\n(confidence=100)">
</a>
<a xlink:title="UE&#45;Based fix\n(Futile)/\nStop UE&#45;Based Positioning,\nSend M.R.(RefPos)\n(confidence=100)">
</a>
<text text-anchor="middle" x="861" y="-506" style="font-family:Nimbus Sans L;font-weight:regular;font-size:11.34pt;">UE&#45;Based fix</text>
<text text-anchor="middle" x="861" y="-490" style="font-family:Nimbus Sans L;font-weight:regular;font-size:11.34pt;">(Futile)/</text>
<text text-anchor="middle" x="861" y="-474" style="font-family:Nimbus Sans L;font-weight:regular;font-size:11.34pt;">Stop UE&#45;Based Positioning,</text>
<text text-anchor="middle" x="861" y="-458" style="font-family:Nimbus Sans L;font-weight:regular;font-size:11.34pt;">Send M.R.(RefPos)</text>
<text text-anchor="middle" x="861" y="-442" style="font-family:Nimbus Sans L;font-weight:regular;font-size:11.34pt;">(confidence=100)</text>
</g>
<!-- Waiting_Facility_UEBasedCont -->
<g id="node10" class="node"><title>Waiting_Facility_UEBasedCont</title>
<polygon style="fill:greenyellow;stroke:greenyellow;" points="406,-267 184,-267 172,-255 172,-233 184,-221 406,-221 418,-233 418,-255 406,-267"/>
<path style="fill:greenyellow;stroke:greenyellow;" d="M184,-267C178,-267 172,-261 172,-255"/>
<path style="fill:greenyellow;stroke:greenyellow;" d="M172,-233C172,-227 178,-221 184,-221"/>
<path style="fill:greenyellow;stroke:greenyellow;" d="M406,-221C412,-221 418,-227 418,-233"/>
<path style="fill:greenyellow;stroke:greenyellow;" d="M418,-255C418,-261 412,-267 406,-267"/>
<polyline style="fill:none;stroke:greenyellow;" points="406,-267 184,-267 "/>
<path style="fill:none;stroke:greenyellow;" d="M184,-267C178,-267 172,-261 172,-255"/>
<polyline style="fill:none;stroke:greenyellow;" points="172,-255 172,-233 "/>
<path style="fill:none;stroke:greenyellow;" d="M172,-233C172,-227 178,-221 184,-221"/>
<polyline style="fill:none;stroke:greenyellow;" points="184,-221 406,-221 "/>
<path style="fill:none;stroke:greenyellow;" d="M406,-221C412,-221 418,-227 418,-233"/>
<polyline style="fill:none;stroke:greenyellow;" points="418,-233 418,-255 "/>
<path style="fill:none;stroke:greenyellow;" d="M418,-255C418,-261 412,-267 406,-267"/>
<text text-anchor="middle" x="295" y="-247" style="font-family:Nimbus Sans L;font-weight:bold;font-size:12.96pt;">Waiting for Facility</text>
<text text-anchor="middle" x="295" y="-228" style="font-family:Nimbus Sans L;font-weight:bold;font-size:12.96pt;">(UE&#45;Based positioning continue)</text>
</g>
<!-- UE_Assisted&#45;&gt;Waiting_Facility_UEBasedCont -->
<g id="edge18" class="edge"><title>UE_Assisted&#45;&gt;Waiting_Facility_UEBasedCont</title>
<path style="fill:none;stroke:red;" d="M574,-589C553,-540 500,-424 427,-350 381,-303 304,-332 296,-277"/>
<polygon style="fill:red;stroke:red;" points="299.478,-276.602 295,-267 292.512,-277.299 299.478,-276.602"/>
<a xlink:title="Receive M.C.(Release)">
</a>
<text text-anchor="middle" x="300" y="-270" style="font-family:Nimbus Sans L;font-weight:regular;font-size:12.96pt;fill:red;">Receive M.C.(Release)</text>
</g>
<!-- Waiting_MC_UEBasedCont&#45;&gt;Waiting_MC_UEBasedStop -->
<g id="edge26" class="edge"><title>Waiting_MC_UEBasedCont&#45;&gt;Waiting_MC_UEBasedStop</title>
<path style="fill:none;stroke:black;" d="M419,-354C422,-353 425,-353 428,-353 567,-342 605,-342 747,-353"/>
<polygon style="fill:black;stroke:black;" points="746.701,-356.488 757,-354 747.398,-349.522 746.701,-356.488"/>
<a xlink:title="UE&#45;Based fix accuracy too low/Stop UE&#45;Based Pos.">
</a>
<a xlink:title="UE&#45;Based fix accuracy too low/Stop UE&#45;Based Pos.">
</a>
<text text-anchor="middle" x="588" y="-355" style="font-family:Nimbus Sans L;font-weight:regular;font-size:11.34pt;">UE&#45;Based fix accuracy too low/Stop UE&#45;Based Pos.</text>
</g>
<!-- Waiting_MC_UEBasedCont&#45;&gt;Waiting_MC_UEBasedStop -->
<g id="edge28" class="edge"><title>Waiting_MC_UEBasedCont&#45;&gt;Waiting_MC_UEBasedStop</title>
<path style="fill:none;stroke:black;" d="M419,-373C515,-373 648,-373 747,-373"/>
<polygon style="fill:black;stroke:black;" points="747,-376.5 757,-373 747,-369.5 747,-376.5"/>
<a xlink:title="UE&#45;Based success/Stop UE&#45;Based Pos.,\nComplete User request(UE Based result)\n">
</a>
<a xlink:title="UE&#45;Based success/Stop UE&#45;Based Pos.,\nComplete User request(UE Based result)\n">
</a>
<text text-anchor="middle" x="588" y="-383" style="font-family:Nimbus Sans L;font-weight:regular;font-size:11.34pt;">UE&#45;Based success/Stop UE&#45;Based Pos.,</text>
<text text-anchor="middle" x="588" y="-367" style="font-family:Nimbus Sans L;font-weight:regular;font-size:11.34pt;">Complete User request(UE Based result)</text>
</g>
<!-- Waiting_MC_UEBasedCont&#45;&gt;Waiting_Facility_UEBasedCont -->
<g id="edge30" class="edge"><title>Waiting_MC_UEBasedCont&#45;&gt;Waiting_Facility_UEBasedCont</title>
<path style="fill:none;stroke:black;" d="M295,-350C295,-317 295,-305 295,-277"/>
<polygon style="fill:black;stroke:black;" points="298.5,-277 295,-267 291.5,-277 298.5,-277"/>
</g>
<!-- End -->
<g id="node13" class="node"><title>End</title>
<polygon style="fill:greenyellow;stroke:greenyellow;" points="742,-101.5 544,-101.5 532,-89.5 532,-48.5 544,-36.5 742,-36.5 754,-48.5 754,-89.5 742,-101.5"/>
<path style="fill:greenyellow;stroke:greenyellow;" d="M544,-101.5C538,-101.5 532,-95.5 532,-89.5"/>
<path style="fill:greenyellow;stroke:greenyellow;" d="M532,-48.5C532,-42.5 538,-36.5 544,-36.5"/>
<path style="fill:greenyellow;stroke:greenyellow;" d="M742,-36.5C748,-36.5 754,-42.5 754,-48.5"/>
<path style="fill:greenyellow;stroke:greenyellow;" d="M754,-89.5C754,-95.5 748,-101.5 742,-101.5"/>
<polyline style="fill:none;stroke:greenyellow;" points="742,-101.5 544,-101.5 "/>
<path style="fill:none;stroke:greenyellow;" d="M544,-101.5C538,-101.5 532,-95.5 532,-89.5"/>
<polyline style="fill:none;stroke:greenyellow;" points="532,-89.5 532,-48.5 "/>
<path style="fill:none;stroke:greenyellow;" d="M532,-48.5C532,-42.5 538,-36.5 544,-36.5"/>
<polyline style="fill:none;stroke:greenyellow;" points="544,-36.5 742,-36.5 "/>
<path style="fill:none;stroke:greenyellow;" d="M742,-36.5C748,-36.5 754,-42.5 754,-48.5"/>
<polyline style="fill:none;stroke:greenyellow;" points="754,-48.5 754,-89.5 "/>
<path style="fill:none;stroke:greenyellow;" d="M754,-89.5C754,-95.5 748,-101.5 742,-101.5"/>
<text text-anchor="middle" x="643" y="-82" style="font-family:Nimbus Sans L;font-weight:bold;font-size:12.96pt;">Positioning Ends</text>
<text text-anchor="middle" x="643" y="-63" style="font-family:Nimbus Sans L;font-weight:bold;font-size:12.96pt;">Complete User Request</text>
<text text-anchor="middle" x="643" y="-44" style="font-family:Nimbus Sans L;font-weight:bold;font-size:12.96pt;">For no UE&#45;Based positioning</text>
</g>
<!-- Waiting_MC_UEBasedCont&#45;&gt;End -->
<g id="edge32" class="edge"><title>Waiting_MC_UEBasedCont&#45;&gt;End</title>
<path style="fill:none;stroke:black;" d="M171,-350C117,-296 58,-340 17,-276 2,-251 0,-234 17,-212 86,-120 395,-72 522,-69"/>
<polygon style="fill:black;stroke:black;" points="522,-72.5001 532,-69 522,-65.5001 522,-72.5001"/>
<a xlink:title="M.C. wait timer expired/\nStop UE&#45;Based\nSend M.R.\n(undefined Error)">
</a>
<a xlink:title="M.C. wait timer expired/\nStop UE&#45;Based\nSend M.R.\n(undefined Error)">
</a>
<text text-anchor="middle" x="93" y="-262" style="font-family:Nimbus Sans L;font-weight:regular;font-size:11.34pt;">M.C. wait timer expired/</text>
<text text-anchor="middle" x="93" y="-246" style="font-family:Nimbus Sans L;font-weight:regular;font-size:11.34pt;">Stop UE&#45;Based</text>
<text text-anchor="middle" x="93" y="-230" style="font-family:Nimbus Sans L;font-weight:regular;font-size:11.34pt;">Send M.R.</text>
<text text-anchor="middle" x="93" y="-214" style="font-family:Nimbus Sans L;font-weight:regular;font-size:11.34pt;">(undefined Error)</text>
</g>
<!-- Waiting_Facility_UEBasedStop -->
<g id="node11" class="node"><title>Waiting_Facility_UEBasedStop</title>
<polygon style="fill:greenyellow;stroke:greenyellow;" points="1179,-267 957,-267 945,-255 945,-233 957,-221 1179,-221 1191,-233 1191,-255 1179,-267"/>
<path style="fill:greenyellow;stroke:greenyellow;" d="M957,-267C951,-267 945,-261 945,-255"/>
<path style="fill:greenyellow;stroke:greenyellow;" d="M945,-233C945,-227 951,-221 957,-221"/>
<path style="fill:greenyellow;stroke:greenyellow;" d="M1179,-221C1185,-221 1191,-227 1191,-233"/>
<path style="fill:greenyellow;stroke:greenyellow;" d="M1191,-255C1191,-261 1185,-267 1179,-267"/>
<polyline style="fill:none;stroke:greenyellow;" points="1179,-267 957,-267 "/>
<path style="fill:none;stroke:greenyellow;" d="M957,-267C951,-267 945,-261 945,-255"/>
<polyline style="fill:none;stroke:greenyellow;" points="945,-255 945,-233 "/>
<path style="fill:none;stroke:greenyellow;" d="M945,-233C945,-227 951,-221 957,-221"/>
<polyline style="fill:none;stroke:greenyellow;" points="957,-221 1179,-221 "/>
<path style="fill:none;stroke:greenyellow;" d="M1179,-221C1185,-221 1191,-227 1191,-233"/>
<polyline style="fill:none;stroke:greenyellow;" points="1191,-233 1191,-255 "/>
<path style="fill:none;stroke:greenyellow;" d="M1191,-255C1191,-261 1185,-267 1179,-267"/>
<text text-anchor="middle" x="1068" y="-247" style="font-family:Nimbus Sans L;font-weight:bold;font-size:12.96pt;">Waiting for Facility</text>
<text text-anchor="middle" x="1068" y="-228" style="font-family:Nimbus Sans L;font-weight:bold;font-size:12.96pt;">(UE&#45;Based positioning Stopped)</text>
</g>
<!-- Waiting_MC_UEBasedStop&#45;&gt;Waiting_Facility_UEBasedStop -->
<g id="edge34" class="edge"><title>Waiting_MC_UEBasedStop&#45;&gt;Waiting_Facility_UEBasedStop</title>
<path style="fill:none;stroke:black;" d="M990,-350C1028,-336 1062,-313 1067,-277"/>
<polygon style="fill:black;stroke:black;" points="1070.49,-277.299 1068,-267 1063.52,-276.602 1070.49,-277.299"/>
<a xlink:title="Receive M.C.(Release)">
</a>
<text text-anchor="middle" x="1071" y="-270" style="font-family:Nimbus Sans L;font-weight:regular;font-size:11.34pt;">Receive M.C.(Release)</text>
</g>
<!-- Waiting_MC_UEBasedStop&#45;&gt;End -->
<g id="edge36" class="edge"><title>Waiting_MC_UEBasedStop&#45;&gt;End</title>
<path style="fill:none;stroke:black;" d="M1003,-373C1140,-373 1292,-242 1203,-138 1172,-101 842,-72 764,-69"/>
<polygon style="fill:black;stroke:black;" points="764,-65.5001 754,-69 764,-72.5001 764,-65.5001"/>
<a xlink:title="M.C. wait timer expired/\nSend M.R.\n(undefined Error)">
</a>
<a xlink:title="M.C. wait timer expired/\nSend M.R.\n(undefined Error)">
</a>
<text text-anchor="middle" x="1301" y="-254" style="font-family:Nimbus Sans L;font-weight:regular;font-size:11.34pt;">M.C. wait timer expired/</text>
<text text-anchor="middle" x="1301" y="-238" style="font-family:Nimbus Sans L;font-weight:regular;font-size:11.34pt;">Send M.R.</text>
<text text-anchor="middle" x="1301" y="-222" style="font-family:Nimbus Sans L;font-weight:regular;font-size:11.34pt;">(undefined Error)</text>
</g>
<!-- Waiting_Facility_UEBasedCont&#45;&gt;Waiting_Facility_UEBasedStop -->
<g id="edge38" class="edge"><title>Waiting_Facility_UEBasedCont&#45;&gt;Waiting_Facility_UEBasedStop</title>
<path style="fill:none;stroke:black;" d="M419,-231C452,-228 487,-225 520,-224 664,-217 701,-217 844,-224 874,-225 905,-227 935,-230"/>
<polygon style="fill:black;stroke:black;" points="934.701,-233.488 945,-231 935.398,-226.522 934.701,-233.488"/>
<a xlink:title="UE&#45;Based fix accuracy too low/ Stop UE&#45;Based Pos.">
</a>
<a xlink:title="UE&#45;Based fix accuracy too low/ Stop UE&#45;Based Pos.">
</a>
<text text-anchor="middle" x="682" y="-226" style="font-family:Nimbus Sans L;font-weight:regular;font-size:11.34pt;">UE&#45;Based fix accuracy too low/ Stop UE&#45;Based Pos.</text>
</g>
<!-- Waiting_Facility_UEBasedCont&#45;&gt;Waiting_Facility_UEBasedStop -->
<g id="edge40" class="edge"><title>Waiting_Facility_UEBasedCont&#45;&gt;Waiting_Facility_UEBasedStop</title>
<path style="fill:none;stroke:black;" d="M419,-244C560,-244 790,-244 935,-244"/>
<polygon style="fill:black;stroke:black;" points="935,-247.5 945,-244 935,-240.5 935,-247.5"/>
<a xlink:title="UE&#45;Based success/Stop UE&#45;Based Pos., Complete User request(UE Based result)">
</a>
<a xlink:title="UE&#45;Based success/Stop UE&#45;Based Pos., Complete User request(UE Based result)">
</a>
<text text-anchor="middle" x="682" y="-246" style="font-family:Nimbus Sans L;font-weight:regular;font-size:11.34pt;">UE&#45;Based success/Stop UE&#45;Based Pos., Complete User request(UE Based result)</text>
</g>
<!-- Waiting_Facility_UEBasedCont&#45;&gt;End -->
<g id="edge42" class="edge"><title>Waiting_Facility_UEBasedCont&#45;&gt;End</title>
<path style="fill:none;stroke:black;" d="M294,-220C294,-97 400,-70 522,-69"/>
<polygon style="fill:black;stroke:black;" points="522,-72.5001 532,-69 522,-65.5001 522,-72.5001"/>
<a xlink:title="\n\n\nFacility wait timer expired/\nStop UE&#45;Based Positioning">
</a>
<text text-anchor="middle" x="291" y="-189" style="font-family:Nimbus Sans L;font-weight:regular;font-size:11.34pt;">Facility wait timer expired/</text>
<text text-anchor="middle" x="291" y="-173" style="font-family:Nimbus Sans L;font-weight:regular;font-size:11.34pt;">Stop UE&#45;Based Positioning</text>
</g>
<!-- Waiting_Facility_UEBasedCont&#45;&gt;End -->
<g id="edge44" class="edge"><title>Waiting_Facility_UEBasedCont&#45;&gt;End</title>
<path style="fill:none;stroke:red;" d="M418,-244C506,-244 444,-82 522,-70"/>
<polygon style="fill:red;stroke:red;" points="522.398,-73.4778 532,-69 521.701,-66.5125 522.398,-73.4778"/>
<a xlink:title="Recv Facility/\nStop UE&#45;Based Positioning">
</a>
<a xlink:title="Recv Facility/\nStop UE&#45;Based Positioning">
</a>
<text text-anchor="middle" x="572" y="-160" style="font-family:Nimbus Sans L;font-weight:regular;font-size:12.96pt;fill:red;">Recv Facility/</text>
<text text-anchor="middle" x="572" y="-141" style="font-family:Nimbus Sans L;font-weight:regular;font-size:12.96pt;fill:red;">Stop UE&#45;Based Positioning</text>
</g>
<!-- Waiting_Facility_UEBasedStop&#45;&gt;End -->
<g id="edge46" class="edge"><title>Waiting_Facility_UEBasedStop&#45;&gt;End</title>
<path style="fill:none;stroke:black;" d="M944,-220C918,-194 904,-197 875,-176 820,-134 824,-75 764,-69"/>
<polygon style="fill:black;stroke:black;" points="764,-65.5001 754,-69 764,-72.5001 764,-65.5001"/>
<a xlink:title="Recv Facility">
</a>
<a xlink:title="Recv Facility">
</a>
<text text-anchor="middle" x="914" y="-151" style="font-family:Nimbus Sans L;font-weight:regular;font-size:11.34pt;">Recv Facility</text>
</g>
<!-- Waiting_Facility_UEBasedStop&#45;&gt;End -->
<g id="edge48" class="edge"><title>Waiting_Facility_UEBasedStop&#45;&gt;End</title>
<path style="fill:none;stroke:black;" d="M1067,-220C1067,-137 819,-79 764,-70"/>
<polygon style="fill:black;stroke:black;" points="764.299,-66.5125 754,-69 763.602,-73.4778 764.299,-66.5125"/>
<a xlink:title="Facility wait timer expired">
</a>
<a xlink:title="Facility wait timer expired">
</a>
<text text-anchor="middle" x="1121" y="-151" style="font-family:Nimbus Sans L;font-weight:regular;font-size:11.34pt;">Facility wait timer expired</text>
</g>
</g>
</svg>
