<?xml version="1.0" encoding="UTF-8" standalone="no"?>
<!DOCTYPE svg PUBLIC "-//W3C//DTD SVG 1.0//EN"
 "http://www.w3.org/TR/2001/REC-SVG-20010904/DTD/svg10.dtd" [
 <!ATTLIST svg xmlns:xlink CDATA #FIXED "http://www.w3.org/1999/xlink">
]>
<!-- Generated by Graphviz version 2.12 (Mon Dec  4 22:04:37 UTC 2006)
     For user: Bill Gates -->
<!-- Title: finite_state_machine Pages: 1 -->
<svg width="10.00in" height="6.00in"
 xmlns="http://www.w3.org/2000/svg" xmlns:xlink="http://www.w3.org/1999/xlink">
<g id="graph0" class="graph" transform="scale(0.691643 0.691643) rotate(0) translate(4 829)">
<title>finite_state_machine</title>
<polygon style="fill:white;stroke:white;" points="-4,4 -4,-829 1384,-829 1384,4 -4,4"/>
<text text-anchor="middle" x="690" y="-8" style="font-family:Nimbus Roman No9 L;font-weight:medium;font-size:19.44pt;">Hybrid &#45; LBS &#45; UE&#45;Based MO&#45;LR &#45; GPS Result Futile</text>
<!-- Idle -->
<g id="node2" class="node"><title>Idle</title>
<polygon style="fill:greenyellow;stroke:greenyellow;" points="247,-787 217,-787 205,-775 205,-763 217,-751 247,-751 259,-763 259,-775 247,-787"/>
<path style="fill:greenyellow;stroke:greenyellow;" d="M217,-787C211,-787 205,-781 205,-775"/>
<path style="fill:greenyellow;stroke:greenyellow;" d="M205,-763C205,-757 211,-751 217,-751"/>
<path style="fill:greenyellow;stroke:greenyellow;" d="M247,-751C253,-751 259,-757 259,-763"/>
<path style="fill:greenyellow;stroke:greenyellow;" d="M259,-775C259,-781 253,-787 247,-787"/>
<polyline style="fill:none;stroke:greenyellow;" points="247,-787 217,-787 "/>
<path style="fill:none;stroke:greenyellow;" d="M217,-787C211,-787 205,-781 205,-775"/>
<polyline style="fill:none;stroke:greenyellow;" points="205,-775 205,-763 "/>
<path style="fill:none;stroke:greenyellow;" d="M205,-763C205,-757 211,-751 217,-751"/>
<polyline style="fill:none;stroke:greenyellow;" points="217,-751 247,-751 "/>
<path style="fill:none;stroke:greenyellow;" d="M247,-751C253,-751 259,-757 259,-763"/>
<polyline style="fill:none;stroke:greenyellow;" points="259,-763 259,-775 "/>
<path style="fill:none;stroke:greenyellow;" d="M259,-775C259,-781 253,-787 247,-787"/>
<text text-anchor="middle" x="232" y="-763" style="font-family:Nimbus Sans L;font-weight:bold;font-size:12.96pt;">Idle</text>
</g>
<!-- Autonomous -->
<g id="node3" class="node"><title>Autonomous</title>
<polygon style="fill:greenyellow;stroke:greenyellow;" points="645,-792 499,-792 487,-780 487,-758 499,-746 645,-746 657,-758 657,-780 645,-792"/>
<path style="fill:greenyellow;stroke:greenyellow;" d="M499,-792C493,-792 487,-786 487,-780"/>
<path style="fill:greenyellow;stroke:greenyellow;" d="M487,-758C487,-752 493,-746 499,-746"/>
<path style="fill:greenyellow;stroke:greenyellow;" d="M645,-746C651,-746 657,-752 657,-758"/>
<path style="fill:greenyellow;stroke:greenyellow;" d="M657,-780C657,-786 651,-792 645,-792"/>
<polyline style="fill:none;stroke:greenyellow;" points="645,-792 499,-792 "/>
<path style="fill:none;stroke:greenyellow;" d="M499,-792C493,-792 487,-786 487,-780"/>
<polyline style="fill:none;stroke:greenyellow;" points="487,-780 487,-758 "/>
<path style="fill:none;stroke:greenyellow;" d="M487,-758C487,-752 493,-746 499,-746"/>
<polyline style="fill:none;stroke:greenyellow;" points="499,-746 645,-746 "/>
<path style="fill:none;stroke:greenyellow;" d="M645,-746C651,-746 657,-752 657,-758"/>
<polyline style="fill:none;stroke:greenyellow;" points="657,-758 657,-780 "/>
<path style="fill:none;stroke:greenyellow;" d="M657,-780C657,-786 651,-792 645,-792"/>
<text text-anchor="middle" x="572" y="-772" style="font-family:Nimbus Sans L;font-weight:bold;font-size:12.96pt;">Autonomous</text>
<text text-anchor="middle" x="572" y="-753" style="font-family:Nimbus Sans L;font-weight:bold;font-size:12.96pt;">UE&#45;Based positioning</text>
</g>
<!-- Idle&#45;&gt;Autonomous -->
<g id="edge6" class="edge"><title>Idle&#45;&gt;Autonomous</title>
<path style="fill:none;stroke:red;" d="M259,-769C306,-769 403,-769 476,-769"/>
<polygon style="fill:red;stroke:red;" points="476,-772.5 486,-769 476,-765.5 476,-772.5"/>
<a xlink:title="User starts Location check\nStart Autonomous positioning\nStart LcsMOLR">
</a>
<a xlink:title="User starts Location check\nStart Autonomous positioning\nStart LcsMOLR">
</a>
<text text-anchor="middle" x="373" y="-810" style="font-family:Nimbus Sans L;font-weight:regular;font-size:12.96pt;fill:red;">User starts Location check</text>
<text text-anchor="middle" x="373" y="-791" style="font-family:Nimbus Sans L;font-weight:regular;font-size:12.96pt;fill:red;">Start Autonomous positioning</text>
<text text-anchor="middle" x="373" y="-772" style="font-family:Nimbus Sans L;font-weight:regular;font-size:12.96pt;fill:red;">Start LcsMOLR</text>
</g>
<!-- UE_Based -->
<g id="node4" class="node"><title>UE_Based</title>
<polygon style="fill:greenyellow;stroke:greenyellow;" points="1075,-792 845,-792 833,-780 833,-758 845,-746 1075,-746 1087,-758 1087,-780 1075,-792"/>
<path style="fill:greenyellow;stroke:greenyellow;" d="M845,-792C839,-792 833,-786 833,-780"/>
<path style="fill:greenyellow;stroke:greenyellow;" d="M833,-758C833,-752 839,-746 845,-746"/>
<path style="fill:greenyellow;stroke:greenyellow;" d="M1075,-746C1081,-746 1087,-752 1087,-758"/>
<path style="fill:greenyellow;stroke:greenyellow;" d="M1087,-780C1087,-786 1081,-792 1075,-792"/>
<polyline style="fill:none;stroke:greenyellow;" points="1075,-792 845,-792 "/>
<path style="fill:none;stroke:greenyellow;" d="M845,-792C839,-792 833,-786 833,-780"/>
<polyline style="fill:none;stroke:greenyellow;" points="833,-780 833,-758 "/>
<path style="fill:none;stroke:greenyellow;" d="M833,-758C833,-752 839,-746 845,-746"/>
<polyline style="fill:none;stroke:greenyellow;" points="845,-746 1075,-746 "/>
<path style="fill:none;stroke:greenyellow;" d="M1075,-746C1081,-746 1087,-752 1087,-758"/>
<polyline style="fill:none;stroke:greenyellow;" points="1087,-758 1087,-780 "/>
<path style="fill:none;stroke:greenyellow;" d="M1087,-780C1087,-786 1081,-792 1075,-792"/>
<text text-anchor="middle" x="960" y="-772" style="font-family:Nimbus Sans L;font-weight:bold;font-size:12.96pt;">Performing UE&#45;Based positioning</text>
<text text-anchor="middle" x="960" y="-753" style="font-family:Nimbus Sans L;font-weight:bold;font-size:12.96pt;">under Hybrid Positioning</text>
</g>
<!-- Autonomous&#45;&gt;UE_Based -->
<g id="edge8" class="edge"><title>Autonomous&#45;&gt;UE_Based</title>
<path style="fill:none;stroke:red;" d="M658,-769C706,-769 767,-769 823,-769"/>
<polygon style="fill:red;stroke:red;" points="823,-772.5 833,-769 823,-765.5 823,-772.5"/>
<a xlink:title="Receives M.C.(Setup)\nStart a2,a4 timer">
</a>
<a xlink:title="Receives M.C.(Setup)\nStart a2,a4 timer">
</a>
<text text-anchor="middle" x="745" y="-791" style="font-family:Nimbus Sans L;font-weight:regular;font-size:12.96pt;fill:red;">Receives M.C.(Setup)</text>
<text text-anchor="middle" x="745" y="-772" style="font-family:Nimbus Sans L;font-weight:regular;font-size:12.96pt;fill:red;">Start a2,a4 timer</text>
</g>
<!-- UE_Assisted -->
<g id="node5" class="node"><title>UE_Assisted</title>
<polygon style="fill:greenyellow;stroke:greenyellow;" points="705,-638 459,-638 447,-626 447,-604 459,-592 705,-592 717,-604 717,-626 705,-638"/>
<path style="fill:greenyellow;stroke:greenyellow;" d="M459,-638C453,-638 447,-632 447,-626"/>
<path style="fill:greenyellow;stroke:greenyellow;" d="M447,-604C447,-598 453,-592 459,-592"/>
<path style="fill:greenyellow;stroke:greenyellow;" d="M705,-592C711,-592 717,-598 717,-604"/>
<path style="fill:greenyellow;stroke:greenyellow;" d="M717,-626C717,-632 711,-638 705,-638"/>
<polyline style="fill:none;stroke:greenyellow;" points="705,-638 459,-638 "/>
<path style="fill:none;stroke:greenyellow;" d="M459,-638C453,-638 447,-632 447,-626"/>
<polyline style="fill:none;stroke:greenyellow;" points="447,-626 447,-604 "/>
<path style="fill:none;stroke:greenyellow;" d="M447,-604C447,-598 453,-592 459,-592"/>
<polyline style="fill:none;stroke:greenyellow;" points="459,-592 705,-592 "/>
<path style="fill:none;stroke:greenyellow;" d="M705,-592C711,-592 717,-598 717,-604"/>
<polyline style="fill:none;stroke:greenyellow;" points="717,-604 717,-626 "/>
<path style="fill:none;stroke:greenyellow;" d="M717,-626C717,-632 711,-638 705,-638"/>
<text text-anchor="middle" x="582" y="-618" style="font-family:Nimbus Sans L;font-weight:bold;font-size:12.96pt;">Performing UE&#45;Assisted positioning</text>
<text text-anchor="middle" x="582" y="-599" style="font-family:Nimbus Sans L;font-weight:bold;font-size:12.96pt;">(UE&#45;Based positioning continue)</text>
</g>
<!-- UE_Based&#45;&gt;UE_Assisted -->
<g id="edge10" class="edge"><title>UE_Based&#45;&gt;UE_Assisted</title>
<path style="fill:none;stroke:black;" d="M833,-746C785,-698 715,-663 661,-642"/>
<polygon style="fill:black;stroke:black;" points="661.585,-638.464 651,-638 658.985,-644.964 661.585,-638.464"/>
<a xlink:title="\n\n\n\n\nTimer a2 expired/\nSend M.R\nReceive M.C.\n(Modify,Reporting Interval=t)\nStart up Timer t">
</a>
<text text-anchor="middle" x="823" y="-729" style="font-family:Nimbus Sans L;font-weight:regular;font-size:11.34pt;">Timer a2 expired/</text>
<text text-anchor="middle" x="823" y="-713" style="font-family:Nimbus Sans L;font-weight:regular;font-size:11.34pt;">Send M.R</text>
<text text-anchor="middle" x="823" y="-697" style="font-family:Nimbus Sans L;font-weight:regular;font-size:11.34pt;">Receive M.C.</text>
<text text-anchor="middle" x="823" y="-681" style="font-family:Nimbus Sans L;font-weight:regular;font-size:11.34pt;">(Modify,Reporting Interval=t)</text>
<text text-anchor="middle" x="823" y="-665" style="font-family:Nimbus Sans L;font-weight:regular;font-size:11.34pt;">Start up Timer t</text>
</g>
<!-- Waiting_MC_UEBasedStop -->
<g id="node8" class="node"><title>Waiting_MC_UEBasedStop</title>
<polygon style="fill:greenyellow;stroke:greenyellow;" points="990,-390 768,-390 756,-378 756,-356 768,-344 990,-344 1002,-356 1002,-378 990,-390"/>
<path style="fill:greenyellow;stroke:greenyellow;" d="M768,-390C762,-390 756,-384 756,-378"/>
<path style="fill:greenyellow;stroke:greenyellow;" d="M756,-356C756,-350 762,-344 768,-344"/>
<path style="fill:greenyellow;stroke:greenyellow;" d="M990,-344C996,-344 1002,-350 1002,-356"/>
<path style="fill:greenyellow;stroke:greenyellow;" d="M1002,-378C1002,-384 996,-390 990,-390"/>
<polyline style="fill:none;stroke:greenyellow;" points="990,-390 768,-390 "/>
<path style="fill:none;stroke:greenyellow;" d="M768,-390C762,-390 756,-384 756,-378"/>
<polyline style="fill:none;stroke:greenyellow;" points="756,-378 756,-356 "/>
<path style="fill:none;stroke:greenyellow;" d="M756,-356C756,-350 762,-344 768,-344"/>
<polyline style="fill:none;stroke:greenyellow;" points="768,-344 990,-344 "/>
<path style="fill:none;stroke:greenyellow;" d="M990,-344C996,-344 1002,-350 1002,-356"/>
<polyline style="fill:none;stroke:greenyellow;" points="1002,-356 1002,-378 "/>
<path style="fill:none;stroke:greenyellow;" d="M1002,-378C1002,-384 996,-390 990,-390"/>
<text text-anchor="middle" x="879" y="-370" style="font-family:Nimbus Sans L;font-weight:bold;font-size:12.96pt;">Waiting for M.C.(Release)</text>
<text text-anchor="middle" x="879" y="-351" style="font-family:Nimbus Sans L;font-weight:bold;font-size:12.96pt;">(UE&#45;Based positioning Stopped)</text>
</g>
<!-- UE_Based&#45;&gt;Waiting_MC_UEBasedStop -->
<g id="edge12" class="edge"><title>UE_Based&#45;&gt;Waiting_MC_UEBasedStop</title>
<path style="fill:none;stroke:black;" d="M960,-746C961,-707 965,-626 974,-558 984,-476 1078,-376 1012,-368"/>
<polygon style="fill:black;stroke:black;" points="1012.3,-364.512 1002,-367 1011.6,-371.478 1012.3,-364.512"/>
<a xlink:title="UE&#45;Based success/\nStop UE&#45;Based Positioning\nComplete User request\n(UE Based result)\nSend M.R.\n(confidence=68)">
</a>
<a xlink:title="UE&#45;Based success/\nStop UE&#45;Based Positioning\nComplete User request\n(UE Based result)\nSend M.R.\n(confidence=68)">
</a>
<text text-anchor="middle" x="1058" y="-649" style="font-family:Nimbus Sans L;font-weight:regular;font-size:11.34pt;">UE&#45;Based success/</text>
<text text-anchor="middle" x="1058" y="-633" style="font-family:Nimbus Sans L;font-weight:regular;font-size:11.34pt;">Stop UE&#45;Based Positioning</text>
<text text-anchor="middle" x="1058" y="-617" style="font-family:Nimbus Sans L;font-weight:regular;font-size:11.34pt;">Complete User request</text>
<text text-anchor="middle" x="1058" y="-601" style="font-family:Nimbus Sans L;font-weight:regular;font-size:11.34pt;">(UE Based result)</text>
<text text-anchor="middle" x="1058" y="-585" style="font-family:Nimbus Sans L;font-weight:regular;font-size:11.34pt;">Send M.R.</text>
<text text-anchor="middle" x="1058" y="-569" style="font-family:Nimbus Sans L;font-weight:regular;font-size:11.34pt;">(confidence=68)</text>
</g>
<!-- UE_Based&#45;&gt;Waiting_MC_UEBasedStop -->
<g id="edge14" class="edge"><title>UE_Based&#45;&gt;Waiting_MC_UEBasedStop</title>
<path style="fill:none;stroke:red;" d="M1087,-769C1266,-769 1187,-382 1012,-367"/>
<polygon style="fill:red;stroke:red;" points="1012,-363.5 1002,-367 1012,-370.5 1012,-363.5"/>
<a xlink:title="UE&#45;Based fix\n(Futile)/\nStop UE&#45;Based\nPositioning,\nSend M.R.(RefPos)\n(confidence=100)">
</a>
<a xlink:title="UE&#45;Based fix\n(Futile)/\nStop UE&#45;Based\nPositioning,\nSend M.R.(RefPos)\n(confidence=100)">
</a>
<text text-anchor="middle" x="1257" y="-656" style="font-family:Nimbus Sans L;font-weight:regular;font-size:12.96pt;fill:red;">UE&#45;Based fix</text>
<text text-anchor="middle" x="1257" y="-637" style="font-family:Nimbus Sans L;font-weight:regular;font-size:12.96pt;fill:red;">(Futile)/</text>
<text text-anchor="middle" x="1257" y="-618" style="font-family:Nimbus Sans L;font-weight:regular;font-size:12.96pt;fill:red;">Stop UE&#45;Based</text>
<text text-anchor="middle" x="1257" y="-599" style="font-family:Nimbus Sans L;font-weight:regular;font-size:12.96pt;fill:red;">Positioning,</text>
<text text-anchor="middle" x="1257" y="-580" style="font-family:Nimbus Sans L;font-weight:regular;font-size:12.96pt;fill:red;">Send M.R.(RefPos)</text>
<text text-anchor="middle" x="1257" y="-561" style="font-family:Nimbus Sans L;font-weight:regular;font-size:12.96pt;fill:red;">(confidence=100)</text>
</g>
<!-- UE_Assisted&#45;&gt;UE_Assisted -->
<g id="edge16" class="edge"><title>UE_Assisted&#45;&gt;UE_Assisted</title>
<path style="fill:none;stroke:black;" d="M545,-638C493,-659 429,-650 429,-603 429,-550 439,-545 445,-582"/>
<polygon style="fill:black;stroke:black;" points="441.607,-582.881 447,-592 448.471,-581.508 441.607,-582.881"/>
<a xlink:title="\n\n\nTimer t expired/\nSend M.R,\nrestart timer t">
</a>
<text text-anchor="middle" x="441" y="-570" style="font-family:Nimbus Sans L;font-weight:regular;font-size:11.34pt;">Timer t expired/</text>
<text text-anchor="middle" x="441" y="-554" style="font-family:Nimbus Sans L;font-weight:regular;font-size:11.34pt;">Send M.R,</text>
<text text-anchor="middle" x="441" y="-538" style="font-family:Nimbus Sans L;font-weight:regular;font-size:11.34pt;">restart timer t</text>
</g>
<!-- Waiting_MC_UEBasedCont -->
<g id="node7" class="node"><title>Waiting_MC_UEBasedCont</title>
<polygon style="fill:greenyellow;stroke:greenyellow;" points="405,-390 183,-390 171,-378 171,-356 183,-344 405,-344 417,-356 417,-378 405,-390"/>
<path style="fill:greenyellow;stroke:greenyellow;" d="M183,-390C177,-390 171,-384 171,-378"/>
<path style="fill:greenyellow;stroke:greenyellow;" d="M171,-356C171,-350 177,-344 183,-344"/>
<path style="fill:greenyellow;stroke:greenyellow;" d="M405,-344C411,-344 417,-350 417,-356"/>
<path style="fill:greenyellow;stroke:greenyellow;" d="M417,-378C417,-384 411,-390 405,-390"/>
<polyline style="fill:none;stroke:greenyellow;" points="405,-390 183,-390 "/>
<path style="fill:none;stroke:greenyellow;" d="M183,-390C177,-390 171,-384 171,-378"/>
<polyline style="fill:none;stroke:greenyellow;" points="171,-378 171,-356 "/>
<path style="fill:none;stroke:greenyellow;" d="M171,-356C171,-350 177,-344 183,-344"/>
<polyline style="fill:none;stroke:greenyellow;" points="183,-344 405,-344 "/>
<path style="fill:none;stroke:greenyellow;" d="M405,-344C411,-344 417,-350 417,-356"/>
<polyline style="fill:none;stroke:greenyellow;" points="417,-356 417,-378 "/>
<path style="fill:none;stroke:greenyellow;" d="M417,-378C417,-384 411,-390 405,-390"/>
<text text-anchor="middle" x="294" y="-370" style="font-family:Nimbus Sans L;font-weight:bold;font-size:12.96pt;">Waiting for M.C.(Release)</text>
<text text-anchor="middle" x="294" y="-351" style="font-family:Nimbus Sans L;font-weight:bold;font-size:12.96pt;">(UE&#45;Based positioning continue)</text>
</g>
<!-- UE_Assisted&#45;&gt;Waiting_MC_UEBasedCont -->
<g id="edge20" class="edge"><title>UE_Assisted&#45;&gt;Waiting_MC_UEBasedCont</title>
<path style="fill:none;stroke:black;" d="M446,-615C346,-615 310,-468 299,-400"/>
<polygon style="fill:black;stroke:black;" points="302.393,-399.119 297,-390 295.529,-400.492 302.393,-399.119"/>
<a xlink:title="timer a4 expired/\nSend M.R.\n(confidence=100)">
</a>
<a xlink:title="timer a4 expired/\nSend M.R.\n(confidence=100)">
</a>
<text text-anchor="middle" x="386" y="-484" style="font-family:Nimbus Sans L;font-weight:regular;font-size:11.34pt;">timer a4 expired/</text>
<text text-anchor="middle" x="386" y="-468" style="font-family:Nimbus Sans L;font-weight:regular;font-size:11.34pt;">Send M.R.</text>
<text text-anchor="middle" x="386" y="-452" style="font-family:Nimbus Sans L;font-weight:regular;font-size:11.34pt;">(confidence=100)</text>
</g>
<!-- UE_Assisted&#45;&gt;Waiting_MC_UEBasedStop -->
<g id="edge22" class="edge"><title>UE_Assisted&#45;&gt;Waiting_MC_UEBasedStop</title>
<path style="fill:none;stroke:black;" d="M582,-592C582,-518 533,-481 583,-426 625,-379 851,-447 877,-400"/>
<polygon style="fill:black;stroke:black;" points="880.471,-400.492 879,-390 873.607,-399.119 880.471,-400.492"/>
<a xlink:title="UE&#45;Based success/\nStop UE&#45;Based Positioning\nComplete User request\n(UE Based result)\nSend M.R.\n(confidence=68)">
</a>
<a xlink:title="UE&#45;Based success/\nStop UE&#45;Based Positioning\nComplete User request\n(UE Based result)\nSend M.R.\n(confidence=68)">
</a>
<text text-anchor="middle" x="667" y="-508" style="font-family:Nimbus Sans L;font-weight:regular;font-size:11.34pt;">UE&#45;Based success/</text>
<text text-anchor="middle" x="667" y="-492" style="font-family:Nimbus Sans L;font-weight:regular;font-size:11.34pt;">Stop UE&#45;Based Positioning</text>
<text text-anchor="middle" x="667" y="-476" style="font-family:Nimbus Sans L;font-weight:regular;font-size:11.34pt;">Complete User request</text>
<text text-anchor="middle" x="667" y="-460" style="font-family:Nimbus Sans L;font-weight:regular;font-size:11.34pt;">(UE Based result)</text>
<text text-anchor="middle" x="667" y="-444" style="font-family:Nimbus Sans L;font-weight:regular;font-size:11.34pt;">Send M.R.</text>
<text text-anchor="middle" x="667" y="-428" style="font-family:Nimbus Sans L;font-weight:regular;font-size:11.34pt;">(confidence=68)</text>
</g>
<!-- UE_Assisted&#45;&gt;Waiting_MC_UEBasedStop -->
<g id="edge24" class="edge"><title>UE_Assisted&#45;&gt;Waiting_MC_UEBasedStop</title>
<path style="fill:none;stroke:black;" d="M718,-615C805,-615 715,-490 774,-426 804,-392 867,-431 878,-400"/>
<polygon style="fill:black;stroke:black;" points="881.488,-400.299 879,-390 874.522,-399.602 881.488,-400.299"/>
<a xlink:title="UE&#45;Based fix\n(Futile)/\nStop UE&#45;Based Positioning,\nSend M.R.(RefPos)\n(confidence=100)">
</a>
<a xlink:title="UE&#45;Based fix\n(Futile)/\nStop UE&#45;Based Positioning,\nSend M.R.(RefPos)\n(confidence=100)">
</a>
<text text-anchor="middle" x="860" y="-500" style="font-family:Nimbus Sans L;font-weight:regular;font-size:11.34pt;">UE&#45;Based fix</text>
<text text-anchor="middle" x="860" y="-484" style="font-family:Nimbus Sans L;font-weight:regular;font-size:11.34pt;">(Futile)/</text>
<text text-anchor="middle" x="860" y="-468" style="font-family:Nimbus Sans L;font-weight:regular;font-size:11.34pt;">Stop UE&#45;Based Positioning,</text>
<text text-anchor="middle" x="860" y="-452" style="font-family:Nimbus Sans L;font-weight:regular;font-size:11.34pt;">Send M.R.(RefPos)</text>
<text text-anchor="middle" x="860" y="-436" style="font-family:Nimbus Sans L;font-weight:regular;font-size:11.34pt;">(confidence=100)</text>
</g>
<!-- Waiting_Facility_UEBasedCont -->
<g id="node10" class="node"><title>Waiting_Facility_UEBasedCont</title>
<polygon style="fill:greenyellow;stroke:greenyellow;" points="405,-261 183,-261 171,-249 171,-227 183,-215 405,-215 417,-227 417,-249 405,-261"/>
<path style="fill:greenyellow;stroke:greenyellow;" d="M183,-261C177,-261 171,-255 171,-249"/>
<path style="fill:greenyellow;stroke:greenyellow;" d="M171,-227C171,-221 177,-215 183,-215"/>
<path style="fill:greenyellow;stroke:greenyellow;" d="M405,-215C411,-215 417,-221 417,-227"/>
<path style="fill:greenyellow;stroke:greenyellow;" d="M417,-249C417,-255 411,-261 405,-261"/>
<polyline style="fill:none;stroke:greenyellow;" points="405,-261 183,-261 "/>
<path style="fill:none;stroke:greenyellow;" d="M183,-261C177,-261 171,-255 171,-249"/>
<polyline style="fill:none;stroke:greenyellow;" points="171,-249 171,-227 "/>
<path style="fill:none;stroke:greenyellow;" d="M171,-227C171,-221 177,-215 183,-215"/>
<polyline style="fill:none;stroke:greenyellow;" points="183,-215 405,-215 "/>
<path style="fill:none;stroke:greenyellow;" d="M405,-215C411,-215 417,-221 417,-227"/>
<polyline style="fill:none;stroke:greenyellow;" points="417,-227 417,-249 "/>
<path style="fill:none;stroke:greenyellow;" d="M417,-249C417,-255 411,-261 405,-261"/>
<text text-anchor="middle" x="294" y="-241" style="font-family:Nimbus Sans L;font-weight:bold;font-size:12.96pt;">Waiting for Facility</text>
<text text-anchor="middle" x="294" y="-222" style="font-family:Nimbus Sans L;font-weight:bold;font-size:12.96pt;">(UE&#45;Based positioning continue)</text>
</g>
<!-- UE_Assisted&#45;&gt;Waiting_Facility_UEBasedCont -->
<g id="edge18" class="edge"><title>UE_Assisted&#45;&gt;Waiting_Facility_UEBasedCont</title>
<path style="fill:none;stroke:black;" d="M573,-592C553,-542 500,-422 426,-344 380,-297 303,-326 295,-271"/>
<polygon style="fill:black;stroke:black;" points="298.478,-270.602 294,-261 291.512,-271.299 298.478,-270.602"/>
</g>
<!-- Waiting_MC_UEBasedCont&#45;&gt;Waiting_MC_UEBasedStop -->
<g id="edge26" class="edge"><title>Waiting_MC_UEBasedCont&#45;&gt;Waiting_MC_UEBasedStop</title>
<path style="fill:none;stroke:black;" d="M418,-348C421,-347 424,-347 427,-347 566,-336 604,-336 746,-347"/>
<polygon style="fill:black;stroke:black;" points="745.701,-350.488 756,-348 746.398,-343.522 745.701,-350.488"/>
<a xlink:title="UE&#45;Based fix accuracy too low/Stop UE&#45;Based Pos.">
</a>
<a xlink:title="UE&#45;Based fix accuracy too low/Stop UE&#45;Based Pos.">
</a>
<text text-anchor="middle" x="587" y="-349" style="font-family:Nimbus Sans L;font-weight:regular;font-size:11.34pt;">UE&#45;Based fix accuracy too low/Stop UE&#45;Based Pos.</text>
</g>
<!-- Waiting_MC_UEBasedCont&#45;&gt;Waiting_MC_UEBasedStop -->
<g id="edge28" class="edge"><title>Waiting_MC_UEBasedCont&#45;&gt;Waiting_MC_UEBasedStop</title>
<path style="fill:none;stroke:black;" d="M418,-367C514,-367 647,-367 746,-367"/>
<polygon style="fill:black;stroke:black;" points="746,-370.5 756,-367 746,-363.5 746,-370.5"/>
<a xlink:title="UE&#45;Based success/Stop UE&#45;Based Pos.,\nComplete User request(UE Based result)\n">
</a>
<a xlink:title="UE&#45;Based success/Stop UE&#45;Based Pos.,\nComplete User request(UE Based result)\n">
</a>
<text text-anchor="middle" x="587" y="-377" style="font-family:Nimbus Sans L;font-weight:regular;font-size:11.34pt;">UE&#45;Based success/Stop UE&#45;Based Pos.,</text>
<text text-anchor="middle" x="587" y="-361" style="font-family:Nimbus Sans L;font-weight:regular;font-size:11.34pt;">Complete User request(UE Based result)</text>
</g>
<!-- Waiting_MC_UEBasedCont&#45;&gt;Waiting_Facility_UEBasedCont -->
<g id="edge30" class="edge"><title>Waiting_MC_UEBasedCont&#45;&gt;Waiting_Facility_UEBasedCont</title>
<path style="fill:none;stroke:black;" d="M294,-344C294,-311 294,-299 294,-271"/>
<polygon style="fill:black;stroke:black;" points="297.5,-271 294,-261 290.5,-271 297.5,-271"/>
<a xlink:title="Receive M.C.(Release)\n\n">
</a>
<text text-anchor="middle" x="298" y="-272" style="font-family:Nimbus Sans L;font-weight:regular;font-size:11.34pt;">Receive M.C.(Release)</text>
</g>
<!-- End -->
<g id="node13" class="node"><title>End</title>
<polygon style="fill:greenyellow;stroke:greenyellow;" points="684,-101.5 486,-101.5 474,-89.5 474,-48.5 486,-36.5 684,-36.5 696,-48.5 696,-89.5 684,-101.5"/>
<path style="fill:greenyellow;stroke:greenyellow;" d="M486,-101.5C480,-101.5 474,-95.5 474,-89.5"/>
<path style="fill:greenyellow;stroke:greenyellow;" d="M474,-48.5C474,-42.5 480,-36.5 486,-36.5"/>
<path style="fill:greenyellow;stroke:greenyellow;" d="M684,-36.5C690,-36.5 696,-42.5 696,-48.5"/>
<path style="fill:greenyellow;stroke:greenyellow;" d="M696,-89.5C696,-95.5 690,-101.5 684,-101.5"/>
<polyline style="fill:none;stroke:greenyellow;" points="684,-101.5 486,-101.5 "/>
<path style="fill:none;stroke:greenyellow;" d="M486,-101.5C480,-101.5 474,-95.5 474,-89.5"/>
<polyline style="fill:none;stroke:greenyellow;" points="474,-89.5 474,-48.5 "/>
<path style="fill:none;stroke:greenyellow;" d="M474,-48.5C474,-42.5 480,-36.5 486,-36.5"/>
<polyline style="fill:none;stroke:greenyellow;" points="486,-36.5 684,-36.5 "/>
<path style="fill:none;stroke:greenyellow;" d="M684,-36.5C690,-36.5 696,-42.5 696,-48.5"/>
<polyline style="fill:none;stroke:greenyellow;" points="696,-48.5 696,-89.5 "/>
<path style="fill:none;stroke:greenyellow;" d="M696,-89.5C696,-95.5 690,-101.5 684,-101.5"/>
<text text-anchor="middle" x="585" y="-82" style="font-family:Nimbus Sans L;font-weight:bold;font-size:12.96pt;">Positioning Ends</text>
<text text-anchor="middle" x="585" y="-63" style="font-family:Nimbus Sans L;font-weight:bold;font-size:12.96pt;">Complete User Request</text>
<text text-anchor="middle" x="585" y="-44" style="font-family:Nimbus Sans L;font-weight:bold;font-size:12.96pt;">For no UE&#45;Based positioning</text>
</g>
<!-- Waiting_MC_UEBasedCont&#45;&gt;End -->
<g id="edge32" class="edge"><title>Waiting_MC_UEBasedCont&#45;&gt;End</title>
<path style="fill:none;stroke:black;" d="M170,-344C116,-290 57,-334 16,-270 1,-245 0,-228 16,-206 77,-123 350,-72 464,-69"/>
<polygon style="fill:black;stroke:black;" points="464,-72.5001 474,-69 464,-65.5001 464,-72.5001"/>
<a xlink:title="M.C. wait timer expired/\nStop UE&#45;Based\nSend M.R.\n(undefined Error)">
</a>
<a xlink:title="M.C. wait timer expired/\nStop UE&#45;Based\nSend M.R.\n(undefined Error)">
</a>
<text text-anchor="middle" x="92" y="-256" style="font-family:Nimbus Sans L;font-weight:regular;font-size:11.34pt;">M.C. wait timer expired/</text>
<text text-anchor="middle" x="92" y="-240" style="font-family:Nimbus Sans L;font-weight:regular;font-size:11.34pt;">Stop UE&#45;Based</text>
<text text-anchor="middle" x="92" y="-224" style="font-family:Nimbus Sans L;font-weight:regular;font-size:11.34pt;">Send M.R.</text>
<text text-anchor="middle" x="92" y="-208" style="font-family:Nimbus Sans L;font-weight:regular;font-size:11.34pt;">(undefined Error)</text>
</g>
<!-- Waiting_Facility_UEBasedStop -->
<g id="node11" class="node"><title>Waiting_Facility_UEBasedStop</title>
<polygon style="fill:greenyellow;stroke:greenyellow;" points="1178,-261 956,-261 944,-249 944,-227 956,-215 1178,-215 1190,-227 1190,-249 1178,-261"/>
<path style="fill:greenyellow;stroke:greenyellow;" d="M956,-261C950,-261 944,-255 944,-249"/>
<path style="fill:greenyellow;stroke:greenyellow;" d="M944,-227C944,-221 950,-215 956,-215"/>
<path style="fill:greenyellow;stroke:greenyellow;" d="M1178,-215C1184,-215 1190,-221 1190,-227"/>
<path style="fill:greenyellow;stroke:greenyellow;" d="M1190,-249C1190,-255 1184,-261 1178,-261"/>
<polyline style="fill:none;stroke:greenyellow;" points="1178,-261 956,-261 "/>
<path style="fill:none;stroke:greenyellow;" d="M956,-261C950,-261 944,-255 944,-249"/>
<polyline style="fill:none;stroke:greenyellow;" points="944,-249 944,-227 "/>
<path style="fill:none;stroke:greenyellow;" d="M944,-227C944,-221 950,-215 956,-215"/>
<polyline style="fill:none;stroke:greenyellow;" points="956,-215 1178,-215 "/>
<path style="fill:none;stroke:greenyellow;" d="M1178,-215C1184,-215 1190,-221 1190,-227"/>
<polyline style="fill:none;stroke:greenyellow;" points="1190,-227 1190,-249 "/>
<path style="fill:none;stroke:greenyellow;" d="M1190,-249C1190,-255 1184,-261 1178,-261"/>
<text text-anchor="middle" x="1067" y="-241" style="font-family:Nimbus Sans L;font-weight:bold;font-size:12.96pt;">Waiting for Facility</text>
<text text-anchor="middle" x="1067" y="-222" style="font-family:Nimbus Sans L;font-weight:bold;font-size:12.96pt;">(UE&#45;Based positioning Stopped)</text>
</g>
<!-- Waiting_MC_UEBasedStop&#45;&gt;Waiting_Facility_UEBasedStop -->
<g id="edge34" class="edge"><title>Waiting_MC_UEBasedStop&#45;&gt;Waiting_Facility_UEBasedStop</title>
<path style="fill:none;stroke:red;" d="M989,-344C1027,-330 1061,-307 1066,-271"/>
<polygon style="fill:red;stroke:red;" points="1069.49,-271.299 1067,-261 1062.52,-270.602 1069.49,-271.299"/>
<a xlink:title="Receive M.C.(Release)">
</a>
<text text-anchor="middle" x="996" y="-331" style="font-family:Nimbus Sans L;font-weight:regular;font-size:12.96pt;fill:red;">Receive M.C.(Release)</text>
</g>
<!-- Waiting_MC_UEBasedStop&#45;&gt;End -->
<g id="edge36" class="edge"><title>Waiting_MC_UEBasedStop&#45;&gt;End</title>
<path style="fill:none;stroke:black;" d="M1002,-367C1139,-367 1300,-241 1210,-138 1174,-96 791,-71 706,-69"/>
<polygon style="fill:black;stroke:black;" points="706,-65.5001 696,-69 706,-72.5001 706,-65.5001"/>
<a xlink:title="M.C. wait timer expired/\nSend M.R.\n(undefined Error)">
</a>
<a xlink:title="M.C. wait timer expired/\nSend M.R.\n(undefined Error)">
</a>
<text text-anchor="middle" x="1307" y="-248" style="font-family:Nimbus Sans L;font-weight:regular;font-size:11.34pt;">M.C. wait timer expired/</text>
<text text-anchor="middle" x="1307" y="-232" style="font-family:Nimbus Sans L;font-weight:regular;font-size:11.34pt;">Send M.R.</text>
<text text-anchor="middle" x="1307" y="-216" style="font-family:Nimbus Sans L;font-weight:regular;font-size:11.34pt;">(undefined Error)</text>
</g>
<!-- Waiting_Facility_UEBasedCont&#45;&gt;Waiting_Facility_UEBasedStop -->
<g id="edge38" class="edge"><title>Waiting_Facility_UEBasedCont&#45;&gt;Waiting_Facility_UEBasedStop</title>
<path style="fill:none;stroke:black;" d="M418,-225C451,-222 486,-219 519,-218 663,-211 700,-211 843,-218 873,-219 904,-221 934,-224"/>
<polygon style="fill:black;stroke:black;" points="933.701,-227.488 944,-225 934.398,-220.522 933.701,-227.488"/>
<a xlink:title="UE&#45;Based fix accuracy too low/ Stop UE&#45;Based Pos.">
</a>
<a xlink:title="UE&#45;Based fix accuracy too low/ Stop UE&#45;Based Pos.">
</a>
<text text-anchor="middle" x="681" y="-220" style="font-family:Nimbus Sans L;font-weight:regular;font-size:11.34pt;">UE&#45;Based fix accuracy too low/ Stop UE&#45;Based Pos.</text>
</g>
<!-- Waiting_Facility_UEBasedCont&#45;&gt;Waiting_Facility_UEBasedStop -->
<g id="edge40" class="edge"><title>Waiting_Facility_UEBasedCont&#45;&gt;Waiting_Facility_UEBasedStop</title>
<path style="fill:none;stroke:black;" d="M418,-238C559,-238 789,-238 934,-238"/>
<polygon style="fill:black;stroke:black;" points="934,-241.5 944,-238 934,-234.5 934,-241.5"/>
<a xlink:title="UE&#45;Based success/Stop UE&#45;Based Pos., Complete User request(UE Based result)">
</a>
<a xlink:title="UE&#45;Based success/Stop UE&#45;Based Pos., Complete User request(UE Based result)">
</a>
<text text-anchor="middle" x="681" y="-240" style="font-family:Nimbus Sans L;font-weight:regular;font-size:11.34pt;">UE&#45;Based success/Stop UE&#45;Based Pos., Complete User request(UE Based result)</text>
</g>
<!-- Waiting_Facility_UEBasedCont&#45;&gt;End -->
<g id="edge42" class="edge"><title>Waiting_Facility_UEBasedCont&#45;&gt;End</title>
<path style="fill:none;stroke:black;" d="M293,-214C293,-113 365,-72 464,-69"/>
<polygon style="fill:black;stroke:black;" points="464,-72.5001 474,-69 464,-65.5001 464,-72.5001"/>
<a xlink:title="\n\n\nFacility wait timer expired/\nStop UE&#45;Based Positioning">
</a>
<text text-anchor="middle" x="289" y="-183" style="font-family:Nimbus Sans L;font-weight:regular;font-size:11.34pt;">Facility wait timer expired/</text>
<text text-anchor="middle" x="289" y="-167" style="font-family:Nimbus Sans L;font-weight:regular;font-size:11.34pt;">Stop UE&#45;Based Positioning</text>
</g>
<!-- Waiting_Facility_UEBasedCont&#45;&gt;End -->
<g id="edge44" class="edge"><title>Waiting_Facility_UEBasedCont&#45;&gt;End</title>
<path style="fill:none;stroke:black;" d="M417,-238C492,-238 403,-84 464,-70"/>
<polygon style="fill:black;stroke:black;" points="464.398,-73.4778 474,-69 463.701,-66.5125 464.398,-73.4778"/>
<a xlink:title="Recv Facility/\nStop UE&#45;Based Positioning">
</a>
<a xlink:title="Recv Facility/\nStop UE&#45;Based Positioning">
</a>
<text text-anchor="middle" x="530" y="-156" style="font-family:Nimbus Sans L;font-weight:regular;font-size:11.34pt;">Recv Facility/</text>
<text text-anchor="middle" x="530" y="-140" style="font-family:Nimbus Sans L;font-weight:regular;font-size:11.34pt;">Stop UE&#45;Based Positioning</text>
</g>
<!-- Waiting_Facility_UEBasedStop&#45;&gt;End -->
<g id="edge46" class="edge"><title>Waiting_Facility_UEBasedStop&#45;&gt;End</title>
<path style="fill:none;stroke:red;" d="M943,-214C915,-186 900,-189 867,-170 793,-127 785,-74 706,-69"/>
<polygon style="fill:red;stroke:red;" points="706,-65.5001 696,-69 706,-72.5001 706,-65.5001"/>
<a xlink:title="Recv Facility">
</a>
<a xlink:title="Recv Facility">
</a>
<text text-anchor="middle" x="916" y="-148" style="font-family:Nimbus Sans L;font-weight:regular;font-size:12.96pt;fill:red;">Recv Facility</text>
</g>
<!-- Waiting_Facility_UEBasedStop&#45;&gt;End -->
<g id="edge48" class="edge"><title>Waiting_Facility_UEBasedStop&#45;&gt;End</title>
<path style="fill:none;stroke:black;" d="M1066,-214C1066,-98 807,-71 706,-69"/>
<polygon style="fill:black;stroke:black;" points="706,-65.5001 696,-69 706,-72.5001 706,-65.5001"/>
<a xlink:title="Facility wait timer expired">
</a>
<a xlink:title="Facility wait timer expired">
</a>
<text text-anchor="middle" x="1128" y="-148" style="font-family:Nimbus Sans L;font-weight:regular;font-size:11.34pt;">Facility wait timer expired</text>
</g>
</g>
</svg>
