<?xml version="1.0" encoding="UTF-8" standalone="no"?>
<!DOCTYPE svg PUBLIC "-//W3C//DTD SVG 1.0//EN"
 "http://www.w3.org/TR/2001/REC-SVG-20010904/DTD/svg10.dtd" [
 <!ATTLIST svg xmlns:xlink CDATA #FIXED "http://www.w3.org/1999/xlink">
]>
<!-- Generated by Graphviz version 2.12 (Mon Dec  4 22:04:37 UTC 2006)
     For user: Bill Gates -->
<!-- Title: finite_state_machine Pages: 1 -->
<svg width="10.00in" height="6.17in"
 xmlns="http://www.w3.org/2000/svg" xmlns:xlink="http://www.w3.org/1999/xlink">
<g id="graph0" class="graph" transform="scale(0.694645 0.694645) rotate(0) translate(4 849)">
<title>finite_state_machine</title>
<polygon style="fill:white;stroke:white;" points="-4,4 -4,-849 1378,-849 1378,4 -4,4"/>
<text text-anchor="middle" x="687" y="-8" style="font-family:Nimbus Roman No9 L;font-weight:medium;font-size:19.44pt;">Hybrid &#45; UE&#45;Based MO&#45;LR Self &#45; Fix accuracy too low &#45; Facility Timeout</text>
<!-- Idle -->
<g id="node2" class="node"><title>Idle</title>
<polygon style="fill:greenyellow;stroke:greenyellow;" points="247,-807 217,-807 205,-795 205,-783 217,-771 247,-771 259,-783 259,-795 247,-807"/>
<path style="fill:greenyellow;stroke:greenyellow;" d="M217,-807C211,-807 205,-801 205,-795"/>
<path style="fill:greenyellow;stroke:greenyellow;" d="M205,-783C205,-777 211,-771 217,-771"/>
<path style="fill:greenyellow;stroke:greenyellow;" d="M247,-771C253,-771 259,-777 259,-783"/>
<path style="fill:greenyellow;stroke:greenyellow;" d="M259,-795C259,-801 253,-807 247,-807"/>
<polyline style="fill:none;stroke:greenyellow;" points="247,-807 217,-807 "/>
<path style="fill:none;stroke:greenyellow;" d="M217,-807C211,-807 205,-801 205,-795"/>
<polyline style="fill:none;stroke:greenyellow;" points="205,-795 205,-783 "/>
<path style="fill:none;stroke:greenyellow;" d="M205,-783C205,-777 211,-771 217,-771"/>
<polyline style="fill:none;stroke:greenyellow;" points="217,-771 247,-771 "/>
<path style="fill:none;stroke:greenyellow;" d="M247,-771C253,-771 259,-777 259,-783"/>
<polyline style="fill:none;stroke:greenyellow;" points="259,-783 259,-795 "/>
<path style="fill:none;stroke:greenyellow;" d="M259,-795C259,-801 253,-807 247,-807"/>
<text text-anchor="middle" x="232" y="-783" style="font-family:Nimbus Sans L;font-weight:bold;font-size:12.96pt;">Idle</text>
</g>
<!-- Autonomous -->
<g id="node3" class="node"><title>Autonomous</title>
<polygon style="fill:greenyellow;stroke:greenyellow;" points="645,-812 499,-812 487,-800 487,-778 499,-766 645,-766 657,-778 657,-800 645,-812"/>
<path style="fill:greenyellow;stroke:greenyellow;" d="M499,-812C493,-812 487,-806 487,-800"/>
<path style="fill:greenyellow;stroke:greenyellow;" d="M487,-778C487,-772 493,-766 499,-766"/>
<path style="fill:greenyellow;stroke:greenyellow;" d="M645,-766C651,-766 657,-772 657,-778"/>
<path style="fill:greenyellow;stroke:greenyellow;" d="M657,-800C657,-806 651,-812 645,-812"/>
<polyline style="fill:none;stroke:greenyellow;" points="645,-812 499,-812 "/>
<path style="fill:none;stroke:greenyellow;" d="M499,-812C493,-812 487,-806 487,-800"/>
<polyline style="fill:none;stroke:greenyellow;" points="487,-800 487,-778 "/>
<path style="fill:none;stroke:greenyellow;" d="M487,-778C487,-772 493,-766 499,-766"/>
<polyline style="fill:none;stroke:greenyellow;" points="499,-766 645,-766 "/>
<path style="fill:none;stroke:greenyellow;" d="M645,-766C651,-766 657,-772 657,-778"/>
<polyline style="fill:none;stroke:greenyellow;" points="657,-778 657,-800 "/>
<path style="fill:none;stroke:greenyellow;" d="M657,-800C657,-806 651,-812 645,-812"/>
<text text-anchor="middle" x="572" y="-792" style="font-family:Nimbus Sans L;font-weight:bold;font-size:12.96pt;">Autonomous</text>
<text text-anchor="middle" x="572" y="-773" style="font-family:Nimbus Sans L;font-weight:bold;font-size:12.96pt;">UE&#45;Based positioning</text>
</g>
<!-- Idle&#45;&gt;Autonomous -->
<g id="edge6" class="edge"><title>Idle&#45;&gt;Autonomous</title>
<path style="fill:none;stroke:red;" d="M259,-789C306,-789 403,-789 476,-789"/>
<polygon style="fill:red;stroke:red;" points="476,-792.5 486,-789 476,-785.5 476,-792.5"/>
<a xlink:title="User starts Location check\nStart Autonomous positioning\nStart LcsMOLR">
</a>
<a xlink:title="User starts Location check\nStart Autonomous positioning\nStart LcsMOLR">
</a>
<text text-anchor="middle" x="373" y="-830" style="font-family:Nimbus Sans L;font-weight:regular;font-size:12.96pt;fill:red;">User starts Location check</text>
<text text-anchor="middle" x="373" y="-811" style="font-family:Nimbus Sans L;font-weight:regular;font-size:12.96pt;fill:red;">Start Autonomous positioning</text>
<text text-anchor="middle" x="373" y="-792" style="font-family:Nimbus Sans L;font-weight:regular;font-size:12.96pt;fill:red;">Start LcsMOLR</text>
</g>
<!-- UE_Based -->
<g id="node4" class="node"><title>UE_Based</title>
<polygon style="fill:greenyellow;stroke:greenyellow;" points="1075,-812 845,-812 833,-800 833,-778 845,-766 1075,-766 1087,-778 1087,-800 1075,-812"/>
<path style="fill:greenyellow;stroke:greenyellow;" d="M845,-812C839,-812 833,-806 833,-800"/>
<path style="fill:greenyellow;stroke:greenyellow;" d="M833,-778C833,-772 839,-766 845,-766"/>
<path style="fill:greenyellow;stroke:greenyellow;" d="M1075,-766C1081,-766 1087,-772 1087,-778"/>
<path style="fill:greenyellow;stroke:greenyellow;" d="M1087,-800C1087,-806 1081,-812 1075,-812"/>
<polyline style="fill:none;stroke:greenyellow;" points="1075,-812 845,-812 "/>
<path style="fill:none;stroke:greenyellow;" d="M845,-812C839,-812 833,-806 833,-800"/>
<polyline style="fill:none;stroke:greenyellow;" points="833,-800 833,-778 "/>
<path style="fill:none;stroke:greenyellow;" d="M833,-778C833,-772 839,-766 845,-766"/>
<polyline style="fill:none;stroke:greenyellow;" points="845,-766 1075,-766 "/>
<path style="fill:none;stroke:greenyellow;" d="M1075,-766C1081,-766 1087,-772 1087,-778"/>
<polyline style="fill:none;stroke:greenyellow;" points="1087,-778 1087,-800 "/>
<path style="fill:none;stroke:greenyellow;" d="M1087,-800C1087,-806 1081,-812 1075,-812"/>
<text text-anchor="middle" x="960" y="-792" style="font-family:Nimbus Sans L;font-weight:bold;font-size:12.96pt;">Performing UE&#45;Based positioning</text>
<text text-anchor="middle" x="960" y="-773" style="font-family:Nimbus Sans L;font-weight:bold;font-size:12.96pt;">under Hybrid Positioning</text>
</g>
<!-- Autonomous&#45;&gt;UE_Based -->
<g id="edge8" class="edge"><title>Autonomous&#45;&gt;UE_Based</title>
<path style="fill:none;stroke:red;" d="M658,-789C706,-789 767,-789 823,-789"/>
<polygon style="fill:red;stroke:red;" points="823,-792.5 833,-789 823,-785.5 823,-792.5"/>
<a xlink:title="Receives M.C.(Setup)\nStart a2,a4 timer">
</a>
<a xlink:title="Receives M.C.(Setup)\nStart a2,a4 timer">
</a>
<text text-anchor="middle" x="745" y="-811" style="font-family:Nimbus Sans L;font-weight:regular;font-size:12.96pt;fill:red;">Receives M.C.(Setup)</text>
<text text-anchor="middle" x="745" y="-792" style="font-family:Nimbus Sans L;font-weight:regular;font-size:12.96pt;fill:red;">Start a2,a4 timer</text>
</g>
<!-- UE_Assisted -->
<g id="node5" class="node"><title>UE_Assisted</title>
<polygon style="fill:greenyellow;stroke:greenyellow;" points="705,-648 459,-648 447,-636 447,-614 459,-602 705,-602 717,-614 717,-636 705,-648"/>
<path style="fill:greenyellow;stroke:greenyellow;" d="M459,-648C453,-648 447,-642 447,-636"/>
<path style="fill:greenyellow;stroke:greenyellow;" d="M447,-614C447,-608 453,-602 459,-602"/>
<path style="fill:greenyellow;stroke:greenyellow;" d="M705,-602C711,-602 717,-608 717,-614"/>
<path style="fill:greenyellow;stroke:greenyellow;" d="M717,-636C717,-642 711,-648 705,-648"/>
<polyline style="fill:none;stroke:greenyellow;" points="705,-648 459,-648 "/>
<path style="fill:none;stroke:greenyellow;" d="M459,-648C453,-648 447,-642 447,-636"/>
<polyline style="fill:none;stroke:greenyellow;" points="447,-636 447,-614 "/>
<path style="fill:none;stroke:greenyellow;" d="M447,-614C447,-608 453,-602 459,-602"/>
<polyline style="fill:none;stroke:greenyellow;" points="459,-602 705,-602 "/>
<path style="fill:none;stroke:greenyellow;" d="M705,-602C711,-602 717,-608 717,-614"/>
<polyline style="fill:none;stroke:greenyellow;" points="717,-614 717,-636 "/>
<path style="fill:none;stroke:greenyellow;" d="M717,-636C717,-642 711,-648 705,-648"/>
<text text-anchor="middle" x="582" y="-628" style="font-family:Nimbus Sans L;font-weight:bold;font-size:12.96pt;">Performing UE&#45;Assisted positioning</text>
<text text-anchor="middle" x="582" y="-609" style="font-family:Nimbus Sans L;font-weight:bold;font-size:12.96pt;">(UE&#45;Based positioning continue)</text>
</g>
<!-- UE_Based&#45;&gt;UE_Assisted -->
<g id="edge10" class="edge"><title>UE_Based&#45;&gt;UE_Assisted</title>
<path style="fill:none;stroke:black;" d="M833,-766C781,-714 707,-675 652,-652"/>
<polygon style="fill:black;stroke:black;" points="653.56,-648.863 643,-648 650.717,-655.26 653.56,-648.863"/>
<a xlink:title="\n\n\n\n\nTimer a2 expired/\nSend M.R\nReceive M.C.\n(Modify,Reporting Interval=t)\nStart up Timer t">
</a>
<text text-anchor="middle" x="823" y="-749" style="font-family:Nimbus Sans L;font-weight:regular;font-size:11.34pt;">Timer a2 expired/</text>
<text text-anchor="middle" x="823" y="-733" style="font-family:Nimbus Sans L;font-weight:regular;font-size:11.34pt;">Send M.R</text>
<text text-anchor="middle" x="823" y="-717" style="font-family:Nimbus Sans L;font-weight:regular;font-size:11.34pt;">Receive M.C.</text>
<text text-anchor="middle" x="823" y="-701" style="font-family:Nimbus Sans L;font-weight:regular;font-size:11.34pt;">(Modify,Reporting Interval=t)</text>
<text text-anchor="middle" x="823" y="-685" style="font-family:Nimbus Sans L;font-weight:regular;font-size:11.34pt;">Start up Timer t</text>
</g>
<!-- Waiting_MC_UEBasedStop -->
<g id="node8" class="node"><title>Waiting_MC_UEBasedStop</title>
<polygon style="fill:greenyellow;stroke:greenyellow;" points="990,-390 768,-390 756,-378 756,-356 768,-344 990,-344 1002,-356 1002,-378 990,-390"/>
<path style="fill:greenyellow;stroke:greenyellow;" d="M768,-390C762,-390 756,-384 756,-378"/>
<path style="fill:greenyellow;stroke:greenyellow;" d="M756,-356C756,-350 762,-344 768,-344"/>
<path style="fill:greenyellow;stroke:greenyellow;" d="M990,-344C996,-344 1002,-350 1002,-356"/>
<path style="fill:greenyellow;stroke:greenyellow;" d="M1002,-378C1002,-384 996,-390 990,-390"/>
<polyline style="fill:none;stroke:greenyellow;" points="990,-390 768,-390 "/>
<path style="fill:none;stroke:greenyellow;" d="M768,-390C762,-390 756,-384 756,-378"/>
<polyline style="fill:none;stroke:greenyellow;" points="756,-378 756,-356 "/>
<path style="fill:none;stroke:greenyellow;" d="M756,-356C756,-350 762,-344 768,-344"/>
<polyline style="fill:none;stroke:greenyellow;" points="768,-344 990,-344 "/>
<path style="fill:none;stroke:greenyellow;" d="M990,-344C996,-344 1002,-350 1002,-356"/>
<polyline style="fill:none;stroke:greenyellow;" points="1002,-356 1002,-378 "/>
<path style="fill:none;stroke:greenyellow;" d="M1002,-378C1002,-384 996,-390 990,-390"/>
<text text-anchor="middle" x="879" y="-370" style="font-family:Nimbus Sans L;font-weight:bold;font-size:12.96pt;">Waiting for M.C.(Release)</text>
<text text-anchor="middle" x="879" y="-351" style="font-family:Nimbus Sans L;font-weight:bold;font-size:12.96pt;">(UE&#45;Based positioning Stopped)</text>
</g>
<!-- UE_Based&#45;&gt;Waiting_MC_UEBasedStop -->
<g id="edge12" class="edge"><title>UE_Based&#45;&gt;Waiting_MC_UEBasedStop</title>
<path style="fill:none;stroke:black;" d="M960,-766C961,-725 965,-634 974,-558 983,-476 1078,-376 1012,-368"/>
<polygon style="fill:black;stroke:black;" points="1012.3,-364.512 1002,-367 1011.6,-371.478 1012.3,-364.512"/>
<a xlink:title="UE&#45;Based success/\nStop UE&#45;Based Positioning\nComplete User request\n(UE Based result)\nSend M.R.\n(confidence=68)">
</a>
<a xlink:title="UE&#45;Based success/\nStop UE&#45;Based Positioning\nComplete User request\n(UE Based result)\nSend M.R.\n(confidence=68)">
</a>
<text text-anchor="middle" x="1058" y="-659" style="font-family:Nimbus Sans L;font-weight:regular;font-size:11.34pt;">UE&#45;Based success/</text>
<text text-anchor="middle" x="1058" y="-643" style="font-family:Nimbus Sans L;font-weight:regular;font-size:11.34pt;">Stop UE&#45;Based Positioning</text>
<text text-anchor="middle" x="1058" y="-627" style="font-family:Nimbus Sans L;font-weight:regular;font-size:11.34pt;">Complete User request</text>
<text text-anchor="middle" x="1058" y="-611" style="font-family:Nimbus Sans L;font-weight:regular;font-size:11.34pt;">(UE Based result)</text>
<text text-anchor="middle" x="1058" y="-595" style="font-family:Nimbus Sans L;font-weight:regular;font-size:11.34pt;">Send M.R.</text>
<text text-anchor="middle" x="1058" y="-579" style="font-family:Nimbus Sans L;font-weight:regular;font-size:11.34pt;">(confidence=68)</text>
</g>
<!-- UE_Based&#45;&gt;Waiting_MC_UEBasedStop -->
<g id="edge14" class="edge"><title>UE_Based&#45;&gt;Waiting_MC_UEBasedStop</title>
<path style="fill:none;stroke:red;" d="M1087,-789C1275,-789 1196,-382 1012,-367"/>
<polygon style="fill:red;stroke:red;" points="1012,-363.5 1002,-367 1012,-370.5 1012,-363.5"/>
<a xlink:title="UE&#45;Based fix\naccuracy\ntoo low/\nStop UE&#45;Based\nPositioning,\nSend M.R.\n(confidence=100)">
</a>
<a xlink:title="UE&#45;Based fix\naccuracy\ntoo low/\nStop UE&#45;Based\nPositioning,\nSend M.R.\n(confidence=100)">
</a>
<text text-anchor="middle" x="1255" y="-676" style="font-family:Nimbus Sans L;font-weight:regular;font-size:12.96pt;fill:red;">UE&#45;Based fix</text>
<text text-anchor="middle" x="1255" y="-657" style="font-family:Nimbus Sans L;font-weight:regular;font-size:12.96pt;fill:red;">accuracy</text>
<text text-anchor="middle" x="1255" y="-638" style="font-family:Nimbus Sans L;font-weight:regular;font-size:12.96pt;fill:red;">too low/</text>
<text text-anchor="middle" x="1255" y="-619" style="font-family:Nimbus Sans L;font-weight:regular;font-size:12.96pt;fill:red;">Stop UE&#45;Based</text>
<text text-anchor="middle" x="1255" y="-600" style="font-family:Nimbus Sans L;font-weight:regular;font-size:12.96pt;fill:red;">Positioning,</text>
<text text-anchor="middle" x="1255" y="-581" style="font-family:Nimbus Sans L;font-weight:regular;font-size:12.96pt;fill:red;">Send M.R.</text>
<text text-anchor="middle" x="1255" y="-562" style="font-family:Nimbus Sans L;font-weight:regular;font-size:12.96pt;fill:red;">(confidence=100)</text>
</g>
<!-- UE_Assisted&#45;&gt;UE_Assisted -->
<g id="edge16" class="edge"><title>UE_Assisted&#45;&gt;UE_Assisted</title>
<path style="fill:none;stroke:black;" d="M550,-648C497,-675 429,-665 429,-613 429,-554 439,-550 446,-592"/>
<polygon style="fill:black;stroke:black;" points="442.522,-592.398 447,-602 449.488,-591.701 442.522,-592.398"/>
<a xlink:title="\n\n\nTimer t expired/\nSend M.R,\nrestart timer t">
</a>
<text text-anchor="middle" x="442" y="-579" style="font-family:Nimbus Sans L;font-weight:regular;font-size:11.34pt;">Timer t expired/</text>
<text text-anchor="middle" x="442" y="-563" style="font-family:Nimbus Sans L;font-weight:regular;font-size:11.34pt;">Send M.R,</text>
<text text-anchor="middle" x="442" y="-547" style="font-family:Nimbus Sans L;font-weight:regular;font-size:11.34pt;">restart timer t</text>
</g>
<!-- Waiting_MC_UEBasedCont -->
<g id="node7" class="node"><title>Waiting_MC_UEBasedCont</title>
<polygon style="fill:greenyellow;stroke:greenyellow;" points="405,-390 183,-390 171,-378 171,-356 183,-344 405,-344 417,-356 417,-378 405,-390"/>
<path style="fill:greenyellow;stroke:greenyellow;" d="M183,-390C177,-390 171,-384 171,-378"/>
<path style="fill:greenyellow;stroke:greenyellow;" d="M171,-356C171,-350 177,-344 183,-344"/>
<path style="fill:greenyellow;stroke:greenyellow;" d="M405,-344C411,-344 417,-350 417,-356"/>
<path style="fill:greenyellow;stroke:greenyellow;" d="M417,-378C417,-384 411,-390 405,-390"/>
<polyline style="fill:none;stroke:greenyellow;" points="405,-390 183,-390 "/>
<path style="fill:none;stroke:greenyellow;" d="M183,-390C177,-390 171,-384 171,-378"/>
<polyline style="fill:none;stroke:greenyellow;" points="171,-378 171,-356 "/>
<path style="fill:none;stroke:greenyellow;" d="M171,-356C171,-350 177,-344 183,-344"/>
<polyline style="fill:none;stroke:greenyellow;" points="183,-344 405,-344 "/>
<path style="fill:none;stroke:greenyellow;" d="M405,-344C411,-344 417,-350 417,-356"/>
<polyline style="fill:none;stroke:greenyellow;" points="417,-356 417,-378 "/>
<path style="fill:none;stroke:greenyellow;" d="M417,-378C417,-384 411,-390 405,-390"/>
<text text-anchor="middle" x="294" y="-370" style="font-family:Nimbus Sans L;font-weight:bold;font-size:12.96pt;">Waiting for M.C.(Release)</text>
<text text-anchor="middle" x="294" y="-351" style="font-family:Nimbus Sans L;font-weight:bold;font-size:12.96pt;">(UE&#45;Based positioning continue)</text>
</g>
<!-- UE_Assisted&#45;&gt;Waiting_MC_UEBasedCont -->
<g id="edge20" class="edge"><title>UE_Assisted&#45;&gt;Waiting_MC_UEBasedCont</title>
<path style="fill:none;stroke:black;" d="M446,-625C342,-625 308,-470 297,-400"/>
<polygon style="fill:black;stroke:black;" points="300.478,-399.602 296,-390 293.512,-400.299 300.478,-399.602"/>
<a xlink:title="timer a4 expired/\nSend M.R.\n(confidence=100)">
</a>
<a xlink:title="timer a4 expired/\nSend M.R.\n(confidence=100)">
</a>
<text text-anchor="middle" x="382" y="-484" style="font-family:Nimbus Sans L;font-weight:regular;font-size:11.34pt;">timer a4 expired/</text>
<text text-anchor="middle" x="382" y="-468" style="font-family:Nimbus Sans L;font-weight:regular;font-size:11.34pt;">Send M.R.</text>
<text text-anchor="middle" x="382" y="-452" style="font-family:Nimbus Sans L;font-weight:regular;font-size:11.34pt;">(confidence=100)</text>
</g>
<!-- UE_Assisted&#45;&gt;Waiting_MC_UEBasedStop -->
<g id="edge22" class="edge"><title>UE_Assisted&#45;&gt;Waiting_MC_UEBasedStop</title>
<path style="fill:none;stroke:black;" d="M582,-602C582,-523 530,-484 583,-426 625,-379 851,-447 877,-400"/>
<polygon style="fill:black;stroke:black;" points="880.471,-400.492 879,-390 873.607,-399.119 880.471,-400.492"/>
<a xlink:title="UE&#45;Based success/\nStop UE&#45;Based Positioning\nComplete User request\n(UE Based result)\nSend M.R.\n(confidence=68)">
</a>
<a xlink:title="UE&#45;Based success/\nStop UE&#45;Based Positioning\nComplete User request\n(UE Based result)\nSend M.R.\n(confidence=68)">
</a>
<text text-anchor="middle" x="667" y="-508" style="font-family:Nimbus Sans L;font-weight:regular;font-size:11.34pt;">UE&#45;Based success/</text>
<text text-anchor="middle" x="667" y="-492" style="font-family:Nimbus Sans L;font-weight:regular;font-size:11.34pt;">Stop UE&#45;Based Positioning</text>
<text text-anchor="middle" x="667" y="-476" style="font-family:Nimbus Sans L;font-weight:regular;font-size:11.34pt;">Complete User request</text>
<text text-anchor="middle" x="667" y="-460" style="font-family:Nimbus Sans L;font-weight:regular;font-size:11.34pt;">(UE Based result)</text>
<text text-anchor="middle" x="667" y="-444" style="font-family:Nimbus Sans L;font-weight:regular;font-size:11.34pt;">Send M.R.</text>
<text text-anchor="middle" x="667" y="-428" style="font-family:Nimbus Sans L;font-weight:regular;font-size:11.34pt;">(confidence=68)</text>
</g>
<!-- UE_Assisted&#45;&gt;Waiting_MC_UEBasedStop -->
<g id="edge24" class="edge"><title>UE_Assisted&#45;&gt;Waiting_MC_UEBasedStop</title>
<path style="fill:none;stroke:black;" d="M718,-625C809,-625 712,-493 774,-426 804,-392 867,-431 878,-400"/>
<polygon style="fill:black;stroke:black;" points="881.488,-400.299 879,-390 874.522,-399.602 881.488,-400.299"/>
<a xlink:title="UE&#45;Based fix\naccuracy too low/\nStop UE&#45;Based Positioning,\nSend M.R.\n(confidence=100)">
</a>
<a xlink:title="UE&#45;Based fix\naccuracy too low/\nStop UE&#45;Based Positioning,\nSend M.R.\n(confidence=100)">
</a>
<text text-anchor="middle" x="860" y="-500" style="font-family:Nimbus Sans L;font-weight:regular;font-size:11.34pt;">UE&#45;Based fix</text>
<text text-anchor="middle" x="860" y="-484" style="font-family:Nimbus Sans L;font-weight:regular;font-size:11.34pt;">accuracy too low/</text>
<text text-anchor="middle" x="860" y="-468" style="font-family:Nimbus Sans L;font-weight:regular;font-size:11.34pt;">Stop UE&#45;Based Positioning,</text>
<text text-anchor="middle" x="860" y="-452" style="font-family:Nimbus Sans L;font-weight:regular;font-size:11.34pt;">Send M.R.</text>
<text text-anchor="middle" x="860" y="-436" style="font-family:Nimbus Sans L;font-weight:regular;font-size:11.34pt;">(confidence=100)</text>
</g>
<!-- Waiting_Facility_UEBasedCont -->
<g id="node10" class="node"><title>Waiting_Facility_UEBasedCont</title>
<polygon style="fill:greenyellow;stroke:greenyellow;" points="405,-261 183,-261 171,-249 171,-227 183,-215 405,-215 417,-227 417,-249 405,-261"/>
<path style="fill:greenyellow;stroke:greenyellow;" d="M183,-261C177,-261 171,-255 171,-249"/>
<path style="fill:greenyellow;stroke:greenyellow;" d="M171,-227C171,-221 177,-215 183,-215"/>
<path style="fill:greenyellow;stroke:greenyellow;" d="M405,-215C411,-215 417,-221 417,-227"/>
<path style="fill:greenyellow;stroke:greenyellow;" d="M417,-249C417,-255 411,-261 405,-261"/>
<polyline style="fill:none;stroke:greenyellow;" points="405,-261 183,-261 "/>
<path style="fill:none;stroke:greenyellow;" d="M183,-261C177,-261 171,-255 171,-249"/>
<polyline style="fill:none;stroke:greenyellow;" points="171,-249 171,-227 "/>
<path style="fill:none;stroke:greenyellow;" d="M171,-227C171,-221 177,-215 183,-215"/>
<polyline style="fill:none;stroke:greenyellow;" points="183,-215 405,-215 "/>
<path style="fill:none;stroke:greenyellow;" d="M405,-215C411,-215 417,-221 417,-227"/>
<polyline style="fill:none;stroke:greenyellow;" points="417,-227 417,-249 "/>
<path style="fill:none;stroke:greenyellow;" d="M417,-249C417,-255 411,-261 405,-261"/>
<text text-anchor="middle" x="294" y="-241" style="font-family:Nimbus Sans L;font-weight:bold;font-size:12.96pt;">Waiting for Facility</text>
<text text-anchor="middle" x="294" y="-222" style="font-family:Nimbus Sans L;font-weight:bold;font-size:12.96pt;">(UE&#45;Based positioning continue)</text>
</g>
<!-- UE_Assisted&#45;&gt;Waiting_Facility_UEBasedCont -->
<g id="edge18" class="edge"><title>UE_Assisted&#45;&gt;Waiting_Facility_UEBasedCont</title>
<path style="fill:none;stroke:black;" d="M574,-602C554,-550 502,-424 426,-344 381,-296 303,-326 295,-271"/>
<polygon style="fill:black;stroke:black;" points="298.478,-270.602 294,-261 291.512,-271.299 298.478,-270.602"/>
</g>
<!-- Waiting_MC_UEBasedCont&#45;&gt;Waiting_MC_UEBasedStop -->
<g id="edge26" class="edge"><title>Waiting_MC_UEBasedCont&#45;&gt;Waiting_MC_UEBasedStop</title>
<path style="fill:none;stroke:black;" d="M418,-348C421,-347 424,-347 427,-347 566,-336 604,-336 746,-347"/>
<polygon style="fill:black;stroke:black;" points="745.701,-350.488 756,-348 746.398,-343.522 745.701,-350.488"/>
<a xlink:title="UE&#45;Based fix accuracy too low/Stop UE&#45;Based Pos.">
</a>
<a xlink:title="UE&#45;Based fix accuracy too low/Stop UE&#45;Based Pos.">
</a>
<text text-anchor="middle" x="587" y="-349" style="font-family:Nimbus Sans L;font-weight:regular;font-size:11.34pt;">UE&#45;Based fix accuracy too low/Stop UE&#45;Based Pos.</text>
</g>
<!-- Waiting_MC_UEBasedCont&#45;&gt;Waiting_MC_UEBasedStop -->
<g id="edge28" class="edge"><title>Waiting_MC_UEBasedCont&#45;&gt;Waiting_MC_UEBasedStop</title>
<path style="fill:none;stroke:black;" d="M418,-367C514,-367 647,-367 746,-367"/>
<polygon style="fill:black;stroke:black;" points="746,-370.5 756,-367 746,-363.5 746,-370.5"/>
<a xlink:title="UE&#45;Based success/Stop UE&#45;Based Pos.,\nComplete User request(UE Based result)\n">
</a>
<a xlink:title="UE&#45;Based success/Stop UE&#45;Based Pos.,\nComplete User request(UE Based result)\n">
</a>
<text text-anchor="middle" x="587" y="-377" style="font-family:Nimbus Sans L;font-weight:regular;font-size:11.34pt;">UE&#45;Based success/Stop UE&#45;Based Pos.,</text>
<text text-anchor="middle" x="587" y="-361" style="font-family:Nimbus Sans L;font-weight:regular;font-size:11.34pt;">Complete User request(UE Based result)</text>
</g>
<!-- Waiting_MC_UEBasedCont&#45;&gt;Waiting_Facility_UEBasedCont -->
<g id="edge30" class="edge"><title>Waiting_MC_UEBasedCont&#45;&gt;Waiting_Facility_UEBasedCont</title>
<path style="fill:none;stroke:black;" d="M294,-344C294,-311 294,-299 294,-271"/>
<polygon style="fill:black;stroke:black;" points="297.5,-271 294,-261 290.5,-271 297.5,-271"/>
<a xlink:title="Receive M.C.(Release)\n\n">
</a>
<text text-anchor="middle" x="298" y="-272" style="font-family:Nimbus Sans L;font-weight:regular;font-size:11.34pt;">Receive M.C.(Release)</text>
</g>
<!-- End -->
<g id="node13" class="node"><title>End</title>
<polygon style="fill:greenyellow;stroke:greenyellow;" points="681,-101.5 483,-101.5 471,-89.5 471,-48.5 483,-36.5 681,-36.5 693,-48.5 693,-89.5 681,-101.5"/>
<path style="fill:greenyellow;stroke:greenyellow;" d="M483,-101.5C477,-101.5 471,-95.5 471,-89.5"/>
<path style="fill:greenyellow;stroke:greenyellow;" d="M471,-48.5C471,-42.5 477,-36.5 483,-36.5"/>
<path style="fill:greenyellow;stroke:greenyellow;" d="M681,-36.5C687,-36.5 693,-42.5 693,-48.5"/>
<path style="fill:greenyellow;stroke:greenyellow;" d="M693,-89.5C693,-95.5 687,-101.5 681,-101.5"/>
<polyline style="fill:none;stroke:greenyellow;" points="681,-101.5 483,-101.5 "/>
<path style="fill:none;stroke:greenyellow;" d="M483,-101.5C477,-101.5 471,-95.5 471,-89.5"/>
<polyline style="fill:none;stroke:greenyellow;" points="471,-89.5 471,-48.5 "/>
<path style="fill:none;stroke:greenyellow;" d="M471,-48.5C471,-42.5 477,-36.5 483,-36.5"/>
<polyline style="fill:none;stroke:greenyellow;" points="483,-36.5 681,-36.5 "/>
<path style="fill:none;stroke:greenyellow;" d="M681,-36.5C687,-36.5 693,-42.5 693,-48.5"/>
<polyline style="fill:none;stroke:greenyellow;" points="693,-48.5 693,-89.5 "/>
<path style="fill:none;stroke:greenyellow;" d="M693,-89.5C693,-95.5 687,-101.5 681,-101.5"/>
<text text-anchor="middle" x="582" y="-82" style="font-family:Nimbus Sans L;font-weight:bold;font-size:12.96pt;">Positioning Ends</text>
<text text-anchor="middle" x="582" y="-63" style="font-family:Nimbus Sans L;font-weight:bold;font-size:12.96pt;">Complete User Request</text>
<text text-anchor="middle" x="582" y="-44" style="font-family:Nimbus Sans L;font-weight:bold;font-size:12.96pt;">For no UE&#45;Based positioning</text>
</g>
<!-- Waiting_MC_UEBasedCont&#45;&gt;End -->
<g id="edge32" class="edge"><title>Waiting_MC_UEBasedCont&#45;&gt;End</title>
<path style="fill:none;stroke:black;" d="M170,-344C116,-290 57,-334 16,-270 1,-245 0,-228 16,-206 76,-124 348,-72 461,-69"/>
<polygon style="fill:black;stroke:black;" points="461,-72.5001 471,-69 461,-65.5001 461,-72.5001"/>
<a xlink:title="M.C. wait timer expired/\nStop UE&#45;Based\nSend M.R.\n(undefined Error)">
</a>
<a xlink:title="M.C. wait timer expired/\nStop UE&#45;Based\nSend M.R.\n(undefined Error)">
</a>
<text text-anchor="middle" x="92" y="-256" style="font-family:Nimbus Sans L;font-weight:regular;font-size:11.34pt;">M.C. wait timer expired/</text>
<text text-anchor="middle" x="92" y="-240" style="font-family:Nimbus Sans L;font-weight:regular;font-size:11.34pt;">Stop UE&#45;Based</text>
<text text-anchor="middle" x="92" y="-224" style="font-family:Nimbus Sans L;font-weight:regular;font-size:11.34pt;">Send M.R.</text>
<text text-anchor="middle" x="92" y="-208" style="font-family:Nimbus Sans L;font-weight:regular;font-size:11.34pt;">(undefined Error)</text>
</g>
<!-- Waiting_Facility_UEBasedStop -->
<g id="node11" class="node"><title>Waiting_Facility_UEBasedStop</title>
<polygon style="fill:greenyellow;stroke:greenyellow;" points="1178,-261 956,-261 944,-249 944,-227 956,-215 1178,-215 1190,-227 1190,-249 1178,-261"/>
<path style="fill:greenyellow;stroke:greenyellow;" d="M956,-261C950,-261 944,-255 944,-249"/>
<path style="fill:greenyellow;stroke:greenyellow;" d="M944,-227C944,-221 950,-215 956,-215"/>
<path style="fill:greenyellow;stroke:greenyellow;" d="M1178,-215C1184,-215 1190,-221 1190,-227"/>
<path style="fill:greenyellow;stroke:greenyellow;" d="M1190,-249C1190,-255 1184,-261 1178,-261"/>
<polyline style="fill:none;stroke:greenyellow;" points="1178,-261 956,-261 "/>
<path style="fill:none;stroke:greenyellow;" d="M956,-261C950,-261 944,-255 944,-249"/>
<polyline style="fill:none;stroke:greenyellow;" points="944,-249 944,-227 "/>
<path style="fill:none;stroke:greenyellow;" d="M944,-227C944,-221 950,-215 956,-215"/>
<polyline style="fill:none;stroke:greenyellow;" points="956,-215 1178,-215 "/>
<path style="fill:none;stroke:greenyellow;" d="M1178,-215C1184,-215 1190,-221 1190,-227"/>
<polyline style="fill:none;stroke:greenyellow;" points="1190,-227 1190,-249 "/>
<path style="fill:none;stroke:greenyellow;" d="M1190,-249C1190,-255 1184,-261 1178,-261"/>
<text text-anchor="middle" x="1067" y="-241" style="font-family:Nimbus Sans L;font-weight:bold;font-size:12.96pt;">Waiting for Facility</text>
<text text-anchor="middle" x="1067" y="-222" style="font-family:Nimbus Sans L;font-weight:bold;font-size:12.96pt;">(UE&#45;Based positioning Stopped)</text>
</g>
<!-- Waiting_MC_UEBasedStop&#45;&gt;Waiting_Facility_UEBasedStop -->
<g id="edge34" class="edge"><title>Waiting_MC_UEBasedStop&#45;&gt;Waiting_Facility_UEBasedStop</title>
<path style="fill:none;stroke:red;" d="M989,-344C1027,-330 1061,-307 1066,-271"/>
<polygon style="fill:red;stroke:red;" points="1069.49,-271.299 1067,-261 1062.52,-270.602 1069.49,-271.299"/>
<a xlink:title="Receive M.C.(Release)">
</a>
<text text-anchor="middle" x="996" y="-331" style="font-family:Nimbus Sans L;font-weight:regular;font-size:12.96pt;fill:red;">Receive M.C.(Release)</text>
</g>
<!-- Waiting_MC_UEBasedStop&#45;&gt;End -->
<g id="edge36" class="edge"><title>Waiting_MC_UEBasedStop&#45;&gt;End</title>
<path style="fill:none;stroke:black;" d="M1002,-367C1137,-367 1293,-240 1204,-138 1168,-96 787,-71 703,-69"/>
<polygon style="fill:black;stroke:black;" points="703,-65.5001 693,-69 703,-72.5001 703,-65.5001"/>
<a xlink:title="M.C. wait timer expired/\nSend M.R.\n(undefined Error)">
</a>
<a xlink:title="M.C. wait timer expired/\nSend M.R.\n(undefined Error)">
</a>
<text text-anchor="middle" x="1301" y="-248" style="font-family:Nimbus Sans L;font-weight:regular;font-size:11.34pt;">M.C. wait timer expired/</text>
<text text-anchor="middle" x="1301" y="-232" style="font-family:Nimbus Sans L;font-weight:regular;font-size:11.34pt;">Send M.R.</text>
<text text-anchor="middle" x="1301" y="-216" style="font-family:Nimbus Sans L;font-weight:regular;font-size:11.34pt;">(undefined Error)</text>
</g>
<!-- Waiting_Facility_UEBasedCont&#45;&gt;Waiting_Facility_UEBasedStop -->
<g id="edge38" class="edge"><title>Waiting_Facility_UEBasedCont&#45;&gt;Waiting_Facility_UEBasedStop</title>
<path style="fill:none;stroke:black;" d="M418,-225C451,-222 486,-219 519,-218 663,-211 700,-211 843,-218 873,-219 904,-221 934,-224"/>
<polygon style="fill:black;stroke:black;" points="933.701,-227.488 944,-225 934.398,-220.522 933.701,-227.488"/>
<a xlink:title="UE&#45;Based fix accuracy too low/ Stop UE&#45;Based Pos.">
</a>
<a xlink:title="UE&#45;Based fix accuracy too low/ Stop UE&#45;Based Pos.">
</a>
<text text-anchor="middle" x="681" y="-220" style="font-family:Nimbus Sans L;font-weight:regular;font-size:11.34pt;">UE&#45;Based fix accuracy too low/ Stop UE&#45;Based Pos.</text>
</g>
<!-- Waiting_Facility_UEBasedCont&#45;&gt;Waiting_Facility_UEBasedStop -->
<g id="edge40" class="edge"><title>Waiting_Facility_UEBasedCont&#45;&gt;Waiting_Facility_UEBasedStop</title>
<path style="fill:none;stroke:black;" d="M418,-238C559,-238 789,-238 934,-238"/>
<polygon style="fill:black;stroke:black;" points="934,-241.5 944,-238 934,-234.5 934,-241.5"/>
<a xlink:title="UE&#45;Based success/Stop UE&#45;Based Pos., Complete User request(UE Based result)">
</a>
<a xlink:title="UE&#45;Based success/Stop UE&#45;Based Pos., Complete User request(UE Based result)">
</a>
<text text-anchor="middle" x="681" y="-240" style="font-family:Nimbus Sans L;font-weight:regular;font-size:11.34pt;">UE&#45;Based success/Stop UE&#45;Based Pos., Complete User request(UE Based result)</text>
</g>
<!-- Waiting_Facility_UEBasedCont&#45;&gt;End -->
<g id="edge42" class="edge"><title>Waiting_Facility_UEBasedCont&#45;&gt;End</title>
<path style="fill:none;stroke:black;" d="M293,-214C293,-114 363,-72 461,-69"/>
<polygon style="fill:black;stroke:black;" points="461,-72.5001 471,-69 461,-65.5001 461,-72.5001"/>
<a xlink:title="\n\n\nFacility wait timer expired/\nStop UE&#45;Based Positioning">
</a>
<text text-anchor="middle" x="289" y="-183" style="font-family:Nimbus Sans L;font-weight:regular;font-size:11.34pt;">Facility wait timer expired/</text>
<text text-anchor="middle" x="289" y="-167" style="font-family:Nimbus Sans L;font-weight:regular;font-size:11.34pt;">Stop UE&#45;Based Positioning</text>
</g>
<!-- Waiting_Facility_UEBasedCont&#45;&gt;End -->
<g id="edge44" class="edge"><title>Waiting_Facility_UEBasedCont&#45;&gt;End</title>
<path style="fill:none;stroke:black;" d="M417,-238C491,-238 401,-84 461,-70"/>
<polygon style="fill:black;stroke:black;" points="461.398,-73.4778 471,-69 460.701,-66.5125 461.398,-73.4778"/>
<a xlink:title="Recv Facility/\nStop UE&#45;Based Positioning">
</a>
<a xlink:title="Recv Facility/\nStop UE&#45;Based Positioning">
</a>
<text text-anchor="middle" x="529" y="-156" style="font-family:Nimbus Sans L;font-weight:regular;font-size:11.34pt;">Recv Facility/</text>
<text text-anchor="middle" x="529" y="-140" style="font-family:Nimbus Sans L;font-weight:regular;font-size:11.34pt;">Stop UE&#45;Based Positioning</text>
</g>
<!-- Waiting_Facility_UEBasedStop&#45;&gt;End -->
<g id="edge46" class="edge"><title>Waiting_Facility_UEBasedStop&#45;&gt;End</title>
<path style="fill:none;stroke:black;" d="M943,-214C912,-183 894,-191 857,-170 785,-130 778,-74 703,-69"/>
<polygon style="fill:black;stroke:black;" points="703,-65.5001 693,-69 703,-72.5001 703,-65.5001"/>
<a xlink:title="Recv Facility">
</a>
<a xlink:title="Recv Facility">
</a>
<text text-anchor="middle" x="899" y="-148" style="font-family:Nimbus Sans L;font-weight:regular;font-size:11.34pt;">Recv Facility</text>
</g>
<!-- Waiting_Facility_UEBasedStop&#45;&gt;End -->
<g id="edge48" class="edge"><title>Waiting_Facility_UEBasedStop&#45;&gt;End</title>
<path style="fill:none;stroke:red;" d="M1066,-214C1066,-180 966,-151 936,-138 835,-94 807,-71 703,-69"/>
<polygon style="fill:red;stroke:red;" points="703,-65.5001 693,-69 703,-72.5001 703,-65.5001"/>
<a xlink:title="Facility wait timer expired">
</a>
<a xlink:title="Facility wait timer expired">
</a>
<text text-anchor="middle" x="1109" y="-148" style="font-family:Nimbus Sans L;font-weight:regular;font-size:12.96pt;fill:red;">Facility wait timer expired</text>
</g>
</g>
</svg>
