<?xml version="1.0" encoding="UTF-8" standalone="no"?>
<!DOCTYPE svg PUBLIC "-//W3C//DTD SVG 1.0//EN"
 "http://www.w3.org/TR/2001/REC-SVG-20010904/DTD/svg10.dtd" [
 <!ATTLIST svg xmlns:xlink CDATA #FIXED "http://www.w3.org/1999/xlink">
]>
<!-- Generated by Graphviz version 2.12 (Mon Dec  4 22:04:37 UTC 2006)
     For user: Bill Gates -->
<!-- Title: finite_state_machine Pages: 1 -->
<svg width="10.00in" height="6.10in"
 xmlns="http://www.w3.org/2000/svg" xmlns:xlink="http://www.w3.org/1999/xlink">
<g id="graph0" class="graph" transform="scale(0.694645 0.694645) rotate(0) translate(4 840)">
<title>finite_state_machine</title>
<polygon style="fill:white;stroke:white;" points="-4,4 -4,-840 1378,-840 1378,4 -4,4"/>
<text text-anchor="middle" x="687" y="-8" style="font-family:Nimbus Roman No9 L;font-weight:medium;font-size:19.44pt;">Hybrid &#45; LBS &#45; UE&#45;Assisted MO&#45;LR &#45; GPS Result too Low &#45; Facility Timeout</text>
<!-- Idle -->
<g id="node2" class="node"><title>Idle</title>
<polygon style="fill:greenyellow;stroke:greenyellow;" points="267,-785 237,-785 225,-773 225,-761 237,-749 267,-749 279,-761 279,-773 267,-785"/>
<path style="fill:greenyellow;stroke:greenyellow;" d="M237,-785C231,-785 225,-779 225,-773"/>
<path style="fill:greenyellow;stroke:greenyellow;" d="M225,-761C225,-755 231,-749 237,-749"/>
<path style="fill:greenyellow;stroke:greenyellow;" d="M267,-749C273,-749 279,-755 279,-761"/>
<path style="fill:greenyellow;stroke:greenyellow;" d="M279,-773C279,-779 273,-785 267,-785"/>
<polyline style="fill:none;stroke:greenyellow;" points="267,-785 237,-785 "/>
<path style="fill:none;stroke:greenyellow;" d="M237,-785C231,-785 225,-779 225,-773"/>
<polyline style="fill:none;stroke:greenyellow;" points="225,-773 225,-761 "/>
<path style="fill:none;stroke:greenyellow;" d="M225,-761C225,-755 231,-749 237,-749"/>
<polyline style="fill:none;stroke:greenyellow;" points="237,-749 267,-749 "/>
<path style="fill:none;stroke:greenyellow;" d="M267,-749C273,-749 279,-755 279,-761"/>
<polyline style="fill:none;stroke:greenyellow;" points="279,-761 279,-773 "/>
<path style="fill:none;stroke:greenyellow;" d="M279,-773C279,-779 273,-785 267,-785"/>
<text text-anchor="middle" x="252" y="-761" style="font-family:Nimbus Sans L;font-weight:bold;font-size:12.96pt;">Idle</text>
</g>
<!-- Autonomous -->
<g id="node3" class="node"><title>Autonomous</title>
<polygon style="fill:greenyellow;stroke:greenyellow;" points="665,-790 519,-790 507,-778 507,-756 519,-744 665,-744 677,-756 677,-778 665,-790"/>
<path style="fill:greenyellow;stroke:greenyellow;" d="M519,-790C513,-790 507,-784 507,-778"/>
<path style="fill:greenyellow;stroke:greenyellow;" d="M507,-756C507,-750 513,-744 519,-744"/>
<path style="fill:greenyellow;stroke:greenyellow;" d="M665,-744C671,-744 677,-750 677,-756"/>
<path style="fill:greenyellow;stroke:greenyellow;" d="M677,-778C677,-784 671,-790 665,-790"/>
<polyline style="fill:none;stroke:greenyellow;" points="665,-790 519,-790 "/>
<path style="fill:none;stroke:greenyellow;" d="M519,-790C513,-790 507,-784 507,-778"/>
<polyline style="fill:none;stroke:greenyellow;" points="507,-778 507,-756 "/>
<path style="fill:none;stroke:greenyellow;" d="M507,-756C507,-750 513,-744 519,-744"/>
<polyline style="fill:none;stroke:greenyellow;" points="519,-744 665,-744 "/>
<path style="fill:none;stroke:greenyellow;" d="M665,-744C671,-744 677,-750 677,-756"/>
<polyline style="fill:none;stroke:greenyellow;" points="677,-756 677,-778 "/>
<path style="fill:none;stroke:greenyellow;" d="M677,-778C677,-784 671,-790 665,-790"/>
<text text-anchor="middle" x="592" y="-770" style="font-family:Nimbus Sans L;font-weight:bold;font-size:12.96pt;">Autonomous</text>
<text text-anchor="middle" x="592" y="-751" style="font-family:Nimbus Sans L;font-weight:bold;font-size:12.96pt;">UE&#45;Based positioning</text>
</g>
<!-- Idle&#45;&gt;Autonomous -->
<g id="edge6" class="edge"><title>Idle&#45;&gt;Autonomous</title>
<path style="fill:none;stroke:red;" d="M279,-767C326,-767 423,-767 496,-767"/>
<polygon style="fill:red;stroke:red;" points="496,-770.5 506,-767 496,-763.5 496,-770.5"/>
<a xlink:title="User starts Location check\nStart Autonomous positioning\nStart LcsMOLR">
</a>
<a xlink:title="User starts Location check\nStart Autonomous positioning\nStart LcsMOLR">
</a>
<text text-anchor="middle" x="393" y="-808" style="font-family:Nimbus Sans L;font-weight:regular;font-size:12.96pt;fill:red;">User starts Location check</text>
<text text-anchor="middle" x="393" y="-789" style="font-family:Nimbus Sans L;font-weight:regular;font-size:12.96pt;fill:red;">Start Autonomous positioning</text>
<text text-anchor="middle" x="393" y="-770" style="font-family:Nimbus Sans L;font-weight:regular;font-size:12.96pt;fill:red;">Start LcsMOLR</text>
</g>
<!-- UE_Based -->
<g id="node4" class="node"><title>UE_Based</title>
<polygon style="fill:greenyellow;stroke:greenyellow;" points="1095,-790 865,-790 853,-778 853,-756 865,-744 1095,-744 1107,-756 1107,-778 1095,-790"/>
<path style="fill:greenyellow;stroke:greenyellow;" d="M865,-790C859,-790 853,-784 853,-778"/>
<path style="fill:greenyellow;stroke:greenyellow;" d="M853,-756C853,-750 859,-744 865,-744"/>
<path style="fill:greenyellow;stroke:greenyellow;" d="M1095,-744C1101,-744 1107,-750 1107,-756"/>
<path style="fill:greenyellow;stroke:greenyellow;" d="M1107,-778C1107,-784 1101,-790 1095,-790"/>
<polyline style="fill:none;stroke:greenyellow;" points="1095,-790 865,-790 "/>
<path style="fill:none;stroke:greenyellow;" d="M865,-790C859,-790 853,-784 853,-778"/>
<polyline style="fill:none;stroke:greenyellow;" points="853,-778 853,-756 "/>
<path style="fill:none;stroke:greenyellow;" d="M853,-756C853,-750 859,-744 865,-744"/>
<polyline style="fill:none;stroke:greenyellow;" points="865,-744 1095,-744 "/>
<path style="fill:none;stroke:greenyellow;" d="M1095,-744C1101,-744 1107,-750 1107,-756"/>
<polyline style="fill:none;stroke:greenyellow;" points="1107,-756 1107,-778 "/>
<path style="fill:none;stroke:greenyellow;" d="M1107,-778C1107,-784 1101,-790 1095,-790"/>
<text text-anchor="middle" x="980" y="-770" style="font-family:Nimbus Sans L;font-weight:bold;font-size:12.96pt;">Performing UE&#45;Based positioning</text>
<text text-anchor="middle" x="980" y="-751" style="font-family:Nimbus Sans L;font-weight:bold;font-size:12.96pt;">under Hybrid Positioning</text>
</g>
<!-- Autonomous&#45;&gt;UE_Based -->
<g id="edge8" class="edge"><title>Autonomous&#45;&gt;UE_Based</title>
<path style="fill:none;stroke:red;" d="M678,-767C726,-767 787,-767 843,-767"/>
<polygon style="fill:red;stroke:red;" points="843,-770.5 853,-767 843,-763.5 843,-770.5"/>
<a xlink:title="Receives M.C.(Setup)\nStart a2,a4 timer">
</a>
<a xlink:title="Receives M.C.(Setup)\nStart a2,a4 timer">
</a>
<text text-anchor="middle" x="765" y="-789" style="font-family:Nimbus Sans L;font-weight:regular;font-size:12.96pt;fill:red;">Receives M.C.(Setup)</text>
<text text-anchor="middle" x="765" y="-770" style="font-family:Nimbus Sans L;font-weight:regular;font-size:12.96pt;fill:red;">Start a2,a4 timer</text>
</g>
<!-- UE_Assisted -->
<g id="node5" class="node"><title>UE_Assisted</title>
<polygon style="fill:greenyellow;stroke:greenyellow;" points="698,-637 452,-637 440,-625 440,-603 452,-591 698,-591 710,-603 710,-625 698,-637"/>
<path style="fill:greenyellow;stroke:greenyellow;" d="M452,-637C446,-637 440,-631 440,-625"/>
<path style="fill:greenyellow;stroke:greenyellow;" d="M440,-603C440,-597 446,-591 452,-591"/>
<path style="fill:greenyellow;stroke:greenyellow;" d="M698,-591C704,-591 710,-597 710,-603"/>
<path style="fill:greenyellow;stroke:greenyellow;" d="M710,-625C710,-631 704,-637 698,-637"/>
<polyline style="fill:none;stroke:greenyellow;" points="698,-637 452,-637 "/>
<path style="fill:none;stroke:greenyellow;" d="M452,-637C446,-637 440,-631 440,-625"/>
<polyline style="fill:none;stroke:greenyellow;" points="440,-625 440,-603 "/>
<path style="fill:none;stroke:greenyellow;" d="M440,-603C440,-597 446,-591 452,-591"/>
<polyline style="fill:none;stroke:greenyellow;" points="452,-591 698,-591 "/>
<path style="fill:none;stroke:greenyellow;" d="M698,-591C704,-591 710,-597 710,-603"/>
<polyline style="fill:none;stroke:greenyellow;" points="710,-603 710,-625 "/>
<path style="fill:none;stroke:greenyellow;" d="M710,-625C710,-631 704,-637 698,-637"/>
<text text-anchor="middle" x="575" y="-617" style="font-family:Nimbus Sans L;font-weight:bold;font-size:12.96pt;">Performing UE&#45;Assisted positioning</text>
<text text-anchor="middle" x="575" y="-598" style="font-family:Nimbus Sans L;font-weight:bold;font-size:12.96pt;">(UE&#45;Based positioning continue)</text>
</g>
<!-- UE_Based&#45;&gt;UE_Assisted -->
<g id="edge10" class="edge"><title>UE_Based&#45;&gt;UE_Assisted</title>
<path style="fill:none;stroke:red;" d="M853,-744C803,-694 730,-661 672,-640"/>
<polygon style="fill:red;stroke:red;" points="672.584,-636.521 662,-637 670.573,-643.226 672.584,-636.521"/>
<a xlink:title="\n\n\n\n\nTimer a2 expired/\nSend M.R\nReceive M.C.\n(Modify,Reporting Interval=t)\nStart up Timer t">
</a>
<text text-anchor="middle" x="843" y="-725" style="font-family:Nimbus Sans L;font-weight:regular;font-size:12.96pt;fill:red;">Timer a2 expired/</text>
<text text-anchor="middle" x="843" y="-706" style="font-family:Nimbus Sans L;font-weight:regular;font-size:12.96pt;fill:red;">Send M.R</text>
<text text-anchor="middle" x="843" y="-687" style="font-family:Nimbus Sans L;font-weight:regular;font-size:12.96pt;fill:red;">Receive M.C.</text>
<text text-anchor="middle" x="843" y="-668" style="font-family:Nimbus Sans L;font-weight:regular;font-size:12.96pt;fill:red;">(Modify,Reporting Interval=t)</text>
<text text-anchor="middle" x="843" y="-649" style="font-family:Nimbus Sans L;font-weight:regular;font-size:12.96pt;fill:red;">Start up Timer t</text>
</g>
<!-- Waiting_MC_UEBasedStop -->
<g id="node8" class="node"><title>Waiting_MC_UEBasedStop</title>
<polygon style="fill:greenyellow;stroke:greenyellow;" points="1006,-390 784,-390 772,-378 772,-356 784,-344 1006,-344 1018,-356 1018,-378 1006,-390"/>
<path style="fill:greenyellow;stroke:greenyellow;" d="M784,-390C778,-390 772,-384 772,-378"/>
<path style="fill:greenyellow;stroke:greenyellow;" d="M772,-356C772,-350 778,-344 784,-344"/>
<path style="fill:greenyellow;stroke:greenyellow;" d="M1006,-344C1012,-344 1018,-350 1018,-356"/>
<path style="fill:greenyellow;stroke:greenyellow;" d="M1018,-378C1018,-384 1012,-390 1006,-390"/>
<polyline style="fill:none;stroke:greenyellow;" points="1006,-390 784,-390 "/>
<path style="fill:none;stroke:greenyellow;" d="M784,-390C778,-390 772,-384 772,-378"/>
<polyline style="fill:none;stroke:greenyellow;" points="772,-378 772,-356 "/>
<path style="fill:none;stroke:greenyellow;" d="M772,-356C772,-350 778,-344 784,-344"/>
<polyline style="fill:none;stroke:greenyellow;" points="784,-344 1006,-344 "/>
<path style="fill:none;stroke:greenyellow;" d="M1006,-344C1012,-344 1018,-350 1018,-356"/>
<polyline style="fill:none;stroke:greenyellow;" points="1018,-356 1018,-378 "/>
<path style="fill:none;stroke:greenyellow;" d="M1018,-378C1018,-384 1012,-390 1006,-390"/>
<text text-anchor="middle" x="895" y="-370" style="font-family:Nimbus Sans L;font-weight:bold;font-size:12.96pt;">Waiting for M.C.(Release)</text>
<text text-anchor="middle" x="895" y="-351" style="font-family:Nimbus Sans L;font-weight:bold;font-size:12.96pt;">(UE&#45;Based positioning Stopped)</text>
</g>
<!-- UE_Based&#45;&gt;Waiting_MC_UEBasedStop -->
<g id="edge12" class="edge"><title>UE_Based&#45;&gt;Waiting_MC_UEBasedStop</title>
<path style="fill:none;stroke:black;" d="M980,-744C982,-706 987,-625 994,-558 1003,-476 1094,-376 1028,-368"/>
<polygon style="fill:black;stroke:black;" points="1028.3,-364.512 1018,-367 1027.6,-371.478 1028.3,-364.512"/>
<a xlink:title="UE&#45;Based success/\nStop UE&#45;Based Positioning\nComplete User request\n(UE Based result)\nSend M.R.\n(confidence=68)">
</a>
<a xlink:title="UE&#45;Based success/\nStop UE&#45;Based Positioning\nComplete User request\n(UE Based result)\nSend M.R.\n(confidence=68)">
</a>
<text text-anchor="middle" x="1078" y="-648" style="font-family:Nimbus Sans L;font-weight:regular;font-size:11.34pt;">UE&#45;Based success/</text>
<text text-anchor="middle" x="1078" y="-632" style="font-family:Nimbus Sans L;font-weight:regular;font-size:11.34pt;">Stop UE&#45;Based Positioning</text>
<text text-anchor="middle" x="1078" y="-616" style="font-family:Nimbus Sans L;font-weight:regular;font-size:11.34pt;">Complete User request</text>
<text text-anchor="middle" x="1078" y="-600" style="font-family:Nimbus Sans L;font-weight:regular;font-size:11.34pt;">(UE Based result)</text>
<text text-anchor="middle" x="1078" y="-584" style="font-family:Nimbus Sans L;font-weight:regular;font-size:11.34pt;">Send M.R.</text>
<text text-anchor="middle" x="1078" y="-568" style="font-family:Nimbus Sans L;font-weight:regular;font-size:11.34pt;">(confidence=68)</text>
</g>
<!-- UE_Based&#45;&gt;Waiting_MC_UEBasedStop -->
<g id="edge14" class="edge"><title>UE_Based&#45;&gt;Waiting_MC_UEBasedStop</title>
<path style="fill:none;stroke:black;" d="M1107,-767C1286,-767 1203,-382 1028,-367"/>
<polygon style="fill:black;stroke:black;" points="1028,-363.5 1018,-367 1028,-370.5 1028,-363.5"/>
<a xlink:title="UE&#45;Based fix\naccuracy\ntoo low/\nStop UE&#45;Based\nPositioning,\nSend M.R.\n(confidence=100)">
</a>
<a xlink:title="UE&#45;Based fix\naccuracy\ntoo low/\nStop UE&#45;Based\nPositioning,\nSend M.R.\n(confidence=100)">
</a>
<text text-anchor="middle" x="1260" y="-656" style="font-family:Nimbus Sans L;font-weight:regular;font-size:11.34pt;">UE&#45;Based fix</text>
<text text-anchor="middle" x="1260" y="-640" style="font-family:Nimbus Sans L;font-weight:regular;font-size:11.34pt;">accuracy</text>
<text text-anchor="middle" x="1260" y="-624" style="font-family:Nimbus Sans L;font-weight:regular;font-size:11.34pt;">too low/</text>
<text text-anchor="middle" x="1260" y="-608" style="font-family:Nimbus Sans L;font-weight:regular;font-size:11.34pt;">Stop UE&#45;Based</text>
<text text-anchor="middle" x="1260" y="-592" style="font-family:Nimbus Sans L;font-weight:regular;font-size:11.34pt;">Positioning,</text>
<text text-anchor="middle" x="1260" y="-576" style="font-family:Nimbus Sans L;font-weight:regular;font-size:11.34pt;">Send M.R.</text>
<text text-anchor="middle" x="1260" y="-560" style="font-family:Nimbus Sans L;font-weight:regular;font-size:11.34pt;">(confidence=100)</text>
</g>
<!-- UE_Assisted&#45;&gt;UE_Assisted -->
<g id="edge16" class="edge"><title>UE_Assisted&#45;&gt;UE_Assisted</title>
<path style="fill:none;stroke:black;" d="M537,-637C485,-657 422,-648 422,-602 422,-549 432,-545 438,-581"/>
<polygon style="fill:black;stroke:black;" points="434.607,-581.881 440,-591 441.471,-580.508 434.607,-581.881"/>
<a xlink:title="\n\n\nTimer t expired/\nSend M.R,\nrestart timer t">
</a>
<text text-anchor="middle" x="434" y="-569" style="font-family:Nimbus Sans L;font-weight:regular;font-size:11.34pt;">Timer t expired/</text>
<text text-anchor="middle" x="434" y="-553" style="font-family:Nimbus Sans L;font-weight:regular;font-size:11.34pt;">Send M.R,</text>
<text text-anchor="middle" x="434" y="-537" style="font-family:Nimbus Sans L;font-weight:regular;font-size:11.34pt;">restart timer t</text>
</g>
<!-- Waiting_MC_UEBasedCont -->
<g id="node7" class="node"><title>Waiting_MC_UEBasedCont</title>
<polygon style="fill:greenyellow;stroke:greenyellow;" points="405,-390 183,-390 171,-378 171,-356 183,-344 405,-344 417,-356 417,-378 405,-390"/>
<path style="fill:greenyellow;stroke:greenyellow;" d="M183,-390C177,-390 171,-384 171,-378"/>
<path style="fill:greenyellow;stroke:greenyellow;" d="M171,-356C171,-350 177,-344 183,-344"/>
<path style="fill:greenyellow;stroke:greenyellow;" d="M405,-344C411,-344 417,-350 417,-356"/>
<path style="fill:greenyellow;stroke:greenyellow;" d="M417,-378C417,-384 411,-390 405,-390"/>
<polyline style="fill:none;stroke:greenyellow;" points="405,-390 183,-390 "/>
<path style="fill:none;stroke:greenyellow;" d="M183,-390C177,-390 171,-384 171,-378"/>
<polyline style="fill:none;stroke:greenyellow;" points="171,-378 171,-356 "/>
<path style="fill:none;stroke:greenyellow;" d="M171,-356C171,-350 177,-344 183,-344"/>
<polyline style="fill:none;stroke:greenyellow;" points="183,-344 405,-344 "/>
<path style="fill:none;stroke:greenyellow;" d="M405,-344C411,-344 417,-350 417,-356"/>
<polyline style="fill:none;stroke:greenyellow;" points="417,-356 417,-378 "/>
<path style="fill:none;stroke:greenyellow;" d="M417,-378C417,-384 411,-390 405,-390"/>
<text text-anchor="middle" x="294" y="-370" style="font-family:Nimbus Sans L;font-weight:bold;font-size:12.96pt;">Waiting for M.C.(Release)</text>
<text text-anchor="middle" x="294" y="-351" style="font-family:Nimbus Sans L;font-weight:bold;font-size:12.96pt;">(UE&#45;Based positioning continue)</text>
</g>
<!-- UE_Assisted&#45;&gt;Waiting_MC_UEBasedCont -->
<g id="edge20" class="edge"><title>UE_Assisted&#45;&gt;Waiting_MC_UEBasedCont</title>
<path style="fill:none;stroke:black;" d="M439,-614C340,-614 307,-468 297,-400"/>
<polygon style="fill:black;stroke:black;" points="300.478,-399.602 296,-390 293.512,-400.299 300.478,-399.602"/>
<a xlink:title="timer a4 expired/\nSend M.R.\n(confidence=100)">
</a>
<a xlink:title="timer a4 expired/\nSend M.R.\n(confidence=100)">
</a>
<text text-anchor="middle" x="382" y="-484" style="font-family:Nimbus Sans L;font-weight:regular;font-size:11.34pt;">timer a4 expired/</text>
<text text-anchor="middle" x="382" y="-468" style="font-family:Nimbus Sans L;font-weight:regular;font-size:11.34pt;">Send M.R.</text>
<text text-anchor="middle" x="382" y="-452" style="font-family:Nimbus Sans L;font-weight:regular;font-size:11.34pt;">(confidence=100)</text>
</g>
<!-- UE_Assisted&#45;&gt;Waiting_MC_UEBasedStop -->
<g id="edge22" class="edge"><title>UE_Assisted&#45;&gt;Waiting_MC_UEBasedStop</title>
<path style="fill:none;stroke:black;" d="M575,-591C575,-517 526,-480 576,-426 621,-375 867,-452 893,-400"/>
<polygon style="fill:black;stroke:black;" points="896.471,-400.492 895,-390 889.607,-399.119 896.471,-400.492"/>
<a xlink:title="UE&#45;Based success/\nStop UE&#45;Based Positioning\nComplete User request\n(UE Based result)\nSend M.R.\n(confidence=68)">
</a>
<a xlink:title="UE&#45;Based success/\nStop UE&#45;Based Positioning\nComplete User request\n(UE Based result)\nSend M.R.\n(confidence=68)">
</a>
<text text-anchor="middle" x="660" y="-508" style="font-family:Nimbus Sans L;font-weight:regular;font-size:11.34pt;">UE&#45;Based success/</text>
<text text-anchor="middle" x="660" y="-492" style="font-family:Nimbus Sans L;font-weight:regular;font-size:11.34pt;">Stop UE&#45;Based Positioning</text>
<text text-anchor="middle" x="660" y="-476" style="font-family:Nimbus Sans L;font-weight:regular;font-size:11.34pt;">Complete User request</text>
<text text-anchor="middle" x="660" y="-460" style="font-family:Nimbus Sans L;font-weight:regular;font-size:11.34pt;">(UE Based result)</text>
<text text-anchor="middle" x="660" y="-444" style="font-family:Nimbus Sans L;font-weight:regular;font-size:11.34pt;">Send M.R.</text>
<text text-anchor="middle" x="660" y="-428" style="font-family:Nimbus Sans L;font-weight:regular;font-size:11.34pt;">(confidence=68)</text>
</g>
<!-- UE_Assisted&#45;&gt;Waiting_MC_UEBasedStop -->
<g id="edge24" class="edge"><title>UE_Assisted&#45;&gt;Waiting_MC_UEBasedStop</title>
<path style="fill:none;stroke:red;" d="M711,-614C798,-614 706,-488 767,-426 804,-386 884,-441 894,-400"/>
<polygon style="fill:red;stroke:red;" points="897.488,-400.299 895,-390 890.522,-399.602 897.488,-400.299"/>
<a xlink:title="UE&#45;Based fix\naccuracy too low/\nStop UE&#45;Based Positioning,\nSend M.R.\n(confidence=100)">
</a>
<a xlink:title="UE&#45;Based fix\naccuracy too low/\nStop UE&#45;Based Positioning,\nSend M.R.\n(confidence=100)">
</a>
<text text-anchor="middle" x="866" y="-506" style="font-family:Nimbus Sans L;font-weight:regular;font-size:12.96pt;fill:red;">UE&#45;Based fix</text>
<text text-anchor="middle" x="866" y="-487" style="font-family:Nimbus Sans L;font-weight:regular;font-size:12.96pt;fill:red;">accuracy too low/</text>
<text text-anchor="middle" x="866" y="-468" style="font-family:Nimbus Sans L;font-weight:regular;font-size:12.96pt;fill:red;">Stop UE&#45;Based Positioning,</text>
<text text-anchor="middle" x="866" y="-449" style="font-family:Nimbus Sans L;font-weight:regular;font-size:12.96pt;fill:red;">Send M.R.</text>
<text text-anchor="middle" x="866" y="-430" style="font-family:Nimbus Sans L;font-weight:regular;font-size:12.96pt;fill:red;">(confidence=100)</text>
</g>
<!-- Waiting_Facility_UEBasedCont -->
<g id="node10" class="node"><title>Waiting_Facility_UEBasedCont</title>
<polygon style="fill:greenyellow;stroke:greenyellow;" points="405,-261 183,-261 171,-249 171,-227 183,-215 405,-215 417,-227 417,-249 405,-261"/>
<path style="fill:greenyellow;stroke:greenyellow;" d="M183,-261C177,-261 171,-255 171,-249"/>
<path style="fill:greenyellow;stroke:greenyellow;" d="M171,-227C171,-221 177,-215 183,-215"/>
<path style="fill:greenyellow;stroke:greenyellow;" d="M405,-215C411,-215 417,-221 417,-227"/>
<path style="fill:greenyellow;stroke:greenyellow;" d="M417,-249C417,-255 411,-261 405,-261"/>
<polyline style="fill:none;stroke:greenyellow;" points="405,-261 183,-261 "/>
<path style="fill:none;stroke:greenyellow;" d="M183,-261C177,-261 171,-255 171,-249"/>
<polyline style="fill:none;stroke:greenyellow;" points="171,-249 171,-227 "/>
<path style="fill:none;stroke:greenyellow;" d="M171,-227C171,-221 177,-215 183,-215"/>
<polyline style="fill:none;stroke:greenyellow;" points="183,-215 405,-215 "/>
<path style="fill:none;stroke:greenyellow;" d="M405,-215C411,-215 417,-221 417,-227"/>
<polyline style="fill:none;stroke:greenyellow;" points="417,-227 417,-249 "/>
<path style="fill:none;stroke:greenyellow;" d="M417,-249C417,-255 411,-261 405,-261"/>
<text text-anchor="middle" x="294" y="-241" style="font-family:Nimbus Sans L;font-weight:bold;font-size:12.96pt;">Waiting for Facility</text>
<text text-anchor="middle" x="294" y="-222" style="font-family:Nimbus Sans L;font-weight:bold;font-size:12.96pt;">(UE&#45;Based positioning continue)</text>
</g>
<!-- UE_Assisted&#45;&gt;Waiting_Facility_UEBasedCont -->
<g id="edge18" class="edge"><title>UE_Assisted&#45;&gt;Waiting_Facility_UEBasedCont</title>
<path style="fill:none;stroke:black;" d="M567,-591C548,-541 499,-421 426,-344 381,-296 303,-326 295,-271"/>
<polygon style="fill:black;stroke:black;" points="298.478,-270.602 294,-261 291.512,-271.299 298.478,-270.602"/>
<a xlink:title="Receive M.C.(Release)">
</a>
<text text-anchor="middle" x="299" y="-264" style="font-family:Nimbus Sans L;font-weight:regular;font-size:11.34pt;">Receive M.C.(Release)</text>
</g>
<!-- Waiting_MC_UEBasedCont&#45;&gt;Waiting_MC_UEBasedStop -->
<g id="edge26" class="edge"><title>Waiting_MC_UEBasedCont&#45;&gt;Waiting_MC_UEBasedStop</title>
<path style="fill:none;stroke:black;" d="M418,-348C424,-348 429,-347 435,-347 577,-336 614,-336 755,-347 757,-347 760,-347 762,-347"/>
<polygon style="fill:black;stroke:black;" points="761.701,-350.488 772,-348 762.398,-343.522 761.701,-350.488"/>
<a xlink:title="UE&#45;Based fix accuracy too low/Stop UE&#45;Based Pos.">
</a>
<a xlink:title="UE&#45;Based fix accuracy too low/Stop UE&#45;Based Pos.">
</a>
<text text-anchor="middle" x="595" y="-349" style="font-family:Nimbus Sans L;font-weight:regular;font-size:11.34pt;">UE&#45;Based fix accuracy too low/Stop UE&#45;Based Pos.</text>
</g>
<!-- Waiting_MC_UEBasedCont&#45;&gt;Waiting_MC_UEBasedStop -->
<g id="edge28" class="edge"><title>Waiting_MC_UEBasedCont&#45;&gt;Waiting_MC_UEBasedStop</title>
<path style="fill:none;stroke:black;" d="M418,-367C519,-367 660,-367 762,-367"/>
<polygon style="fill:black;stroke:black;" points="762,-370.5 772,-367 762,-363.5 762,-370.5"/>
<a xlink:title="UE&#45;Based success/Stop UE&#45;Based Pos.,\nComplete User request(UE Based result)\n">
</a>
<a xlink:title="UE&#45;Based success/Stop UE&#45;Based Pos.,\nComplete User request(UE Based result)\n">
</a>
<text text-anchor="middle" x="595" y="-377" style="font-family:Nimbus Sans L;font-weight:regular;font-size:11.34pt;">UE&#45;Based success/Stop UE&#45;Based Pos.,</text>
<text text-anchor="middle" x="595" y="-361" style="font-family:Nimbus Sans L;font-weight:regular;font-size:11.34pt;">Complete User request(UE Based result)</text>
</g>
<!-- Waiting_MC_UEBasedCont&#45;&gt;Waiting_Facility_UEBasedCont -->
<g id="edge30" class="edge"><title>Waiting_MC_UEBasedCont&#45;&gt;Waiting_Facility_UEBasedCont</title>
<path style="fill:none;stroke:black;" d="M294,-344C294,-311 294,-299 294,-271"/>
<polygon style="fill:black;stroke:black;" points="297.5,-271 294,-261 290.5,-271 297.5,-271"/>
</g>
<!-- End -->
<g id="node13" class="node"><title>End</title>
<polygon style="fill:greenyellow;stroke:greenyellow;" points="681,-101.5 483,-101.5 471,-89.5 471,-48.5 483,-36.5 681,-36.5 693,-48.5 693,-89.5 681,-101.5"/>
<path style="fill:greenyellow;stroke:greenyellow;" d="M483,-101.5C477,-101.5 471,-95.5 471,-89.5"/>
<path style="fill:greenyellow;stroke:greenyellow;" d="M471,-48.5C471,-42.5 477,-36.5 483,-36.5"/>
<path style="fill:greenyellow;stroke:greenyellow;" d="M681,-36.5C687,-36.5 693,-42.5 693,-48.5"/>
<path style="fill:greenyellow;stroke:greenyellow;" d="M693,-89.5C693,-95.5 687,-101.5 681,-101.5"/>
<polyline style="fill:none;stroke:greenyellow;" points="681,-101.5 483,-101.5 "/>
<path style="fill:none;stroke:greenyellow;" d="M483,-101.5C477,-101.5 471,-95.5 471,-89.5"/>
<polyline style="fill:none;stroke:greenyellow;" points="471,-89.5 471,-48.5 "/>
<path style="fill:none;stroke:greenyellow;" d="M471,-48.5C471,-42.5 477,-36.5 483,-36.5"/>
<polyline style="fill:none;stroke:greenyellow;" points="483,-36.5 681,-36.5 "/>
<path style="fill:none;stroke:greenyellow;" d="M681,-36.5C687,-36.5 693,-42.5 693,-48.5"/>
<polyline style="fill:none;stroke:greenyellow;" points="693,-48.5 693,-89.5 "/>
<path style="fill:none;stroke:greenyellow;" d="M693,-89.5C693,-95.5 687,-101.5 681,-101.5"/>
<text text-anchor="middle" x="582" y="-82" style="font-family:Nimbus Sans L;font-weight:bold;font-size:12.96pt;">Positioning Ends</text>
<text text-anchor="middle" x="582" y="-63" style="font-family:Nimbus Sans L;font-weight:bold;font-size:12.96pt;">Complete User Request</text>
<text text-anchor="middle" x="582" y="-44" style="font-family:Nimbus Sans L;font-weight:bold;font-size:12.96pt;">For no UE&#45;Based positioning</text>
</g>
<!-- Waiting_MC_UEBasedCont&#45;&gt;End -->
<g id="edge32" class="edge"><title>Waiting_MC_UEBasedCont&#45;&gt;End</title>
<path style="fill:none;stroke:black;" d="M170,-344C116,-290 56,-334 16,-270 1,-245 0,-228 16,-206 76,-124 348,-72 461,-69"/>
<polygon style="fill:black;stroke:black;" points="461,-72.5001 471,-69 461,-65.5001 461,-72.5001"/>
<a xlink:title="M.C. wait timer expired/\nStop UE&#45;Based\nSend M.R.\n(undefined Error)">
</a>
<a xlink:title="M.C. wait timer expired/\nStop UE&#45;Based\nSend M.R.\n(undefined Error)">
</a>
<text text-anchor="middle" x="92" y="-256" style="font-family:Nimbus Sans L;font-weight:regular;font-size:11.34pt;">M.C. wait timer expired/</text>
<text text-anchor="middle" x="92" y="-240" style="font-family:Nimbus Sans L;font-weight:regular;font-size:11.34pt;">Stop UE&#45;Based</text>
<text text-anchor="middle" x="92" y="-224" style="font-family:Nimbus Sans L;font-weight:regular;font-size:11.34pt;">Send M.R.</text>
<text text-anchor="middle" x="92" y="-208" style="font-family:Nimbus Sans L;font-weight:regular;font-size:11.34pt;">(undefined Error)</text>
</g>
<!-- Waiting_Facility_UEBasedStop -->
<g id="node11" class="node"><title>Waiting_Facility_UEBasedStop</title>
<polygon style="fill:greenyellow;stroke:greenyellow;" points="1178,-261 956,-261 944,-249 944,-227 956,-215 1178,-215 1190,-227 1190,-249 1178,-261"/>
<path style="fill:greenyellow;stroke:greenyellow;" d="M956,-261C950,-261 944,-255 944,-249"/>
<path style="fill:greenyellow;stroke:greenyellow;" d="M944,-227C944,-221 950,-215 956,-215"/>
<path style="fill:greenyellow;stroke:greenyellow;" d="M1178,-215C1184,-215 1190,-221 1190,-227"/>
<path style="fill:greenyellow;stroke:greenyellow;" d="M1190,-249C1190,-255 1184,-261 1178,-261"/>
<polyline style="fill:none;stroke:greenyellow;" points="1178,-261 956,-261 "/>
<path style="fill:none;stroke:greenyellow;" d="M956,-261C950,-261 944,-255 944,-249"/>
<polyline style="fill:none;stroke:greenyellow;" points="944,-249 944,-227 "/>
<path style="fill:none;stroke:greenyellow;" d="M944,-227C944,-221 950,-215 956,-215"/>
<polyline style="fill:none;stroke:greenyellow;" points="956,-215 1178,-215 "/>
<path style="fill:none;stroke:greenyellow;" d="M1178,-215C1184,-215 1190,-221 1190,-227"/>
<polyline style="fill:none;stroke:greenyellow;" points="1190,-227 1190,-249 "/>
<path style="fill:none;stroke:greenyellow;" d="M1190,-249C1190,-255 1184,-261 1178,-261"/>
<text text-anchor="middle" x="1067" y="-241" style="font-family:Nimbus Sans L;font-weight:bold;font-size:12.96pt;">Waiting for Facility</text>
<text text-anchor="middle" x="1067" y="-222" style="font-family:Nimbus Sans L;font-weight:bold;font-size:12.96pt;">(UE&#45;Based positioning Stopped)</text>
</g>
<!-- Waiting_MC_UEBasedStop&#45;&gt;Waiting_Facility_UEBasedStop -->
<g id="edge34" class="edge"><title>Waiting_MC_UEBasedStop&#45;&gt;Waiting_Facility_UEBasedStop</title>
<path style="fill:none;stroke:red;" d="M990,-344C1027,-329 1061,-306 1066,-271"/>
<polygon style="fill:red;stroke:red;" points="1069.49,-271.299 1067,-261 1062.52,-270.602 1069.49,-271.299"/>
<a xlink:title="Receive M.C.(Release)">
</a>
<text text-anchor="middle" x="1070" y="-264" style="font-family:Nimbus Sans L;font-weight:regular;font-size:12.96pt;fill:red;">Receive M.C.(Release)</text>
</g>
<!-- Waiting_MC_UEBasedStop&#45;&gt;End -->
<g id="edge36" class="edge"><title>Waiting_MC_UEBasedStop&#45;&gt;End</title>
<path style="fill:none;stroke:black;" d="M1018,-367C1149,-367 1290,-236 1204,-138 1168,-96 787,-71 703,-69"/>
<polygon style="fill:black;stroke:black;" points="703,-65.5001 693,-69 703,-72.5001 703,-65.5001"/>
<a xlink:title="M.C. wait timer expired/\nSend M.R.\n(undefined Error)">
</a>
<a xlink:title="M.C. wait timer expired/\nSend M.R.\n(undefined Error)">
</a>
<text text-anchor="middle" x="1301" y="-248" style="font-family:Nimbus Sans L;font-weight:regular;font-size:11.34pt;">M.C. wait timer expired/</text>
<text text-anchor="middle" x="1301" y="-232" style="font-family:Nimbus Sans L;font-weight:regular;font-size:11.34pt;">Send M.R.</text>
<text text-anchor="middle" x="1301" y="-216" style="font-family:Nimbus Sans L;font-weight:regular;font-size:11.34pt;">(undefined Error)</text>
</g>
<!-- Waiting_Facility_UEBasedCont&#45;&gt;Waiting_Facility_UEBasedStop -->
<g id="edge38" class="edge"><title>Waiting_Facility_UEBasedCont&#45;&gt;Waiting_Facility_UEBasedStop</title>
<path style="fill:none;stroke:black;" d="M418,-225C451,-222 486,-219 519,-218 663,-211 700,-211 843,-218 873,-219 904,-221 934,-224"/>
<polygon style="fill:black;stroke:black;" points="933.701,-227.488 944,-225 934.398,-220.522 933.701,-227.488"/>
<a xlink:title="UE&#45;Based fix accuracy too low/ Stop UE&#45;Based Pos.">
</a>
<a xlink:title="UE&#45;Based fix accuracy too low/ Stop UE&#45;Based Pos.">
</a>
<text text-anchor="middle" x="681" y="-220" style="font-family:Nimbus Sans L;font-weight:regular;font-size:11.34pt;">UE&#45;Based fix accuracy too low/ Stop UE&#45;Based Pos.</text>
</g>
<!-- Waiting_Facility_UEBasedCont&#45;&gt;Waiting_Facility_UEBasedStop -->
<g id="edge40" class="edge"><title>Waiting_Facility_UEBasedCont&#45;&gt;Waiting_Facility_UEBasedStop</title>
<path style="fill:none;stroke:black;" d="M418,-238C559,-238 789,-238 934,-238"/>
<polygon style="fill:black;stroke:black;" points="934,-241.5 944,-238 934,-234.5 934,-241.5"/>
<a xlink:title="UE&#45;Based success/Stop UE&#45;Based Pos., Complete User request(UE Based result)">
</a>
<a xlink:title="UE&#45;Based success/Stop UE&#45;Based Pos., Complete User request(UE Based result)">
</a>
<text text-anchor="middle" x="681" y="-240" style="font-family:Nimbus Sans L;font-weight:regular;font-size:11.34pt;">UE&#45;Based success/Stop UE&#45;Based Pos., Complete User request(UE Based result)</text>
</g>
<!-- Waiting_Facility_UEBasedCont&#45;&gt;End -->
<g id="edge42" class="edge"><title>Waiting_Facility_UEBasedCont&#45;&gt;End</title>
<path style="fill:none;stroke:black;" d="M293,-214C293,-114 363,-72 461,-69"/>
<polygon style="fill:black;stroke:black;" points="461,-72.5001 471,-69 461,-65.5001 461,-72.5001"/>
<a xlink:title="\n\n\nFacility wait timer expired/\nStop UE&#45;Based Positioning">
</a>
<text text-anchor="middle" x="289" y="-183" style="font-family:Nimbus Sans L;font-weight:regular;font-size:11.34pt;">Facility wait timer expired/</text>
<text text-anchor="middle" x="289" y="-167" style="font-family:Nimbus Sans L;font-weight:regular;font-size:11.34pt;">Stop UE&#45;Based Positioning</text>
</g>
<!-- Waiting_Facility_UEBasedCont&#45;&gt;End -->
<g id="edge44" class="edge"><title>Waiting_Facility_UEBasedCont&#45;&gt;End</title>
<path style="fill:none;stroke:black;" d="M417,-238C491,-238 401,-84 461,-70"/>
<polygon style="fill:black;stroke:black;" points="461.398,-73.4778 471,-69 460.701,-66.5125 461.398,-73.4778"/>
<a xlink:title="Recv Facility/\nStop UE&#45;Based Positioning">
</a>
<a xlink:title="Recv Facility/\nStop UE&#45;Based Positioning">
</a>
<text text-anchor="middle" x="529" y="-156" style="font-family:Nimbus Sans L;font-weight:regular;font-size:11.34pt;">Recv Facility/</text>
<text text-anchor="middle" x="529" y="-140" style="font-family:Nimbus Sans L;font-weight:regular;font-size:11.34pt;">Stop UE&#45;Based Positioning</text>
</g>
<!-- Waiting_Facility_UEBasedStop&#45;&gt;End -->
<g id="edge46" class="edge"><title>Waiting_Facility_UEBasedStop&#45;&gt;End</title>
<path style="fill:none;stroke:black;" d="M943,-214C912,-183 894,-191 857,-170 785,-130 778,-74 703,-69"/>
<polygon style="fill:black;stroke:black;" points="703,-65.5001 693,-69 703,-72.5001 703,-65.5001"/>
<a xlink:title="Recv Facility">
</a>
<a xlink:title="Recv Facility">
</a>
<text text-anchor="middle" x="899" y="-148" style="font-family:Nimbus Sans L;font-weight:regular;font-size:11.34pt;">Recv Facility</text>
</g>
<!-- Waiting_Facility_UEBasedStop&#45;&gt;End -->
<g id="edge48" class="edge"><title>Waiting_Facility_UEBasedStop&#45;&gt;End</title>
<path style="fill:none;stroke:red;" d="M1066,-214C1066,-180 966,-151 936,-138 835,-94 807,-71 703,-69"/>
<polygon style="fill:red;stroke:red;" points="703,-65.5001 693,-69 703,-72.5001 703,-65.5001"/>
<a xlink:title="Facility wait timer expired">
</a>
<a xlink:title="Facility wait timer expired">
</a>
<text text-anchor="middle" x="1109" y="-148" style="font-family:Nimbus Sans L;font-weight:regular;font-size:12.96pt;fill:red;">Facility wait timer expired</text>
</g>
</g>
</svg>
