<?xml version="1.0" encoding="UTF-8" standalone="no"?>
<!DOCTYPE svg PUBLIC "-//W3C//DTD SVG 1.0//EN"
 "http://www.w3.org/TR/2001/REC-SVG-20010904/DTD/svg10.dtd" [
 <!ATTLIST svg xmlns:xlink CDATA #FIXED "http://www.w3.org/1999/xlink">
]>
<!-- Generated by Graphviz version 2.12 (Mon Dec  4 22:04:37 UTC 2006)
     For user: Bill Gates -->
<!-- Title: finite_state_machine Pages: 1 -->
<svg width="10.00in" height="6.00in"
 xmlns="http://www.w3.org/2000/svg" xmlns:xlink="http://www.w3.org/1999/xlink">
<g id="graph0" class="graph" transform="scale(0.696662 0.696662) rotate(0) translate(4 824)">
<title>finite_state_machine</title>
<polygon style="fill:white;stroke:white;" points="-4,4 -4,-824 1374,-824 1374,4 -4,4"/>
<text text-anchor="middle" x="685" y="-8" style="font-family:Nimbus Roman No9 L;font-weight:medium;font-size:19.44pt;">Hybrid &#45; LBS &#45; UE&#45;Assisted MO&#45;LR &#45; Inaccurate GPS Result &#45; Facility Timeout</text>
<!-- Idle -->
<g id="node2" class="node"><title>Idle</title>
<polygon style="fill:greenyellow;stroke:greenyellow;" points="248,-769 218,-769 206,-757 206,-745 218,-733 248,-733 260,-745 260,-757 248,-769"/>
<path style="fill:greenyellow;stroke:greenyellow;" d="M218,-769C212,-769 206,-763 206,-757"/>
<path style="fill:greenyellow;stroke:greenyellow;" d="M206,-745C206,-739 212,-733 218,-733"/>
<path style="fill:greenyellow;stroke:greenyellow;" d="M248,-733C254,-733 260,-739 260,-745"/>
<path style="fill:greenyellow;stroke:greenyellow;" d="M260,-757C260,-763 254,-769 248,-769"/>
<polyline style="fill:none;stroke:greenyellow;" points="248,-769 218,-769 "/>
<path style="fill:none;stroke:greenyellow;" d="M218,-769C212,-769 206,-763 206,-757"/>
<polyline style="fill:none;stroke:greenyellow;" points="206,-757 206,-745 "/>
<path style="fill:none;stroke:greenyellow;" d="M206,-745C206,-739 212,-733 218,-733"/>
<polyline style="fill:none;stroke:greenyellow;" points="218,-733 248,-733 "/>
<path style="fill:none;stroke:greenyellow;" d="M248,-733C254,-733 260,-739 260,-745"/>
<polyline style="fill:none;stroke:greenyellow;" points="260,-745 260,-757 "/>
<path style="fill:none;stroke:greenyellow;" d="M260,-757C260,-763 254,-769 248,-769"/>
<text text-anchor="middle" x="233" y="-745" style="font-family:Nimbus Sans L;font-weight:bold;font-size:12.96pt;">Idle</text>
</g>
<!-- Autonomous -->
<g id="node3" class="node"><title>Autonomous</title>
<polygon style="fill:greenyellow;stroke:greenyellow;" points="646,-774 500,-774 488,-762 488,-740 500,-728 646,-728 658,-740 658,-762 646,-774"/>
<path style="fill:greenyellow;stroke:greenyellow;" d="M500,-774C494,-774 488,-768 488,-762"/>
<path style="fill:greenyellow;stroke:greenyellow;" d="M488,-740C488,-734 494,-728 500,-728"/>
<path style="fill:greenyellow;stroke:greenyellow;" d="M646,-728C652,-728 658,-734 658,-740"/>
<path style="fill:greenyellow;stroke:greenyellow;" d="M658,-762C658,-768 652,-774 646,-774"/>
<polyline style="fill:none;stroke:greenyellow;" points="646,-774 500,-774 "/>
<path style="fill:none;stroke:greenyellow;" d="M500,-774C494,-774 488,-768 488,-762"/>
<polyline style="fill:none;stroke:greenyellow;" points="488,-762 488,-740 "/>
<path style="fill:none;stroke:greenyellow;" d="M488,-740C488,-734 494,-728 500,-728"/>
<polyline style="fill:none;stroke:greenyellow;" points="500,-728 646,-728 "/>
<path style="fill:none;stroke:greenyellow;" d="M646,-728C652,-728 658,-734 658,-740"/>
<polyline style="fill:none;stroke:greenyellow;" points="658,-740 658,-762 "/>
<path style="fill:none;stroke:greenyellow;" d="M658,-762C658,-768 652,-774 646,-774"/>
<text text-anchor="middle" x="573" y="-754" style="font-family:Nimbus Sans L;font-weight:bold;font-size:12.96pt;">Autonomous</text>
<text text-anchor="middle" x="573" y="-735" style="font-family:Nimbus Sans L;font-weight:bold;font-size:12.96pt;">UE&#45;Based positioning</text>
</g>
<!-- Idle&#45;&gt;Autonomous -->
<g id="edge6" class="edge"><title>Idle&#45;&gt;Autonomous</title>
<path style="fill:none;stroke:red;" d="M260,-751C307,-751 404,-751 477,-751"/>
<polygon style="fill:red;stroke:red;" points="477,-754.5 487,-751 477,-747.5 477,-754.5"/>
<a xlink:title="User starts Location check\nStart Autonomous positioning\nStart LcsMOLR">
</a>
<a xlink:title="User starts Location check\nStart Autonomous positioning\nStart LcsMOLR">
</a>
<text text-anchor="middle" x="374" y="-792" style="font-family:Nimbus Sans L;font-weight:regular;font-size:12.96pt;fill:red;">User starts Location check</text>
<text text-anchor="middle" x="374" y="-773" style="font-family:Nimbus Sans L;font-weight:regular;font-size:12.96pt;fill:red;">Start Autonomous positioning</text>
<text text-anchor="middle" x="374" y="-754" style="font-family:Nimbus Sans L;font-weight:regular;font-size:12.96pt;fill:red;">Start LcsMOLR</text>
</g>
<!-- UE_Based -->
<g id="node4" class="node"><title>UE_Based</title>
<polygon style="fill:greenyellow;stroke:greenyellow;" points="1076,-774 846,-774 834,-762 834,-740 846,-728 1076,-728 1088,-740 1088,-762 1076,-774"/>
<path style="fill:greenyellow;stroke:greenyellow;" d="M846,-774C840,-774 834,-768 834,-762"/>
<path style="fill:greenyellow;stroke:greenyellow;" d="M834,-740C834,-734 840,-728 846,-728"/>
<path style="fill:greenyellow;stroke:greenyellow;" d="M1076,-728C1082,-728 1088,-734 1088,-740"/>
<path style="fill:greenyellow;stroke:greenyellow;" d="M1088,-762C1088,-768 1082,-774 1076,-774"/>
<polyline style="fill:none;stroke:greenyellow;" points="1076,-774 846,-774 "/>
<path style="fill:none;stroke:greenyellow;" d="M846,-774C840,-774 834,-768 834,-762"/>
<polyline style="fill:none;stroke:greenyellow;" points="834,-762 834,-740 "/>
<path style="fill:none;stroke:greenyellow;" d="M834,-740C834,-734 840,-728 846,-728"/>
<polyline style="fill:none;stroke:greenyellow;" points="846,-728 1076,-728 "/>
<path style="fill:none;stroke:greenyellow;" d="M1076,-728C1082,-728 1088,-734 1088,-740"/>
<polyline style="fill:none;stroke:greenyellow;" points="1088,-740 1088,-762 "/>
<path style="fill:none;stroke:greenyellow;" d="M1088,-762C1088,-768 1082,-774 1076,-774"/>
<text text-anchor="middle" x="961" y="-754" style="font-family:Nimbus Sans L;font-weight:bold;font-size:12.96pt;">Performing UE&#45;Based positioning</text>
<text text-anchor="middle" x="961" y="-735" style="font-family:Nimbus Sans L;font-weight:bold;font-size:12.96pt;">under Hybrid Positioning</text>
</g>
<!-- Autonomous&#45;&gt;UE_Based -->
<g id="edge8" class="edge"><title>Autonomous&#45;&gt;UE_Based</title>
<path style="fill:none;stroke:red;" d="M659,-751C707,-751 768,-751 824,-751"/>
<polygon style="fill:red;stroke:red;" points="824,-754.5 834,-751 824,-747.5 824,-754.5"/>
<a xlink:title="Receives M.C.(Setup)\nStart a2,a4 timer">
</a>
<a xlink:title="Receives M.C.(Setup)\nStart a2,a4 timer">
</a>
<text text-anchor="middle" x="746" y="-773" style="font-family:Nimbus Sans L;font-weight:regular;font-size:12.96pt;fill:red;">Receives M.C.(Setup)</text>
<text text-anchor="middle" x="746" y="-754" style="font-family:Nimbus Sans L;font-weight:regular;font-size:12.96pt;fill:red;">Start a2,a4 timer</text>
</g>
<!-- UE_Assisted -->
<g id="node5" class="node"><title>UE_Assisted</title>
<polygon style="fill:greenyellow;stroke:greenyellow;" points="706,-629 460,-629 448,-617 448,-595 460,-583 706,-583 718,-595 718,-617 706,-629"/>
<path style="fill:greenyellow;stroke:greenyellow;" d="M460,-629C454,-629 448,-623 448,-617"/>
<path style="fill:greenyellow;stroke:greenyellow;" d="M448,-595C448,-589 454,-583 460,-583"/>
<path style="fill:greenyellow;stroke:greenyellow;" d="M706,-583C712,-583 718,-589 718,-595"/>
<path style="fill:greenyellow;stroke:greenyellow;" d="M718,-617C718,-623 712,-629 706,-629"/>
<polyline style="fill:none;stroke:greenyellow;" points="706,-629 460,-629 "/>
<path style="fill:none;stroke:greenyellow;" d="M460,-629C454,-629 448,-623 448,-617"/>
<polyline style="fill:none;stroke:greenyellow;" points="448,-617 448,-595 "/>
<path style="fill:none;stroke:greenyellow;" d="M448,-595C448,-589 454,-583 460,-583"/>
<polyline style="fill:none;stroke:greenyellow;" points="460,-583 706,-583 "/>
<path style="fill:none;stroke:greenyellow;" d="M706,-583C712,-583 718,-589 718,-595"/>
<polyline style="fill:none;stroke:greenyellow;" points="718,-595 718,-617 "/>
<path style="fill:none;stroke:greenyellow;" d="M718,-617C718,-623 712,-629 706,-629"/>
<text text-anchor="middle" x="583" y="-609" style="font-family:Nimbus Sans L;font-weight:bold;font-size:12.96pt;">Performing UE&#45;Assisted positioning</text>
<text text-anchor="middle" x="583" y="-590" style="font-family:Nimbus Sans L;font-weight:bold;font-size:12.96pt;">(UE&#45;Based positioning continue)</text>
</g>
<!-- UE_Based&#45;&gt;UE_Assisted -->
<g id="edge10" class="edge"><title>UE_Based&#45;&gt;UE_Assisted</title>
<path style="fill:none;stroke:red;" d="M834,-728C789,-683 724,-652 672,-632"/>
<polygon style="fill:red;stroke:red;" points="672.584,-628.521 662,-629 670.573,-635.226 672.584,-628.521"/>
<a xlink:title="\n\n\n\n\nTimer a2 expired/\nSend M.R\nReceive M.C.\n(Modify,Reporting Interval=t)\nStart up Timer t">
</a>
<text text-anchor="middle" x="824" y="-709" style="font-family:Nimbus Sans L;font-weight:regular;font-size:12.96pt;fill:red;">Timer a2 expired/</text>
<text text-anchor="middle" x="824" y="-690" style="font-family:Nimbus Sans L;font-weight:regular;font-size:12.96pt;fill:red;">Send M.R</text>
<text text-anchor="middle" x="824" y="-671" style="font-family:Nimbus Sans L;font-weight:regular;font-size:12.96pt;fill:red;">Receive M.C.</text>
<text text-anchor="middle" x="824" y="-652" style="font-family:Nimbus Sans L;font-weight:regular;font-size:12.96pt;fill:red;">(Modify,Reporting Interval=t)</text>
<text text-anchor="middle" x="824" y="-633" style="font-family:Nimbus Sans L;font-weight:regular;font-size:12.96pt;fill:red;">Start up Timer t</text>
</g>
<!-- Waiting_MC_UEBasedStop -->
<g id="node8" class="node"><title>Waiting_MC_UEBasedStop</title>
<polygon style="fill:greenyellow;stroke:greenyellow;" points="991,-390 769,-390 757,-378 757,-356 769,-344 991,-344 1003,-356 1003,-378 991,-390"/>
<path style="fill:greenyellow;stroke:greenyellow;" d="M769,-390C763,-390 757,-384 757,-378"/>
<path style="fill:greenyellow;stroke:greenyellow;" d="M757,-356C757,-350 763,-344 769,-344"/>
<path style="fill:greenyellow;stroke:greenyellow;" d="M991,-344C997,-344 1003,-350 1003,-356"/>
<path style="fill:greenyellow;stroke:greenyellow;" d="M1003,-378C1003,-384 997,-390 991,-390"/>
<polyline style="fill:none;stroke:greenyellow;" points="991,-390 769,-390 "/>
<path style="fill:none;stroke:greenyellow;" d="M769,-390C763,-390 757,-384 757,-378"/>
<polyline style="fill:none;stroke:greenyellow;" points="757,-378 757,-356 "/>
<path style="fill:none;stroke:greenyellow;" d="M757,-356C757,-350 763,-344 769,-344"/>
<polyline style="fill:none;stroke:greenyellow;" points="769,-344 991,-344 "/>
<path style="fill:none;stroke:greenyellow;" d="M991,-344C997,-344 1003,-350 1003,-356"/>
<polyline style="fill:none;stroke:greenyellow;" points="1003,-356 1003,-378 "/>
<path style="fill:none;stroke:greenyellow;" d="M1003,-378C1003,-384 997,-390 991,-390"/>
<text text-anchor="middle" x="880" y="-370" style="font-family:Nimbus Sans L;font-weight:bold;font-size:12.96pt;">Waiting for M.C.(Release)</text>
<text text-anchor="middle" x="880" y="-351" style="font-family:Nimbus Sans L;font-weight:bold;font-size:12.96pt;">(UE&#45;Based positioning Stopped)</text>
</g>
<!-- UE_Based&#45;&gt;Waiting_MC_UEBasedStop -->
<g id="edge12" class="edge"><title>UE_Based&#45;&gt;Waiting_MC_UEBasedStop</title>
<path style="fill:none;stroke:black;" d="M961,-728C963,-692 967,-619 975,-558 985,-476 1079,-376 1013,-368"/>
<polygon style="fill:black;stroke:black;" points="1013.3,-364.512 1003,-367 1012.6,-371.478 1013.3,-364.512"/>
<a xlink:title="UE&#45;Based success/\nStop UE&#45;Based Positioning\nComplete User request\n(UE Based result)\nSend M.R.\n(confidence=68)">
</a>
<a xlink:title="UE&#45;Based success/\nStop UE&#45;Based Positioning\nComplete User request\n(UE Based result)\nSend M.R.\n(confidence=68)">
</a>
<text text-anchor="middle" x="1059" y="-640" style="font-family:Nimbus Sans L;font-weight:regular;font-size:11.34pt;">UE&#45;Based success/</text>
<text text-anchor="middle" x="1059" y="-624" style="font-family:Nimbus Sans L;font-weight:regular;font-size:11.34pt;">Stop UE&#45;Based Positioning</text>
<text text-anchor="middle" x="1059" y="-608" style="font-family:Nimbus Sans L;font-weight:regular;font-size:11.34pt;">Complete User request</text>
<text text-anchor="middle" x="1059" y="-592" style="font-family:Nimbus Sans L;font-weight:regular;font-size:11.34pt;">(UE Based result)</text>
<text text-anchor="middle" x="1059" y="-576" style="font-family:Nimbus Sans L;font-weight:regular;font-size:11.34pt;">Send M.R.</text>
<text text-anchor="middle" x="1059" y="-560" style="font-family:Nimbus Sans L;font-weight:regular;font-size:11.34pt;">(confidence=68)</text>
</g>
<!-- UE_Based&#45;&gt;Waiting_MC_UEBasedStop -->
<g id="edge14" class="edge"><title>UE_Based&#45;&gt;Waiting_MC_UEBasedStop</title>
<path style="fill:none;stroke:black;" d="M1088,-751C1259,-751 1180,-382 1013,-367"/>
<polygon style="fill:black;stroke:black;" points="1013,-363.5 1003,-367 1013,-370.5 1013,-363.5"/>
<a xlink:title="UE&#45;Based fix\n(Futile)/\nStop UE&#45;Based\nPositioning,\nSend M.R.(RefPos)\n(confidence=100)">
</a>
<a xlink:title="UE&#45;Based fix\n(Futile)/\nStop UE&#45;Based\nPositioning,\nSend M.R.(RefPos)\n(confidence=100)">
</a>
<text text-anchor="middle" x="1242" y="-640" style="font-family:Nimbus Sans L;font-weight:regular;font-size:11.34pt;">UE&#45;Based fix</text>
<text text-anchor="middle" x="1242" y="-624" style="font-family:Nimbus Sans L;font-weight:regular;font-size:11.34pt;">(Futile)/</text>
<text text-anchor="middle" x="1242" y="-608" style="font-family:Nimbus Sans L;font-weight:regular;font-size:11.34pt;">Stop UE&#45;Based</text>
<text text-anchor="middle" x="1242" y="-592" style="font-family:Nimbus Sans L;font-weight:regular;font-size:11.34pt;">Positioning,</text>
<text text-anchor="middle" x="1242" y="-576" style="font-family:Nimbus Sans L;font-weight:regular;font-size:11.34pt;">Send M.R.(RefPos)</text>
<text text-anchor="middle" x="1242" y="-560" style="font-family:Nimbus Sans L;font-weight:regular;font-size:11.34pt;">(confidence=100)</text>
</g>
<!-- UE_Assisted&#45;&gt;UE_Assisted -->
<g id="edge16" class="edge"><title>UE_Assisted&#45;&gt;UE_Assisted</title>
<path style="fill:none;stroke:red;" d="M539,-629C488,-645 430,-635 430,-594 430,-546 440,-541 446,-573"/>
<polygon style="fill:red;stroke:red;" points="442.607,-573.881 448,-583 449.471,-572.508 442.607,-573.881"/>
<a xlink:title="\n\n\nTimer t expired/\nSend M.R,\nrestart timer t">
</a>
<text text-anchor="middle" x="442" y="-559" style="font-family:Nimbus Sans L;font-weight:regular;font-size:12.96pt;fill:red;">Timer t expired/</text>
<text text-anchor="middle" x="442" y="-540" style="font-family:Nimbus Sans L;font-weight:regular;font-size:12.96pt;fill:red;">Send M.R,</text>
<text text-anchor="middle" x="442" y="-521" style="font-family:Nimbus Sans L;font-weight:regular;font-size:12.96pt;fill:red;">restart timer t</text>
</g>
<!-- Waiting_MC_UEBasedCont -->
<g id="node7" class="node"><title>Waiting_MC_UEBasedCont</title>
<polygon style="fill:greenyellow;stroke:greenyellow;" points="406,-390 184,-390 172,-378 172,-356 184,-344 406,-344 418,-356 418,-378 406,-390"/>
<path style="fill:greenyellow;stroke:greenyellow;" d="M184,-390C178,-390 172,-384 172,-378"/>
<path style="fill:greenyellow;stroke:greenyellow;" d="M172,-356C172,-350 178,-344 184,-344"/>
<path style="fill:greenyellow;stroke:greenyellow;" d="M406,-344C412,-344 418,-350 418,-356"/>
<path style="fill:greenyellow;stroke:greenyellow;" d="M418,-378C418,-384 412,-390 406,-390"/>
<polyline style="fill:none;stroke:greenyellow;" points="406,-390 184,-390 "/>
<path style="fill:none;stroke:greenyellow;" d="M184,-390C178,-390 172,-384 172,-378"/>
<polyline style="fill:none;stroke:greenyellow;" points="172,-378 172,-356 "/>
<path style="fill:none;stroke:greenyellow;" d="M172,-356C172,-350 178,-344 184,-344"/>
<polyline style="fill:none;stroke:greenyellow;" points="184,-344 406,-344 "/>
<path style="fill:none;stroke:greenyellow;" d="M406,-344C412,-344 418,-350 418,-356"/>
<polyline style="fill:none;stroke:greenyellow;" points="418,-356 418,-378 "/>
<path style="fill:none;stroke:greenyellow;" d="M418,-378C418,-384 412,-390 406,-390"/>
<text text-anchor="middle" x="295" y="-370" style="font-family:Nimbus Sans L;font-weight:bold;font-size:12.96pt;">Waiting for M.C.(Release)</text>
<text text-anchor="middle" x="295" y="-351" style="font-family:Nimbus Sans L;font-weight:bold;font-size:12.96pt;">(UE&#45;Based positioning continue)</text>
</g>
<!-- UE_Assisted&#45;&gt;Waiting_MC_UEBasedCont -->
<g id="edge20" class="edge"><title>UE_Assisted&#45;&gt;Waiting_MC_UEBasedCont</title>
<path style="fill:none;stroke:black;" d="M447,-606C350,-606 313,-465 300,-400"/>
<polygon style="fill:black;stroke:black;" points="303.393,-399.119 298,-390 296.529,-400.492 303.393,-399.119"/>
<a xlink:title="timer a4 expired/\nSend M.R.\n(confidence=100)">
</a>
<a xlink:title="timer a4 expired/\nSend M.R.\n(confidence=100)">
</a>
<text text-anchor="middle" x="392" y="-484" style="font-family:Nimbus Sans L;font-weight:regular;font-size:11.34pt;">timer a4 expired/</text>
<text text-anchor="middle" x="392" y="-468" style="font-family:Nimbus Sans L;font-weight:regular;font-size:11.34pt;">Send M.R.</text>
<text text-anchor="middle" x="392" y="-452" style="font-family:Nimbus Sans L;font-weight:regular;font-size:11.34pt;">(confidence=100)</text>
</g>
<!-- UE_Assisted&#45;&gt;Waiting_MC_UEBasedStop -->
<g id="edge22" class="edge"><title>UE_Assisted&#45;&gt;Waiting_MC_UEBasedStop</title>
<path style="fill:none;stroke:black;" d="M583,-583C583,-513 537,-478 584,-426 626,-379 852,-447 878,-400"/>
<polygon style="fill:black;stroke:black;" points="881.471,-400.492 880,-390 874.607,-399.119 881.471,-400.492"/>
<a xlink:title="UE&#45;Based success/\nStop UE&#45;Based Positioning\nComplete User request\n(UE Based result)\nSend M.R.\n(confidence=68)">
</a>
<a xlink:title="UE&#45;Based success/\nStop UE&#45;Based Positioning\nComplete User request\n(UE Based result)\nSend M.R.\n(confidence=68)">
</a>
<text text-anchor="middle" x="668" y="-508" style="font-family:Nimbus Sans L;font-weight:regular;font-size:11.34pt;">UE&#45;Based success/</text>
<text text-anchor="middle" x="668" y="-492" style="font-family:Nimbus Sans L;font-weight:regular;font-size:11.34pt;">Stop UE&#45;Based Positioning</text>
<text text-anchor="middle" x="668" y="-476" style="font-family:Nimbus Sans L;font-weight:regular;font-size:11.34pt;">Complete User request</text>
<text text-anchor="middle" x="668" y="-460" style="font-family:Nimbus Sans L;font-weight:regular;font-size:11.34pt;">(UE Based result)</text>
<text text-anchor="middle" x="668" y="-444" style="font-family:Nimbus Sans L;font-weight:regular;font-size:11.34pt;">Send M.R.</text>
<text text-anchor="middle" x="668" y="-428" style="font-family:Nimbus Sans L;font-weight:regular;font-size:11.34pt;">(confidence=68)</text>
</g>
<!-- UE_Assisted&#45;&gt;Waiting_MC_UEBasedStop -->
<g id="edge24" class="edge"><title>UE_Assisted&#45;&gt;Waiting_MC_UEBasedStop</title>
<path style="fill:none;stroke:black;" d="M719,-606C742,-606 774,-426 775,-426 805,-392 868,-431 879,-400"/>
<polygon style="fill:black;stroke:black;" points="882.488,-400.299 880,-390 875.522,-399.602 882.488,-400.299"/>
<a xlink:title="UE&#45;Based fix\n(Futile)/\nStop UE&#45;Based Positioning,\nSend M.R.(RefPos)\n(confidence=100)">
</a>
<a xlink:title="UE&#45;Based fix\n(Futile)/\nStop UE&#45;Based Positioning,\nSend M.R.(RefPos)\n(confidence=100)">
</a>
<text text-anchor="middle" x="861" y="-500" style="font-family:Nimbus Sans L;font-weight:regular;font-size:11.34pt;">UE&#45;Based fix</text>
<text text-anchor="middle" x="861" y="-484" style="font-family:Nimbus Sans L;font-weight:regular;font-size:11.34pt;">(Futile)/</text>
<text text-anchor="middle" x="861" y="-468" style="font-family:Nimbus Sans L;font-weight:regular;font-size:11.34pt;">Stop UE&#45;Based Positioning,</text>
<text text-anchor="middle" x="861" y="-452" style="font-family:Nimbus Sans L;font-weight:regular;font-size:11.34pt;">Send M.R.(RefPos)</text>
<text text-anchor="middle" x="861" y="-436" style="font-family:Nimbus Sans L;font-weight:regular;font-size:11.34pt;">(confidence=100)</text>
</g>
<!-- Waiting_Facility_UEBasedCont -->
<g id="node10" class="node"><title>Waiting_Facility_UEBasedCont</title>
<polygon style="fill:greenyellow;stroke:greenyellow;" points="406,-261 184,-261 172,-249 172,-227 184,-215 406,-215 418,-227 418,-249 406,-261"/>
<path style="fill:greenyellow;stroke:greenyellow;" d="M184,-261C178,-261 172,-255 172,-249"/>
<path style="fill:greenyellow;stroke:greenyellow;" d="M172,-227C172,-221 178,-215 184,-215"/>
<path style="fill:greenyellow;stroke:greenyellow;" d="M406,-215C412,-215 418,-221 418,-227"/>
<path style="fill:greenyellow;stroke:greenyellow;" d="M418,-249C418,-255 412,-261 406,-261"/>
<polyline style="fill:none;stroke:greenyellow;" points="406,-261 184,-261 "/>
<path style="fill:none;stroke:greenyellow;" d="M184,-261C178,-261 172,-255 172,-249"/>
<polyline style="fill:none;stroke:greenyellow;" points="172,-249 172,-227 "/>
<path style="fill:none;stroke:greenyellow;" d="M172,-227C172,-221 178,-215 184,-215"/>
<polyline style="fill:none;stroke:greenyellow;" points="184,-215 406,-215 "/>
<path style="fill:none;stroke:greenyellow;" d="M406,-215C412,-215 418,-221 418,-227"/>
<polyline style="fill:none;stroke:greenyellow;" points="418,-227 418,-249 "/>
<path style="fill:none;stroke:greenyellow;" d="M418,-249C418,-255 412,-261 406,-261"/>
<text text-anchor="middle" x="295" y="-241" style="font-family:Nimbus Sans L;font-weight:bold;font-size:12.96pt;">Waiting for Facility</text>
<text text-anchor="middle" x="295" y="-222" style="font-family:Nimbus Sans L;font-weight:bold;font-size:12.96pt;">(UE&#45;Based positioning continue)</text>
</g>
<!-- UE_Assisted&#45;&gt;Waiting_Facility_UEBasedCont -->
<g id="edge18" class="edge"><title>UE_Assisted&#45;&gt;Waiting_Facility_UEBasedCont</title>
<path style="fill:none;stroke:red;" d="M574,-583C553,-534 500,-418 427,-344 381,-297 304,-326 296,-271"/>
<polygon style="fill:red;stroke:red;" points="299.478,-270.602 295,-261 292.512,-271.299 299.478,-270.602"/>
<a xlink:title="Receive M.C.(Release)">
</a>
<text text-anchor="middle" x="300" y="-264" style="font-family:Nimbus Sans L;font-weight:regular;font-size:12.96pt;fill:red;">Receive M.C.(Release)</text>
</g>
<!-- Waiting_MC_UEBasedCont&#45;&gt;Waiting_MC_UEBasedStop -->
<g id="edge26" class="edge"><title>Waiting_MC_UEBasedCont&#45;&gt;Waiting_MC_UEBasedStop</title>
<path style="fill:none;stroke:black;" d="M419,-348C422,-347 425,-347 428,-347 567,-336 605,-336 747,-347"/>
<polygon style="fill:black;stroke:black;" points="746.701,-350.488 757,-348 747.398,-343.522 746.701,-350.488"/>
<a xlink:title="UE&#45;Based fix accuracy too low/Stop UE&#45;Based Pos.">
</a>
<a xlink:title="UE&#45;Based fix accuracy too low/Stop UE&#45;Based Pos.">
</a>
<text text-anchor="middle" x="588" y="-349" style="font-family:Nimbus Sans L;font-weight:regular;font-size:11.34pt;">UE&#45;Based fix accuracy too low/Stop UE&#45;Based Pos.</text>
</g>
<!-- Waiting_MC_UEBasedCont&#45;&gt;Waiting_MC_UEBasedStop -->
<g id="edge28" class="edge"><title>Waiting_MC_UEBasedCont&#45;&gt;Waiting_MC_UEBasedStop</title>
<path style="fill:none;stroke:black;" d="M419,-367C515,-367 648,-367 747,-367"/>
<polygon style="fill:black;stroke:black;" points="747,-370.5 757,-367 747,-363.5 747,-370.5"/>
<a xlink:title="UE&#45;Based success/Stop UE&#45;Based Pos.,\nComplete User request(UE Based result)\n">
</a>
<a xlink:title="UE&#45;Based success/Stop UE&#45;Based Pos.,\nComplete User request(UE Based result)\n">
</a>
<text text-anchor="middle" x="588" y="-377" style="font-family:Nimbus Sans L;font-weight:regular;font-size:11.34pt;">UE&#45;Based success/Stop UE&#45;Based Pos.,</text>
<text text-anchor="middle" x="588" y="-361" style="font-family:Nimbus Sans L;font-weight:regular;font-size:11.34pt;">Complete User request(UE Based result)</text>
</g>
<!-- Waiting_MC_UEBasedCont&#45;&gt;Waiting_Facility_UEBasedCont -->
<g id="edge30" class="edge"><title>Waiting_MC_UEBasedCont&#45;&gt;Waiting_Facility_UEBasedCont</title>
<path style="fill:none;stroke:black;" d="M295,-344C295,-311 295,-299 295,-271"/>
<polygon style="fill:black;stroke:black;" points="298.5,-271 295,-261 291.5,-271 298.5,-271"/>
</g>
<!-- End -->
<g id="node13" class="node"><title>End</title>
<polygon style="fill:greenyellow;stroke:greenyellow;" points="742,-101.5 544,-101.5 532,-89.5 532,-48.5 544,-36.5 742,-36.5 754,-48.5 754,-89.5 742,-101.5"/>
<path style="fill:greenyellow;stroke:greenyellow;" d="M544,-101.5C538,-101.5 532,-95.5 532,-89.5"/>
<path style="fill:greenyellow;stroke:greenyellow;" d="M532,-48.5C532,-42.5 538,-36.5 544,-36.5"/>
<path style="fill:greenyellow;stroke:greenyellow;" d="M742,-36.5C748,-36.5 754,-42.5 754,-48.5"/>
<path style="fill:greenyellow;stroke:greenyellow;" d="M754,-89.5C754,-95.5 748,-101.5 742,-101.5"/>
<polyline style="fill:none;stroke:greenyellow;" points="742,-101.5 544,-101.5 "/>
<path style="fill:none;stroke:greenyellow;" d="M544,-101.5C538,-101.5 532,-95.5 532,-89.5"/>
<polyline style="fill:none;stroke:greenyellow;" points="532,-89.5 532,-48.5 "/>
<path style="fill:none;stroke:greenyellow;" d="M532,-48.5C532,-42.5 538,-36.5 544,-36.5"/>
<polyline style="fill:none;stroke:greenyellow;" points="544,-36.5 742,-36.5 "/>
<path style="fill:none;stroke:greenyellow;" d="M742,-36.5C748,-36.5 754,-42.5 754,-48.5"/>
<polyline style="fill:none;stroke:greenyellow;" points="754,-48.5 754,-89.5 "/>
<path style="fill:none;stroke:greenyellow;" d="M754,-89.5C754,-95.5 748,-101.5 742,-101.5"/>
<text text-anchor="middle" x="643" y="-82" style="font-family:Nimbus Sans L;font-weight:bold;font-size:12.96pt;">Positioning Ends</text>
<text text-anchor="middle" x="643" y="-63" style="font-family:Nimbus Sans L;font-weight:bold;font-size:12.96pt;">Complete User Request</text>
<text text-anchor="middle" x="643" y="-44" style="font-family:Nimbus Sans L;font-weight:bold;font-size:12.96pt;">For no UE&#45;Based positioning</text>
</g>
<!-- Waiting_MC_UEBasedCont&#45;&gt;End -->
<g id="edge32" class="edge"><title>Waiting_MC_UEBasedCont&#45;&gt;End</title>
<path style="fill:none;stroke:black;" d="M171,-344C117,-290 58,-334 17,-270 2,-245 0,-228 17,-206 87,-115 395,-71 522,-69"/>
<polygon style="fill:black;stroke:black;" points="522,-72.5001 532,-69 522,-65.5001 522,-72.5001"/>
<a xlink:title="M.C. wait timer expired/\nStop UE&#45;Based\nSend M.R.\n(undefined Error)">
</a>
<a xlink:title="M.C. wait timer expired/\nStop UE&#45;Based\nSend M.R.\n(undefined Error)">
</a>
<text text-anchor="middle" x="93" y="-256" style="font-family:Nimbus Sans L;font-weight:regular;font-size:11.34pt;">M.C. wait timer expired/</text>
<text text-anchor="middle" x="93" y="-240" style="font-family:Nimbus Sans L;font-weight:regular;font-size:11.34pt;">Stop UE&#45;Based</text>
<text text-anchor="middle" x="93" y="-224" style="font-family:Nimbus Sans L;font-weight:regular;font-size:11.34pt;">Send M.R.</text>
<text text-anchor="middle" x="93" y="-208" style="font-family:Nimbus Sans L;font-weight:regular;font-size:11.34pt;">(undefined Error)</text>
</g>
<!-- Waiting_Facility_UEBasedStop -->
<g id="node11" class="node"><title>Waiting_Facility_UEBasedStop</title>
<polygon style="fill:greenyellow;stroke:greenyellow;" points="1179,-261 957,-261 945,-249 945,-227 957,-215 1179,-215 1191,-227 1191,-249 1179,-261"/>
<path style="fill:greenyellow;stroke:greenyellow;" d="M957,-261C951,-261 945,-255 945,-249"/>
<path style="fill:greenyellow;stroke:greenyellow;" d="M945,-227C945,-221 951,-215 957,-215"/>
<path style="fill:greenyellow;stroke:greenyellow;" d="M1179,-215C1185,-215 1191,-221 1191,-227"/>
<path style="fill:greenyellow;stroke:greenyellow;" d="M1191,-249C1191,-255 1185,-261 1179,-261"/>
<polyline style="fill:none;stroke:greenyellow;" points="1179,-261 957,-261 "/>
<path style="fill:none;stroke:greenyellow;" d="M957,-261C951,-261 945,-255 945,-249"/>
<polyline style="fill:none;stroke:greenyellow;" points="945,-249 945,-227 "/>
<path style="fill:none;stroke:greenyellow;" d="M945,-227C945,-221 951,-215 957,-215"/>
<polyline style="fill:none;stroke:greenyellow;" points="957,-215 1179,-215 "/>
<path style="fill:none;stroke:greenyellow;" d="M1179,-215C1185,-215 1191,-221 1191,-227"/>
<polyline style="fill:none;stroke:greenyellow;" points="1191,-227 1191,-249 "/>
<path style="fill:none;stroke:greenyellow;" d="M1191,-249C1191,-255 1185,-261 1179,-261"/>
<text text-anchor="middle" x="1068" y="-241" style="font-family:Nimbus Sans L;font-weight:bold;font-size:12.96pt;">Waiting for Facility</text>
<text text-anchor="middle" x="1068" y="-222" style="font-family:Nimbus Sans L;font-weight:bold;font-size:12.96pt;">(UE&#45;Based positioning Stopped)</text>
</g>
<!-- Waiting_MC_UEBasedStop&#45;&gt;Waiting_Facility_UEBasedStop -->
<g id="edge34" class="edge"><title>Waiting_MC_UEBasedStop&#45;&gt;Waiting_Facility_UEBasedStop</title>
<path style="fill:none;stroke:black;" d="M990,-344C1028,-330 1062,-307 1067,-271"/>
<polygon style="fill:black;stroke:black;" points="1070.49,-271.299 1068,-261 1063.52,-270.602 1070.49,-271.299"/>
<a xlink:title="Receive M.C.(Release)">
</a>
<text text-anchor="middle" x="1071" y="-264" style="font-family:Nimbus Sans L;font-weight:regular;font-size:11.34pt;">Receive M.C.(Release)</text>
</g>
<!-- Waiting_MC_UEBasedStop&#45;&gt;End -->
<g id="edge36" class="edge"><title>Waiting_MC_UEBasedStop&#45;&gt;End</title>
<path style="fill:none;stroke:black;" d="M1003,-367C1137,-367 1287,-239 1200,-138 1169,-101 841,-72 764,-69"/>
<polygon style="fill:black;stroke:black;" points="764,-65.5001 754,-69 764,-72.5001 764,-65.5001"/>
<a xlink:title="M.C. wait timer expired/\nSend M.R.\n(undefined Error)">
</a>
<a xlink:title="M.C. wait timer expired/\nSend M.R.\n(undefined Error)">
</a>
<text text-anchor="middle" x="1297" y="-248" style="font-family:Nimbus Sans L;font-weight:regular;font-size:11.34pt;">M.C. wait timer expired/</text>
<text text-anchor="middle" x="1297" y="-232" style="font-family:Nimbus Sans L;font-weight:regular;font-size:11.34pt;">Send M.R.</text>
<text text-anchor="middle" x="1297" y="-216" style="font-family:Nimbus Sans L;font-weight:regular;font-size:11.34pt;">(undefined Error)</text>
</g>
<!-- Waiting_Facility_UEBasedCont&#45;&gt;Waiting_Facility_UEBasedStop -->
<g id="edge38" class="edge"><title>Waiting_Facility_UEBasedCont&#45;&gt;Waiting_Facility_UEBasedStop</title>
<path style="fill:none;stroke:black;" d="M419,-225C452,-222 487,-219 520,-218 664,-211 701,-211 844,-218 874,-219 905,-221 935,-224"/>
<polygon style="fill:black;stroke:black;" points="934.701,-227.488 945,-225 935.398,-220.522 934.701,-227.488"/>
<a xlink:title="UE&#45;Based fix accuracy too low/ Stop UE&#45;Based Pos.">
</a>
<a xlink:title="UE&#45;Based fix accuracy too low/ Stop UE&#45;Based Pos.">
</a>
<text text-anchor="middle" x="682" y="-220" style="font-family:Nimbus Sans L;font-weight:regular;font-size:11.34pt;">UE&#45;Based fix accuracy too low/ Stop UE&#45;Based Pos.</text>
</g>
<!-- Waiting_Facility_UEBasedCont&#45;&gt;Waiting_Facility_UEBasedStop -->
<g id="edge40" class="edge"><title>Waiting_Facility_UEBasedCont&#45;&gt;Waiting_Facility_UEBasedStop</title>
<path style="fill:none;stroke:black;" d="M419,-238C560,-238 790,-238 935,-238"/>
<polygon style="fill:black;stroke:black;" points="935,-241.5 945,-238 935,-234.5 935,-241.5"/>
<a xlink:title="UE&#45;Based success/Stop UE&#45;Based Pos., Complete User request(UE Based result)">
</a>
<a xlink:title="UE&#45;Based success/Stop UE&#45;Based Pos., Complete User request(UE Based result)">
</a>
<text text-anchor="middle" x="682" y="-240" style="font-family:Nimbus Sans L;font-weight:regular;font-size:11.34pt;">UE&#45;Based success/Stop UE&#45;Based Pos., Complete User request(UE Based result)</text>
</g>
<!-- Waiting_Facility_UEBasedCont&#45;&gt;End -->
<g id="edge42" class="edge"><title>Waiting_Facility_UEBasedCont&#45;&gt;End</title>
<path style="fill:none;stroke:red;" d="M294,-214C294,-93 402,-70 522,-69"/>
<polygon style="fill:red;stroke:red;" points="522,-72.5001 532,-69 522,-65.5001 522,-72.5001"/>
<a xlink:title="\n\n\nFacility wait timer expired/\nStop UE&#45;Based Positioning">
</a>
<text text-anchor="middle" x="291" y="-180" style="font-family:Nimbus Sans L;font-weight:regular;font-size:12.96pt;fill:red;">Facility wait timer expired/</text>
<text text-anchor="middle" x="291" y="-161" style="font-family:Nimbus Sans L;font-weight:regular;font-size:12.96pt;fill:red;">Stop UE&#45;Based Positioning</text>
</g>
<!-- Waiting_Facility_UEBasedCont&#45;&gt;End -->
<g id="edge44" class="edge"><title>Waiting_Facility_UEBasedCont&#45;&gt;End</title>
<path style="fill:none;stroke:black;" d="M418,-238C504,-238 446,-83 522,-70"/>
<polygon style="fill:black;stroke:black;" points="522.398,-73.4778 532,-69 521.701,-66.5125 522.398,-73.4778"/>
<a xlink:title="Recv Facility/\nStop UE&#45;Based Positioning">
</a>
<a xlink:title="Recv Facility/\nStop UE&#45;Based Positioning">
</a>
<text text-anchor="middle" x="559" y="-156" style="font-family:Nimbus Sans L;font-weight:regular;font-size:11.34pt;">Recv Facility/</text>
<text text-anchor="middle" x="559" y="-140" style="font-family:Nimbus Sans L;font-weight:regular;font-size:11.34pt;">Stop UE&#45;Based Positioning</text>
</g>
<!-- Waiting_Facility_UEBasedStop&#45;&gt;End -->
<g id="edge46" class="edge"><title>Waiting_Facility_UEBasedStop&#45;&gt;End</title>
<path style="fill:none;stroke:black;" d="M944,-214C918,-188 904,-191 875,-170 821,-130 824,-75 764,-69"/>
<polygon style="fill:black;stroke:black;" points="764,-65.5001 754,-69 764,-72.5001 764,-65.5001"/>
<a xlink:title="Recv Facility">
</a>
<a xlink:title="Recv Facility">
</a>
<text text-anchor="middle" x="914" y="-148" style="font-family:Nimbus Sans L;font-weight:regular;font-size:11.34pt;">Recv Facility</text>
</g>
<!-- Waiting_Facility_UEBasedStop&#45;&gt;End -->
<g id="edge48" class="edge"><title>Waiting_Facility_UEBasedStop&#45;&gt;End</title>
<path style="fill:none;stroke:black;" d="M1067,-214C1067,-138 823,-78 764,-70"/>
<polygon style="fill:black;stroke:black;" points="764.299,-66.5125 754,-69 763.602,-73.4778 764.299,-66.5125"/>
<a xlink:title="Facility wait timer expired">
</a>
<a xlink:title="Facility wait timer expired">
</a>
<text text-anchor="middle" x="1118" y="-148" style="font-family:Nimbus Sans L;font-weight:regular;font-size:11.34pt;">Facility wait timer expired</text>
</g>
</g>
</svg>
