<?xml version="1.0" encoding="UTF-8" standalone="no"?>
<!DOCTYPE svg PUBLIC "-//W3C//DTD SVG 1.0//EN"
 "http://www.w3.org/TR/2001/REC-SVG-20010904/DTD/svg10.dtd" [
 <!ATTLIST svg xmlns:xlink CDATA #FIXED "http://www.w3.org/1999/xlink">
]>
<!-- Generated by Graphviz version 2.12 (Mon Dec  4 22:04:37 UTC 2006)
     For user: Bill Gates -->
<!-- Title: finite_state_machine Pages: 1 -->
<svg width="8.00in" height="6.17in"
 xmlns="http://www.w3.org/2000/svg" xmlns:xlink="http://www.w3.org/1999/xlink">
<g id="graph0" class="graph" transform="scale(0.614892 0.614892) rotate(0) translate(4 959)">
<title>finite_state_machine</title>
<polygon style="fill:white;stroke:white;" points="-4,4 -4,-959 1245,-959 1245,4 -4,4"/>
<text text-anchor="middle" x="620" y="-36" style="font-family:Nimbus Roman No9 L;font-weight:medium;font-size:19.44pt;">MOLR User Completes after receiving Ref. Pos.</text>
<text text-anchor="middle" x="620" y="-8" style="font-family:Nimbus Roman No9 L;font-weight:medium;font-size:19.44pt;">other transitions ommited for clarity</text>
<!-- Idle -->
<g id="node2" class="node"><title>Idle</title>
<polygon style="fill:greenyellow;stroke:greenyellow;" points="42,-917 12,-917 2.13163e-014,-905 1.42109e-014,-893 12,-881 42,-881 54,-893 54,-905 42,-917"/>
<path style="fill:greenyellow;stroke:greenyellow;" d="M12,-917C6,-917 2.4869e-014,-911 2.13163e-014,-905"/>
<path style="fill:greenyellow;stroke:greenyellow;" d="M1.42109e-014,-893C1.06581e-014,-887 6,-881 12,-881"/>
<path style="fill:greenyellow;stroke:greenyellow;" d="M42,-881C48,-881 54,-887 54,-893"/>
<path style="fill:greenyellow;stroke:greenyellow;" d="M54,-905C54,-911 48,-917 42,-917"/>
<polyline style="fill:none;stroke:greenyellow;" points="42,-917 12,-917 "/>
<path style="fill:none;stroke:greenyellow;" d="M12,-917C6,-917 2.4869e-014,-911 2.13163e-014,-905"/>
<polyline style="fill:none;stroke:greenyellow;" points="2.13163e-014,-905 1.42109e-014,-893 "/>
<path style="fill:none;stroke:greenyellow;" d="M1.42109e-014,-893C1.06581e-014,-887 6,-881 12,-881"/>
<polyline style="fill:none;stroke:greenyellow;" points="12,-881 42,-881 "/>
<path style="fill:none;stroke:greenyellow;" d="M42,-881C48,-881 54,-887 54,-893"/>
<polyline style="fill:none;stroke:greenyellow;" points="54,-893 54,-905 "/>
<path style="fill:none;stroke:greenyellow;" d="M54,-905C54,-911 48,-917 42,-917"/>
<text text-anchor="middle" x="27" y="-893" style="font-family:Nimbus Sans L;font-weight:bold;font-size:12.96pt;">Idle</text>
</g>
<!-- Autonomous -->
<g id="node3" class="node"><title>Autonomous</title>
<polygon style="fill:greenyellow;stroke:greenyellow;" points="440,-922 294,-922 282,-910 282,-888 294,-876 440,-876 452,-888 452,-910 440,-922"/>
<path style="fill:greenyellow;stroke:greenyellow;" d="M294,-922C288,-922 282,-916 282,-910"/>
<path style="fill:greenyellow;stroke:greenyellow;" d="M282,-888C282,-882 288,-876 294,-876"/>
<path style="fill:greenyellow;stroke:greenyellow;" d="M440,-876C446,-876 452,-882 452,-888"/>
<path style="fill:greenyellow;stroke:greenyellow;" d="M452,-910C452,-916 446,-922 440,-922"/>
<polyline style="fill:none;stroke:greenyellow;" points="440,-922 294,-922 "/>
<path style="fill:none;stroke:greenyellow;" d="M294,-922C288,-922 282,-916 282,-910"/>
<polyline style="fill:none;stroke:greenyellow;" points="282,-910 282,-888 "/>
<path style="fill:none;stroke:greenyellow;" d="M282,-888C282,-882 288,-876 294,-876"/>
<polyline style="fill:none;stroke:greenyellow;" points="294,-876 440,-876 "/>
<path style="fill:none;stroke:greenyellow;" d="M440,-876C446,-876 452,-882 452,-888"/>
<polyline style="fill:none;stroke:greenyellow;" points="452,-888 452,-910 "/>
<path style="fill:none;stroke:greenyellow;" d="M452,-910C452,-916 446,-922 440,-922"/>
<text text-anchor="middle" x="367" y="-902" style="font-family:Nimbus Sans L;font-weight:bold;font-size:12.96pt;">Autonomous</text>
<text text-anchor="middle" x="367" y="-883" style="font-family:Nimbus Sans L;font-weight:bold;font-size:12.96pt;">UE&#45;Based positioning</text>
</g>
<!-- Idle&#45;&gt;Autonomous -->
<g id="edge6" class="edge"><title>Idle&#45;&gt;Autonomous</title>
<path style="fill:none;stroke:red;" d="M54,-899C101,-899 198,-899 271,-899"/>
<polygon style="fill:red;stroke:red;" points="271,-902.5 281,-899 271,-895.5 271,-902.5"/>
<a xlink:title="User starts Location check\nStart Autonomous positioning\nStart LcsMOLR">
</a>
<a xlink:title="User starts Location check\nStart Autonomous positioning\nStart LcsMOLR">
</a>
<text text-anchor="middle" x="168" y="-940" style="font-family:Nimbus Sans L;font-weight:regular;font-size:12.96pt;fill:red;">User starts Location check</text>
<text text-anchor="middle" x="168" y="-921" style="font-family:Nimbus Sans L;font-weight:regular;font-size:12.96pt;fill:red;">Start Autonomous positioning</text>
<text text-anchor="middle" x="168" y="-902" style="font-family:Nimbus Sans L;font-weight:regular;font-size:12.96pt;fill:red;">Start LcsMOLR</text>
</g>
<!-- UE_Based -->
<g id="node4" class="node"><title>UE_Based</title>
<polygon style="fill:greenyellow;stroke:greenyellow;" points="795,-772 565,-772 553,-760 553,-738 565,-726 795,-726 807,-738 807,-760 795,-772"/>
<path style="fill:greenyellow;stroke:greenyellow;" d="M565,-772C559,-772 553,-766 553,-760"/>
<path style="fill:greenyellow;stroke:greenyellow;" d="M553,-738C553,-732 559,-726 565,-726"/>
<path style="fill:greenyellow;stroke:greenyellow;" d="M795,-726C801,-726 807,-732 807,-738"/>
<path style="fill:greenyellow;stroke:greenyellow;" d="M807,-760C807,-766 801,-772 795,-772"/>
<polyline style="fill:none;stroke:greenyellow;" points="795,-772 565,-772 "/>
<path style="fill:none;stroke:greenyellow;" d="M565,-772C559,-772 553,-766 553,-760"/>
<polyline style="fill:none;stroke:greenyellow;" points="553,-760 553,-738 "/>
<path style="fill:none;stroke:greenyellow;" d="M553,-738C553,-732 559,-726 565,-726"/>
<polyline style="fill:none;stroke:greenyellow;" points="565,-726 795,-726 "/>
<path style="fill:none;stroke:greenyellow;" d="M795,-726C801,-726 807,-732 807,-738"/>
<polyline style="fill:none;stroke:greenyellow;" points="807,-738 807,-760 "/>
<path style="fill:none;stroke:greenyellow;" d="M807,-760C807,-766 801,-772 795,-772"/>
<text text-anchor="middle" x="680" y="-752" style="font-family:Nimbus Sans L;font-weight:bold;font-size:12.96pt;">Performing UE&#45;Based positioning</text>
<text text-anchor="middle" x="680" y="-733" style="font-family:Nimbus Sans L;font-weight:bold;font-size:12.96pt;">under Hybrid Positioning</text>
</g>
<!-- Autonomous&#45;&gt;UE_Based -->
<g id="edge8" class="edge"><title>Autonomous&#45;&gt;UE_Based</title>
<path style="fill:none;stroke:black;" d="M415,-876C471,-849 563,-805 623,-776"/>
<polygon style="fill:black;stroke:black;" points="624.283,-779.26 632,-772 621.44,-772.863 624.283,-779.26"/>
<a xlink:title="Receives M.C.(Setup)\nStart a2,a4 timer">
</a>
<a xlink:title="Receives M.C.(Setup)\nStart a2,a4 timer">
</a>
<text text-anchor="middle" x="619" y="-826" style="font-family:Nimbus Sans L;font-weight:regular;font-size:11.34pt;">Receives M.C.(Setup)</text>
<text text-anchor="middle" x="619" y="-810" style="font-family:Nimbus Sans L;font-weight:regular;font-size:11.34pt;">Start a2,a4 timer</text>
</g>
<!-- End -->
<g id="node13" class="node"><title>End</title>
<polygon style="fill:greenyellow;stroke:greenyellow;" points="691,-100 579,-100 567,-88 567,-76 579,-64 691,-64 703,-76 703,-88 691,-100"/>
<path style="fill:greenyellow;stroke:greenyellow;" d="M579,-100C573,-100 567,-94 567,-88"/>
<path style="fill:greenyellow;stroke:greenyellow;" d="M567,-76C567,-70 573,-64 579,-64"/>
<path style="fill:greenyellow;stroke:greenyellow;" d="M691,-64C697,-64 703,-70 703,-76"/>
<path style="fill:greenyellow;stroke:greenyellow;" d="M703,-88C703,-94 697,-100 691,-100"/>
<polyline style="fill:none;stroke:greenyellow;" points="691,-100 579,-100 "/>
<path style="fill:none;stroke:greenyellow;" d="M579,-100C573,-100 567,-94 567,-88"/>
<polyline style="fill:none;stroke:greenyellow;" points="567,-88 567,-76 "/>
<path style="fill:none;stroke:greenyellow;" d="M567,-76C567,-70 573,-64 579,-64"/>
<polyline style="fill:none;stroke:greenyellow;" points="579,-64 691,-64 "/>
<path style="fill:none;stroke:greenyellow;" d="M691,-64C697,-64 703,-70 703,-76"/>
<polyline style="fill:none;stroke:greenyellow;" points="703,-76 703,-88 "/>
<path style="fill:none;stroke:greenyellow;" d="M703,-88C703,-94 697,-100 691,-100"/>
<text text-anchor="middle" x="635" y="-76" style="font-family:Nimbus Sans L;font-weight:bold;font-size:12.96pt;">Positioning Ends</text>
</g>
<!-- Autonomous&#45;&gt;End -->
<g id="edge10" class="edge"><title>Autonomous&#45;&gt;End</title>
<path style="fill:none;stroke:black;" d="M333,-876C299,-850 251,-803 251,-749 251,-749 251,-749 250,-227 250,-152 470,-87 557,-82"/>
<polygon style="fill:black;stroke:black;" points="557,-85.5001 567,-82 557,-78.5001 557,-85.5001"/>
<a xlink:title="\n\n\n\n\n\nPartial Update\nAND User Complete/\nStop UE&#45;Based Positioning\nComplete User request">
</a>
<text text-anchor="middle" x="323" y="-844" style="font-family:Nimbus Sans L;font-weight:regular;font-size:11.34pt;">Partial Update</text>
<text text-anchor="middle" x="323" y="-828" style="font-family:Nimbus Sans L;font-weight:regular;font-size:11.34pt;">AND User Complete/</text>
<text text-anchor="middle" x="323" y="-812" style="font-family:Nimbus Sans L;font-weight:regular;font-size:11.34pt;">Stop UE&#45;Based Positioning</text>
<text text-anchor="middle" x="323" y="-796" style="font-family:Nimbus Sans L;font-weight:regular;font-size:11.34pt;">Complete User request</text>
</g>
<!-- UE_Assisted -->
<g id="node5" class="node"><title>UE_Assisted</title>
<polygon style="fill:greenyellow;stroke:greenyellow;" points="676,-627 430,-627 418,-615 418,-593 430,-581 676,-581 688,-593 688,-615 676,-627"/>
<path style="fill:greenyellow;stroke:greenyellow;" d="M430,-627C424,-627 418,-621 418,-615"/>
<path style="fill:greenyellow;stroke:greenyellow;" d="M418,-593C418,-587 424,-581 430,-581"/>
<path style="fill:greenyellow;stroke:greenyellow;" d="M676,-581C682,-581 688,-587 688,-593"/>
<path style="fill:greenyellow;stroke:greenyellow;" d="M688,-615C688,-621 682,-627 676,-627"/>
<polyline style="fill:none;stroke:greenyellow;" points="676,-627 430,-627 "/>
<path style="fill:none;stroke:greenyellow;" d="M430,-627C424,-627 418,-621 418,-615"/>
<polyline style="fill:none;stroke:greenyellow;" points="418,-615 418,-593 "/>
<path style="fill:none;stroke:greenyellow;" d="M418,-593C418,-587 424,-581 430,-581"/>
<polyline style="fill:none;stroke:greenyellow;" points="430,-581 676,-581 "/>
<path style="fill:none;stroke:greenyellow;" d="M676,-581C682,-581 688,-587 688,-593"/>
<polyline style="fill:none;stroke:greenyellow;" points="688,-593 688,-615 "/>
<path style="fill:none;stroke:greenyellow;" d="M688,-615C688,-621 682,-627 676,-627"/>
<text text-anchor="middle" x="553" y="-607" style="font-family:Nimbus Sans L;font-weight:bold;font-size:12.96pt;">Performing UE&#45;Assisted positioning</text>
<text text-anchor="middle" x="553" y="-588" style="font-family:Nimbus Sans L;font-weight:bold;font-size:12.96pt;">(UE&#45;Based positioning continue)</text>
</g>
<!-- UE_Based&#45;&gt;UE_Assisted -->
<g id="edge12" class="edge"><title>UE_Based&#45;&gt;UE_Assisted</title>
<path style="fill:none;stroke:black;" d="M553,-726C530,-703 534,-665 541,-637"/>
<polygon style="fill:black;stroke:black;" points="544.479,-637.584 544,-627 537.774,-635.573 544.479,-637.584"/>
<a xlink:title="\n\n\n\n\nTimer a2 expired/\nSend M.R\nReceive M.C.\n(Modify,Reporting Interval=t)\nStart up Timer t">
</a>
<text text-anchor="middle" x="544" y="-708" style="font-family:Nimbus Sans L;font-weight:regular;font-size:11.34pt;">Timer a2 expired/</text>
<text text-anchor="middle" x="544" y="-692" style="font-family:Nimbus Sans L;font-weight:regular;font-size:11.34pt;">Send M.R</text>
<text text-anchor="middle" x="544" y="-676" style="font-family:Nimbus Sans L;font-weight:regular;font-size:11.34pt;">Receive M.C.</text>
<text text-anchor="middle" x="544" y="-660" style="font-family:Nimbus Sans L;font-weight:regular;font-size:11.34pt;">(Modify,Reporting Interval=t)</text>
<text text-anchor="middle" x="544" y="-644" style="font-family:Nimbus Sans L;font-weight:regular;font-size:11.34pt;">Start up Timer t</text>
</g>
<!-- Waiting_MC_UEBasedStop -->
<g id="node8" class="node"><title>Waiting_MC_UEBasedStop</title>
<polygon style="fill:greenyellow;stroke:greenyellow;" points="979,-372 757,-372 745,-360 745,-338 757,-326 979,-326 991,-338 991,-360 979,-372"/>
<path style="fill:greenyellow;stroke:greenyellow;" d="M757,-372C751,-372 745,-366 745,-360"/>
<path style="fill:greenyellow;stroke:greenyellow;" d="M745,-338C745,-332 751,-326 757,-326"/>
<path style="fill:greenyellow;stroke:greenyellow;" d="M979,-326C985,-326 991,-332 991,-338"/>
<path style="fill:greenyellow;stroke:greenyellow;" d="M991,-360C991,-366 985,-372 979,-372"/>
<polyline style="fill:none;stroke:greenyellow;" points="979,-372 757,-372 "/>
<path style="fill:none;stroke:greenyellow;" d="M757,-372C751,-372 745,-366 745,-360"/>
<polyline style="fill:none;stroke:greenyellow;" points="745,-360 745,-338 "/>
<path style="fill:none;stroke:greenyellow;" d="M745,-338C745,-332 751,-326 757,-326"/>
<polyline style="fill:none;stroke:greenyellow;" points="757,-326 979,-326 "/>
<path style="fill:none;stroke:greenyellow;" d="M979,-326C985,-326 991,-332 991,-338"/>
<polyline style="fill:none;stroke:greenyellow;" points="991,-338 991,-360 "/>
<path style="fill:none;stroke:greenyellow;" d="M991,-360C991,-366 985,-372 979,-372"/>
<text text-anchor="middle" x="868" y="-352" style="font-family:Nimbus Sans L;font-weight:bold;font-size:12.96pt;">Waiting for M.C.(Release)</text>
<text text-anchor="middle" x="868" y="-333" style="font-family:Nimbus Sans L;font-weight:bold;font-size:12.96pt;">(UE&#45;Based positioning Stopped)</text>
</g>
<!-- UE_Based&#45;&gt;Waiting_MC_UEBasedStop -->
<g id="edge14" class="edge"><title>UE_Based&#45;&gt;Waiting_MC_UEBasedStop</title>
<path style="fill:none;stroke:red;" d="M721,-726C783,-691 899,-617 959,-520 997,-457 1061,-359 1001,-350"/>
<polygon style="fill:red;stroke:red;" points="1001.3,-346.512 991,-349 1000.6,-353.478 1001.3,-346.512"/>
<a xlink:title="Ref Pos\nAND User Complete/\nStop UE&#45;Based Positioning\nSend M.R.(RefPos)\n(confidence=0)">
</a>
<a xlink:title="Ref Pos\nAND User Complete/\nStop UE&#45;Based Positioning\nSend M.R.(RefPos)\n(confidence=0)">
</a>
<text text-anchor="middle" x="1026" y="-636" style="font-family:Nimbus Sans L;font-weight:regular;font-size:12.96pt;fill:red;">Ref Pos</text>
<text text-anchor="middle" x="1026" y="-617" style="font-family:Nimbus Sans L;font-weight:regular;font-size:12.96pt;fill:red;">AND User Complete/</text>
<text text-anchor="middle" x="1026" y="-598" style="font-family:Nimbus Sans L;font-weight:regular;font-size:12.96pt;fill:red;">Stop UE&#45;Based Positioning</text>
<text text-anchor="middle" x="1026" y="-579" style="font-family:Nimbus Sans L;font-weight:regular;font-size:12.96pt;fill:red;">Send M.R.(RefPos)</text>
<text text-anchor="middle" x="1026" y="-560" style="font-family:Nimbus Sans L;font-weight:regular;font-size:12.96pt;fill:red;">(confidence=0)</text>
</g>
<!-- UE_Assisted&#45;&gt;UE_Assisted -->
<g id="edge16" class="edge"><title>UE_Assisted&#45;&gt;UE_Assisted</title>
<path style="fill:none;stroke:black;" d="M509,-627C458,-643 400,-633 400,-592 400,-544 410,-539 416,-571"/>
<polygon style="fill:black;stroke:black;" points="412.607,-571.881 418,-581 419.471,-570.508 412.607,-571.881"/>
<a xlink:title="\n\n\nTimer t expired/\nSend M.R,\nrestart timer t">
</a>
<text text-anchor="middle" x="412" y="-559" style="font-family:Nimbus Sans L;font-weight:regular;font-size:11.34pt;">Timer t expired/</text>
<text text-anchor="middle" x="412" y="-543" style="font-family:Nimbus Sans L;font-weight:regular;font-size:11.34pt;">Send M.R,</text>
<text text-anchor="middle" x="412" y="-527" style="font-family:Nimbus Sans L;font-weight:regular;font-size:11.34pt;">restart timer t</text>
</g>
<!-- Waiting_MC_UEBasedCont -->
<g id="node7" class="node"><title>Waiting_MC_UEBasedCont</title>
<polygon style="fill:greenyellow;stroke:greenyellow;" points="513,-372 291,-372 279,-360 279,-338 291,-326 513,-326 525,-338 525,-360 513,-372"/>
<path style="fill:greenyellow;stroke:greenyellow;" d="M291,-372C285,-372 279,-366 279,-360"/>
<path style="fill:greenyellow;stroke:greenyellow;" d="M279,-338C279,-332 285,-326 291,-326"/>
<path style="fill:greenyellow;stroke:greenyellow;" d="M513,-326C519,-326 525,-332 525,-338"/>
<path style="fill:greenyellow;stroke:greenyellow;" d="M525,-360C525,-366 519,-372 513,-372"/>
<polyline style="fill:none;stroke:greenyellow;" points="513,-372 291,-372 "/>
<path style="fill:none;stroke:greenyellow;" d="M291,-372C285,-372 279,-366 279,-360"/>
<polyline style="fill:none;stroke:greenyellow;" points="279,-360 279,-338 "/>
<path style="fill:none;stroke:greenyellow;" d="M279,-338C279,-332 285,-326 291,-326"/>
<polyline style="fill:none;stroke:greenyellow;" points="291,-326 513,-326 "/>
<path style="fill:none;stroke:greenyellow;" d="M513,-326C519,-326 525,-332 525,-338"/>
<polyline style="fill:none;stroke:greenyellow;" points="525,-338 525,-360 "/>
<path style="fill:none;stroke:greenyellow;" d="M525,-360C525,-366 519,-372 513,-372"/>
<text text-anchor="middle" x="402" y="-352" style="font-family:Nimbus Sans L;font-weight:bold;font-size:12.96pt;">Waiting for M.C.(Release)</text>
<text text-anchor="middle" x="402" y="-333" style="font-family:Nimbus Sans L;font-weight:bold;font-size:12.96pt;">(UE&#45;Based positioning continue)</text>
</g>
<!-- UE_Assisted&#45;&gt;Waiting_MC_UEBasedCont -->
<g id="edge20" class="edge"><title>UE_Assisted&#45;&gt;Waiting_MC_UEBasedCont</title>
<path style="fill:none;stroke:black;" d="M417,-604C328,-604 369,-450 391,-382"/>
<polygon style="fill:black;stroke:black;" points="394.479,-382.584 394,-372 387.774,-380.573 394.479,-382.584"/>
<a xlink:title="timer a4 expired/\nSend M.R.\n(confidence=100)">
</a>
<a xlink:title="timer a4 expired/\nSend M.R.\n(confidence=100)">
</a>
<text text-anchor="middle" x="435" y="-474" style="font-family:Nimbus Sans L;font-weight:regular;font-size:11.34pt;">timer a4 expired/</text>
<text text-anchor="middle" x="435" y="-458" style="font-family:Nimbus Sans L;font-weight:regular;font-size:11.34pt;">Send M.R.</text>
<text text-anchor="middle" x="435" y="-442" style="font-family:Nimbus Sans L;font-weight:regular;font-size:11.34pt;">(confidence=100)</text>
</g>
<!-- UE_Assisted&#45;&gt;Waiting_MC_UEBasedStop -->
<g id="edge22" class="edge"><title>UE_Assisted&#45;&gt;Waiting_MC_UEBasedStop</title>
<path style="fill:none;stroke:black;" d="M577,-581C618,-542 706,-461 791,-408 819,-389 858,-405 866,-382"/>
<polygon style="fill:black;stroke:black;" points="869.471,-382.492 868,-372 862.607,-381.119 869.471,-382.492"/>
<a xlink:title="Partial Update\nAND User Complete/\nStop UE&#45;Based Positioning\nComplete User request\n(UE Based result)\nSend M.R.\n(confidence=68)">
</a>
<a xlink:title="Partial Update\nAND User Complete/\nStop UE&#45;Based Positioning\nComplete User request\n(UE Based result)\nSend M.R.\n(confidence=68)">
</a>
<text text-anchor="middle" x="875" y="-506" style="font-family:Nimbus Sans L;font-weight:regular;font-size:11.34pt;">Partial Update</text>
<text text-anchor="middle" x="875" y="-490" style="font-family:Nimbus Sans L;font-weight:regular;font-size:11.34pt;">AND User Complete/</text>
<text text-anchor="middle" x="875" y="-474" style="font-family:Nimbus Sans L;font-weight:regular;font-size:11.34pt;">Stop UE&#45;Based Positioning</text>
<text text-anchor="middle" x="875" y="-458" style="font-family:Nimbus Sans L;font-weight:regular;font-size:11.34pt;">Complete User request</text>
<text text-anchor="middle" x="875" y="-442" style="font-family:Nimbus Sans L;font-weight:regular;font-size:11.34pt;">(UE Based result)</text>
<text text-anchor="middle" x="875" y="-426" style="font-family:Nimbus Sans L;font-weight:regular;font-size:11.34pt;">Send M.R.</text>
<text text-anchor="middle" x="875" y="-410" style="font-family:Nimbus Sans L;font-weight:regular;font-size:11.34pt;">(confidence=68)</text>
</g>
<!-- Waiting_Facility_UEBasedCont -->
<g id="node10" class="node"><title>Waiting_Facility_UEBasedCont</title>
<polygon style="fill:greenyellow;stroke:greenyellow;" points="513,-251 291,-251 279,-239 279,-217 291,-205 513,-205 525,-217 525,-239 513,-251"/>
<path style="fill:greenyellow;stroke:greenyellow;" d="M291,-251C285,-251 279,-245 279,-239"/>
<path style="fill:greenyellow;stroke:greenyellow;" d="M279,-217C279,-211 285,-205 291,-205"/>
<path style="fill:greenyellow;stroke:greenyellow;" d="M513,-205C519,-205 525,-211 525,-217"/>
<path style="fill:greenyellow;stroke:greenyellow;" d="M525,-239C525,-245 519,-251 513,-251"/>
<polyline style="fill:none;stroke:greenyellow;" points="513,-251 291,-251 "/>
<path style="fill:none;stroke:greenyellow;" d="M291,-251C285,-251 279,-245 279,-239"/>
<polyline style="fill:none;stroke:greenyellow;" points="279,-239 279,-217 "/>
<path style="fill:none;stroke:greenyellow;" d="M279,-217C279,-211 285,-205 291,-205"/>
<polyline style="fill:none;stroke:greenyellow;" points="291,-205 513,-205 "/>
<path style="fill:none;stroke:greenyellow;" d="M513,-205C519,-205 525,-211 525,-217"/>
<polyline style="fill:none;stroke:greenyellow;" points="525,-217 525,-239 "/>
<path style="fill:none;stroke:greenyellow;" d="M525,-239C525,-245 519,-251 513,-251"/>
<text text-anchor="middle" x="402" y="-231" style="font-family:Nimbus Sans L;font-weight:bold;font-size:12.96pt;">Waiting for Facility</text>
<text text-anchor="middle" x="402" y="-212" style="font-family:Nimbus Sans L;font-weight:bold;font-size:12.96pt;">(UE&#45;Based positioning continue)</text>
</g>
<!-- UE_Assisted&#45;&gt;Waiting_Facility_UEBasedCont -->
<g id="edge18" class="edge"><title>UE_Assisted&#45;&gt;Waiting_Facility_UEBasedCont</title>
<path style="fill:none;stroke:black;" d="M558,-581C568,-530 585,-407 534,-326 500,-271 412,-313 403,-261"/>
<polygon style="fill:black;stroke:black;" points="406.478,-260.602 402,-251 399.512,-261.299 406.478,-260.602"/>
</g>
<!-- Waiting_MC_UEBasedCont&#45;&gt;Waiting_MC_UEBasedStop -->
<g id="edge24" class="edge"><title>Waiting_MC_UEBasedCont&#45;&gt;Waiting_MC_UEBasedStop</title>
<path style="fill:none;stroke:black;" d="M526,-349C591,-349 669,-349 735,-349"/>
<polygon style="fill:black;stroke:black;" points="735,-352.5 745,-349 735,-345.5 735,-352.5"/>
<a xlink:title="Partial Update\nAND User Complete/\nComplete User request(UE Based result)\n">
</a>
<a xlink:title="Partial Update\nAND User Complete/\nComplete User request(UE Based result)\n">
</a>
<text text-anchor="middle" x="635" y="-383" style="font-family:Nimbus Sans L;font-weight:regular;font-size:11.34pt;">Partial Update</text>
<text text-anchor="middle" x="635" y="-367" style="font-family:Nimbus Sans L;font-weight:regular;font-size:11.34pt;">AND User Complete/</text>
<text text-anchor="middle" x="635" y="-351" style="font-family:Nimbus Sans L;font-weight:regular;font-size:11.34pt;">Complete User request(UE Based result)</text>
</g>
<!-- Waiting_MC_UEBasedCont&#45;&gt;Waiting_Facility_UEBasedCont -->
<g id="edge26" class="edge"><title>Waiting_MC_UEBasedCont&#45;&gt;Waiting_Facility_UEBasedCont</title>
<path style="fill:none;stroke:black;" d="M402,-326C402,-296 402,-286 402,-261"/>
<polygon style="fill:black;stroke:black;" points="405.5,-261 402,-251 398.5,-261 405.5,-261"/>
<a xlink:title="Receive M.C.(Release)\n\n">
</a>
<text text-anchor="middle" x="406" y="-262" style="font-family:Nimbus Sans L;font-weight:regular;font-size:11.34pt;">Receive M.C.(Release)</text>
</g>
<!-- Waiting_Facility_UEBasedStop -->
<g id="node11" class="node"><title>Waiting_Facility_UEBasedStop</title>
<polygon style="fill:greenyellow;stroke:greenyellow;" points="1030,-251 808,-251 796,-239 796,-217 808,-205 1030,-205 1042,-217 1042,-239 1030,-251"/>
<path style="fill:greenyellow;stroke:greenyellow;" d="M808,-251C802,-251 796,-245 796,-239"/>
<path style="fill:greenyellow;stroke:greenyellow;" d="M796,-217C796,-211 802,-205 808,-205"/>
<path style="fill:greenyellow;stroke:greenyellow;" d="M1030,-205C1036,-205 1042,-211 1042,-217"/>
<path style="fill:greenyellow;stroke:greenyellow;" d="M1042,-239C1042,-245 1036,-251 1030,-251"/>
<polyline style="fill:none;stroke:greenyellow;" points="1030,-251 808,-251 "/>
<path style="fill:none;stroke:greenyellow;" d="M808,-251C802,-251 796,-245 796,-239"/>
<polyline style="fill:none;stroke:greenyellow;" points="796,-239 796,-217 "/>
<path style="fill:none;stroke:greenyellow;" d="M796,-217C796,-211 802,-205 808,-205"/>
<polyline style="fill:none;stroke:greenyellow;" points="808,-205 1030,-205 "/>
<path style="fill:none;stroke:greenyellow;" d="M1030,-205C1036,-205 1042,-211 1042,-217"/>
<polyline style="fill:none;stroke:greenyellow;" points="1042,-217 1042,-239 "/>
<path style="fill:none;stroke:greenyellow;" d="M1042,-239C1042,-245 1036,-251 1030,-251"/>
<text text-anchor="middle" x="919" y="-231" style="font-family:Nimbus Sans L;font-weight:bold;font-size:12.96pt;">Waiting for Facility</text>
<text text-anchor="middle" x="919" y="-212" style="font-family:Nimbus Sans L;font-weight:bold;font-size:12.96pt;">(UE&#45;Based positioning Stopped)</text>
</g>
<!-- Waiting_MC_UEBasedStop&#45;&gt;Waiting_Facility_UEBasedStop -->
<g id="edge28" class="edge"><title>Waiting_MC_UEBasedStop&#45;&gt;Waiting_Facility_UEBasedStop</title>
<path style="fill:none;stroke:red;" d="M888,-326C900,-309 915,-286 918,-261"/>
<polygon style="fill:red;stroke:red;" points="921.488,-261.299 919,-251 914.522,-260.602 921.488,-261.299"/>
<a xlink:title="Receive M.C.(Release)">
</a>
<text text-anchor="middle" x="890" y="-310" style="font-family:Nimbus Sans L;font-weight:regular;font-size:12.96pt;fill:red;">Receive M.C.(Release)</text>
</g>
<!-- Waiting_MC_UEBasedStop&#45;&gt;End -->
<g id="edge30" class="edge"><title>Waiting_MC_UEBasedStop&#45;&gt;End</title>
<path style="fill:none;stroke:black;" d="M991,-349C1091,-349 1129,-211 1064,-136 1039,-107 779,-85 713,-82"/>
<polygon style="fill:black;stroke:black;" points="713,-78.5001 703,-82 713,-85.5001 713,-78.5001"/>
<a xlink:title="M.C. wait timer expired/\nSend M.R.\n(undefined Error)">
</a>
<a xlink:title="M.C. wait timer expired/\nSend M.R.\n(undefined Error)">
</a>
<text text-anchor="middle" x="1168" y="-238" style="font-family:Nimbus Sans L;font-weight:regular;font-size:11.34pt;">M.C. wait timer expired/</text>
<text text-anchor="middle" x="1168" y="-222" style="font-family:Nimbus Sans L;font-weight:regular;font-size:11.34pt;">Send M.R.</text>
<text text-anchor="middle" x="1168" y="-206" style="font-family:Nimbus Sans L;font-weight:regular;font-size:11.34pt;">(undefined Error)</text>
</g>
<!-- Waiting_Facility_UEBasedCont&#45;&gt;Waiting_Facility_UEBasedStop -->
<g id="edge32" class="edge"><title>Waiting_Facility_UEBasedCont&#45;&gt;Waiting_Facility_UEBasedStop</title>
<path style="fill:none;stroke:black;" d="M526,-228C604,-228 705,-228 786,-228"/>
<polygon style="fill:black;stroke:black;" points="786,-231.5 796,-228 786,-224.5 786,-231.5"/>
<a xlink:title="Partial Update\nAND User Complete/\nComplete User request(UE Based result)\n">
</a>
<a xlink:title="Partial Update\nAND User Complete/\nComplete User request(UE Based result)\n">
</a>
<text text-anchor="middle" x="661" y="-262" style="font-family:Nimbus Sans L;font-weight:regular;font-size:11.34pt;">Partial Update</text>
<text text-anchor="middle" x="661" y="-246" style="font-family:Nimbus Sans L;font-weight:regular;font-size:11.34pt;">AND User Complete/</text>
<text text-anchor="middle" x="661" y="-230" style="font-family:Nimbus Sans L;font-weight:regular;font-size:11.34pt;">Complete User request(UE Based result)</text>
</g>
<!-- Waiting_Facility_UEBasedCont&#45;&gt;End -->
<g id="edge34" class="edge"><title>Waiting_Facility_UEBasedCont&#45;&gt;End</title>
<path style="fill:none;stroke:black;" d="M401,-204C401,-115 470,-84 557,-82"/>
<polygon style="fill:black;stroke:black;" points="557,-85.5001 567,-82 557,-78.5001 557,-85.5001"/>
<a xlink:title="\n\n\nFacility wait timer expired/\nStop UE&#45;Based Positioning">
</a>
<text text-anchor="middle" x="398" y="-173" style="font-family:Nimbus Sans L;font-weight:regular;font-size:11.34pt;">Facility wait timer expired/</text>
<text text-anchor="middle" x="398" y="-157" style="font-family:Nimbus Sans L;font-weight:regular;font-size:11.34pt;">Stop UE&#45;Based Positioning</text>
</g>
<!-- Waiting_Facility_UEBasedCont&#45;&gt;End -->
<g id="edge36" class="edge"><title>Waiting_Facility_UEBasedCont&#45;&gt;End</title>
<path style="fill:none;stroke:black;" d="M525,-228C566,-228 533,-176 546,-136 552,-115 544,-91 557,-84"/>
<polygon style="fill:black;stroke:black;" points="557.881,-87.3933 567,-82 556.508,-80.5292 557.881,-87.3933"/>
<a xlink:title="Recv Facility/\nStop UE&#45;Based Positioning">
</a>
<a xlink:title="Recv Facility/\nStop UE&#45;Based Positioning">
</a>
<text text-anchor="middle" x="630" y="-154" style="font-family:Nimbus Sans L;font-weight:regular;font-size:11.34pt;">Recv Facility/</text>
<text text-anchor="middle" x="630" y="-138" style="font-family:Nimbus Sans L;font-weight:regular;font-size:11.34pt;">Stop UE&#45;Based Positioning</text>
</g>
<!-- Waiting_Facility_UEBasedStop&#45;&gt;End -->
<g id="edge38" class="edge"><title>Waiting_Facility_UEBasedStop&#45;&gt;End</title>
<path style="fill:none;stroke:red;" d="M795,-204C749,-158 768,-90 713,-83"/>
<polygon style="fill:red;stroke:red;" points="713.299,-79.5125 703,-82 712.602,-86.4778 713.299,-79.5125"/>
<a xlink:title="Recv Facility">
</a>
<a xlink:title="Recv Facility">
</a>
<text text-anchor="middle" x="816" y="-146" style="font-family:Nimbus Sans L;font-weight:regular;font-size:12.96pt;fill:red;">Recv Facility</text>
</g>
<!-- Waiting_Facility_UEBasedStop&#45;&gt;End -->
<g id="edge40" class="edge"><title>Waiting_Facility_UEBasedStop&#45;&gt;End</title>
<path style="fill:none;stroke:black;" d="M918,-204C918,-165 896,-158 866,-136 806,-93 781,-83 713,-82"/>
<polygon style="fill:black;stroke:black;" points="713,-78.5001 703,-82 713,-85.5001 713,-78.5001"/>
<a xlink:title="Facility wait timer expired">
</a>
<a xlink:title="Facility wait timer expired">
</a>
<text text-anchor="middle" x="985" y="-146" style="font-family:Nimbus Sans L;font-weight:regular;font-size:11.34pt;">Facility wait timer expired</text>
</g>
</g>
</svg>
