<?xml version="1.0" encoding="UTF-8" standalone="no"?>
<!DOCTYPE svg PUBLIC "-//W3C//DTD SVG 1.0//EN"
 "http://www.w3.org/TR/2001/REC-SVG-20010904/DTD/svg10.dtd" [
 <!ATTLIST svg xmlns:xlink CDATA #FIXED "http://www.w3.org/1999/xlink">
]>
<!-- Generated by Graphviz version 2.12 (Mon Dec  4 22:04:37 UTC 2006)
     For user: Bill Gates -->
<!-- Title: finite_state_machine Pages: 1 -->
<svg width="9.50in" height="5.26in"
 xmlns="http://www.w3.org/2000/svg" xmlns:xlink="http://www.w3.org/1999/xlink">
<g id="graph0" class="graph" transform="scale(0.705336 0.705336) rotate(0) translate(4 713)">
<title>finite_state_machine</title>
<polygon style="fill:white;stroke:white;" points="-4,4 -4,-713 1289,-713 1289,4 -4,4"/>
<text text-anchor="middle" x="642" y="-8" style="font-family:Nimbus Roman No9 L;font-weight:medium;font-size:19.44pt;">Accurate Ref Pos &#45; LBS &#45; X3P</text>
<!-- Idle -->
<g id="node2" class="node"><title>Idle</title>
<polygon style="fill:greenyellow;stroke:greenyellow;" points="487,-689 457,-689 445,-677 445,-665 457,-653 487,-653 499,-665 499,-677 487,-689"/>
<path style="fill:greenyellow;stroke:greenyellow;" d="M457,-689C451,-689 445,-683 445,-677"/>
<path style="fill:greenyellow;stroke:greenyellow;" d="M445,-665C445,-659 451,-653 457,-653"/>
<path style="fill:greenyellow;stroke:greenyellow;" d="M487,-653C493,-653 499,-659 499,-665"/>
<path style="fill:greenyellow;stroke:greenyellow;" d="M499,-677C499,-683 493,-689 487,-689"/>
<polyline style="fill:none;stroke:greenyellow;" points="487,-689 457,-689 "/>
<path style="fill:none;stroke:greenyellow;" d="M457,-689C451,-689 445,-683 445,-677"/>
<polyline style="fill:none;stroke:greenyellow;" points="445,-677 445,-665 "/>
<path style="fill:none;stroke:greenyellow;" d="M445,-665C445,-659 451,-653 457,-653"/>
<polyline style="fill:none;stroke:greenyellow;" points="457,-653 487,-653 "/>
<path style="fill:none;stroke:greenyellow;" d="M487,-653C493,-653 499,-659 499,-665"/>
<polyline style="fill:none;stroke:greenyellow;" points="499,-665 499,-677 "/>
<path style="fill:none;stroke:greenyellow;" d="M499,-677C499,-683 493,-689 487,-689"/>
<text text-anchor="middle" x="472" y="-665" style="font-family:Nimbus Sans L;font-weight:bold;font-size:12.96pt;">Idle</text>
</g>
<!-- UE_Based -->
<g id="node3" class="node"><title>UE_Based</title>
<polygon style="fill:greenyellow;stroke:greenyellow;" points="893,-694 663,-694 651,-682 651,-660 663,-648 893,-648 905,-660 905,-682 893,-694"/>
<path style="fill:greenyellow;stroke:greenyellow;" d="M663,-694C657,-694 651,-688 651,-682"/>
<path style="fill:greenyellow;stroke:greenyellow;" d="M651,-660C651,-654 657,-648 663,-648"/>
<path style="fill:greenyellow;stroke:greenyellow;" d="M893,-648C899,-648 905,-654 905,-660"/>
<path style="fill:greenyellow;stroke:greenyellow;" d="M905,-682C905,-688 899,-694 893,-694"/>
<polyline style="fill:none;stroke:greenyellow;" points="893,-694 663,-694 "/>
<path style="fill:none;stroke:greenyellow;" d="M663,-694C657,-694 651,-688 651,-682"/>
<polyline style="fill:none;stroke:greenyellow;" points="651,-682 651,-660 "/>
<path style="fill:none;stroke:greenyellow;" d="M651,-660C651,-654 657,-648 663,-648"/>
<polyline style="fill:none;stroke:greenyellow;" points="663,-648 893,-648 "/>
<path style="fill:none;stroke:greenyellow;" d="M893,-648C899,-648 905,-654 905,-660"/>
<polyline style="fill:none;stroke:greenyellow;" points="905,-660 905,-682 "/>
<path style="fill:none;stroke:greenyellow;" d="M905,-682C905,-688 899,-694 893,-694"/>
<text text-anchor="middle" x="778" y="-674" style="font-family:Nimbus Sans L;font-weight:bold;font-size:12.96pt;">Performing UE&#45;Based positioning</text>
<text text-anchor="middle" x="778" y="-655" style="font-family:Nimbus Sans L;font-weight:bold;font-size:12.96pt;">under Hybrid Positioning</text>
</g>
<!-- Idle&#45;&gt;UE_Based -->
<g id="edge4" class="edge"><title>Idle&#45;&gt;UE_Based</title>
<path style="fill:none;stroke:red;" d="M499,-671C531,-671 587,-671 641,-671"/>
<polygon style="fill:red;stroke:red;" points="641,-674.5 651,-671 641,-667.5 641,-674.5"/>
<a xlink:title="Send M.C. (Setup)\nStart a2,a4 timer">
</a>
<a xlink:title="Send M.C. (Setup)\nStart a2,a4 timer">
</a>
<text text-anchor="middle" x="575" y="-693" style="font-family:Nimbus Sans L;font-weight:bold;font-size:12.96pt;fill:red;">Send M.C. (Setup)</text>
<text text-anchor="middle" x="575" y="-674" style="font-family:Nimbus Sans L;font-weight:bold;font-size:12.96pt;fill:red;">Start a2,a4 timer</text>
</g>
<!-- UE_Assisted -->
<g id="node4" class="node"><title>UE_Assisted</title>
<polygon style="fill:greenyellow;stroke:greenyellow;" points="395,-457 149,-457 137,-445 137,-423 149,-411 395,-411 407,-423 407,-445 395,-457"/>
<path style="fill:greenyellow;stroke:greenyellow;" d="M149,-457C143,-457 137,-451 137,-445"/>
<path style="fill:greenyellow;stroke:greenyellow;" d="M137,-423C137,-417 143,-411 149,-411"/>
<path style="fill:greenyellow;stroke:greenyellow;" d="M395,-411C401,-411 407,-417 407,-423"/>
<path style="fill:greenyellow;stroke:greenyellow;" d="M407,-445C407,-451 401,-457 395,-457"/>
<polyline style="fill:none;stroke:greenyellow;" points="395,-457 149,-457 "/>
<path style="fill:none;stroke:greenyellow;" d="M149,-457C143,-457 137,-451 137,-445"/>
<polyline style="fill:none;stroke:greenyellow;" points="137,-445 137,-423 "/>
<path style="fill:none;stroke:greenyellow;" d="M137,-423C137,-417 143,-411 149,-411"/>
<polyline style="fill:none;stroke:greenyellow;" points="149,-411 395,-411 "/>
<path style="fill:none;stroke:greenyellow;" d="M395,-411C401,-411 407,-417 407,-423"/>
<polyline style="fill:none;stroke:greenyellow;" points="407,-423 407,-445 "/>
<path style="fill:none;stroke:greenyellow;" d="M407,-445C407,-451 401,-457 395,-457"/>
<text text-anchor="middle" x="272" y="-437" style="font-family:Nimbus Sans L;font-weight:bold;font-size:12.96pt;">Performing UE&#45;Assisted positioning</text>
<text text-anchor="middle" x="272" y="-418" style="font-family:Nimbus Sans L;font-weight:bold;font-size:12.96pt;">(UE&#45;Based positioning continue)</text>
</g>
<!-- UE_Based&#45;&gt;UE_Assisted -->
<g id="edge6" class="edge"><title>UE_Based&#45;&gt;UE_Assisted</title>
<path style="fill:none;stroke:black;" d="M651,-655C598,-645 537,-629 486,-605 411,-569 340,-503 301,-464"/>
<polygon style="fill:black;stroke:black;" points="303.546,-461.596 294,-457 298.596,-466.546 303.546,-461.596"/>
<a xlink:title="Timer a2 expired/\nSend M.R\nReceive M.C.\n(Modify,Reporting Interval=t)\nStart up Timer t">
</a>
<a xlink:title="Timer a2 expired/\nSend M.R\nReceive M.C.\n(Modify,Reporting Interval=t)\nStart up Timer t">
</a>
<text text-anchor="middle" x="573" y="-591" style="font-family:Nimbus Sans L;font-weight:regular;font-size:11.34pt;">Timer a2 expired/</text>
<text text-anchor="middle" x="573" y="-575" style="font-family:Nimbus Sans L;font-weight:regular;font-size:11.34pt;">Send M.R</text>
<text text-anchor="middle" x="573" y="-559" style="font-family:Nimbus Sans L;font-weight:regular;font-size:11.34pt;">Receive M.C.</text>
<text text-anchor="middle" x="573" y="-543" style="font-family:Nimbus Sans L;font-weight:regular;font-size:11.34pt;">(Modify,Reporting Interval=t)</text>
<text text-anchor="middle" x="573" y="-527" style="font-family:Nimbus Sans L;font-weight:regular;font-size:11.34pt;">Start up Timer t</text>
</g>
<!-- Waiting_MC -->
<g id="node5" class="node"><title>Waiting_MC</title>
<polygon style="fill:greenyellow;stroke:greenyellow;" points="573,-236 401,-236 389,-224 389,-212 401,-200 573,-200 585,-212 585,-224 573,-236"/>
<path style="fill:greenyellow;stroke:greenyellow;" d="M401,-236C395,-236 389,-230 389,-224"/>
<path style="fill:greenyellow;stroke:greenyellow;" d="M389,-212C389,-206 395,-200 401,-200"/>
<path style="fill:greenyellow;stroke:greenyellow;" d="M573,-200C579,-200 585,-206 585,-212"/>
<path style="fill:greenyellow;stroke:greenyellow;" d="M585,-224C585,-230 579,-236 573,-236"/>
<polyline style="fill:none;stroke:greenyellow;" points="573,-236 401,-236 "/>
<path style="fill:none;stroke:greenyellow;" d="M401,-236C395,-236 389,-230 389,-224"/>
<polyline style="fill:none;stroke:greenyellow;" points="389,-224 389,-212 "/>
<path style="fill:none;stroke:greenyellow;" d="M389,-212C389,-206 395,-200 401,-200"/>
<polyline style="fill:none;stroke:greenyellow;" points="401,-200 573,-200 "/>
<path style="fill:none;stroke:greenyellow;" d="M573,-200C579,-200 585,-206 585,-212"/>
<polyline style="fill:none;stroke:greenyellow;" points="585,-212 585,-224 "/>
<path style="fill:none;stroke:greenyellow;" d="M585,-224C585,-230 579,-236 573,-236"/>
<text text-anchor="middle" x="487" y="-212" style="font-family:Nimbus Sans L;font-weight:bold;font-size:12.96pt;">Waiting for M.C. Release</text>
</g>
<!-- UE_Based&#45;&gt;Waiting_MC -->
<g id="edge8" class="edge"><title>UE_Based&#45;&gt;Waiting_MC</title>
<path style="fill:none;stroke:black;" d="M764,-648C744,-614 707,-545 688,-482 653,-364 707,-226 595,-218"/>
<polygon style="fill:black;stroke:black;" points="595,-214.5 585,-218 595,-221.5 595,-214.5"/>
<a xlink:title="UE&#45;Based success/\nStop UE&#45;Based Positioning,\nSend M.R.\n(confidence=68)">
</a>
<a xlink:title="UE&#45;Based success/\nStop UE&#45;Based Positioning,\nSend M.R.\n(confidence=68)">
</a>
<text text-anchor="middle" x="774" y="-452" style="font-family:Nimbus Sans L;font-weight:regular;font-size:11.34pt;">UE&#45;Based success/</text>
<text text-anchor="middle" x="774" y="-436" style="font-family:Nimbus Sans L;font-weight:regular;font-size:11.34pt;">Stop UE&#45;Based Positioning,</text>
<text text-anchor="middle" x="774" y="-420" style="font-family:Nimbus Sans L;font-weight:regular;font-size:11.34pt;">Send M.R.</text>
<text text-anchor="middle" x="774" y="-404" style="font-family:Nimbus Sans L;font-weight:regular;font-size:11.34pt;">(confidence=68)</text>
</g>
<!-- UE_Based&#45;&gt;Waiting_MC -->
<g id="edge10" class="edge"><title>UE_Based&#45;&gt;Waiting_MC</title>
<path style="fill:none;stroke:black;" d="M794,-648C831,-598 910,-475 860,-386 791,-264 731,-220 595,-218"/>
<polygon style="fill:black;stroke:black;" points="595,-214.5 585,-218 595,-221.5 595,-214.5"/>
<a xlink:title="UE&#45;Based fix accuracy too low/\nStop UE&#45;Based Positioning,\nSend M.R.\n(confidence=100)">
</a>
<a xlink:title="UE&#45;Based fix accuracy too low/\nStop UE&#45;Based Positioning,\nSend M.R.\n(confidence=100)">
</a>
<text text-anchor="middle" x="971" y="-452" style="font-family:Nimbus Sans L;font-weight:regular;font-size:11.34pt;">UE&#45;Based fix accuracy too low/</text>
<text text-anchor="middle" x="971" y="-436" style="font-family:Nimbus Sans L;font-weight:regular;font-size:11.34pt;">Stop UE&#45;Based Positioning,</text>
<text text-anchor="middle" x="971" y="-420" style="font-family:Nimbus Sans L;font-weight:regular;font-size:11.34pt;">Send M.R.</text>
<text text-anchor="middle" x="971" y="-404" style="font-family:Nimbus Sans L;font-weight:regular;font-size:11.34pt;">(confidence=100)</text>
</g>
<!-- UE_Based&#45;&gt;Waiting_MC -->
<g id="edge12" class="edge"><title>UE_Based&#45;&gt;Waiting_MC</title>
<path style="fill:none;stroke:red;" d="M835,-648C940,-604 1147,-500 1071,-386 1010,-293 716,-222 595,-218"/>
<polygon style="fill:red;stroke:red;" points="595,-214.5 585,-218 595,-221.5 595,-214.5"/>
<a xlink:title="Ref Position\naccurate enough/\nStop UE&#45;Based Positioning,\nSend M.R.\n(confidence=0)">
</a>
<a xlink:title="Ref Position\naccurate enough/\nStop UE&#45;Based Positioning,\nSend M.R.\n(confidence=0)">
</a>
<text text-anchor="middle" x="1186" y="-466" style="font-family:Nimbus Sans L;font-weight:bold;font-size:12.96pt;fill:red;">Ref Position</text>
<text text-anchor="middle" x="1186" y="-447" style="font-family:Nimbus Sans L;font-weight:bold;font-size:12.96pt;fill:red;">accurate enough/</text>
<text text-anchor="middle" x="1186" y="-428" style="font-family:Nimbus Sans L;font-weight:bold;font-size:12.96pt;fill:red;">Stop UE&#45;Based Positioning,</text>
<text text-anchor="middle" x="1186" y="-409" style="font-family:Nimbus Sans L;font-weight:bold;font-size:12.96pt;fill:red;">Send M.R.</text>
<text text-anchor="middle" x="1186" y="-390" style="font-family:Nimbus Sans L;font-weight:bold;font-size:12.96pt;fill:red;">(confidence=0)</text>
</g>
<!-- UE_Assisted&#45;&gt;UE_Assisted -->
<g id="edge14" class="edge"><title>UE_Assisted&#45;&gt;UE_Assisted</title>
<path style="fill:none;stroke:black;" d="M272,-457C221,-518 119,-518 119,-445 119,-377 130,-373 136,-424"/>
<polygon style="fill:black;stroke:black;" points="132.522,-424.398 137,-434 139.488,-423.701 132.522,-424.398"/>
<a xlink:title="Timer t expired/\nSend M.R,\nrestart timer t">
</a>
<a xlink:title="Timer t expired/\nSend M.R,\nrestart timer t">
</a>
<text text-anchor="middle" x="71" y="-444" style="font-family:Nimbus Sans L;font-weight:regular;font-size:11.34pt;">Timer t expired/</text>
<text text-anchor="middle" x="71" y="-428" style="font-family:Nimbus Sans L;font-weight:regular;font-size:11.34pt;">Send M.R,</text>
<text text-anchor="middle" x="71" y="-412" style="font-family:Nimbus Sans L;font-weight:regular;font-size:11.34pt;">restart timer t</text>
</g>
<!-- UE_Assisted&#45;&gt;Waiting_MC -->
<g id="edge16" class="edge"><title>UE_Assisted&#45;&gt;Waiting_MC</title>
<path style="fill:none;stroke:black;" d="M174,-411C137,-398 100,-376 78,-343 63,-319 60,-300 78,-279 99,-253 320,-222 379,-218"/>
<polygon style="fill:black;stroke:black;" points="379,-221.5 389,-218 379,-214.5 379,-221.5"/>
<a xlink:title="timer a4 expired/\nStop UE&#45;Based Positioning,\nSend M.R.\n(confidence=100)">
</a>
<a xlink:title="timer a4 expired/\nStop UE&#45;Based Positioning,\nSend M.R.\n(confidence=100)">
</a>
<text text-anchor="middle" x="164" y="-329" style="font-family:Nimbus Sans L;font-weight:regular;font-size:11.34pt;">timer a4 expired/</text>
<text text-anchor="middle" x="164" y="-313" style="font-family:Nimbus Sans L;font-weight:regular;font-size:11.34pt;">Stop UE&#45;Based Positioning,</text>
<text text-anchor="middle" x="164" y="-297" style="font-family:Nimbus Sans L;font-weight:regular;font-size:11.34pt;">Send M.R.</text>
<text text-anchor="middle" x="164" y="-281" style="font-family:Nimbus Sans L;font-weight:regular;font-size:11.34pt;">(confidence=100)</text>
</g>
<!-- UE_Assisted&#45;&gt;Waiting_MC -->
<g id="edge18" class="edge"><title>UE_Assisted&#45;&gt;Waiting_MC</title>
<path style="fill:none;stroke:black;" d="M265,-411C257,-379 248,-320 273,-279 301,-232 327,-219 379,-218"/>
<polygon style="fill:black;stroke:black;" points="379,-221.5 389,-218 379,-214.5 379,-221.5"/>
<a xlink:title="UE&#45;Based fix accuracy too low/\nStop UE&#45;Based Positioning,\nSend M.R.\n(confidence=100)">
</a>
<a xlink:title="UE&#45;Based fix accuracy too low/\nStop UE&#45;Based Positioning,\nSend M.R.\n(confidence=100)">
</a>
<text text-anchor="middle" x="369" y="-329" style="font-family:Nimbus Sans L;font-weight:regular;font-size:11.34pt;">UE&#45;Based fix accuracy too low/</text>
<text text-anchor="middle" x="369" y="-313" style="font-family:Nimbus Sans L;font-weight:regular;font-size:11.34pt;">Stop UE&#45;Based Positioning,</text>
<text text-anchor="middle" x="369" y="-297" style="font-family:Nimbus Sans L;font-weight:regular;font-size:11.34pt;">Send M.R.</text>
<text text-anchor="middle" x="369" y="-281" style="font-family:Nimbus Sans L;font-weight:regular;font-size:11.34pt;">(confidence=100)</text>
</g>
<!-- UE_Assisted&#45;&gt;Waiting_MC -->
<g id="edge22" class="edge"><title>UE_Assisted&#45;&gt;Waiting_MC</title>
<path style="fill:none;stroke:black;" d="M363,-411C400,-397 440,-376 465,-343 486,-315 489,-273 489,-246"/>
<polygon style="fill:black;stroke:black;" points="492.5,-246 489,-236 485.5,-246 492.5,-246"/>
<a xlink:title="UE&#45;Based success/\nStop UE&#45;Based Positioning,\nSend M.R.\n(confidence=68)">
</a>
<a xlink:title="UE&#45;Based success/\nStop UE&#45;Based Positioning,\nSend M.R.\n(confidence=68)">
</a>
<text text-anchor="middle" x="572" y="-329" style="font-family:Nimbus Sans L;font-weight:regular;font-size:11.34pt;">UE&#45;Based success/</text>
<text text-anchor="middle" x="572" y="-313" style="font-family:Nimbus Sans L;font-weight:regular;font-size:11.34pt;">Stop UE&#45;Based Positioning,</text>
<text text-anchor="middle" x="572" y="-297" style="font-family:Nimbus Sans L;font-weight:regular;font-size:11.34pt;">Send M.R.</text>
<text text-anchor="middle" x="572" y="-281" style="font-family:Nimbus Sans L;font-weight:regular;font-size:11.34pt;">(confidence=68)</text>
</g>
<!-- Waiting_Facility -->
<g id="node7" class="node"><title>Waiting_Facility</title>
<polygon style="fill:greenyellow;stroke:greenyellow;" points="136,-82 12,-82 6.15804e-014,-70 3.78956e-014,-58 12,-46 136,-46 148,-58 148,-70 136,-82"/>
<path style="fill:greenyellow;stroke:greenyellow;" d="M12,-82C6,-82 7.34227e-014,-76 6.15804e-014,-70"/>
<path style="fill:greenyellow;stroke:greenyellow;" d="M3.78956e-014,-58C2.60532e-014,-52 6,-46 12,-46"/>
<path style="fill:greenyellow;stroke:greenyellow;" d="M136,-46C142,-46 148,-52 148,-58"/>
<path style="fill:greenyellow;stroke:greenyellow;" d="M148,-70C148,-76 142,-82 136,-82"/>
<polyline style="fill:none;stroke:greenyellow;" points="136,-82 12,-82 "/>
<path style="fill:none;stroke:greenyellow;" d="M12,-82C6,-82 7.34227e-014,-76 6.15804e-014,-70"/>
<polyline style="fill:none;stroke:greenyellow;" points="6.15804e-014,-70 3.78956e-014,-58 "/>
<path style="fill:none;stroke:greenyellow;" d="M3.78956e-014,-58C2.60532e-014,-52 6,-46 12,-46"/>
<polyline style="fill:none;stroke:greenyellow;" points="12,-46 136,-46 "/>
<path style="fill:none;stroke:greenyellow;" d="M136,-46C142,-46 148,-52 148,-58"/>
<polyline style="fill:none;stroke:greenyellow;" points="148,-58 148,-70 "/>
<path style="fill:none;stroke:greenyellow;" d="M148,-70C148,-76 142,-82 136,-82"/>
<text text-anchor="middle" x="74" y="-58" style="font-family:Nimbus Sans L;font-weight:bold;font-size:12.96pt;">Waiting for Facility</text>
</g>
<!-- UE_Assisted&#45;&gt;Waiting_Facility -->
<g id="edge20" class="edge"><title>UE_Assisted&#45;&gt;Waiting_Facility</title>
<path style="fill:none;stroke:black;" d="M160,-411C123,-398 85,-376 63,-343 11,-264 44,-145 64,-92"/>
<polygon style="fill:black;stroke:black;" points="67.4788,-92.584 67,-82 60.7741,-90.5725 67.4788,-92.584"/>
<a xlink:title="Receive M.C. Release/\nStop UE&#45;Based Positioning">
</a>
<a xlink:title="Receive M.C. Release/\nStop UE&#45;Based Positioning">
</a>
<text text-anchor="middle" x="122" y="-220" style="font-family:Nimbus Sans L;font-weight:regular;font-size:11.34pt;">Receive M.C. Release/</text>
<text text-anchor="middle" x="122" y="-204" style="font-family:Nimbus Sans L;font-weight:regular;font-size:11.34pt;">Stop UE&#45;Based Positioning</text>
</g>
<!-- Waiting_MC&#45;&gt;Waiting_Facility -->
<g id="edge24" class="edge"><title>Waiting_MC&#45;&gt;Waiting_Facility</title>
<path style="fill:none;stroke:red;" d="M438,-200C362,-171 214,-116 131,-86"/>
<polygon style="fill:red;stroke:red;" points="132.56,-82.8631 122,-82 129.717,-89.2598 132.56,-82.8631"/>
<a xlink:title="Receive M.C Release">
</a>
<a xlink:title="Receive M.C Release">
</a>
<text text-anchor="middle" x="394" y="-135" style="font-family:Nimbus Sans L;font-weight:bold;font-size:12.96pt;fill:red;">Receive M.C Release</text>
</g>
<!-- End -->
<g id="node8" class="node"><title>End</title>
<polygon style="fill:greenyellow;stroke:greenyellow;" points="475,-82 363,-82 351,-70 351,-58 363,-46 475,-46 487,-58 487,-70 475,-82"/>
<path style="fill:greenyellow;stroke:greenyellow;" d="M363,-82C357,-82 351,-76 351,-70"/>
<path style="fill:greenyellow;stroke:greenyellow;" d="M351,-58C351,-52 357,-46 363,-46"/>
<path style="fill:greenyellow;stroke:greenyellow;" d="M475,-46C481,-46 487,-52 487,-58"/>
<path style="fill:greenyellow;stroke:greenyellow;" d="M487,-70C487,-76 481,-82 475,-82"/>
<polyline style="fill:none;stroke:greenyellow;" points="475,-82 363,-82 "/>
<path style="fill:none;stroke:greenyellow;" d="M363,-82C357,-82 351,-76 351,-70"/>
<polyline style="fill:none;stroke:greenyellow;" points="351,-70 351,-58 "/>
<path style="fill:none;stroke:greenyellow;" d="M351,-58C351,-52 357,-46 363,-46"/>
<polyline style="fill:none;stroke:greenyellow;" points="363,-46 475,-46 "/>
<path style="fill:none;stroke:greenyellow;" d="M475,-46C481,-46 487,-52 487,-58"/>
<polyline style="fill:none;stroke:greenyellow;" points="487,-58 487,-70 "/>
<path style="fill:none;stroke:greenyellow;" d="M487,-70C487,-76 481,-82 475,-82"/>
<text text-anchor="middle" x="419" y="-58" style="font-family:Nimbus Sans L;font-weight:bold;font-size:12.96pt;">Positioning Ends</text>
</g>
<!-- Waiting_MC&#45;&gt;End -->
<g id="edge26" class="edge"><title>Waiting_MC&#45;&gt;End</title>
<path style="fill:none;stroke:black;" d="M493,-200C508,-163 537,-77 497,-65"/>
<polygon style="fill:black;stroke:black;" points="497.299,-61.5125 487,-64 496.602,-68.4778 497.299,-61.5125"/>
<a xlink:title="M.C. wait timer expired\nSend M.R (some error)">
</a>
<a xlink:title="M.C. wait timer expired\nSend M.R (some error)">
</a>
<text text-anchor="middle" x="584" y="-143" style="font-family:Nimbus Sans L;font-weight:regular;font-size:11.34pt;">M.C. wait timer expired</text>
<text text-anchor="middle" x="584" y="-127" style="font-family:Nimbus Sans L;font-weight:regular;font-size:11.34pt;">Send M.R (some error)</text>
</g>
<!-- Waiting_Facility&#45;&gt;End -->
<g id="edge28" class="edge"><title>Waiting_Facility&#45;&gt;End</title>
<path style="fill:none;stroke:black;" d="M149,-64C206,-64 283,-64 340,-64"/>
<polygon style="fill:black;stroke:black;" points="340,-67.5001 350,-64 340,-60.5001 340,-67.5001"/>
<a xlink:title="Facility wait timer expired">
</a>
<a xlink:title="Facility wait timer expired">
</a>
<text text-anchor="middle" x="250" y="-66" style="font-family:Nimbus Sans L;font-weight:regular;font-size:11.34pt;">Facility wait timer expired</text>
</g>
<!-- Waiting_Facility&#45;&gt;End -->
<g id="edge30" class="edge"><title>Waiting_Facility&#45;&gt;End</title>
<path style="fill:none;stroke:red;" d="M149,-47C157,-46 164,-45 172,-44 241,-37 260,-36 328,-44 332,-45 336,-45 340,-46"/>
<polygon style="fill:red;stroke:red;" points="339.701,-49.4875 350,-47 340.398,-42.5222 339.701,-49.4875"/>
<a xlink:title="Receive Facility">
</a>
<a xlink:title="Receive Facility">
</a>
<text text-anchor="middle" x="250" y="-46" style="font-family:Nimbus Sans L;font-weight:bold;font-size:12.96pt;fill:red;">Receive Facility</text>
</g>
</g>
</svg>
