<?xml version="1.0" encoding="UTF-8" standalone="no"?>
<!DOCTYPE svg PUBLIC "-//W3C//DTD SVG 1.0//EN"
 "http://www.w3.org/TR/2001/REC-SVG-20010904/DTD/svg10.dtd" [
 <!ATTLIST svg xmlns:xlink CDATA #FIXED "http://www.w3.org/1999/xlink">
]>
<!-- Generated by Graphviz version 2.12 (Mon Dec  4 22:04:37 UTC 2006)
     For user: Bill Gates -->
<!-- Title: finite_state_machine Pages: 1 -->
<svg width="9.50in" height="5.40in"
 xmlns="http://www.w3.org/2000/svg" xmlns:xlink="http://www.w3.org/1999/xlink">
<g id="graph0" class="graph" transform="scale(0.705882 0.705882) rotate(0) translate(4 730)">
<title>finite_state_machine</title>
<polygon style="fill:white;stroke:white;" points="-4,4 -4,-730 1288,-730 1288,4 -4,4"/>
<text text-anchor="middle" x="642" y="-8" style="font-family:Nimbus Roman No9 L;font-weight:medium;font-size:19.44pt;">Hybrid &#45; LBS &#45; UE&#45;Assisted X3P &#45; GPS Result Accuracy too Low &#45; MC Release Timeout</text>
<!-- Idle -->
<g id="node2" class="node"><title>Idle</title>
<polygon style="fill:greenyellow;stroke:greenyellow;" points="515,-706 485,-706 473,-694 473,-682 485,-670 515,-670 527,-682 527,-694 515,-706"/>
<path style="fill:greenyellow;stroke:greenyellow;" d="M485,-706C479,-706 473,-700 473,-694"/>
<path style="fill:greenyellow;stroke:greenyellow;" d="M473,-682C473,-676 479,-670 485,-670"/>
<path style="fill:greenyellow;stroke:greenyellow;" d="M515,-670C521,-670 527,-676 527,-682"/>
<path style="fill:greenyellow;stroke:greenyellow;" d="M527,-694C527,-700 521,-706 515,-706"/>
<polyline style="fill:none;stroke:greenyellow;" points="515,-706 485,-706 "/>
<path style="fill:none;stroke:greenyellow;" d="M485,-706C479,-706 473,-700 473,-694"/>
<polyline style="fill:none;stroke:greenyellow;" points="473,-694 473,-682 "/>
<path style="fill:none;stroke:greenyellow;" d="M473,-682C473,-676 479,-670 485,-670"/>
<polyline style="fill:none;stroke:greenyellow;" points="485,-670 515,-670 "/>
<path style="fill:none;stroke:greenyellow;" d="M515,-670C521,-670 527,-676 527,-682"/>
<polyline style="fill:none;stroke:greenyellow;" points="527,-682 527,-694 "/>
<path style="fill:none;stroke:greenyellow;" d="M527,-694C527,-700 521,-706 515,-706"/>
<text text-anchor="middle" x="500" y="-682" style="font-family:Nimbus Sans L;font-weight:bold;font-size:12.96pt;">Idle</text>
</g>
<!-- UE_Based -->
<g id="node3" class="node"><title>UE_Based</title>
<polygon style="fill:greenyellow;stroke:greenyellow;" points="921,-711 691,-711 679,-699 679,-677 691,-665 921,-665 933,-677 933,-699 921,-711"/>
<path style="fill:greenyellow;stroke:greenyellow;" d="M691,-711C685,-711 679,-705 679,-699"/>
<path style="fill:greenyellow;stroke:greenyellow;" d="M679,-677C679,-671 685,-665 691,-665"/>
<path style="fill:greenyellow;stroke:greenyellow;" d="M921,-665C927,-665 933,-671 933,-677"/>
<path style="fill:greenyellow;stroke:greenyellow;" d="M933,-699C933,-705 927,-711 921,-711"/>
<polyline style="fill:none;stroke:greenyellow;" points="921,-711 691,-711 "/>
<path style="fill:none;stroke:greenyellow;" d="M691,-711C685,-711 679,-705 679,-699"/>
<polyline style="fill:none;stroke:greenyellow;" points="679,-699 679,-677 "/>
<path style="fill:none;stroke:greenyellow;" d="M679,-677C679,-671 685,-665 691,-665"/>
<polyline style="fill:none;stroke:greenyellow;" points="691,-665 921,-665 "/>
<path style="fill:none;stroke:greenyellow;" d="M921,-665C927,-665 933,-671 933,-677"/>
<polyline style="fill:none;stroke:greenyellow;" points="933,-677 933,-699 "/>
<path style="fill:none;stroke:greenyellow;" d="M933,-699C933,-705 927,-711 921,-711"/>
<text text-anchor="middle" x="806" y="-691" style="font-family:Nimbus Sans L;font-weight:bold;font-size:12.96pt;">Performing UE&#45;Based positioning</text>
<text text-anchor="middle" x="806" y="-672" style="font-family:Nimbus Sans L;font-weight:bold;font-size:12.96pt;">under Hybrid Positioning</text>
</g>
<!-- Idle&#45;&gt;UE_Based -->
<g id="edge4" class="edge"><title>Idle&#45;&gt;UE_Based</title>
<path style="fill:none;stroke:red;" d="M527,-688C559,-688 615,-688 669,-688"/>
<polygon style="fill:red;stroke:red;" points="669,-691.5 679,-688 669,-684.5 669,-691.5"/>
<a xlink:title="Send M.C. (Setup)\nStart a2,a4 timer">
</a>
<a xlink:title="Send M.C. (Setup)\nStart a2,a4 timer">
</a>
<text text-anchor="middle" x="603" y="-710" style="font-family:Nimbus Sans L;font-weight:bold;font-size:12.96pt;fill:red;">Send M.C. (Setup)</text>
<text text-anchor="middle" x="603" y="-691" style="font-family:Nimbus Sans L;font-weight:bold;font-size:12.96pt;fill:red;">Start a2,a4 timer</text>
</g>
<!-- UE_Assisted -->
<g id="node4" class="node"><title>UE_Assisted</title>
<polygon style="fill:greenyellow;stroke:greenyellow;" points="392,-466 146,-466 134,-454 134,-432 146,-420 392,-420 404,-432 404,-454 392,-466"/>
<path style="fill:greenyellow;stroke:greenyellow;" d="M146,-466C140,-466 134,-460 134,-454"/>
<path style="fill:greenyellow;stroke:greenyellow;" d="M134,-432C134,-426 140,-420 146,-420"/>
<path style="fill:greenyellow;stroke:greenyellow;" d="M392,-420C398,-420 404,-426 404,-432"/>
<path style="fill:greenyellow;stroke:greenyellow;" d="M404,-454C404,-460 398,-466 392,-466"/>
<polyline style="fill:none;stroke:greenyellow;" points="392,-466 146,-466 "/>
<path style="fill:none;stroke:greenyellow;" d="M146,-466C140,-466 134,-460 134,-454"/>
<polyline style="fill:none;stroke:greenyellow;" points="134,-454 134,-432 "/>
<path style="fill:none;stroke:greenyellow;" d="M134,-432C134,-426 140,-420 146,-420"/>
<polyline style="fill:none;stroke:greenyellow;" points="146,-420 392,-420 "/>
<path style="fill:none;stroke:greenyellow;" d="M392,-420C398,-420 404,-426 404,-432"/>
<polyline style="fill:none;stroke:greenyellow;" points="404,-432 404,-454 "/>
<path style="fill:none;stroke:greenyellow;" d="M404,-454C404,-460 398,-466 392,-466"/>
<text text-anchor="middle" x="269" y="-446" style="font-family:Nimbus Sans L;font-weight:bold;font-size:12.96pt;">Performing UE&#45;Assisted positioning</text>
<text text-anchor="middle" x="269" y="-427" style="font-family:Nimbus Sans L;font-weight:bold;font-size:12.96pt;">(UE&#45;Based positioning continue)</text>
</g>
<!-- UE_Based&#45;&gt;UE_Assisted -->
<g id="edge6" class="edge"><title>UE_Based&#45;&gt;UE_Assisted</title>
<path style="fill:none;stroke:red;" d="M679,-676C618,-667 546,-650 486,-622 408,-584 334,-514 297,-473"/>
<polygon style="fill:red;stroke:red;" points="299.546,-470.596 290,-466 294.596,-475.546 299.546,-470.596"/>
<a xlink:title="Timer a2 expired/\nSend M.R\nReceive M.C.\n(Modify,Reporting Interval=t)\nStart up Timer t">
</a>
<a xlink:title="Timer a2 expired/\nSend M.R\nReceive M.C.\n(Modify,Reporting Interval=t)\nStart up Timer t">
</a>
<text text-anchor="middle" x="587" y="-606" style="font-family:Nimbus Sans L;font-weight:bold;font-size:12.96pt;fill:red;">Timer a2 expired/</text>
<text text-anchor="middle" x="587" y="-587" style="font-family:Nimbus Sans L;font-weight:bold;font-size:12.96pt;fill:red;">Send M.R</text>
<text text-anchor="middle" x="587" y="-568" style="font-family:Nimbus Sans L;font-weight:bold;font-size:12.96pt;fill:red;">Receive M.C.</text>
<text text-anchor="middle" x="587" y="-549" style="font-family:Nimbus Sans L;font-weight:bold;font-size:12.96pt;fill:red;">(Modify,Reporting Interval=t)</text>
<text text-anchor="middle" x="587" y="-530" style="font-family:Nimbus Sans L;font-weight:bold;font-size:12.96pt;fill:red;">Start up Timer t</text>
</g>
<!-- Waiting_MC -->
<g id="node5" class="node"><title>Waiting_MC</title>
<polygon style="fill:greenyellow;stroke:greenyellow;" points="601,-241 429,-241 417,-229 417,-217 429,-205 601,-205 613,-217 613,-229 601,-241"/>
<path style="fill:greenyellow;stroke:greenyellow;" d="M429,-241C423,-241 417,-235 417,-229"/>
<path style="fill:greenyellow;stroke:greenyellow;" d="M417,-217C417,-211 423,-205 429,-205"/>
<path style="fill:greenyellow;stroke:greenyellow;" d="M601,-205C607,-205 613,-211 613,-217"/>
<path style="fill:greenyellow;stroke:greenyellow;" d="M613,-229C613,-235 607,-241 601,-241"/>
<polyline style="fill:none;stroke:greenyellow;" points="601,-241 429,-241 "/>
<path style="fill:none;stroke:greenyellow;" d="M429,-241C423,-241 417,-235 417,-229"/>
<polyline style="fill:none;stroke:greenyellow;" points="417,-229 417,-217 "/>
<path style="fill:none;stroke:greenyellow;" d="M417,-217C417,-211 423,-205 429,-205"/>
<polyline style="fill:none;stroke:greenyellow;" points="429,-205 601,-205 "/>
<path style="fill:none;stroke:greenyellow;" d="M601,-205C607,-205 613,-211 613,-217"/>
<polyline style="fill:none;stroke:greenyellow;" points="613,-217 613,-229 "/>
<path style="fill:none;stroke:greenyellow;" d="M613,-229C613,-235 607,-241 601,-241"/>
<text text-anchor="middle" x="515" y="-217" style="font-family:Nimbus Sans L;font-weight:bold;font-size:12.96pt;">Waiting for M.C. Release</text>
</g>
<!-- UE_Based&#45;&gt;Waiting_MC -->
<g id="edge8" class="edge"><title>UE_Based&#45;&gt;Waiting_MC</title>
<path style="fill:none;stroke:black;" d="M793,-665C774,-628 736,-551 716,-483 691,-397 728,-362 685,-284 666,-250 656,-227 623,-224"/>
<polygon style="fill:black;stroke:black;" points="623.299,-220.512 613,-223 622.602,-227.478 623.299,-220.512"/>
<a xlink:title="UE&#45;Based success/\nStop UE&#45;Based Positioning,\nSend M.R.\n(confidence=68)">
</a>
<a xlink:title="UE&#45;Based success/\nStop UE&#45;Based Positioning,\nSend M.R.\n(confidence=68)">
</a>
<text text-anchor="middle" x="802" y="-461" style="font-family:Nimbus Sans L;font-weight:regular;font-size:11.34pt;">UE&#45;Based success/</text>
<text text-anchor="middle" x="802" y="-445" style="font-family:Nimbus Sans L;font-weight:regular;font-size:11.34pt;">Stop UE&#45;Based Positioning,</text>
<text text-anchor="middle" x="802" y="-429" style="font-family:Nimbus Sans L;font-weight:regular;font-size:11.34pt;">Send M.R.</text>
<text text-anchor="middle" x="802" y="-413" style="font-family:Nimbus Sans L;font-weight:regular;font-size:11.34pt;">(confidence=68)</text>
</g>
<!-- UE_Based&#45;&gt;Waiting_MC -->
<g id="edge10" class="edge"><title>UE_Based&#45;&gt;Waiting_MC</title>
<path style="fill:none;stroke:black;" d="M822,-665C859,-615 936,-493 888,-403 820,-277 762,-225 623,-223"/>
<polygon style="fill:black;stroke:black;" points="623,-219.5 613,-223 623,-226.5 623,-219.5"/>
<a xlink:title="UE&#45;Based fix accuracy too low/\nStop UE&#45;Based Positioning,\nSend M.R.\n(confidence=100)">
</a>
<a xlink:title="UE&#45;Based fix accuracy too low/\nStop UE&#45;Based Positioning,\nSend M.R.\n(confidence=100)">
</a>
<text text-anchor="middle" x="998" y="-461" style="font-family:Nimbus Sans L;font-weight:regular;font-size:11.34pt;">UE&#45;Based fix accuracy too low/</text>
<text text-anchor="middle" x="998" y="-445" style="font-family:Nimbus Sans L;font-weight:regular;font-size:11.34pt;">Stop UE&#45;Based Positioning,</text>
<text text-anchor="middle" x="998" y="-429" style="font-family:Nimbus Sans L;font-weight:regular;font-size:11.34pt;">Send M.R.</text>
<text text-anchor="middle" x="998" y="-413" style="font-family:Nimbus Sans L;font-weight:regular;font-size:11.34pt;">(confidence=100)</text>
</g>
<!-- UE_Based&#45;&gt;Waiting_MC -->
<g id="edge12" class="edge"><title>UE_Based&#45;&gt;Waiting_MC</title>
<path style="fill:none;stroke:black;" d="M862,-665C967,-621 1171,-518 1098,-403 1038,-308 744,-228 623,-223"/>
<polygon style="fill:black;stroke:black;" points="623,-219.5 613,-223 623,-226.5 623,-219.5"/>
<a xlink:title="Ref Position\naccurate enough/\nStop UE&#45;Based Positioning,\nSend M.R.\n(confidence=0)">
</a>
<a xlink:title="Ref Position\naccurate enough/\nStop UE&#45;Based Positioning,\nSend M.R.\n(confidence=0)">
</a>
<text text-anchor="middle" x="1198" y="-469" style="font-family:Nimbus Sans L;font-weight:regular;font-size:11.34pt;">Ref Position</text>
<text text-anchor="middle" x="1198" y="-453" style="font-family:Nimbus Sans L;font-weight:regular;font-size:11.34pt;">accurate enough/</text>
<text text-anchor="middle" x="1198" y="-437" style="font-family:Nimbus Sans L;font-weight:regular;font-size:11.34pt;">Stop UE&#45;Based Positioning,</text>
<text text-anchor="middle" x="1198" y="-421" style="font-family:Nimbus Sans L;font-weight:regular;font-size:11.34pt;">Send M.R.</text>
<text text-anchor="middle" x="1198" y="-405" style="font-family:Nimbus Sans L;font-weight:regular;font-size:11.34pt;">(confidence=0)</text>
</g>
<!-- UE_Assisted&#45;&gt;UE_Assisted -->
<g id="edge14" class="edge"><title>UE_Assisted&#45;&gt;UE_Assisted</title>
<path style="fill:none;stroke:black;" d="M269,-466C218,-526 116,-526 116,-454 116,-387 127,-383 133,-433"/>
<polygon style="fill:black;stroke:black;" points="129.522,-433.398 134,-443 136.488,-432.701 129.522,-433.398"/>
<a xlink:title="Timer t expired/\nSend M.R,\nrestart timer t">
</a>
<a xlink:title="Timer t expired/\nSend M.R,\nrestart timer t">
</a>
<text text-anchor="middle" x="68" y="-453" style="font-family:Nimbus Sans L;font-weight:regular;font-size:11.34pt;">Timer t expired/</text>
<text text-anchor="middle" x="68" y="-437" style="font-family:Nimbus Sans L;font-weight:regular;font-size:11.34pt;">Send M.R,</text>
<text text-anchor="middle" x="68" y="-421" style="font-family:Nimbus Sans L;font-weight:regular;font-size:11.34pt;">restart timer t</text>
</g>
<!-- UE_Assisted&#45;&gt;Waiting_MC -->
<g id="edge16" class="edge"><title>UE_Assisted&#45;&gt;Waiting_MC</title>
<path style="fill:none;stroke:black;" d="M159,-420C127,-408 95,-389 75,-360 57,-331 54,-309 75,-284 98,-256 343,-227 407,-223"/>
<polygon style="fill:black;stroke:black;" points="407,-226.5 417,-223 407,-219.5 407,-226.5"/>
<a xlink:title="timer a4 expired/\nStop UE&#45;Based Positioning,\nSend M.R.\n(confidence=100)">
</a>
<a xlink:title="timer a4 expired/\nStop UE&#45;Based Positioning,\nSend M.R.\n(confidence=100)">
</a>
<text text-anchor="middle" x="161" y="-340" style="font-family:Nimbus Sans L;font-weight:regular;font-size:11.34pt;">timer a4 expired/</text>
<text text-anchor="middle" x="161" y="-324" style="font-family:Nimbus Sans L;font-weight:regular;font-size:11.34pt;">Stop UE&#45;Based Positioning,</text>
<text text-anchor="middle" x="161" y="-308" style="font-family:Nimbus Sans L;font-weight:regular;font-size:11.34pt;">Send M.R.</text>
<text text-anchor="middle" x="161" y="-292" style="font-family:Nimbus Sans L;font-weight:regular;font-size:11.34pt;">(confidence=100)</text>
</g>
<!-- UE_Assisted&#45;&gt;Waiting_MC -->
<g id="edge18" class="edge"><title>UE_Assisted&#45;&gt;Waiting_MC</title>
<path style="fill:none;stroke:red;" d="M261,-420C252,-387 242,-325 270,-284 307,-228 342,-223 407,-223"/>
<polygon style="fill:red;stroke:red;" points="407,-226.5 417,-223 407,-219.5 407,-226.5"/>
<a xlink:title="UE&#45;Based fix accuracy too low/\nStop UE&#45;Based Positioning,\nSend M.R.\n(confidence=100)">
</a>
<a xlink:title="UE&#45;Based fix accuracy too low/\nStop UE&#45;Based Positioning,\nSend M.R.\n(confidence=100)">
</a>
<text text-anchor="middle" x="381" y="-344" style="font-family:Nimbus Sans L;font-weight:bold;font-size:12.96pt;fill:red;">UE&#45;Based fix accuracy too low/</text>
<text text-anchor="middle" x="381" y="-325" style="font-family:Nimbus Sans L;font-weight:bold;font-size:12.96pt;fill:red;">Stop UE&#45;Based Positioning,</text>
<text text-anchor="middle" x="381" y="-306" style="font-family:Nimbus Sans L;font-weight:bold;font-size:12.96pt;fill:red;">Send M.R.</text>
<text text-anchor="middle" x="381" y="-287" style="font-family:Nimbus Sans L;font-weight:bold;font-size:12.96pt;fill:red;">(confidence=100)</text>
</g>
<!-- UE_Assisted&#45;&gt;Waiting_MC -->
<g id="edge22" class="edge"><title>UE_Assisted&#45;&gt;Waiting_MC</title>
<path style="fill:none;stroke:black;" d="M399,-420C434,-408 469,-389 493,-360 506,-344 512,-286 514,-251"/>
<polygon style="fill:black;stroke:black;" points="517.5,-251 514,-241 510.5,-251 517.5,-251"/>
<a xlink:title="UE&#45;Based success/\nStop UE&#45;Based Positioning,\nSend M.R.\n(confidence=68)">
</a>
<a xlink:title="UE&#45;Based success/\nStop UE&#45;Based Positioning,\nSend M.R.\n(confidence=68)">
</a>
<text text-anchor="middle" x="595" y="-340" style="font-family:Nimbus Sans L;font-weight:regular;font-size:11.34pt;">UE&#45;Based success/</text>
<text text-anchor="middle" x="595" y="-324" style="font-family:Nimbus Sans L;font-weight:regular;font-size:11.34pt;">Stop UE&#45;Based Positioning,</text>
<text text-anchor="middle" x="595" y="-308" style="font-family:Nimbus Sans L;font-weight:regular;font-size:11.34pt;">Send M.R.</text>
<text text-anchor="middle" x="595" y="-292" style="font-family:Nimbus Sans L;font-weight:regular;font-size:11.34pt;">(confidence=68)</text>
</g>
<!-- Waiting_Facility -->
<g id="node7" class="node"><title>Waiting_Facility</title>
<polygon style="fill:greenyellow;stroke:greenyellow;" points="149,-81 25,-81 13,-69 13,-57 25,-45 149,-45 161,-57 161,-69 149,-81"/>
<path style="fill:greenyellow;stroke:greenyellow;" d="M25,-81C19,-81 13,-75 13,-69"/>
<path style="fill:greenyellow;stroke:greenyellow;" d="M13,-57C13,-51 19,-45 25,-45"/>
<path style="fill:greenyellow;stroke:greenyellow;" d="M149,-45C155,-45 161,-51 161,-57"/>
<path style="fill:greenyellow;stroke:greenyellow;" d="M161,-69C161,-75 155,-81 149,-81"/>
<polyline style="fill:none;stroke:greenyellow;" points="149,-81 25,-81 "/>
<path style="fill:none;stroke:greenyellow;" d="M25,-81C19,-81 13,-75 13,-69"/>
<polyline style="fill:none;stroke:greenyellow;" points="13,-69 13,-57 "/>
<path style="fill:none;stroke:greenyellow;" d="M13,-57C13,-51 19,-45 25,-45"/>
<polyline style="fill:none;stroke:greenyellow;" points="25,-45 149,-45 "/>
<path style="fill:none;stroke:greenyellow;" d="M149,-45C155,-45 161,-51 161,-57"/>
<polyline style="fill:none;stroke:greenyellow;" points="161,-57 161,-69 "/>
<path style="fill:none;stroke:greenyellow;" d="M161,-69C161,-75 155,-81 149,-81"/>
<text text-anchor="middle" x="87" y="-57" style="font-family:Nimbus Sans L;font-weight:bold;font-size:12.96pt;">Waiting for Facility</text>
</g>
<!-- UE_Assisted&#45;&gt;Waiting_Facility -->
<g id="edge20" class="edge"><title>UE_Assisted&#45;&gt;Waiting_Facility</title>
<path style="fill:none;stroke:black;" d="M184,-420C132,-404 72,-382 57,-360 0,-276 48,-147 74,-90"/>
<polygon style="fill:black;stroke:black;" points="77.1369,-91.5596 78,-81 70.7402,-88.7166 77.1369,-91.5596"/>
<a xlink:title="Receive M.C. Release/\nStop UE&#45;Based Positioning">
</a>
<a xlink:title="Receive M.C. Release/\nStop UE&#45;Based Positioning">
</a>
<text text-anchor="middle" x="121" y="-225" style="font-family:Nimbus Sans L;font-weight:regular;font-size:11.34pt;">Receive M.C. Release/</text>
<text text-anchor="middle" x="121" y="-209" style="font-family:Nimbus Sans L;font-weight:regular;font-size:11.34pt;">Stop UE&#45;Based Positioning</text>
</g>
<!-- Waiting_MC&#45;&gt;Waiting_Facility -->
<g id="edge24" class="edge"><title>Waiting_MC&#45;&gt;Waiting_Facility</title>
<path style="fill:none;stroke:black;" d="M467,-205C388,-175 230,-117 145,-85"/>
<polygon style="fill:black;stroke:black;" points="145.585,-81.4643 135,-81 142.985,-87.9636 145.585,-81.4643"/>
<a xlink:title="Receive M.C Release">
</a>
<a xlink:title="Receive M.C Release">
</a>
<text text-anchor="middle" x="418" y="-137" style="font-family:Nimbus Sans L;font-weight:regular;font-size:11.34pt;">Receive M.C Release</text>
</g>
<!-- End -->
<g id="node8" class="node"><title>End</title>
<polygon style="fill:greenyellow;stroke:greenyellow;" points="503,-81 391,-81 379,-69 379,-57 391,-45 503,-45 515,-57 515,-69 503,-81"/>
<path style="fill:greenyellow;stroke:greenyellow;" d="M391,-81C385,-81 379,-75 379,-69"/>
<path style="fill:greenyellow;stroke:greenyellow;" d="M379,-57C379,-51 385,-45 391,-45"/>
<path style="fill:greenyellow;stroke:greenyellow;" d="M503,-45C509,-45 515,-51 515,-57"/>
<path style="fill:greenyellow;stroke:greenyellow;" d="M515,-69C515,-75 509,-81 503,-81"/>
<polyline style="fill:none;stroke:greenyellow;" points="503,-81 391,-81 "/>
<path style="fill:none;stroke:greenyellow;" d="M391,-81C385,-81 379,-75 379,-69"/>
<polyline style="fill:none;stroke:greenyellow;" points="379,-69 379,-57 "/>
<path style="fill:none;stroke:greenyellow;" d="M379,-57C379,-51 385,-45 391,-45"/>
<polyline style="fill:none;stroke:greenyellow;" points="391,-45 503,-45 "/>
<path style="fill:none;stroke:greenyellow;" d="M503,-45C509,-45 515,-51 515,-57"/>
<polyline style="fill:none;stroke:greenyellow;" points="515,-57 515,-69 "/>
<path style="fill:none;stroke:greenyellow;" d="M515,-69C515,-75 509,-81 503,-81"/>
<text text-anchor="middle" x="447" y="-57" style="font-family:Nimbus Sans L;font-weight:bold;font-size:12.96pt;">Positioning Ends</text>
</g>
<!-- Waiting_MC&#45;&gt;End -->
<g id="edge26" class="edge"><title>Waiting_MC&#45;&gt;End</title>
<path style="fill:none;stroke:red;" d="M521,-205C536,-167 567,-76 525,-64"/>
<polygon style="fill:red;stroke:red;" points="525.299,-60.5125 515,-63 524.602,-67.4778 525.299,-60.5125"/>
<a xlink:title="M.C. wait timer expired\nSend M.R (some error)">
</a>
<a xlink:title="M.C. wait timer expired\nSend M.R (some error)">
</a>
<text text-anchor="middle" x="624" y="-146" style="font-family:Nimbus Sans L;font-weight:bold;font-size:12.96pt;fill:red;">M.C. wait timer expired</text>
<text text-anchor="middle" x="624" y="-127" style="font-family:Nimbus Sans L;font-weight:bold;font-size:12.96pt;fill:red;">Send M.R (some error)</text>
</g>
<!-- Waiting_Facility&#45;&gt;End -->
<g id="edge28" class="edge"><title>Waiting_Facility&#45;&gt;End</title>
<path style="fill:none;stroke:black;" d="M162,-47C172,-45 182,-44 192,-43 262,-36 280,-36 348,-43 355,-44 361,-44 368,-45"/>
<polygon style="fill:black;stroke:black;" points="367.508,-48.4708 378,-47 368.881,-41.6067 367.508,-48.4708"/>
<a xlink:title="Facility wait timer expired">
</a>
<a xlink:title="Facility wait timer expired">
</a>
<text text-anchor="middle" x="270" y="-45" style="font-family:Nimbus Sans L;font-weight:regular;font-size:11.34pt;">Facility wait timer expired</text>
</g>
<!-- Waiting_Facility&#45;&gt;End -->
<g id="edge30" class="edge"><title>Waiting_Facility&#45;&gt;End</title>
<path style="fill:none;stroke:black;" d="M162,-63C222,-63 306,-63 368,-63"/>
<polygon style="fill:black;stroke:black;" points="368,-66.5001 378,-63 368,-59.5001 368,-66.5001"/>
<a xlink:title="Receive Facility">
</a>
<a xlink:title="Receive Facility">
</a>
<text text-anchor="middle" x="270" y="-65" style="font-family:Nimbus Sans L;font-weight:regular;font-size:11.34pt;">Receive Facility</text>
</g>
</g>
</svg>
