<?xml version="1.0" encoding="UTF-8" standalone="no"?>
<!DOCTYPE svg PUBLIC "-//W3C//DTD SVG 1.0//EN"
 "http://www.w3.org/TR/2001/REC-SVG-20010904/DTD/svg10.dtd" [
 <!ATTLIST svg xmlns:xlink CDATA #FIXED "http://www.w3.org/1999/xlink">
]>
<!-- Generated by Graphviz version 2.12 (Mon Dec  4 22:04:37 UTC 2006)
     For user: Bill Gates -->
<!-- Title: finite_state_machine Pages: 1 -->
<svg width="9.50in" height="6.30in"
 xmlns="http://www.w3.org/2000/svg" xmlns:xlink="http://www.w3.org/1999/xlink">
<g id="graph0" class="graph" transform="scale(0.869399 0.869399) rotate(0) translate(4 693)">
<title>finite_state_machine</title>
<polygon style="fill:white;stroke:white;" points="-4,4 -4,-693 1045,-693 1045,4 -4,4"/>
<text text-anchor="middle" x="520" y="-8" style="font-family:Nimbus Roman No9 L;font-weight:medium;font-size:19.44pt;">Hybrid &#45; LBS &#45; UE&#45;Assisted &#45;X3P &#45; GPS Result Futile</text>
<!-- Idle -->
<g id="node2" class="node"><title>Idle</title>
<polygon style="fill:greenyellow;stroke:greenyellow;" points="387,-669 357,-669 345,-657 345,-645 357,-633 387,-633 399,-645 399,-657 387,-669"/>
<path style="fill:greenyellow;stroke:greenyellow;" d="M357,-669C351,-669 345,-663 345,-657"/>
<path style="fill:greenyellow;stroke:greenyellow;" d="M345,-645C345,-639 351,-633 357,-633"/>
<path style="fill:greenyellow;stroke:greenyellow;" d="M387,-633C393,-633 399,-639 399,-645"/>
<path style="fill:greenyellow;stroke:greenyellow;" d="M399,-657C399,-663 393,-669 387,-669"/>
<polyline style="fill:none;stroke:greenyellow;" points="387,-669 357,-669 "/>
<path style="fill:none;stroke:greenyellow;" d="M357,-669C351,-669 345,-663 345,-657"/>
<polyline style="fill:none;stroke:greenyellow;" points="345,-657 345,-645 "/>
<path style="fill:none;stroke:greenyellow;" d="M345,-645C345,-639 351,-633 357,-633"/>
<polyline style="fill:none;stroke:greenyellow;" points="357,-633 387,-633 "/>
<path style="fill:none;stroke:greenyellow;" d="M387,-633C393,-633 399,-639 399,-645"/>
<polyline style="fill:none;stroke:greenyellow;" points="399,-645 399,-657 "/>
<path style="fill:none;stroke:greenyellow;" d="M399,-657C399,-663 393,-669 387,-669"/>
<text text-anchor="middle" x="372" y="-645" style="font-family:Nimbus Sans L;font-weight:bold;font-size:12.96pt;">Idle</text>
</g>
<!-- UE_Based -->
<g id="node3" class="node"><title>UE_Based</title>
<polygon style="fill:greenyellow;stroke:greenyellow;" points="793,-674 563,-674 551,-662 551,-640 563,-628 793,-628 805,-640 805,-662 793,-674"/>
<path style="fill:greenyellow;stroke:greenyellow;" d="M563,-674C557,-674 551,-668 551,-662"/>
<path style="fill:greenyellow;stroke:greenyellow;" d="M551,-640C551,-634 557,-628 563,-628"/>
<path style="fill:greenyellow;stroke:greenyellow;" d="M793,-628C799,-628 805,-634 805,-640"/>
<path style="fill:greenyellow;stroke:greenyellow;" d="M805,-662C805,-668 799,-674 793,-674"/>
<polyline style="fill:none;stroke:greenyellow;" points="793,-674 563,-674 "/>
<path style="fill:none;stroke:greenyellow;" d="M563,-674C557,-674 551,-668 551,-662"/>
<polyline style="fill:none;stroke:greenyellow;" points="551,-662 551,-640 "/>
<path style="fill:none;stroke:greenyellow;" d="M551,-640C551,-634 557,-628 563,-628"/>
<polyline style="fill:none;stroke:greenyellow;" points="563,-628 793,-628 "/>
<path style="fill:none;stroke:greenyellow;" d="M793,-628C799,-628 805,-634 805,-640"/>
<polyline style="fill:none;stroke:greenyellow;" points="805,-640 805,-662 "/>
<path style="fill:none;stroke:greenyellow;" d="M805,-662C805,-668 799,-674 793,-674"/>
<text text-anchor="middle" x="678" y="-654" style="font-family:Nimbus Sans L;font-weight:bold;font-size:12.96pt;">Performing UE&#45;Based positioning</text>
<text text-anchor="middle" x="678" y="-635" style="font-family:Nimbus Sans L;font-weight:bold;font-size:12.96pt;">under Hybrid Positioning</text>
</g>
<!-- Idle&#45;&gt;UE_Based -->
<g id="edge4" class="edge"><title>Idle&#45;&gt;UE_Based</title>
<path style="fill:none;stroke:red;" d="M399,-651C431,-651 487,-651 541,-651"/>
<polygon style="fill:red;stroke:red;" points="541,-654.5 551,-651 541,-647.5 541,-654.5"/>
<a xlink:title="Send M.C. (Setup)\nStart a2,a4 timer">
</a>
<a xlink:title="Send M.C. (Setup)\nStart a2,a4 timer">
</a>
<text text-anchor="middle" x="475" y="-673" style="font-family:Nimbus Sans L;font-weight:bold;font-size:12.96pt;fill:red;">Send M.C. (Setup)</text>
<text text-anchor="middle" x="475" y="-654" style="font-family:Nimbus Sans L;font-weight:bold;font-size:12.96pt;fill:red;">Start a2,a4 timer</text>
</g>
<!-- UE_Assisted -->
<g id="node4" class="node"><title>UE_Assisted</title>
<polygon style="fill:greenyellow;stroke:greenyellow;" points="392,-453 146,-453 134,-441 134,-419 146,-407 392,-407 404,-419 404,-441 392,-453"/>
<path style="fill:greenyellow;stroke:greenyellow;" d="M146,-453C140,-453 134,-447 134,-441"/>
<path style="fill:greenyellow;stroke:greenyellow;" d="M134,-419C134,-413 140,-407 146,-407"/>
<path style="fill:greenyellow;stroke:greenyellow;" d="M392,-407C398,-407 404,-413 404,-419"/>
<path style="fill:greenyellow;stroke:greenyellow;" d="M404,-441C404,-447 398,-453 392,-453"/>
<polyline style="fill:none;stroke:greenyellow;" points="392,-453 146,-453 "/>
<path style="fill:none;stroke:greenyellow;" d="M146,-453C140,-453 134,-447 134,-441"/>
<polyline style="fill:none;stroke:greenyellow;" points="134,-441 134,-419 "/>
<path style="fill:none;stroke:greenyellow;" d="M134,-419C134,-413 140,-407 146,-407"/>
<polyline style="fill:none;stroke:greenyellow;" points="146,-407 392,-407 "/>
<path style="fill:none;stroke:greenyellow;" d="M392,-407C398,-407 404,-413 404,-419"/>
<polyline style="fill:none;stroke:greenyellow;" points="404,-419 404,-441 "/>
<path style="fill:none;stroke:greenyellow;" d="M404,-441C404,-447 398,-453 392,-453"/>
<text text-anchor="middle" x="269" y="-433" style="font-family:Nimbus Sans L;font-weight:bold;font-size:12.96pt;">Performing UE&#45;Assisted positioning</text>
<text text-anchor="middle" x="269" y="-414" style="font-family:Nimbus Sans L;font-weight:bold;font-size:12.96pt;">(UE&#45;Based positioning continue)</text>
</g>
<!-- UE_Based&#45;&gt;UE_Assisted -->
<g id="edge6" class="edge"><title>UE_Based&#45;&gt;UE_Assisted</title>
<path style="fill:none;stroke:black;" d="M597,-628C563,-617 524,-602 490,-585 420,-549 347,-494 305,-460"/>
<polygon style="fill:black;stroke:black;" points="306.831,-456.951 297,-453 302.221,-462.219 306.831,-456.951"/>
<a xlink:title="Timer a2 expired/\nSend M.R\nReceive M.C.\n(Modify,Reporting Interval=t)\nStart up Timer t">
</a>
<a xlink:title="Timer a2 expired/\nSend M.R\nReceive M.C.\n(Modify,Reporting Interval=t)\nStart up Timer t">
</a>
<text text-anchor="middle" x="580" y="-571" style="font-family:Nimbus Sans L;font-weight:regular;font-size:11.34pt;">Timer a2 expired/</text>
<text text-anchor="middle" x="580" y="-555" style="font-family:Nimbus Sans L;font-weight:regular;font-size:11.34pt;">Send M.R</text>
<text text-anchor="middle" x="580" y="-539" style="font-family:Nimbus Sans L;font-weight:regular;font-size:11.34pt;">Receive M.C.</text>
<text text-anchor="middle" x="580" y="-523" style="font-family:Nimbus Sans L;font-weight:regular;font-size:11.34pt;">(Modify,Reporting Interval=t)</text>
<text text-anchor="middle" x="580" y="-507" style="font-family:Nimbus Sans L;font-weight:regular;font-size:11.34pt;">Start up Timer t</text>
</g>
<!-- Waiting_MC -->
<g id="node5" class="node"><title>Waiting_MC</title>
<polygon style="fill:greenyellow;stroke:greenyellow;" points="560,-236 388,-236 376,-224 376,-212 388,-200 560,-200 572,-212 572,-224 560,-236"/>
<path style="fill:greenyellow;stroke:greenyellow;" d="M388,-236C382,-236 376,-230 376,-224"/>
<path style="fill:greenyellow;stroke:greenyellow;" d="M376,-212C376,-206 382,-200 388,-200"/>
<path style="fill:greenyellow;stroke:greenyellow;" d="M560,-200C566,-200 572,-206 572,-212"/>
<path style="fill:greenyellow;stroke:greenyellow;" d="M572,-224C572,-230 566,-236 560,-236"/>
<polyline style="fill:none;stroke:greenyellow;" points="560,-236 388,-236 "/>
<path style="fill:none;stroke:greenyellow;" d="M388,-236C382,-236 376,-230 376,-224"/>
<polyline style="fill:none;stroke:greenyellow;" points="376,-224 376,-212 "/>
<path style="fill:none;stroke:greenyellow;" d="M376,-212C376,-206 382,-200 388,-200"/>
<polyline style="fill:none;stroke:greenyellow;" points="388,-200 560,-200 "/>
<path style="fill:none;stroke:greenyellow;" d="M560,-200C566,-200 572,-206 572,-212"/>
<polyline style="fill:none;stroke:greenyellow;" points="572,-212 572,-224 "/>
<path style="fill:none;stroke:greenyellow;" d="M572,-224C572,-230 566,-236 560,-236"/>
<text text-anchor="middle" x="474" y="-212" style="font-family:Nimbus Sans L;font-weight:bold;font-size:12.96pt;">Waiting for M.C. Release</text>
</g>
<!-- UE_Based&#45;&gt;Waiting_MC -->
<g id="edge8" class="edge"><title>UE_Based&#45;&gt;Waiting_MC</title>
<path style="fill:none;stroke:black;" d="M679,-628C683,-557 694,-339 661,-279 639,-240 622,-221 582,-218"/>
<polygon style="fill:black;stroke:black;" points="582,-214.5 572,-218 582,-221.5 582,-214.5"/>
<a xlink:title="UE&#45;Based success/\nStop UE&#45;Based Positioning,\nSend M.R.\n(confidence=68)">
</a>
<a xlink:title="UE&#45;Based success/\nStop UE&#45;Based Positioning,\nSend M.R.\n(confidence=68)">
</a>
<text text-anchor="middle" x="769" y="-448" style="font-family:Nimbus Sans L;font-weight:regular;font-size:11.34pt;">UE&#45;Based success/</text>
<text text-anchor="middle" x="769" y="-432" style="font-family:Nimbus Sans L;font-weight:regular;font-size:11.34pt;">Stop UE&#45;Based Positioning,</text>
<text text-anchor="middle" x="769" y="-416" style="font-family:Nimbus Sans L;font-weight:regular;font-size:11.34pt;">Send M.R.</text>
<text text-anchor="middle" x="769" y="-400" style="font-family:Nimbus Sans L;font-weight:regular;font-size:11.34pt;">(confidence=68)</text>
</g>
<!-- UE_Based&#45;&gt;Waiting_MC -->
<g id="edge10" class="edge"><title>UE_Based&#45;&gt;Waiting_MC</title>
<path style="fill:none;stroke:black;" d="M714,-628C780,-586 907,-490 859,-398 790,-268 725,-220 582,-218"/>
<polygon style="fill:black;stroke:black;" points="582,-214.5 572,-218 582,-221.5 582,-214.5"/>
<a xlink:title="UE&#45;Based (Futile)/\nStop UE&#45;Based Positioning,\nSend M.R.(RefPos)\n(confidence=100)">
</a>
<a xlink:title="UE&#45;Based (Futile)/\nStop UE&#45;Based Positioning,\nSend M.R.(RefPos)\n(confidence=100)">
</a>
<text text-anchor="middle" x="955" y="-448" style="font-family:Nimbus Sans L;font-weight:regular;font-size:11.34pt;">UE&#45;Based (Futile)/</text>
<text text-anchor="middle" x="955" y="-432" style="font-family:Nimbus Sans L;font-weight:regular;font-size:11.34pt;">Stop UE&#45;Based Positioning,</text>
<text text-anchor="middle" x="955" y="-416" style="font-family:Nimbus Sans L;font-weight:regular;font-size:11.34pt;">Send M.R.(RefPos)</text>
<text text-anchor="middle" x="955" y="-400" style="font-family:Nimbus Sans L;font-weight:regular;font-size:11.34pt;">(confidence=100)</text>
</g>
<!-- UE_Assisted&#45;&gt;UE_Assisted -->
<g id="edge12" class="edge"><title>UE_Assisted&#45;&gt;UE_Assisted</title>
<path style="fill:none;stroke:black;" d="M269,-453C218,-509 116,-509 116,-441 116,-378 127,-374 133,-420"/>
<polygon style="fill:black;stroke:black;" points="129.522,-420.398 134,-430 136.488,-419.701 129.522,-420.398"/>
<a xlink:title="Timer t expired/\nSend M.R,\nrestart timer t">
</a>
<a xlink:title="Timer t expired/\nSend M.R,\nrestart timer t">
</a>
<text text-anchor="middle" x="68" y="-440" style="font-family:Nimbus Sans L;font-weight:regular;font-size:11.34pt;">Timer t expired/</text>
<text text-anchor="middle" x="68" y="-424" style="font-family:Nimbus Sans L;font-weight:regular;font-size:11.34pt;">Send M.R,</text>
<text text-anchor="middle" x="68" y="-408" style="font-family:Nimbus Sans L;font-weight:regular;font-size:11.34pt;">restart timer t</text>
</g>
<!-- UE_Assisted&#45;&gt;Waiting_MC -->
<g id="edge14" class="edge"><title>UE_Assisted&#45;&gt;Waiting_MC</title>
<path style="fill:none;stroke:black;" d="M147,-407C119,-396 92,-380 75,-355 56,-327 54,-305 75,-279 95,-254 308,-223 366,-218"/>
<polygon style="fill:black;stroke:black;" points="366,-221.5 376,-218 366,-214.5 366,-221.5"/>
<a xlink:title="timer a4 expired/\nStop UE&#45;Based Positioning,\nSend M.R.\n(confidence=100)">
</a>
<a xlink:title="timer a4 expired/\nStop UE&#45;Based Positioning,\nSend M.R.\n(confidence=100)">
</a>
<text text-anchor="middle" x="161" y="-335" style="font-family:Nimbus Sans L;font-weight:regular;font-size:11.34pt;">timer a4 expired/</text>
<text text-anchor="middle" x="161" y="-319" style="font-family:Nimbus Sans L;font-weight:regular;font-size:11.34pt;">Stop UE&#45;Based Positioning,</text>
<text text-anchor="middle" x="161" y="-303" style="font-family:Nimbus Sans L;font-weight:regular;font-size:11.34pt;">Send M.R.</text>
<text text-anchor="middle" x="161" y="-287" style="font-family:Nimbus Sans L;font-weight:regular;font-size:11.34pt;">(confidence=100)</text>
</g>
<!-- UE_Assisted&#45;&gt;Waiting_MC -->
<g id="edge16" class="edge"><title>UE_Assisted&#45;&gt;Waiting_MC</title>
<path style="fill:none;stroke:red;" d="M262,-407C255,-376 246,-319 270,-279 295,-235 318,-220 366,-218"/>
<polygon style="fill:red;stroke:red;" points="366,-221.5 376,-218 366,-214.5 366,-221.5"/>
<a xlink:title="UE&#45;Based (Futile)/\nStop UE&#45;Based Positioning,\nSend M.R.(RefPos)\n(confidence=100)">
</a>
<a xlink:title="UE&#45;Based (Futile)/\nStop UE&#45;Based Positioning,\nSend M.R.(RefPos)\n(confidence=100)">
</a>
<text text-anchor="middle" x="369" y="-339" style="font-family:Nimbus Sans L;font-weight:bold;font-size:12.96pt;fill:red;">UE&#45;Based (Futile)/</text>
<text text-anchor="middle" x="369" y="-320" style="font-family:Nimbus Sans L;font-weight:bold;font-size:12.96pt;fill:red;">Stop UE&#45;Based Positioning,</text>
<text text-anchor="middle" x="369" y="-301" style="font-family:Nimbus Sans L;font-weight:bold;font-size:12.96pt;fill:red;">Send M.R.(RefPos)</text>
<text text-anchor="middle" x="369" y="-282" style="font-family:Nimbus Sans L;font-weight:bold;font-size:12.96pt;fill:red;">(confidence=100)</text>
</g>
<!-- UE_Assisted&#45;&gt;Waiting_MC -->
<g id="edge20" class="edge"><title>UE_Assisted&#45;&gt;Waiting_MC</title>
<path style="fill:none;stroke:black;" d="M358,-407C404,-393 455,-374 469,-355 491,-323 487,-276 481,-246"/>
<polygon style="fill:black;stroke:black;" points="484.393,-245.119 479,-236 477.529,-246.492 484.393,-245.119"/>
<a xlink:title="UE&#45;Based success/\nStop UE&#45;Based Positioning,\nSend M.R.\n(confidence=68)">
</a>
<a xlink:title="UE&#45;Based success/\nStop UE&#45;Based Positioning,\nSend M.R.\n(confidence=68)">
</a>
<text text-anchor="middle" x="571" y="-335" style="font-family:Nimbus Sans L;font-weight:regular;font-size:11.34pt;">UE&#45;Based success/</text>
<text text-anchor="middle" x="571" y="-319" style="font-family:Nimbus Sans L;font-weight:regular;font-size:11.34pt;">Stop UE&#45;Based Positioning,</text>
<text text-anchor="middle" x="571" y="-303" style="font-family:Nimbus Sans L;font-weight:regular;font-size:11.34pt;">Send M.R.</text>
<text text-anchor="middle" x="571" y="-287" style="font-family:Nimbus Sans L;font-weight:regular;font-size:11.34pt;">(confidence=68)</text>
</g>
<!-- Waiting_Facility -->
<g id="node7" class="node"><title>Waiting_Facility</title>
<polygon style="fill:greenyellow;stroke:greenyellow;" points="136,-82 12,-82 6.15804e-014,-70 3.78956e-014,-58 12,-46 136,-46 148,-58 148,-70 136,-82"/>
<path style="fill:greenyellow;stroke:greenyellow;" d="M12,-82C6,-82 7.34227e-014,-76 6.15804e-014,-70"/>
<path style="fill:greenyellow;stroke:greenyellow;" d="M3.78956e-014,-58C2.60532e-014,-52 6,-46 12,-46"/>
<path style="fill:greenyellow;stroke:greenyellow;" d="M136,-46C142,-46 148,-52 148,-58"/>
<path style="fill:greenyellow;stroke:greenyellow;" d="M148,-70C148,-76 142,-82 136,-82"/>
<polyline style="fill:none;stroke:greenyellow;" points="136,-82 12,-82 "/>
<path style="fill:none;stroke:greenyellow;" d="M12,-82C6,-82 7.34227e-014,-76 6.15804e-014,-70"/>
<polyline style="fill:none;stroke:greenyellow;" points="6.15804e-014,-70 3.78956e-014,-58 "/>
<path style="fill:none;stroke:greenyellow;" d="M3.78956e-014,-58C2.60532e-014,-52 6,-46 12,-46"/>
<polyline style="fill:none;stroke:greenyellow;" points="12,-46 136,-46 "/>
<path style="fill:none;stroke:greenyellow;" d="M136,-46C142,-46 148,-52 148,-58"/>
<polyline style="fill:none;stroke:greenyellow;" points="148,-58 148,-70 "/>
<path style="fill:none;stroke:greenyellow;" d="M148,-70C148,-76 142,-82 136,-82"/>
<text text-anchor="middle" x="74" y="-58" style="font-family:Nimbus Sans L;font-weight:bold;font-size:12.96pt;">Waiting for Facility</text>
</g>
<!-- UE_Assisted&#45;&gt;Waiting_Facility -->
<g id="edge18" class="edge"><title>UE_Assisted&#45;&gt;Waiting_Facility</title>
<path style="fill:none;stroke:black;" d="M172,-407C123,-393 71,-375 57,-355 1,-274 40,-147 62,-92"/>
<polygon style="fill:black;stroke:black;" points="65.5357,-92.5847 66,-82 59.0364,-89.9849 65.5357,-92.5847"/>
<a xlink:title="Receive M.C. Release/\nStop UE&#45;Based Positioning">
</a>
<a xlink:title="Receive M.C. Release/\nStop UE&#45;Based Positioning">
</a>
<text text-anchor="middle" x="117" y="-220" style="font-family:Nimbus Sans L;font-weight:regular;font-size:11.34pt;">Receive M.C. Release/</text>
<text text-anchor="middle" x="117" y="-204" style="font-family:Nimbus Sans L;font-weight:regular;font-size:11.34pt;">Stop UE&#45;Based Positioning</text>
</g>
<!-- Waiting_MC&#45;&gt;Waiting_Facility -->
<g id="edge22" class="edge"><title>Waiting_MC&#45;&gt;Waiting_Facility</title>
<path style="fill:none;stroke:red;" d="M427,-200C353,-171 210,-116 130,-86"/>
<polygon style="fill:red;stroke:red;" points="131.56,-82.8631 121,-82 128.717,-89.2598 131.56,-82.8631"/>
<a xlink:title="Receive M.C Release">
</a>
<a xlink:title="Receive M.C Release">
</a>
<text text-anchor="middle" x="387" y="-135" style="font-family:Nimbus Sans L;font-weight:bold;font-size:12.96pt;fill:red;">Receive M.C Release</text>
</g>
<!-- End -->
<g id="node8" class="node"><title>End</title>
<polygon style="fill:greenyellow;stroke:greenyellow;" points="462,-82 350,-82 338,-70 338,-58 350,-46 462,-46 474,-58 474,-70 462,-82"/>
<path style="fill:greenyellow;stroke:greenyellow;" d="M350,-82C344,-82 338,-76 338,-70"/>
<path style="fill:greenyellow;stroke:greenyellow;" d="M338,-58C338,-52 344,-46 350,-46"/>
<path style="fill:greenyellow;stroke:greenyellow;" d="M462,-46C468,-46 474,-52 474,-58"/>
<path style="fill:greenyellow;stroke:greenyellow;" d="M474,-70C474,-76 468,-82 462,-82"/>
<polyline style="fill:none;stroke:greenyellow;" points="462,-82 350,-82 "/>
<path style="fill:none;stroke:greenyellow;" d="M350,-82C344,-82 338,-76 338,-70"/>
<polyline style="fill:none;stroke:greenyellow;" points="338,-70 338,-58 "/>
<path style="fill:none;stroke:greenyellow;" d="M338,-58C338,-52 344,-46 350,-46"/>
<polyline style="fill:none;stroke:greenyellow;" points="350,-46 462,-46 "/>
<path style="fill:none;stroke:greenyellow;" d="M462,-46C468,-46 474,-52 474,-58"/>
<polyline style="fill:none;stroke:greenyellow;" points="474,-58 474,-70 "/>
<path style="fill:none;stroke:greenyellow;" d="M474,-70C474,-76 468,-82 462,-82"/>
<text text-anchor="middle" x="406" y="-58" style="font-family:Nimbus Sans L;font-weight:bold;font-size:12.96pt;">Positioning Ends</text>
</g>
<!-- Waiting_MC&#45;&gt;End -->
<g id="edge24" class="edge"><title>Waiting_MC&#45;&gt;End</title>
<path style="fill:none;stroke:black;" d="M480,-200C495,-163 524,-77 484,-65"/>
<polygon style="fill:black;stroke:black;" points="484.299,-61.5125 474,-64 483.602,-68.4778 484.299,-61.5125"/>
<a xlink:title="M.C. wait timer expired\nSend M.R (some error)">
</a>
<a xlink:title="M.C. wait timer expired\nSend M.R (some error)">
</a>
<text text-anchor="middle" x="571" y="-143" style="font-family:Nimbus Sans L;font-weight:regular;font-size:11.34pt;">M.C. wait timer expired</text>
<text text-anchor="middle" x="571" y="-127" style="font-family:Nimbus Sans L;font-weight:regular;font-size:11.34pt;">Send M.R (some error)</text>
</g>
<!-- Waiting_Facility&#45;&gt;End -->
<g id="edge26" class="edge"><title>Waiting_Facility&#45;&gt;End</title>
<path style="fill:none;stroke:black;" d="M149,-46C154,-45 160,-45 165,-44 234,-36 253,-36 321,-44 323,-44 325,-45 327,-45"/>
<polygon style="fill:black;stroke:black;" points="326.701,-48.4875 337,-46 327.398,-41.5222 326.701,-48.4875"/>
<a xlink:title="Facility wait timer expired">
</a>
<a xlink:title="Facility wait timer expired">
</a>
<text text-anchor="middle" x="243" y="-46" style="font-family:Nimbus Sans L;font-weight:regular;font-size:11.34pt;">Facility wait timer expired</text>
</g>
<!-- Waiting_Facility&#45;&gt;End -->
<g id="edge28" class="edge"><title>Waiting_Facility&#45;&gt;End</title>
<path style="fill:none;stroke:red;" d="M149,-64C202,-64 273,-64 327,-64"/>
<polygon style="fill:red;stroke:red;" points="327,-67.5001 337,-64 327,-60.5001 327,-67.5001"/>
<a xlink:title="Receive Facility">
</a>
<a xlink:title="Receive Facility">
</a>
<text text-anchor="middle" x="243" y="-66" style="font-family:Nimbus Sans L;font-weight:bold;font-size:12.96pt;fill:red;">Receive Facility</text>
</g>
</g>
</svg>
