<?xml version="1.0" encoding="UTF-8" standalone="no"?>
<!DOCTYPE svg PUBLIC "-//W3C//DTD SVG 1.0//EN"
 "http://www.w3.org/TR/2001/REC-SVG-20010904/DTD/svg10.dtd" [
 <!ATTLIST svg xmlns:xlink CDATA #FIXED "http://www.w3.org/1999/xlink">
]>
<!-- Generated by Graphviz version 2.12 (Mon Dec  4 22:04:37 UTC 2006)
     For user: Bill Gates -->
<!-- Title: finite_state_machine Pages: 1 -->
<svg width="9.50in" height="6.46in"
 xmlns="http://www.w3.org/2000/svg" xmlns:xlink="http://www.w3.org/1999/xlink">
<g id="graph0" class="graph" transform="scale(0.881159 0.881159) rotate(0) translate(4 700)">
<title>finite_state_machine</title>
<polygon style="fill:white;stroke:white;" points="-4,4 -4,-700 1031,-700 1031,4 -4,4"/>
<text text-anchor="middle" x="513" y="-8" style="font-family:Nimbus Roman No9 L;font-weight:medium;font-size:19.44pt;">Hybrid &#45; LBS &#45; UE&#45;Assisted X3P &#45; No GPS Result</text>
<!-- Idle -->
<g id="node2" class="node"><title>Idle</title>
<polygon style="fill:greenyellow;stroke:greenyellow;" points="373,-676 343,-676 331,-664 331,-652 343,-640 373,-640 385,-652 385,-664 373,-676"/>
<path style="fill:greenyellow;stroke:greenyellow;" d="M343,-676C337,-676 331,-670 331,-664"/>
<path style="fill:greenyellow;stroke:greenyellow;" d="M331,-652C331,-646 337,-640 343,-640"/>
<path style="fill:greenyellow;stroke:greenyellow;" d="M373,-640C379,-640 385,-646 385,-652"/>
<path style="fill:greenyellow;stroke:greenyellow;" d="M385,-664C385,-670 379,-676 373,-676"/>
<polyline style="fill:none;stroke:greenyellow;" points="373,-676 343,-676 "/>
<path style="fill:none;stroke:greenyellow;" d="M343,-676C337,-676 331,-670 331,-664"/>
<polyline style="fill:none;stroke:greenyellow;" points="331,-664 331,-652 "/>
<path style="fill:none;stroke:greenyellow;" d="M331,-652C331,-646 337,-640 343,-640"/>
<polyline style="fill:none;stroke:greenyellow;" points="343,-640 373,-640 "/>
<path style="fill:none;stroke:greenyellow;" d="M373,-640C379,-640 385,-646 385,-652"/>
<polyline style="fill:none;stroke:greenyellow;" points="385,-652 385,-664 "/>
<path style="fill:none;stroke:greenyellow;" d="M385,-664C385,-670 379,-676 373,-676"/>
<text text-anchor="middle" x="358" y="-652" style="font-family:Nimbus Sans L;font-weight:bold;font-size:12.96pt;">Idle</text>
</g>
<!-- UE_Based -->
<g id="node3" class="node"><title>UE_Based</title>
<polygon style="fill:greenyellow;stroke:greenyellow;" points="779,-681 549,-681 537,-669 537,-647 549,-635 779,-635 791,-647 791,-669 779,-681"/>
<path style="fill:greenyellow;stroke:greenyellow;" d="M549,-681C543,-681 537,-675 537,-669"/>
<path style="fill:greenyellow;stroke:greenyellow;" d="M537,-647C537,-641 543,-635 549,-635"/>
<path style="fill:greenyellow;stroke:greenyellow;" d="M779,-635C785,-635 791,-641 791,-647"/>
<path style="fill:greenyellow;stroke:greenyellow;" d="M791,-669C791,-675 785,-681 779,-681"/>
<polyline style="fill:none;stroke:greenyellow;" points="779,-681 549,-681 "/>
<path style="fill:none;stroke:greenyellow;" d="M549,-681C543,-681 537,-675 537,-669"/>
<polyline style="fill:none;stroke:greenyellow;" points="537,-669 537,-647 "/>
<path style="fill:none;stroke:greenyellow;" d="M537,-647C537,-641 543,-635 549,-635"/>
<polyline style="fill:none;stroke:greenyellow;" points="549,-635 779,-635 "/>
<path style="fill:none;stroke:greenyellow;" d="M779,-635C785,-635 791,-641 791,-647"/>
<polyline style="fill:none;stroke:greenyellow;" points="791,-647 791,-669 "/>
<path style="fill:none;stroke:greenyellow;" d="M791,-669C791,-675 785,-681 779,-681"/>
<text text-anchor="middle" x="664" y="-661" style="font-family:Nimbus Sans L;font-weight:bold;font-size:12.96pt;">Performing UE&#45;Based positioning</text>
<text text-anchor="middle" x="664" y="-642" style="font-family:Nimbus Sans L;font-weight:bold;font-size:12.96pt;">under Hybrid Positioning</text>
</g>
<!-- Idle&#45;&gt;UE_Based -->
<g id="edge4" class="edge"><title>Idle&#45;&gt;UE_Based</title>
<path style="fill:none;stroke:red;" d="M385,-658C417,-658 473,-658 527,-658"/>
<polygon style="fill:red;stroke:red;" points="527,-661.5 537,-658 527,-654.5 527,-661.5"/>
<a xlink:title="Send M.C. (Setup)\nStart a2,a4 timer">
</a>
<a xlink:title="Send M.C. (Setup)\nStart a2,a4 timer">
</a>
<text text-anchor="middle" x="461" y="-680" style="font-family:Nimbus Sans L;font-weight:bold;font-size:12.96pt;fill:red;">Send M.C. (Setup)</text>
<text text-anchor="middle" x="461" y="-661" style="font-family:Nimbus Sans L;font-weight:bold;font-size:12.96pt;fill:red;">Start a2,a4 timer</text>
</g>
<!-- UE_Assisted -->
<g id="node4" class="node"><title>UE_Assisted</title>
<polygon style="fill:greenyellow;stroke:greenyellow;" points="405,-444 159,-444 147,-432 147,-410 159,-398 405,-398 417,-410 417,-432 405,-444"/>
<path style="fill:greenyellow;stroke:greenyellow;" d="M159,-444C153,-444 147,-438 147,-432"/>
<path style="fill:greenyellow;stroke:greenyellow;" d="M147,-410C147,-404 153,-398 159,-398"/>
<path style="fill:greenyellow;stroke:greenyellow;" d="M405,-398C411,-398 417,-404 417,-410"/>
<path style="fill:greenyellow;stroke:greenyellow;" d="M417,-432C417,-438 411,-444 405,-444"/>
<polyline style="fill:none;stroke:greenyellow;" points="405,-444 159,-444 "/>
<path style="fill:none;stroke:greenyellow;" d="M159,-444C153,-444 147,-438 147,-432"/>
<polyline style="fill:none;stroke:greenyellow;" points="147,-432 147,-410 "/>
<path style="fill:none;stroke:greenyellow;" d="M147,-410C147,-404 153,-398 159,-398"/>
<polyline style="fill:none;stroke:greenyellow;" points="159,-398 405,-398 "/>
<path style="fill:none;stroke:greenyellow;" d="M405,-398C411,-398 417,-404 417,-410"/>
<polyline style="fill:none;stroke:greenyellow;" points="417,-410 417,-432 "/>
<path style="fill:none;stroke:greenyellow;" d="M417,-432C417,-438 411,-444 405,-444"/>
<text text-anchor="middle" x="282" y="-424" style="font-family:Nimbus Sans L;font-weight:bold;font-size:12.96pt;">Performing UE&#45;Assisted positioning</text>
<text text-anchor="middle" x="282" y="-405" style="font-family:Nimbus Sans L;font-weight:bold;font-size:12.96pt;">(UE&#45;Based positioning continue)</text>
</g>
<!-- UE_Based&#45;&gt;UE_Assisted -->
<g id="edge6" class="edge"><title>UE_Based&#45;&gt;UE_Assisted</title>
<path style="fill:none;stroke:red;" d="M551,-635C516,-625 479,-611 448,-592 387,-555 333,-491 304,-452"/>
<polygon style="fill:red;stroke:red;" points="306.8,-449.9 298,-444 301.2,-454.1 306.8,-449.9"/>
<a xlink:title="Timer a2 expired/\nSend M.R\nReceive M.C.\n(Modify,Reporting Interval=t)\nStart up Timer t">
</a>
<a xlink:title="Timer a2 expired/\nSend M.R\nReceive M.C.\n(Modify,Reporting Interval=t)\nStart up Timer t">
</a>
<text text-anchor="middle" x="549" y="-576" style="font-family:Nimbus Sans L;font-weight:bold;font-size:12.96pt;fill:red;">Timer a2 expired/</text>
<text text-anchor="middle" x="549" y="-557" style="font-family:Nimbus Sans L;font-weight:bold;font-size:12.96pt;fill:red;">Send M.R</text>
<text text-anchor="middle" x="549" y="-538" style="font-family:Nimbus Sans L;font-weight:bold;font-size:12.96pt;fill:red;">Receive M.C.</text>
<text text-anchor="middle" x="549" y="-519" style="font-family:Nimbus Sans L;font-weight:bold;font-size:12.96pt;fill:red;">(Modify,Reporting Interval=t)</text>
<text text-anchor="middle" x="549" y="-500" style="font-family:Nimbus Sans L;font-weight:bold;font-size:12.96pt;fill:red;">Start up Timer t</text>
</g>
<!-- Waiting_MC -->
<g id="node5" class="node"><title>Waiting_MC</title>
<polygon style="fill:greenyellow;stroke:greenyellow;" points="553,-238 381,-238 369,-226 369,-214 381,-202 553,-202 565,-214 565,-226 553,-238"/>
<path style="fill:greenyellow;stroke:greenyellow;" d="M381,-238C375,-238 369,-232 369,-226"/>
<path style="fill:greenyellow;stroke:greenyellow;" d="M369,-214C369,-208 375,-202 381,-202"/>
<path style="fill:greenyellow;stroke:greenyellow;" d="M553,-202C559,-202 565,-208 565,-214"/>
<path style="fill:greenyellow;stroke:greenyellow;" d="M565,-226C565,-232 559,-238 553,-238"/>
<polyline style="fill:none;stroke:greenyellow;" points="553,-238 381,-238 "/>
<path style="fill:none;stroke:greenyellow;" d="M381,-238C375,-238 369,-232 369,-226"/>
<polyline style="fill:none;stroke:greenyellow;" points="369,-226 369,-214 "/>
<path style="fill:none;stroke:greenyellow;" d="M369,-214C369,-208 375,-202 381,-202"/>
<polyline style="fill:none;stroke:greenyellow;" points="381,-202 553,-202 "/>
<path style="fill:none;stroke:greenyellow;" d="M553,-202C559,-202 565,-208 565,-214"/>
<polyline style="fill:none;stroke:greenyellow;" points="565,-214 565,-226 "/>
<path style="fill:none;stroke:greenyellow;" d="M565,-226C565,-232 559,-238 553,-238"/>
<text text-anchor="middle" x="467" y="-214" style="font-family:Nimbus Sans L;font-weight:bold;font-size:12.96pt;">Waiting for M.C. Release</text>
</g>
<!-- UE_Based&#45;&gt;Waiting_MC -->
<g id="edge8" class="edge"><title>UE_Based&#45;&gt;Waiting_MC</title>
<path style="fill:none;stroke:black;" d="M664,-635C669,-564 680,-343 648,-282 628,-244 613,-223 575,-220"/>
<polygon style="fill:black;stroke:black;" points="575,-216.5 565,-220 575,-223.5 575,-216.5"/>
<a xlink:title="UE&#45;Based success/\nStop UE&#45;Based Positioning,\nSend M.R.\n(confidence=68)">
</a>
<a xlink:title="UE&#45;Based success/\nStop UE&#45;Based Positioning,\nSend M.R.\n(confidence=68)">
</a>
<text text-anchor="middle" x="754" y="-439" style="font-family:Nimbus Sans L;font-weight:regular;font-size:11.34pt;">UE&#45;Based success/</text>
<text text-anchor="middle" x="754" y="-423" style="font-family:Nimbus Sans L;font-weight:regular;font-size:11.34pt;">Stop UE&#45;Based Positioning,</text>
<text text-anchor="middle" x="754" y="-407" style="font-family:Nimbus Sans L;font-weight:regular;font-size:11.34pt;">Send M.R.</text>
<text text-anchor="middle" x="754" y="-391" style="font-family:Nimbus Sans L;font-weight:regular;font-size:11.34pt;">(confidence=68)</text>
</g>
<!-- UE_Based&#45;&gt;Waiting_MC -->
<g id="edge10" class="edge"><title>UE_Based&#45;&gt;Waiting_MC</title>
<path style="fill:none;stroke:black;" d="M698,-635C764,-590 897,-484 844,-389 775,-265 712,-222 575,-220"/>
<polygon style="fill:black;stroke:black;" points="575,-216.5 565,-220 575,-223.5 575,-216.5"/>
<a xlink:title="UE&#45;Based (Futile)/\nStop UE&#45;Based Positioning,\nSend M.R.(RefPos)\n(confidence=100)">
</a>
<a xlink:title="UE&#45;Based (Futile)/\nStop UE&#45;Based Positioning,\nSend M.R.(RefPos)\n(confidence=100)">
</a>
<text text-anchor="middle" x="941" y="-439" style="font-family:Nimbus Sans L;font-weight:regular;font-size:11.34pt;">UE&#45;Based (Futile)/</text>
<text text-anchor="middle" x="941" y="-423" style="font-family:Nimbus Sans L;font-weight:regular;font-size:11.34pt;">Stop UE&#45;Based Positioning,</text>
<text text-anchor="middle" x="941" y="-407" style="font-family:Nimbus Sans L;font-weight:regular;font-size:11.34pt;">Send M.R.(RefPos)</text>
<text text-anchor="middle" x="941" y="-391" style="font-family:Nimbus Sans L;font-weight:regular;font-size:11.34pt;">(confidence=100)</text>
</g>
<!-- UE_Assisted&#45;&gt;UE_Assisted -->
<g id="edge12" class="edge"><title>UE_Assisted&#45;&gt;UE_Assisted</title>
<path style="fill:none;stroke:black;" d="M282,-444C231,-497 129,-497 129,-432 129,-372 139,-368 146,-411"/>
<polygon style="fill:black;stroke:black;" points="142.522,-411.398 147,-421 149.488,-410.701 142.522,-411.398"/>
<a xlink:title="Timer t expired/\nSend M.R,\nrestart timer t">
</a>
<a xlink:title="Timer t expired/\nSend M.R,\nrestart timer t">
</a>
<text text-anchor="middle" x="81" y="-431" style="font-family:Nimbus Sans L;font-weight:regular;font-size:11.34pt;">Timer t expired/</text>
<text text-anchor="middle" x="81" y="-415" style="font-family:Nimbus Sans L;font-weight:regular;font-size:11.34pt;">Send M.R,</text>
<text text-anchor="middle" x="81" y="-399" style="font-family:Nimbus Sans L;font-weight:regular;font-size:11.34pt;">restart timer t</text>
</g>
<!-- UE_Assisted&#45;&gt;Waiting_MC -->
<g id="edge14" class="edge"><title>UE_Assisted&#45;&gt;Waiting_MC</title>
<path style="fill:none;stroke:black;" d="M160,-398C132,-387 105,-371 88,-346 72,-322 71,-304 88,-282 97,-270 308,-229 359,-221"/>
<polygon style="fill:black;stroke:black;" points="359.398,-224.478 369,-220 358.701,-217.512 359.398,-224.478"/>
<a xlink:title="timer a4 expired/\nStop UE&#45;Based Positioning,\nSend M.R.\n(confidence=100)">
</a>
<a xlink:title="timer a4 expired/\nStop UE&#45;Based Positioning,\nSend M.R.\n(confidence=100)">
</a>
<text text-anchor="middle" x="174" y="-332" style="font-family:Nimbus Sans L;font-weight:regular;font-size:11.34pt;">timer a4 expired/</text>
<text text-anchor="middle" x="174" y="-316" style="font-family:Nimbus Sans L;font-weight:regular;font-size:11.34pt;">Stop UE&#45;Based Positioning,</text>
<text text-anchor="middle" x="174" y="-300" style="font-family:Nimbus Sans L;font-weight:regular;font-size:11.34pt;">Send M.R.</text>
<text text-anchor="middle" x="174" y="-284" style="font-family:Nimbus Sans L;font-weight:regular;font-size:11.34pt;">(confidence=100)</text>
</g>
<!-- UE_Assisted&#45;&gt;Waiting_MC -->
<g id="edge16" class="edge"><title>UE_Assisted&#45;&gt;Waiting_MC</title>
<path style="fill:none;stroke:black;" d="M275,-398C269,-369 263,-319 283,-282 302,-243 318,-223 359,-220"/>
<polygon style="fill:black;stroke:black;" points="359,-223.5 369,-220 359,-216.5 359,-223.5"/>
<a xlink:title="UE&#45;Based (Futile)/\nStop UE&#45;Based Positioning,\nSend M.R.(RefPos)\n(confidence=100)">
</a>
<a xlink:title="UE&#45;Based (Futile)/\nStop UE&#45;Based Positioning,\nSend M.R.(RefPos)\n(confidence=100)">
</a>
<text text-anchor="middle" x="369" y="-332" style="font-family:Nimbus Sans L;font-weight:regular;font-size:11.34pt;">UE&#45;Based (Futile)/</text>
<text text-anchor="middle" x="369" y="-316" style="font-family:Nimbus Sans L;font-weight:regular;font-size:11.34pt;">Stop UE&#45;Based Positioning,</text>
<text text-anchor="middle" x="369" y="-300" style="font-family:Nimbus Sans L;font-weight:regular;font-size:11.34pt;">Send M.R.(RefPos)</text>
<text text-anchor="middle" x="369" y="-284" style="font-family:Nimbus Sans L;font-weight:regular;font-size:11.34pt;">(confidence=100)</text>
</g>
<!-- UE_Assisted&#45;&gt;Waiting_MC -->
<g id="edge20" class="edge"><title>UE_Assisted&#45;&gt;Waiting_MC</title>
<path style="fill:none;stroke:black;" d="M381,-398C409,-387 437,-370 455,-346 475,-318 475,-276 472,-248"/>
<polygon style="fill:black;stroke:black;" points="475.478,-247.602 471,-238 468.512,-248.299 475.478,-247.602"/>
<a xlink:title="UE&#45;Based success/\nStop UE&#45;Based Positioning,\nSend M.R.\n(confidence=68)">
</a>
<a xlink:title="UE&#45;Based success/\nStop UE&#45;Based Positioning,\nSend M.R.\n(confidence=68)">
</a>
<text text-anchor="middle" x="558" y="-332" style="font-family:Nimbus Sans L;font-weight:regular;font-size:11.34pt;">UE&#45;Based success/</text>
<text text-anchor="middle" x="558" y="-316" style="font-family:Nimbus Sans L;font-weight:regular;font-size:11.34pt;">Stop UE&#45;Based Positioning,</text>
<text text-anchor="middle" x="558" y="-300" style="font-family:Nimbus Sans L;font-weight:regular;font-size:11.34pt;">Send M.R.</text>
<text text-anchor="middle" x="558" y="-284" style="font-family:Nimbus Sans L;font-weight:regular;font-size:11.34pt;">(confidence=68)</text>
</g>
<!-- Waiting_Facility -->
<g id="node7" class="node"><title>Waiting_Facility</title>
<polygon style="fill:greenyellow;stroke:greenyellow;" points="136,-83 12,-83 6.15804e-014,-71 3.78956e-014,-59 12,-47 136,-47 148,-59 148,-71 136,-83"/>
<path style="fill:greenyellow;stroke:greenyellow;" d="M12,-83C6,-83 7.34227e-014,-77 6.15804e-014,-71"/>
<path style="fill:greenyellow;stroke:greenyellow;" d="M3.78956e-014,-59C2.60532e-014,-53 6,-47 12,-47"/>
<path style="fill:greenyellow;stroke:greenyellow;" d="M136,-47C142,-47 148,-53 148,-59"/>
<path style="fill:greenyellow;stroke:greenyellow;" d="M148,-71C148,-77 142,-83 136,-83"/>
<polyline style="fill:none;stroke:greenyellow;" points="136,-83 12,-83 "/>
<path style="fill:none;stroke:greenyellow;" d="M12,-83C6,-83 7.34227e-014,-77 6.15804e-014,-71"/>
<polyline style="fill:none;stroke:greenyellow;" points="6.15804e-014,-71 3.78956e-014,-59 "/>
<path style="fill:none;stroke:greenyellow;" d="M3.78956e-014,-59C2.60532e-014,-53 6,-47 12,-47"/>
<polyline style="fill:none;stroke:greenyellow;" points="12,-47 136,-47 "/>
<path style="fill:none;stroke:greenyellow;" d="M136,-47C142,-47 148,-53 148,-59"/>
<polyline style="fill:none;stroke:greenyellow;" points="148,-59 148,-71 "/>
<path style="fill:none;stroke:greenyellow;" d="M148,-71C148,-77 142,-83 136,-83"/>
<text text-anchor="middle" x="74" y="-59" style="font-family:Nimbus Sans L;font-weight:bold;font-size:12.96pt;">Waiting for Facility</text>
</g>
<!-- UE_Assisted&#45;&gt;Waiting_Facility -->
<g id="edge18" class="edge"><title>UE_Assisted&#45;&gt;Waiting_Facility</title>
<path style="fill:none;stroke:red;" d="M185,-398C137,-384 86,-366 72,-346 18,-268 47,-147 64,-93"/>
<polygon style="fill:red;stroke:red;" points="67.4788,-93.584 67,-83 60.7741,-91.5725 67.4788,-93.584"/>
<a xlink:title="Receive M.C. Release/\nStop UE&#45;Based Positioning">
</a>
<a xlink:title="Receive M.C. Release/\nStop UE&#45;Based Positioning">
</a>
<text text-anchor="middle" x="141" y="-223" style="font-family:Nimbus Sans L;font-weight:bold;font-size:12.96pt;fill:red;">Receive M.C. Release/</text>
<text text-anchor="middle" x="141" y="-204" style="font-family:Nimbus Sans L;font-weight:bold;font-size:12.96pt;fill:red;">Stop UE&#45;Based Positioning</text>
</g>
<!-- Waiting_MC&#45;&gt;Waiting_Facility -->
<g id="edge22" class="edge"><title>Waiting_MC&#45;&gt;Waiting_Facility</title>
<path style="fill:none;stroke:black;" d="M421,-202C348,-173 207,-118 130,-87"/>
<polygon style="fill:black;stroke:black;" points="130.585,-83.4643 120,-83 127.985,-89.9636 130.585,-83.4643"/>
<a xlink:title="Receive M.C Release">
</a>
<a xlink:title="Receive M.C Release">
</a>
<text text-anchor="middle" x="372" y="-136" style="font-family:Nimbus Sans L;font-weight:regular;font-size:11.34pt;">Receive M.C Release</text>
</g>
<!-- End -->
<g id="node8" class="node"><title>End</title>
<polygon style="fill:greenyellow;stroke:greenyellow;" points="455,-83 343,-83 331,-71 331,-59 343,-47 455,-47 467,-59 467,-71 455,-83"/>
<path style="fill:greenyellow;stroke:greenyellow;" d="M343,-83C337,-83 331,-77 331,-71"/>
<path style="fill:greenyellow;stroke:greenyellow;" d="M331,-59C331,-53 337,-47 343,-47"/>
<path style="fill:greenyellow;stroke:greenyellow;" d="M455,-47C461,-47 467,-53 467,-59"/>
<path style="fill:greenyellow;stroke:greenyellow;" d="M467,-71C467,-77 461,-83 455,-83"/>
<polyline style="fill:none;stroke:greenyellow;" points="455,-83 343,-83 "/>
<path style="fill:none;stroke:greenyellow;" d="M343,-83C337,-83 331,-77 331,-71"/>
<polyline style="fill:none;stroke:greenyellow;" points="331,-71 331,-59 "/>
<path style="fill:none;stroke:greenyellow;" d="M331,-59C331,-53 337,-47 343,-47"/>
<polyline style="fill:none;stroke:greenyellow;" points="343,-47 455,-47 "/>
<path style="fill:none;stroke:greenyellow;" d="M455,-47C461,-47 467,-53 467,-59"/>
<polyline style="fill:none;stroke:greenyellow;" points="467,-59 467,-71 "/>
<path style="fill:none;stroke:greenyellow;" d="M467,-71C467,-77 461,-83 455,-83"/>
<text text-anchor="middle" x="399" y="-59" style="font-family:Nimbus Sans L;font-weight:bold;font-size:12.96pt;">Positioning Ends</text>
</g>
<!-- Waiting_MC&#45;&gt;End -->
<g id="edge24" class="edge"><title>Waiting_MC&#45;&gt;End</title>
<path style="fill:none;stroke:black;" d="M473,-202C488,-165 517,-78 477,-66"/>
<polygon style="fill:black;stroke:black;" points="477.299,-62.5125 467,-65 476.602,-69.4778 477.299,-62.5125"/>
<a xlink:title="M.C. wait timer expired\nSend M.R (some error)">
</a>
<a xlink:title="M.C. wait timer expired\nSend M.R (some error)">
</a>
<text text-anchor="middle" x="564" y="-144" style="font-family:Nimbus Sans L;font-weight:regular;font-size:11.34pt;">M.C. wait timer expired</text>
<text text-anchor="middle" x="564" y="-128" style="font-family:Nimbus Sans L;font-weight:regular;font-size:11.34pt;">Send M.R (some error)</text>
</g>
<!-- Waiting_Facility&#45;&gt;End -->
<g id="edge26" class="edge"><title>Waiting_Facility&#45;&gt;End</title>
<path style="fill:none;stroke:black;" d="M147,-47C152,-46 157,-45 162,-45 231,-37 250,-36 318,-45 319,-45 321,-45 322,-45"/>
<polygon style="fill:black;stroke:black;" points="321.508,-48.4708 332,-47 322.881,-41.6067 321.508,-48.4708"/>
<a xlink:title="Facility wait timer expired">
</a>
<a xlink:title="Facility wait timer expired">
</a>
<text text-anchor="middle" x="240" y="-47" style="font-family:Nimbus Sans L;font-weight:regular;font-size:11.34pt;">Facility wait timer expired</text>
</g>
<!-- Waiting_Facility&#45;&gt;End -->
<g id="edge28" class="edge"><title>Waiting_Facility&#45;&gt;End</title>
<path style="fill:none;stroke:red;" d="M149,-65C201,-65 268,-65 320,-65"/>
<polygon style="fill:red;stroke:red;" points="320,-68.5001 330,-65 320,-61.5001 320,-68.5001"/>
<a xlink:title="Receive Facility">
</a>
<a xlink:title="Receive Facility">
</a>
<text text-anchor="middle" x="240" y="-67" style="font-family:Nimbus Sans L;font-weight:bold;font-size:12.96pt;fill:red;">Receive Facility</text>
</g>
</g>
</svg>
