<?xml version="1.0" encoding="UTF-8" standalone="no"?>
<!DOCTYPE svg PUBLIC "-//W3C//DTD SVG 1.0//EN"
 "http://www.w3.org/TR/2001/REC-SVG-20010904/DTD/svg10.dtd" [
 <!ATTLIST svg xmlns:xlink CDATA #FIXED "http://www.w3.org/1999/xlink">
]>
<!-- Generated by Graphviz version 2.12 (Mon Dec  4 22:04:37 UTC 2006)
     For user: Bill Gates -->
<!-- Title: finite_state_machine Pages: 1 -->
<svg width="9.50in" height="6.24in"
 xmlns="http://www.w3.org/2000/svg" xmlns:xlink="http://www.w3.org/1999/xlink">
<g id="graph0" class="graph" transform="scale(0.858757 0.858757) rotate(0) translate(4 694)">
<title>finite_state_machine</title>
<polygon style="fill:white;stroke:white;" points="-4,4 -4,-694 1058,-694 1058,4 -4,4"/>
<text text-anchor="middle" x="527" y="-8" style="font-family:Nimbus Roman No9 L;font-weight:medium;font-size:19.44pt;">Hybrid &#45; LBS &#45; UE&#45;Based X3P &#45; GPS Result Futile</text>
<!-- Idle -->
<g id="node2" class="node"><title>Idle</title>
<polygon style="fill:greenyellow;stroke:greenyellow;" points="373,-670 343,-670 331,-658 331,-646 343,-634 373,-634 385,-646 385,-658 373,-670"/>
<path style="fill:greenyellow;stroke:greenyellow;" d="M343,-670C337,-670 331,-664 331,-658"/>
<path style="fill:greenyellow;stroke:greenyellow;" d="M331,-646C331,-640 337,-634 343,-634"/>
<path style="fill:greenyellow;stroke:greenyellow;" d="M373,-634C379,-634 385,-640 385,-646"/>
<path style="fill:greenyellow;stroke:greenyellow;" d="M385,-658C385,-664 379,-670 373,-670"/>
<polyline style="fill:none;stroke:greenyellow;" points="373,-670 343,-670 "/>
<path style="fill:none;stroke:greenyellow;" d="M343,-670C337,-670 331,-664 331,-658"/>
<polyline style="fill:none;stroke:greenyellow;" points="331,-658 331,-646 "/>
<path style="fill:none;stroke:greenyellow;" d="M331,-646C331,-640 337,-634 343,-634"/>
<polyline style="fill:none;stroke:greenyellow;" points="343,-634 373,-634 "/>
<path style="fill:none;stroke:greenyellow;" d="M373,-634C379,-634 385,-640 385,-646"/>
<polyline style="fill:none;stroke:greenyellow;" points="385,-646 385,-658 "/>
<path style="fill:none;stroke:greenyellow;" d="M385,-658C385,-664 379,-670 373,-670"/>
<text text-anchor="middle" x="358" y="-646" style="font-family:Nimbus Sans L;font-weight:bold;font-size:12.96pt;">Idle</text>
</g>
<!-- UE_Based -->
<g id="node3" class="node"><title>UE_Based</title>
<polygon style="fill:greenyellow;stroke:greenyellow;" points="779,-675 549,-675 537,-663 537,-641 549,-629 779,-629 791,-641 791,-663 779,-675"/>
<path style="fill:greenyellow;stroke:greenyellow;" d="M549,-675C543,-675 537,-669 537,-663"/>
<path style="fill:greenyellow;stroke:greenyellow;" d="M537,-641C537,-635 543,-629 549,-629"/>
<path style="fill:greenyellow;stroke:greenyellow;" d="M779,-629C785,-629 791,-635 791,-641"/>
<path style="fill:greenyellow;stroke:greenyellow;" d="M791,-663C791,-669 785,-675 779,-675"/>
<polyline style="fill:none;stroke:greenyellow;" points="779,-675 549,-675 "/>
<path style="fill:none;stroke:greenyellow;" d="M549,-675C543,-675 537,-669 537,-663"/>
<polyline style="fill:none;stroke:greenyellow;" points="537,-663 537,-641 "/>
<path style="fill:none;stroke:greenyellow;" d="M537,-641C537,-635 543,-629 549,-629"/>
<polyline style="fill:none;stroke:greenyellow;" points="549,-629 779,-629 "/>
<path style="fill:none;stroke:greenyellow;" d="M779,-629C785,-629 791,-635 791,-641"/>
<polyline style="fill:none;stroke:greenyellow;" points="791,-641 791,-663 "/>
<path style="fill:none;stroke:greenyellow;" d="M791,-663C791,-669 785,-675 779,-675"/>
<text text-anchor="middle" x="664" y="-655" style="font-family:Nimbus Sans L;font-weight:bold;font-size:12.96pt;">Performing UE&#45;Based positioning</text>
<text text-anchor="middle" x="664" y="-636" style="font-family:Nimbus Sans L;font-weight:bold;font-size:12.96pt;">under Hybrid Positioning</text>
</g>
<!-- Idle&#45;&gt;UE_Based -->
<g id="edge4" class="edge"><title>Idle&#45;&gt;UE_Based</title>
<path style="fill:none;stroke:red;" d="M385,-652C417,-652 473,-652 527,-652"/>
<polygon style="fill:red;stroke:red;" points="527,-655.5 537,-652 527,-648.5 527,-655.5"/>
<a xlink:title="Send M.C. (Setup)\nStart a2,a4 timer">
</a>
<a xlink:title="Send M.C. (Setup)\nStart a2,a4 timer">
</a>
<text text-anchor="middle" x="461" y="-674" style="font-family:Nimbus Sans L;font-weight:bold;font-size:12.96pt;fill:red;">Send M.C. (Setup)</text>
<text text-anchor="middle" x="461" y="-655" style="font-family:Nimbus Sans L;font-weight:bold;font-size:12.96pt;fill:red;">Start a2,a4 timer</text>
</g>
<!-- UE_Assisted -->
<g id="node4" class="node"><title>UE_Assisted</title>
<polygon style="fill:greenyellow;stroke:greenyellow;" points="405,-448 159,-448 147,-436 147,-414 159,-402 405,-402 417,-414 417,-436 405,-448"/>
<path style="fill:greenyellow;stroke:greenyellow;" d="M159,-448C153,-448 147,-442 147,-436"/>
<path style="fill:greenyellow;stroke:greenyellow;" d="M147,-414C147,-408 153,-402 159,-402"/>
<path style="fill:greenyellow;stroke:greenyellow;" d="M405,-402C411,-402 417,-408 417,-414"/>
<path style="fill:greenyellow;stroke:greenyellow;" d="M417,-436C417,-442 411,-448 405,-448"/>
<polyline style="fill:none;stroke:greenyellow;" points="405,-448 159,-448 "/>
<path style="fill:none;stroke:greenyellow;" d="M159,-448C153,-448 147,-442 147,-436"/>
<polyline style="fill:none;stroke:greenyellow;" points="147,-436 147,-414 "/>
<path style="fill:none;stroke:greenyellow;" d="M147,-414C147,-408 153,-402 159,-402"/>
<polyline style="fill:none;stroke:greenyellow;" points="159,-402 405,-402 "/>
<path style="fill:none;stroke:greenyellow;" d="M405,-402C411,-402 417,-408 417,-414"/>
<polyline style="fill:none;stroke:greenyellow;" points="417,-414 417,-436 "/>
<path style="fill:none;stroke:greenyellow;" d="M417,-436C417,-442 411,-448 405,-448"/>
<text text-anchor="middle" x="282" y="-428" style="font-family:Nimbus Sans L;font-weight:bold;font-size:12.96pt;">Performing UE&#45;Assisted positioning</text>
<text text-anchor="middle" x="282" y="-409" style="font-family:Nimbus Sans L;font-weight:bold;font-size:12.96pt;">(UE&#45;Based positioning continue)</text>
</g>
<!-- UE_Based&#45;&gt;UE_Assisted -->
<g id="edge6" class="edge"><title>UE_Based&#45;&gt;UE_Assisted</title>
<path style="fill:none;stroke:black;" d="M579,-629C546,-618 508,-604 476,-586 412,-549 347,-490 311,-455"/>
<polygon style="fill:black;stroke:black;" points="313.546,-452.596 304,-448 308.596,-457.546 313.546,-452.596"/>
<a xlink:title="Timer a2 expired/\nSend M.R\nReceive M.C.\n(Modify,Reporting Interval=t)\nStart up Timer t">
</a>
<a xlink:title="Timer a2 expired/\nSend M.R\nReceive M.C.\n(Modify,Reporting Interval=t)\nStart up Timer t">
</a>
<text text-anchor="middle" x="566" y="-572" style="font-family:Nimbus Sans L;font-weight:regular;font-size:11.34pt;">Timer a2 expired/</text>
<text text-anchor="middle" x="566" y="-556" style="font-family:Nimbus Sans L;font-weight:regular;font-size:11.34pt;">Send M.R</text>
<text text-anchor="middle" x="566" y="-540" style="font-family:Nimbus Sans L;font-weight:regular;font-size:11.34pt;">Receive M.C.</text>
<text text-anchor="middle" x="566" y="-524" style="font-family:Nimbus Sans L;font-weight:regular;font-size:11.34pt;">(Modify,Reporting Interval=t)</text>
<text text-anchor="middle" x="566" y="-508" style="font-family:Nimbus Sans L;font-weight:regular;font-size:11.34pt;">Start up Timer t</text>
</g>
<!-- Waiting_MC -->
<g id="node5" class="node"><title>Waiting_MC</title>
<polygon style="fill:greenyellow;stroke:greenyellow;" points="553,-237 381,-237 369,-225 369,-213 381,-201 553,-201 565,-213 565,-225 553,-237"/>
<path style="fill:greenyellow;stroke:greenyellow;" d="M381,-237C375,-237 369,-231 369,-225"/>
<path style="fill:greenyellow;stroke:greenyellow;" d="M369,-213C369,-207 375,-201 381,-201"/>
<path style="fill:greenyellow;stroke:greenyellow;" d="M553,-201C559,-201 565,-207 565,-213"/>
<path style="fill:greenyellow;stroke:greenyellow;" d="M565,-225C565,-231 559,-237 553,-237"/>
<polyline style="fill:none;stroke:greenyellow;" points="553,-237 381,-237 "/>
<path style="fill:none;stroke:greenyellow;" d="M381,-237C375,-237 369,-231 369,-225"/>
<polyline style="fill:none;stroke:greenyellow;" points="369,-225 369,-213 "/>
<path style="fill:none;stroke:greenyellow;" d="M369,-213C369,-207 375,-201 381,-201"/>
<polyline style="fill:none;stroke:greenyellow;" points="381,-201 553,-201 "/>
<path style="fill:none;stroke:greenyellow;" d="M553,-201C559,-201 565,-207 565,-213"/>
<polyline style="fill:none;stroke:greenyellow;" points="565,-213 565,-225 "/>
<path style="fill:none;stroke:greenyellow;" d="M565,-225C565,-231 559,-237 553,-237"/>
<text text-anchor="middle" x="467" y="-213" style="font-family:Nimbus Sans L;font-weight:bold;font-size:12.96pt;">Waiting for M.C. Release</text>
</g>
<!-- UE_Based&#45;&gt;Waiting_MC -->
<g id="edge8" class="edge"><title>UE_Based&#45;&gt;Waiting_MC</title>
<path style="fill:none;stroke:black;" d="M665,-629C669,-558 680,-340 648,-280 628,-242 613,-222 575,-219"/>
<polygon style="fill:black;stroke:black;" points="575,-215.5 565,-219 575,-222.5 575,-215.5"/>
<a xlink:title="UE&#45;Based success/\nStop UE&#45;Based Positioning,\nSend M.R.\n(confidence=68)">
</a>
<a xlink:title="UE&#45;Based success/\nStop UE&#45;Based Positioning,\nSend M.R.\n(confidence=68)">
</a>
<text text-anchor="middle" x="755" y="-443" style="font-family:Nimbus Sans L;font-weight:regular;font-size:11.34pt;">UE&#45;Based success/</text>
<text text-anchor="middle" x="755" y="-427" style="font-family:Nimbus Sans L;font-weight:regular;font-size:11.34pt;">Stop UE&#45;Based Positioning,</text>
<text text-anchor="middle" x="755" y="-411" style="font-family:Nimbus Sans L;font-weight:regular;font-size:11.34pt;">Send M.R.</text>
<text text-anchor="middle" x="755" y="-395" style="font-family:Nimbus Sans L;font-weight:regular;font-size:11.34pt;">(confidence=68)</text>
</g>
<!-- UE_Based&#45;&gt;Waiting_MC -->
<g id="edge10" class="edge"><title>UE_Based&#45;&gt;Waiting_MC</title>
<path style="fill:none;stroke:red;" d="M699,-629C765,-585 897,-481 845,-387 775,-263 713,-221 575,-219"/>
<polygon style="fill:red;stroke:red;" points="575,-215.5 565,-219 575,-222.5 575,-215.5"/>
<a xlink:title="UE&#45;Based (Futile)/\nStop UE&#45;Based Positioning,\nSend M.R.(RefPos)\n(confidence=100)">
</a>
<a xlink:title="UE&#45;Based (Futile)/\nStop UE&#45;Based Positioning,\nSend M.R.(RefPos)\n(confidence=100)">
</a>
<text text-anchor="middle" x="955" y="-447" style="font-family:Nimbus Sans L;font-weight:bold;font-size:12.96pt;fill:red;">UE&#45;Based (Futile)/</text>
<text text-anchor="middle" x="955" y="-428" style="font-family:Nimbus Sans L;font-weight:bold;font-size:12.96pt;fill:red;">Stop UE&#45;Based Positioning,</text>
<text text-anchor="middle" x="955" y="-409" style="font-family:Nimbus Sans L;font-weight:bold;font-size:12.96pt;fill:red;">Send M.R.(RefPos)</text>
<text text-anchor="middle" x="955" y="-390" style="font-family:Nimbus Sans L;font-weight:bold;font-size:12.96pt;fill:red;">(confidence=100)</text>
</g>
<!-- UE_Assisted&#45;&gt;UE_Assisted -->
<g id="edge12" class="edge"><title>UE_Assisted&#45;&gt;UE_Assisted</title>
<path style="fill:none;stroke:black;" d="M282,-448C231,-504 129,-504 129,-436 129,-373 140,-369 146,-415"/>
<polygon style="fill:black;stroke:black;" points="142.522,-415.398 147,-425 149.488,-414.701 142.522,-415.398"/>
<a xlink:title="Timer t expired/\nSend M.R,\nrestart timer t">
</a>
<a xlink:title="Timer t expired/\nSend M.R,\nrestart timer t">
</a>
<text text-anchor="middle" x="81" y="-435" style="font-family:Nimbus Sans L;font-weight:regular;font-size:11.34pt;">Timer t expired/</text>
<text text-anchor="middle" x="81" y="-419" style="font-family:Nimbus Sans L;font-weight:regular;font-size:11.34pt;">Send M.R,</text>
<text text-anchor="middle" x="81" y="-403" style="font-family:Nimbus Sans L;font-weight:regular;font-size:11.34pt;">restart timer t</text>
</g>
<!-- UE_Assisted&#45;&gt;Waiting_MC -->
<g id="edge14" class="edge"><title>UE_Assisted&#45;&gt;Waiting_MC</title>
<path style="fill:none;stroke:black;" d="M168,-402C137,-390 106,-372 88,-344 73,-320 71,-302 88,-280 107,-257 304,-224 359,-220"/>
<polygon style="fill:black;stroke:black;" points="359.398,-223.478 369,-219 358.701,-216.512 359.398,-223.478"/>
<a xlink:title="timer a4 expired/\nStop UE&#45;Based Positioning,\nSend M.R.\n(confidence=100)">
</a>
<a xlink:title="timer a4 expired/\nStop UE&#45;Based Positioning,\nSend M.R.\n(confidence=100)">
</a>
<text text-anchor="middle" x="174" y="-330" style="font-family:Nimbus Sans L;font-weight:regular;font-size:11.34pt;">timer a4 expired/</text>
<text text-anchor="middle" x="174" y="-314" style="font-family:Nimbus Sans L;font-weight:regular;font-size:11.34pt;">Stop UE&#45;Based Positioning,</text>
<text text-anchor="middle" x="174" y="-298" style="font-family:Nimbus Sans L;font-weight:regular;font-size:11.34pt;">Send M.R.</text>
<text text-anchor="middle" x="174" y="-282" style="font-family:Nimbus Sans L;font-weight:regular;font-size:11.34pt;">(confidence=100)</text>
</g>
<!-- UE_Assisted&#45;&gt;Waiting_MC -->
<g id="edge16" class="edge"><title>UE_Assisted&#45;&gt;Waiting_MC</title>
<path style="fill:none;stroke:black;" d="M275,-402C269,-372 262,-319 283,-280 302,-241 319,-222 359,-219"/>
<polygon style="fill:black;stroke:black;" points="359,-222.5 369,-219 359,-215.5 359,-222.5"/>
<a xlink:title="UE&#45;Based (Futile)/\nStop UE&#45;Based Positioning,\nSend M.R.(RefPos)\n(confidence=100)">
</a>
<a xlink:title="UE&#45;Based (Futile)/\nStop UE&#45;Based Positioning,\nSend M.R.(RefPos)\n(confidence=100)">
</a>
<text text-anchor="middle" x="369" y="-330" style="font-family:Nimbus Sans L;font-weight:regular;font-size:11.34pt;">UE&#45;Based (Futile)/</text>
<text text-anchor="middle" x="369" y="-314" style="font-family:Nimbus Sans L;font-weight:regular;font-size:11.34pt;">Stop UE&#45;Based Positioning,</text>
<text text-anchor="middle" x="369" y="-298" style="font-family:Nimbus Sans L;font-weight:regular;font-size:11.34pt;">Send M.R.(RefPos)</text>
<text text-anchor="middle" x="369" y="-282" style="font-family:Nimbus Sans L;font-weight:regular;font-size:11.34pt;">(confidence=100)</text>
</g>
<!-- UE_Assisted&#45;&gt;Waiting_MC -->
<g id="edge20" class="edge"><title>UE_Assisted&#45;&gt;Waiting_MC</title>
<path style="fill:none;stroke:black;" d="M374,-402C404,-390 436,-371 455,-344 475,-316 474,-275 471,-247"/>
<polygon style="fill:black;stroke:black;" points="474.478,-246.602 470,-237 467.512,-247.299 474.478,-246.602"/>
<a xlink:title="UE&#45;Based success/\nStop UE&#45;Based Positioning,\nSend M.R.\n(confidence=68)">
</a>
<a xlink:title="UE&#45;Based success/\nStop UE&#45;Based Positioning,\nSend M.R.\n(confidence=68)">
</a>
<text text-anchor="middle" x="558" y="-330" style="font-family:Nimbus Sans L;font-weight:regular;font-size:11.34pt;">UE&#45;Based success/</text>
<text text-anchor="middle" x="558" y="-314" style="font-family:Nimbus Sans L;font-weight:regular;font-size:11.34pt;">Stop UE&#45;Based Positioning,</text>
<text text-anchor="middle" x="558" y="-298" style="font-family:Nimbus Sans L;font-weight:regular;font-size:11.34pt;">Send M.R.</text>
<text text-anchor="middle" x="558" y="-282" style="font-family:Nimbus Sans L;font-weight:regular;font-size:11.34pt;">(confidence=68)</text>
</g>
<!-- Waiting_Facility -->
<g id="node7" class="node"><title>Waiting_Facility</title>
<polygon style="fill:greenyellow;stroke:greenyellow;" points="136,-83 12,-83 6.15804e-014,-71 3.78956e-014,-59 12,-47 136,-47 148,-59 148,-71 136,-83"/>
<path style="fill:greenyellow;stroke:greenyellow;" d="M12,-83C6,-83 7.34227e-014,-77 6.15804e-014,-71"/>
<path style="fill:greenyellow;stroke:greenyellow;" d="M3.78956e-014,-59C2.60532e-014,-53 6,-47 12,-47"/>
<path style="fill:greenyellow;stroke:greenyellow;" d="M136,-47C142,-47 148,-53 148,-59"/>
<path style="fill:greenyellow;stroke:greenyellow;" d="M148,-71C148,-77 142,-83 136,-83"/>
<polyline style="fill:none;stroke:greenyellow;" points="136,-83 12,-83 "/>
<path style="fill:none;stroke:greenyellow;" d="M12,-83C6,-83 7.34227e-014,-77 6.15804e-014,-71"/>
<polyline style="fill:none;stroke:greenyellow;" points="6.15804e-014,-71 3.78956e-014,-59 "/>
<path style="fill:none;stroke:greenyellow;" d="M3.78956e-014,-59C2.60532e-014,-53 6,-47 12,-47"/>
<polyline style="fill:none;stroke:greenyellow;" points="12,-47 136,-47 "/>
<path style="fill:none;stroke:greenyellow;" d="M136,-47C142,-47 148,-53 148,-59"/>
<polyline style="fill:none;stroke:greenyellow;" points="148,-59 148,-71 "/>
<path style="fill:none;stroke:greenyellow;" d="M148,-71C148,-77 142,-83 136,-83"/>
<text text-anchor="middle" x="74" y="-59" style="font-family:Nimbus Sans L;font-weight:bold;font-size:12.96pt;">Waiting for Facility</text>
</g>
<!-- UE_Assisted&#45;&gt;Waiting_Facility -->
<g id="edge18" class="edge"><title>UE_Assisted&#45;&gt;Waiting_Facility</title>
<path style="fill:none;stroke:black;" d="M195,-402C144,-387 88,-365 73,-344 20,-266 48,-147 64,-93"/>
<polygon style="fill:black;stroke:black;" points="67.4788,-93.584 67,-83 60.7741,-91.5725 67.4788,-93.584"/>
<a xlink:title="Receive M.C. Release/\nStop UE&#45;Based Positioning">
</a>
<a xlink:title="Receive M.C. Release/\nStop UE&#45;Based Positioning">
</a>
<text text-anchor="middle" x="128" y="-221" style="font-family:Nimbus Sans L;font-weight:regular;font-size:11.34pt;">Receive M.C. Release/</text>
<text text-anchor="middle" x="128" y="-205" style="font-family:Nimbus Sans L;font-weight:regular;font-size:11.34pt;">Stop UE&#45;Based Positioning</text>
</g>
<!-- Waiting_MC&#45;&gt;Waiting_Facility -->
<g id="edge22" class="edge"><title>Waiting_MC&#45;&gt;Waiting_Facility</title>
<path style="fill:none;stroke:red;" d="M421,-201C348,-172 208,-118 130,-87"/>
<polygon style="fill:red;stroke:red;" points="130.585,-83.4643 120,-83 127.985,-89.9636 130.585,-83.4643"/>
<a xlink:title="Receive M.C Release">
</a>
<a xlink:title="Receive M.C Release">
</a>
<text text-anchor="middle" x="383" y="-136" style="font-family:Nimbus Sans L;font-weight:bold;font-size:12.96pt;fill:red;">Receive M.C Release</text>
</g>
<!-- End -->
<g id="node8" class="node"><title>End</title>
<polygon style="fill:greenyellow;stroke:greenyellow;" points="455,-83 343,-83 331,-71 331,-59 343,-47 455,-47 467,-59 467,-71 455,-83"/>
<path style="fill:greenyellow;stroke:greenyellow;" d="M343,-83C337,-83 331,-77 331,-71"/>
<path style="fill:greenyellow;stroke:greenyellow;" d="M331,-59C331,-53 337,-47 343,-47"/>
<path style="fill:greenyellow;stroke:greenyellow;" d="M455,-47C461,-47 467,-53 467,-59"/>
<path style="fill:greenyellow;stroke:greenyellow;" d="M467,-71C467,-77 461,-83 455,-83"/>
<polyline style="fill:none;stroke:greenyellow;" points="455,-83 343,-83 "/>
<path style="fill:none;stroke:greenyellow;" d="M343,-83C337,-83 331,-77 331,-71"/>
<polyline style="fill:none;stroke:greenyellow;" points="331,-71 331,-59 "/>
<path style="fill:none;stroke:greenyellow;" d="M331,-59C331,-53 337,-47 343,-47"/>
<polyline style="fill:none;stroke:greenyellow;" points="343,-47 455,-47 "/>
<path style="fill:none;stroke:greenyellow;" d="M455,-47C461,-47 467,-53 467,-59"/>
<polyline style="fill:none;stroke:greenyellow;" points="467,-59 467,-71 "/>
<path style="fill:none;stroke:greenyellow;" d="M467,-71C467,-77 461,-83 455,-83"/>
<text text-anchor="middle" x="399" y="-59" style="font-family:Nimbus Sans L;font-weight:bold;font-size:12.96pt;">Positioning Ends</text>
</g>
<!-- Waiting_MC&#45;&gt;End -->
<g id="edge24" class="edge"><title>Waiting_MC&#45;&gt;End</title>
<path style="fill:none;stroke:black;" d="M473,-201C488,-164 517,-78 477,-66"/>
<polygon style="fill:black;stroke:black;" points="477.299,-62.5125 467,-65 476.602,-69.4778 477.299,-62.5125"/>
<a xlink:title="M.C. wait timer expired\nSend M.R (some error)">
</a>
<a xlink:title="M.C. wait timer expired\nSend M.R (some error)">
</a>
<text text-anchor="middle" x="564" y="-144" style="font-family:Nimbus Sans L;font-weight:regular;font-size:11.34pt;">M.C. wait timer expired</text>
<text text-anchor="middle" x="564" y="-128" style="font-family:Nimbus Sans L;font-weight:regular;font-size:11.34pt;">Send M.R (some error)</text>
</g>
<!-- Waiting_Facility&#45;&gt;End -->
<g id="edge26" class="edge"><title>Waiting_Facility&#45;&gt;End</title>
<path style="fill:none;stroke:black;" d="M147,-47C152,-46 157,-45 162,-45 231,-37 250,-36 318,-45 319,-45 321,-45 322,-45"/>
<polygon style="fill:black;stroke:black;" points="321.508,-48.4708 332,-47 322.881,-41.6067 321.508,-48.4708"/>
<a xlink:title="Facility wait timer expired">
</a>
<a xlink:title="Facility wait timer expired">
</a>
<text text-anchor="middle" x="240" y="-47" style="font-family:Nimbus Sans L;font-weight:regular;font-size:11.34pt;">Facility wait timer expired</text>
</g>
<!-- Waiting_Facility&#45;&gt;End -->
<g id="edge28" class="edge"><title>Waiting_Facility&#45;&gt;End</title>
<path style="fill:none;stroke:red;" d="M149,-65C201,-65 268,-65 320,-65"/>
<polygon style="fill:red;stroke:red;" points="320,-68.5001 330,-65 320,-61.5001 320,-68.5001"/>
<a xlink:title="Receive Facility">
</a>
<a xlink:title="Receive Facility">
</a>
<text text-anchor="middle" x="240" y="-67" style="font-family:Nimbus Sans L;font-weight:bold;font-size:12.96pt;fill:red;">Receive Facility</text>
</g>
</g>
</svg>
