<?xml version="1.0" encoding="UTF-8" standalone="no"?>
<!DOCTYPE svg PUBLIC "-//W3C//DTD SVG 1.0//EN"
 "http://www.w3.org/TR/2001/REC-SVG-20010904/DTD/svg10.dtd" [
 <!ATTLIST svg xmlns:xlink CDATA #FIXED "http://www.w3.org/1999/xlink">
]>
<!-- Generated by Graphviz version 2.12 (Mon Dec  4 22:04:37 UTC 2006)
     For user: Bill Gates -->
<!-- Title: finite_state_machine Pages: 1 -->
<svg width="9.50in" height="6.43in"
 xmlns="http://www.w3.org/2000/svg" xmlns:xlink="http://www.w3.org/1999/xlink">
<g id="graph0" class="graph" transform="scale(0.869399 0.869399) rotate(0) translate(4 706)">
<title>finite_state_machine</title>
<polygon style="fill:white;stroke:white;" points="-4,4 -4,-706 1045,-706 1045,4 -4,4"/>
<text text-anchor="middle" x="520" y="-8" style="font-family:Nimbus Roman No9 L;font-weight:medium;font-size:19.44pt;">Hybrid &#45; LBS &#45; UE&#45;Assisted X3P &#45; No GPS Result &#45; Facility Timeout</text>
<!-- Idle -->
<g id="node2" class="node"><title>Idle</title>
<polygon style="fill:greenyellow;stroke:greenyellow;" points="386,-682 356,-682 344,-670 344,-658 356,-646 386,-646 398,-658 398,-670 386,-682"/>
<path style="fill:greenyellow;stroke:greenyellow;" d="M356,-682C350,-682 344,-676 344,-670"/>
<path style="fill:greenyellow;stroke:greenyellow;" d="M344,-658C344,-652 350,-646 356,-646"/>
<path style="fill:greenyellow;stroke:greenyellow;" d="M386,-646C392,-646 398,-652 398,-658"/>
<path style="fill:greenyellow;stroke:greenyellow;" d="M398,-670C398,-676 392,-682 386,-682"/>
<polyline style="fill:none;stroke:greenyellow;" points="386,-682 356,-682 "/>
<path style="fill:none;stroke:greenyellow;" d="M356,-682C350,-682 344,-676 344,-670"/>
<polyline style="fill:none;stroke:greenyellow;" points="344,-670 344,-658 "/>
<path style="fill:none;stroke:greenyellow;" d="M344,-658C344,-652 350,-646 356,-646"/>
<polyline style="fill:none;stroke:greenyellow;" points="356,-646 386,-646 "/>
<path style="fill:none;stroke:greenyellow;" d="M386,-646C392,-646 398,-652 398,-658"/>
<polyline style="fill:none;stroke:greenyellow;" points="398,-658 398,-670 "/>
<path style="fill:none;stroke:greenyellow;" d="M398,-670C398,-676 392,-682 386,-682"/>
<text text-anchor="middle" x="371" y="-658" style="font-family:Nimbus Sans L;font-weight:bold;font-size:12.96pt;">Idle</text>
</g>
<!-- UE_Based -->
<g id="node3" class="node"><title>UE_Based</title>
<polygon style="fill:greenyellow;stroke:greenyellow;" points="792,-687 562,-687 550,-675 550,-653 562,-641 792,-641 804,-653 804,-675 792,-687"/>
<path style="fill:greenyellow;stroke:greenyellow;" d="M562,-687C556,-687 550,-681 550,-675"/>
<path style="fill:greenyellow;stroke:greenyellow;" d="M550,-653C550,-647 556,-641 562,-641"/>
<path style="fill:greenyellow;stroke:greenyellow;" d="M792,-641C798,-641 804,-647 804,-653"/>
<path style="fill:greenyellow;stroke:greenyellow;" d="M804,-675C804,-681 798,-687 792,-687"/>
<polyline style="fill:none;stroke:greenyellow;" points="792,-687 562,-687 "/>
<path style="fill:none;stroke:greenyellow;" d="M562,-687C556,-687 550,-681 550,-675"/>
<polyline style="fill:none;stroke:greenyellow;" points="550,-675 550,-653 "/>
<path style="fill:none;stroke:greenyellow;" d="M550,-653C550,-647 556,-641 562,-641"/>
<polyline style="fill:none;stroke:greenyellow;" points="562,-641 792,-641 "/>
<path style="fill:none;stroke:greenyellow;" d="M792,-641C798,-641 804,-647 804,-653"/>
<polyline style="fill:none;stroke:greenyellow;" points="804,-653 804,-675 "/>
<path style="fill:none;stroke:greenyellow;" d="M804,-675C804,-681 798,-687 792,-687"/>
<text text-anchor="middle" x="677" y="-667" style="font-family:Nimbus Sans L;font-weight:bold;font-size:12.96pt;">Performing UE&#45;Based positioning</text>
<text text-anchor="middle" x="677" y="-648" style="font-family:Nimbus Sans L;font-weight:bold;font-size:12.96pt;">under Hybrid Positioning</text>
</g>
<!-- Idle&#45;&gt;UE_Based -->
<g id="edge4" class="edge"><title>Idle&#45;&gt;UE_Based</title>
<path style="fill:none;stroke:red;" d="M398,-664C430,-664 486,-664 540,-664"/>
<polygon style="fill:red;stroke:red;" points="540,-667.5 550,-664 540,-660.5 540,-667.5"/>
<a xlink:title="Send M.C. (Setup)\nStart a2,a4 timer">
</a>
<a xlink:title="Send M.C. (Setup)\nStart a2,a4 timer">
</a>
<text text-anchor="middle" x="474" y="-686" style="font-family:Nimbus Sans L;font-weight:bold;font-size:12.96pt;fill:red;">Send M.C. (Setup)</text>
<text text-anchor="middle" x="474" y="-667" style="font-family:Nimbus Sans L;font-weight:bold;font-size:12.96pt;fill:red;">Start a2,a4 timer</text>
</g>
<!-- UE_Assisted -->
<g id="node4" class="node"><title>UE_Assisted</title>
<polygon style="fill:greenyellow;stroke:greenyellow;" points="418,-450 172,-450 160,-438 160,-416 172,-404 418,-404 430,-416 430,-438 418,-450"/>
<path style="fill:greenyellow;stroke:greenyellow;" d="M172,-450C166,-450 160,-444 160,-438"/>
<path style="fill:greenyellow;stroke:greenyellow;" d="M160,-416C160,-410 166,-404 172,-404"/>
<path style="fill:greenyellow;stroke:greenyellow;" d="M418,-404C424,-404 430,-410 430,-416"/>
<path style="fill:greenyellow;stroke:greenyellow;" d="M430,-438C430,-444 424,-450 418,-450"/>
<polyline style="fill:none;stroke:greenyellow;" points="418,-450 172,-450 "/>
<path style="fill:none;stroke:greenyellow;" d="M172,-450C166,-450 160,-444 160,-438"/>
<polyline style="fill:none;stroke:greenyellow;" points="160,-438 160,-416 "/>
<path style="fill:none;stroke:greenyellow;" d="M160,-416C160,-410 166,-404 172,-404"/>
<polyline style="fill:none;stroke:greenyellow;" points="172,-404 418,-404 "/>
<path style="fill:none;stroke:greenyellow;" d="M418,-404C424,-404 430,-410 430,-416"/>
<polyline style="fill:none;stroke:greenyellow;" points="430,-416 430,-438 "/>
<path style="fill:none;stroke:greenyellow;" d="M430,-438C430,-444 424,-450 418,-450"/>
<text text-anchor="middle" x="295" y="-430" style="font-family:Nimbus Sans L;font-weight:bold;font-size:12.96pt;">Performing UE&#45;Assisted positioning</text>
<text text-anchor="middle" x="295" y="-411" style="font-family:Nimbus Sans L;font-weight:bold;font-size:12.96pt;">(UE&#45;Based positioning continue)</text>
</g>
<!-- UE_Based&#45;&gt;UE_Assisted -->
<g id="edge6" class="edge"><title>UE_Based&#45;&gt;UE_Assisted</title>
<path style="fill:none;stroke:red;" d="M564,-641C529,-631 492,-617 461,-598 400,-561 346,-497 317,-458"/>
<polygon style="fill:red;stroke:red;" points="319.8,-455.9 311,-450 314.2,-460.1 319.8,-455.9"/>
<a xlink:title="Timer a2 expired/\nSend M.R\nReceive M.C.\n(Modify,Reporting Interval=t)\nStart up Timer t">
</a>
<a xlink:title="Timer a2 expired/\nSend M.R\nReceive M.C.\n(Modify,Reporting Interval=t)\nStart up Timer t">
</a>
<text text-anchor="middle" x="562" y="-582" style="font-family:Nimbus Sans L;font-weight:bold;font-size:12.96pt;fill:red;">Timer a2 expired/</text>
<text text-anchor="middle" x="562" y="-563" style="font-family:Nimbus Sans L;font-weight:bold;font-size:12.96pt;fill:red;">Send M.R</text>
<text text-anchor="middle" x="562" y="-544" style="font-family:Nimbus Sans L;font-weight:bold;font-size:12.96pt;fill:red;">Receive M.C.</text>
<text text-anchor="middle" x="562" y="-525" style="font-family:Nimbus Sans L;font-weight:bold;font-size:12.96pt;fill:red;">(Modify,Reporting Interval=t)</text>
<text text-anchor="middle" x="562" y="-506" style="font-family:Nimbus Sans L;font-weight:bold;font-size:12.96pt;fill:red;">Start up Timer t</text>
</g>
<!-- Waiting_MC -->
<g id="node5" class="node"><title>Waiting_MC</title>
<polygon style="fill:greenyellow;stroke:greenyellow;" points="572,-244 400,-244 388,-232 388,-220 400,-208 572,-208 584,-220 584,-232 572,-244"/>
<path style="fill:greenyellow;stroke:greenyellow;" d="M400,-244C394,-244 388,-238 388,-232"/>
<path style="fill:greenyellow;stroke:greenyellow;" d="M388,-220C388,-214 394,-208 400,-208"/>
<path style="fill:greenyellow;stroke:greenyellow;" d="M572,-208C578,-208 584,-214 584,-220"/>
<path style="fill:greenyellow;stroke:greenyellow;" d="M584,-232C584,-238 578,-244 572,-244"/>
<polyline style="fill:none;stroke:greenyellow;" points="572,-244 400,-244 "/>
<path style="fill:none;stroke:greenyellow;" d="M400,-244C394,-244 388,-238 388,-232"/>
<polyline style="fill:none;stroke:greenyellow;" points="388,-232 388,-220 "/>
<path style="fill:none;stroke:greenyellow;" d="M388,-220C388,-214 394,-208 400,-208"/>
<polyline style="fill:none;stroke:greenyellow;" points="400,-208 572,-208 "/>
<path style="fill:none;stroke:greenyellow;" d="M572,-208C578,-208 584,-214 584,-220"/>
<polyline style="fill:none;stroke:greenyellow;" points="584,-220 584,-232 "/>
<path style="fill:none;stroke:greenyellow;" d="M584,-232C584,-238 578,-244 572,-244"/>
<text text-anchor="middle" x="486" y="-220" style="font-family:Nimbus Sans L;font-weight:bold;font-size:12.96pt;">Waiting for M.C. Release</text>
</g>
<!-- UE_Based&#45;&gt;Waiting_MC -->
<g id="edge8" class="edge"><title>UE_Based&#45;&gt;Waiting_MC</title>
<path style="fill:none;stroke:black;" d="M678,-641C682,-570 694,-350 663,-288 644,-251 630,-230 594,-226"/>
<polygon style="fill:black;stroke:black;" points="594,-222.5 584,-226 594,-229.5 594,-222.5"/>
<a xlink:title="UE&#45;Based success/\nStop UE&#45;Based Positioning,\nSend M.R.\n(confidence=68)">
</a>
<a xlink:title="UE&#45;Based success/\nStop UE&#45;Based Positioning,\nSend M.R.\n(confidence=68)">
</a>
<text text-anchor="middle" x="768" y="-445" style="font-family:Nimbus Sans L;font-weight:regular;font-size:11.34pt;">UE&#45;Based success/</text>
<text text-anchor="middle" x="768" y="-429" style="font-family:Nimbus Sans L;font-weight:regular;font-size:11.34pt;">Stop UE&#45;Based Positioning,</text>
<text text-anchor="middle" x="768" y="-413" style="font-family:Nimbus Sans L;font-weight:regular;font-size:11.34pt;">Send M.R.</text>
<text text-anchor="middle" x="768" y="-397" style="font-family:Nimbus Sans L;font-weight:regular;font-size:11.34pt;">(confidence=68)</text>
</g>
<!-- UE_Based&#45;&gt;Waiting_MC -->
<g id="edge10" class="edge"><title>UE_Based&#45;&gt;Waiting_MC</title>
<path style="fill:none;stroke:black;" d="M711,-641C777,-596 911,-490 858,-395 790,-273 730,-228 594,-226"/>
<polygon style="fill:black;stroke:black;" points="594,-222.5 584,-226 594,-229.5 594,-222.5"/>
<a xlink:title="UE&#45;Based (Futile)/\nStop UE&#45;Based Positioning,\nSend M.R.(RefPos)\n(confidence=100)">
</a>
<a xlink:title="UE&#45;Based (Futile)/\nStop UE&#45;Based Positioning,\nSend M.R.(RefPos)\n(confidence=100)">
</a>
<text text-anchor="middle" x="955" y="-445" style="font-family:Nimbus Sans L;font-weight:regular;font-size:11.34pt;">UE&#45;Based (Futile)/</text>
<text text-anchor="middle" x="955" y="-429" style="font-family:Nimbus Sans L;font-weight:regular;font-size:11.34pt;">Stop UE&#45;Based Positioning,</text>
<text text-anchor="middle" x="955" y="-413" style="font-family:Nimbus Sans L;font-weight:regular;font-size:11.34pt;">Send M.R.(RefPos)</text>
<text text-anchor="middle" x="955" y="-397" style="font-family:Nimbus Sans L;font-weight:regular;font-size:11.34pt;">(confidence=100)</text>
</g>
<!-- UE_Assisted&#45;&gt;UE_Assisted -->
<g id="edge12" class="edge"><title>UE_Assisted&#45;&gt;UE_Assisted</title>
<path style="fill:none;stroke:black;" d="M295,-450C244,-503 142,-503 142,-438 142,-378 152,-374 159,-417"/>
<polygon style="fill:black;stroke:black;" points="155.522,-417.398 160,-427 162.488,-416.701 155.522,-417.398"/>
<a xlink:title="Timer t expired/\nSend M.R,\nrestart timer t">
</a>
<a xlink:title="Timer t expired/\nSend M.R,\nrestart timer t">
</a>
<text text-anchor="middle" x="94" y="-437" style="font-family:Nimbus Sans L;font-weight:regular;font-size:11.34pt;">Timer t expired/</text>
<text text-anchor="middle" x="94" y="-421" style="font-family:Nimbus Sans L;font-weight:regular;font-size:11.34pt;">Send M.R,</text>
<text text-anchor="middle" x="94" y="-405" style="font-family:Nimbus Sans L;font-weight:regular;font-size:11.34pt;">restart timer t</text>
</g>
<!-- UE_Assisted&#45;&gt;Waiting_MC -->
<g id="edge14" class="edge"><title>UE_Assisted&#45;&gt;Waiting_MC</title>
<path style="fill:none;stroke:black;" d="M173,-404C145,-393 118,-377 101,-352 85,-328 84,-310 101,-288 110,-276 326,-235 378,-227"/>
<polygon style="fill:black;stroke:black;" points="378.398,-230.478 388,-226 377.701,-223.512 378.398,-230.478"/>
<a xlink:title="timer a4 expired/\nStop UE&#45;Based Positioning,\nSend M.R.\n(confidence=100)">
</a>
<a xlink:title="timer a4 expired/\nStop UE&#45;Based Positioning,\nSend M.R.\n(confidence=100)">
</a>
<text text-anchor="middle" x="187" y="-338" style="font-family:Nimbus Sans L;font-weight:regular;font-size:11.34pt;">timer a4 expired/</text>
<text text-anchor="middle" x="187" y="-322" style="font-family:Nimbus Sans L;font-weight:regular;font-size:11.34pt;">Stop UE&#45;Based Positioning,</text>
<text text-anchor="middle" x="187" y="-306" style="font-family:Nimbus Sans L;font-weight:regular;font-size:11.34pt;">Send M.R.</text>
<text text-anchor="middle" x="187" y="-290" style="font-family:Nimbus Sans L;font-weight:regular;font-size:11.34pt;">(confidence=100)</text>
</g>
<!-- UE_Assisted&#45;&gt;Waiting_MC -->
<g id="edge16" class="edge"><title>UE_Assisted&#45;&gt;Waiting_MC</title>
<path style="fill:none;stroke:black;" d="M288,-404C282,-375 276,-324 296,-288 317,-247 335,-229 378,-226"/>
<polygon style="fill:black;stroke:black;" points="378,-229.5 388,-226 378,-222.5 378,-229.5"/>
<a xlink:title="UE&#45;Based (Futile)/\nStop UE&#45;Based Positioning,\nSend M.R.(RefPos)\n(confidence=100)">
</a>
<a xlink:title="UE&#45;Based (Futile)/\nStop UE&#45;Based Positioning,\nSend M.R.(RefPos)\n(confidence=100)">
</a>
<text text-anchor="middle" x="382" y="-338" style="font-family:Nimbus Sans L;font-weight:regular;font-size:11.34pt;">UE&#45;Based (Futile)/</text>
<text text-anchor="middle" x="382" y="-322" style="font-family:Nimbus Sans L;font-weight:regular;font-size:11.34pt;">Stop UE&#45;Based Positioning,</text>
<text text-anchor="middle" x="382" y="-306" style="font-family:Nimbus Sans L;font-weight:regular;font-size:11.34pt;">Send M.R.(RefPos)</text>
<text text-anchor="middle" x="382" y="-290" style="font-family:Nimbus Sans L;font-weight:regular;font-size:11.34pt;">(confidence=100)</text>
</g>
<!-- UE_Assisted&#45;&gt;Waiting_MC -->
<g id="edge20" class="edge"><title>UE_Assisted&#45;&gt;Waiting_MC</title>
<path style="fill:none;stroke:black;" d="M393,-404C421,-393 449,-376 468,-352 489,-324 491,-282 490,-254"/>
<polygon style="fill:black;stroke:black;" points="493.478,-253.602 489,-244 486.512,-254.299 493.478,-253.602"/>
<a xlink:title="UE&#45;Based success/\nStop UE&#45;Based Positioning,\nSend M.R.\n(confidence=68)">
</a>
<a xlink:title="UE&#45;Based success/\nStop UE&#45;Based Positioning,\nSend M.R.\n(confidence=68)">
</a>
<text text-anchor="middle" x="573" y="-338" style="font-family:Nimbus Sans L;font-weight:regular;font-size:11.34pt;">UE&#45;Based success/</text>
<text text-anchor="middle" x="573" y="-322" style="font-family:Nimbus Sans L;font-weight:regular;font-size:11.34pt;">Stop UE&#45;Based Positioning,</text>
<text text-anchor="middle" x="573" y="-306" style="font-family:Nimbus Sans L;font-weight:regular;font-size:11.34pt;">Send M.R.</text>
<text text-anchor="middle" x="573" y="-290" style="font-family:Nimbus Sans L;font-weight:regular;font-size:11.34pt;">(confidence=68)</text>
</g>
<!-- Waiting_Facility -->
<g id="node7" class="node"><title>Waiting_Facility</title>
<polygon style="fill:greenyellow;stroke:greenyellow;" points="136,-89 12,-89 6.15804e-014,-77 3.78956e-014,-65 12,-53 136,-53 148,-65 148,-77 136,-89"/>
<path style="fill:greenyellow;stroke:greenyellow;" d="M12,-89C6,-89 7.34227e-014,-83 6.15804e-014,-77"/>
<path style="fill:greenyellow;stroke:greenyellow;" d="M3.78956e-014,-65C2.60532e-014,-59 6,-53 12,-53"/>
<path style="fill:greenyellow;stroke:greenyellow;" d="M136,-53C142,-53 148,-59 148,-65"/>
<path style="fill:greenyellow;stroke:greenyellow;" d="M148,-77C148,-83 142,-89 136,-89"/>
<polyline style="fill:none;stroke:greenyellow;" points="136,-89 12,-89 "/>
<path style="fill:none;stroke:greenyellow;" d="M12,-89C6,-89 7.34227e-014,-83 6.15804e-014,-77"/>
<polyline style="fill:none;stroke:greenyellow;" points="6.15804e-014,-77 3.78956e-014,-65 "/>
<path style="fill:none;stroke:greenyellow;" d="M3.78956e-014,-65C2.60532e-014,-59 6,-53 12,-53"/>
<polyline style="fill:none;stroke:greenyellow;" points="12,-53 136,-53 "/>
<path style="fill:none;stroke:greenyellow;" d="M136,-53C142,-53 148,-59 148,-65"/>
<polyline style="fill:none;stroke:greenyellow;" points="148,-65 148,-77 "/>
<path style="fill:none;stroke:greenyellow;" d="M148,-77C148,-83 142,-89 136,-89"/>
<text text-anchor="middle" x="74" y="-65" style="font-family:Nimbus Sans L;font-weight:bold;font-size:12.96pt;">Waiting for Facility</text>
</g>
<!-- UE_Assisted&#45;&gt;Waiting_Facility -->
<g id="edge18" class="edge"><title>UE_Assisted&#45;&gt;Waiting_Facility</title>
<path style="fill:none;stroke:red;" d="M200,-404C152,-390 99,-371 85,-352 30,-276 52,-154 65,-99"/>
<polygon style="fill:red;stroke:red;" points="68.4788,-99.584 68,-89 61.7741,-97.5725 68.4788,-99.584"/>
<a xlink:title="Receive M.C. Release/\nStop UE&#45;Based Positioning">
</a>
<a xlink:title="Receive M.C. Release/\nStop UE&#45;Based Positioning">
</a>
<text text-anchor="middle" x="149" y="-229" style="font-family:Nimbus Sans L;font-weight:bold;font-size:12.96pt;fill:red;">Receive M.C. Release/</text>
<text text-anchor="middle" x="149" y="-210" style="font-family:Nimbus Sans L;font-weight:bold;font-size:12.96pt;fill:red;">Stop UE&#45;Based Positioning</text>
</g>
<!-- Waiting_MC&#45;&gt;Waiting_Facility -->
<g id="edge22" class="edge"><title>Waiting_MC&#45;&gt;Waiting_Facility</title>
<path style="fill:none;stroke:black;" d="M438,-208C361,-179 213,-124 132,-93"/>
<polygon style="fill:black;stroke:black;" points="132.585,-89.4643 122,-89 129.985,-95.9636 132.585,-89.4643"/>
<a xlink:title="Receive M.C Release">
</a>
<a xlink:title="Receive M.C Release">
</a>
<text text-anchor="middle" x="382" y="-142" style="font-family:Nimbus Sans L;font-weight:regular;font-size:11.34pt;">Receive M.C Release</text>
</g>
<!-- End -->
<g id="node8" class="node"><title>End</title>
<polygon style="fill:greenyellow;stroke:greenyellow;" points="474,-89 362,-89 350,-77 350,-65 362,-53 474,-53 486,-65 486,-77 474,-89"/>
<path style="fill:greenyellow;stroke:greenyellow;" d="M362,-89C356,-89 350,-83 350,-77"/>
<path style="fill:greenyellow;stroke:greenyellow;" d="M350,-65C350,-59 356,-53 362,-53"/>
<path style="fill:greenyellow;stroke:greenyellow;" d="M474,-53C480,-53 486,-59 486,-65"/>
<path style="fill:greenyellow;stroke:greenyellow;" d="M486,-77C486,-83 480,-89 474,-89"/>
<polyline style="fill:none;stroke:greenyellow;" points="474,-89 362,-89 "/>
<path style="fill:none;stroke:greenyellow;" d="M362,-89C356,-89 350,-83 350,-77"/>
<polyline style="fill:none;stroke:greenyellow;" points="350,-77 350,-65 "/>
<path style="fill:none;stroke:greenyellow;" d="M350,-65C350,-59 356,-53 362,-53"/>
<polyline style="fill:none;stroke:greenyellow;" points="362,-53 474,-53 "/>
<path style="fill:none;stroke:greenyellow;" d="M474,-53C480,-53 486,-59 486,-65"/>
<polyline style="fill:none;stroke:greenyellow;" points="486,-65 486,-77 "/>
<path style="fill:none;stroke:greenyellow;" d="M486,-77C486,-83 480,-89 474,-89"/>
<text text-anchor="middle" x="418" y="-65" style="font-family:Nimbus Sans L;font-weight:bold;font-size:12.96pt;">Positioning Ends</text>
</g>
<!-- Waiting_MC&#45;&gt;End -->
<g id="edge24" class="edge"><title>Waiting_MC&#45;&gt;End</title>
<path style="fill:none;stroke:black;" d="M492,-208C507,-171 536,-84 496,-72"/>
<polygon style="fill:black;stroke:black;" points="496.299,-68.5125 486,-71 495.602,-75.4778 496.299,-68.5125"/>
<a xlink:title="M.C. wait timer expired\nSend M.R (some error)">
</a>
<a xlink:title="M.C. wait timer expired\nSend M.R (some error)">
</a>
<text text-anchor="middle" x="583" y="-150" style="font-family:Nimbus Sans L;font-weight:regular;font-size:11.34pt;">M.C. wait timer expired</text>
<text text-anchor="middle" x="583" y="-134" style="font-family:Nimbus Sans L;font-weight:regular;font-size:11.34pt;">Send M.R (some error)</text>
</g>
<!-- Waiting_Facility&#45;&gt;End -->
<g id="edge26" class="edge"><title>Waiting_Facility&#45;&gt;End</title>
<path style="fill:none;stroke:red;" d="M132,-53C141,-51 150,-49 158,-48 239,-37 260,-36 340,-48 345,-49 349,-50 354,-51"/>
<polygon style="fill:red;stroke:red;" points="353.508,-54.4708 364,-53 354.881,-47.6067 353.508,-54.4708"/>
<a xlink:title="Facility wait timer expired">
</a>
<a xlink:title="Facility wait timer expired">
</a>
<text text-anchor="middle" x="249" y="-51" style="font-family:Nimbus Sans L;font-weight:bold;font-size:12.96pt;fill:red;">Facility wait timer expired</text>
</g>
<!-- Waiting_Facility&#45;&gt;End -->
<g id="edge28" class="edge"><title>Waiting_Facility&#45;&gt;End</title>
<path style="fill:none;stroke:black;" d="M149,-71C206,-71 282,-71 339,-71"/>
<polygon style="fill:black;stroke:black;" points="339,-74.5001 349,-71 339,-67.5001 339,-74.5001"/>
<a xlink:title="Receive Facility">
</a>
<a xlink:title="Receive Facility">
</a>
<text text-anchor="middle" x="249" y="-74" style="font-family:Nimbus Sans L;font-weight:regular;font-size:11.34pt;">Receive Facility</text>
</g>
</g>
</svg>
