<?xml version="1.0" encoding="UTF-8" standalone="no"?>
<!DOCTYPE svg PUBLIC "-//W3C//DTD SVG 1.0//EN"
 "http://www.w3.org/TR/2001/REC-SVG-20010904/DTD/svg10.dtd" [
 <!ATTLIST svg xmlns:xlink CDATA #FIXED "http://www.w3.org/1999/xlink">
]>
<!-- Generated by Graphviz version 2.12 (Mon Dec  4 22:04:37 UTC 2006)
     For user: Bill Gates -->
<!-- Title: finite_state_machine Pages: 1 -->
<svg width="9.50in" height="6.33in"
 xmlns="http://www.w3.org/2000/svg" xmlns:xlink="http://www.w3.org/1999/xlink">
<g id="graph0" class="graph" transform="scale(0.845227 0.845227) rotate(0) translate(4 716)">
<title>finite_state_machine</title>
<polygon style="fill:white;stroke:white;" points="-4,4 -4,-716 1075,-716 1075,4 -4,4"/>
<text text-anchor="middle" x="535" y="-8" style="font-family:Nimbus Roman No9 L;font-weight:medium;font-size:19.44pt;">Hybrid &#45; LBS &#45; UE&#45;Assisted X3P &#45; Accurate GPS Result &#45; Facility Timeout</text>
<!-- Idle -->
<g id="node2" class="node"><title>Idle</title>
<polygon style="fill:greenyellow;stroke:greenyellow;" points="413,-692 383,-692 371,-680 371,-668 383,-656 413,-656 425,-668 425,-680 413,-692"/>
<path style="fill:greenyellow;stroke:greenyellow;" d="M383,-692C377,-692 371,-686 371,-680"/>
<path style="fill:greenyellow;stroke:greenyellow;" d="M371,-668C371,-662 377,-656 383,-656"/>
<path style="fill:greenyellow;stroke:greenyellow;" d="M413,-656C419,-656 425,-662 425,-668"/>
<path style="fill:greenyellow;stroke:greenyellow;" d="M425,-680C425,-686 419,-692 413,-692"/>
<polyline style="fill:none;stroke:greenyellow;" points="413,-692 383,-692 "/>
<path style="fill:none;stroke:greenyellow;" d="M383,-692C377,-692 371,-686 371,-680"/>
<polyline style="fill:none;stroke:greenyellow;" points="371,-680 371,-668 "/>
<path style="fill:none;stroke:greenyellow;" d="M371,-668C371,-662 377,-656 383,-656"/>
<polyline style="fill:none;stroke:greenyellow;" points="383,-656 413,-656 "/>
<path style="fill:none;stroke:greenyellow;" d="M413,-656C419,-656 425,-662 425,-668"/>
<polyline style="fill:none;stroke:greenyellow;" points="425,-668 425,-680 "/>
<path style="fill:none;stroke:greenyellow;" d="M425,-680C425,-686 419,-692 413,-692"/>
<text text-anchor="middle" x="398" y="-668" style="font-family:Nimbus Sans L;font-weight:bold;font-size:12.96pt;">Idle</text>
</g>
<!-- UE_Based -->
<g id="node3" class="node"><title>UE_Based</title>
<polygon style="fill:greenyellow;stroke:greenyellow;" points="819,-697 589,-697 577,-685 577,-663 589,-651 819,-651 831,-663 831,-685 819,-697"/>
<path style="fill:greenyellow;stroke:greenyellow;" d="M589,-697C583,-697 577,-691 577,-685"/>
<path style="fill:greenyellow;stroke:greenyellow;" d="M577,-663C577,-657 583,-651 589,-651"/>
<path style="fill:greenyellow;stroke:greenyellow;" d="M819,-651C825,-651 831,-657 831,-663"/>
<path style="fill:greenyellow;stroke:greenyellow;" d="M831,-685C831,-691 825,-697 819,-697"/>
<polyline style="fill:none;stroke:greenyellow;" points="819,-697 589,-697 "/>
<path style="fill:none;stroke:greenyellow;" d="M589,-697C583,-697 577,-691 577,-685"/>
<polyline style="fill:none;stroke:greenyellow;" points="577,-685 577,-663 "/>
<path style="fill:none;stroke:greenyellow;" d="M577,-663C577,-657 583,-651 589,-651"/>
<polyline style="fill:none;stroke:greenyellow;" points="589,-651 819,-651 "/>
<path style="fill:none;stroke:greenyellow;" d="M819,-651C825,-651 831,-657 831,-663"/>
<polyline style="fill:none;stroke:greenyellow;" points="831,-663 831,-685 "/>
<path style="fill:none;stroke:greenyellow;" d="M831,-685C831,-691 825,-697 819,-697"/>
<text text-anchor="middle" x="704" y="-677" style="font-family:Nimbus Sans L;font-weight:bold;font-size:12.96pt;">Performing UE&#45;Based positioning</text>
<text text-anchor="middle" x="704" y="-658" style="font-family:Nimbus Sans L;font-weight:bold;font-size:12.96pt;">under Hybrid Positioning</text>
</g>
<!-- Idle&#45;&gt;UE_Based -->
<g id="edge4" class="edge"><title>Idle&#45;&gt;UE_Based</title>
<path style="fill:none;stroke:red;" d="M425,-674C457,-674 513,-674 567,-674"/>
<polygon style="fill:red;stroke:red;" points="567,-677.5 577,-674 567,-670.5 567,-677.5"/>
<a xlink:title="Send M.C. (Setup)\nStart a2,a4 timer">
</a>
<a xlink:title="Send M.C. (Setup)\nStart a2,a4 timer">
</a>
<text text-anchor="middle" x="501" y="-696" style="font-family:Nimbus Sans L;font-weight:bold;font-size:12.96pt;fill:red;">Send M.C. (Setup)</text>
<text text-anchor="middle" x="501" y="-677" style="font-family:Nimbus Sans L;font-weight:bold;font-size:12.96pt;fill:red;">Start a2,a4 timer</text>
</g>
<!-- UE_Assisted -->
<g id="node4" class="node"><title>UE_Assisted</title>
<polygon style="fill:greenyellow;stroke:greenyellow;" points="418,-460 172,-460 160,-448 160,-426 172,-414 418,-414 430,-426 430,-448 418,-460"/>
<path style="fill:greenyellow;stroke:greenyellow;" d="M172,-460C166,-460 160,-454 160,-448"/>
<path style="fill:greenyellow;stroke:greenyellow;" d="M160,-426C160,-420 166,-414 172,-414"/>
<path style="fill:greenyellow;stroke:greenyellow;" d="M418,-414C424,-414 430,-420 430,-426"/>
<path style="fill:greenyellow;stroke:greenyellow;" d="M430,-448C430,-454 424,-460 418,-460"/>
<polyline style="fill:none;stroke:greenyellow;" points="418,-460 172,-460 "/>
<path style="fill:none;stroke:greenyellow;" d="M172,-460C166,-460 160,-454 160,-448"/>
<polyline style="fill:none;stroke:greenyellow;" points="160,-448 160,-426 "/>
<path style="fill:none;stroke:greenyellow;" d="M160,-426C160,-420 166,-414 172,-414"/>
<polyline style="fill:none;stroke:greenyellow;" points="172,-414 418,-414 "/>
<path style="fill:none;stroke:greenyellow;" d="M418,-414C424,-414 430,-420 430,-426"/>
<polyline style="fill:none;stroke:greenyellow;" points="430,-426 430,-448 "/>
<path style="fill:none;stroke:greenyellow;" d="M430,-448C430,-454 424,-460 418,-460"/>
<text text-anchor="middle" x="295" y="-440" style="font-family:Nimbus Sans L;font-weight:bold;font-size:12.96pt;">Performing UE&#45;Assisted positioning</text>
<text text-anchor="middle" x="295" y="-421" style="font-family:Nimbus Sans L;font-weight:bold;font-size:12.96pt;">(UE&#45;Based positioning continue)</text>
</g>
<!-- UE_Based&#45;&gt;UE_Assisted -->
<g id="edge6" class="edge"><title>UE_Based&#45;&gt;UE_Assisted</title>
<path style="fill:none;stroke:red;" d="M597,-651C561,-641 521,-627 488,-608 421,-570 357,-506 322,-468"/>
<polygon style="fill:red;stroke:red;" points="324.219,-465.221 315,-460 318.951,-469.831 324.219,-465.221"/>
<a xlink:title="Timer a2 expired/\nSend M.R\nReceive M.C.\n(Modify,Reporting Interval=t)\nStart up Timer t">
</a>
<a xlink:title="Timer a2 expired/\nSend M.R\nReceive M.C.\n(Modify,Reporting Interval=t)\nStart up Timer t">
</a>
<text text-anchor="middle" x="592" y="-592" style="font-family:Nimbus Sans L;font-weight:bold;font-size:12.96pt;fill:red;">Timer a2 expired/</text>
<text text-anchor="middle" x="592" y="-573" style="font-family:Nimbus Sans L;font-weight:bold;font-size:12.96pt;fill:red;">Send M.R</text>
<text text-anchor="middle" x="592" y="-554" style="font-family:Nimbus Sans L;font-weight:bold;font-size:12.96pt;fill:red;">Receive M.C.</text>
<text text-anchor="middle" x="592" y="-535" style="font-family:Nimbus Sans L;font-weight:bold;font-size:12.96pt;fill:red;">(Modify,Reporting Interval=t)</text>
<text text-anchor="middle" x="592" y="-516" style="font-family:Nimbus Sans L;font-weight:bold;font-size:12.96pt;fill:red;">Start up Timer t</text>
</g>
<!-- Waiting_MC -->
<g id="node5" class="node"><title>Waiting_MC</title>
<polygon style="fill:greenyellow;stroke:greenyellow;" points="572,-243 400,-243 388,-231 388,-219 400,-207 572,-207 584,-219 584,-231 572,-243"/>
<path style="fill:greenyellow;stroke:greenyellow;" d="M400,-243C394,-243 388,-237 388,-231"/>
<path style="fill:greenyellow;stroke:greenyellow;" d="M388,-219C388,-213 394,-207 400,-207"/>
<path style="fill:greenyellow;stroke:greenyellow;" d="M572,-207C578,-207 584,-213 584,-219"/>
<path style="fill:greenyellow;stroke:greenyellow;" d="M584,-231C584,-237 578,-243 572,-243"/>
<polyline style="fill:none;stroke:greenyellow;" points="572,-243 400,-243 "/>
<path style="fill:none;stroke:greenyellow;" d="M400,-243C394,-243 388,-237 388,-231"/>
<polyline style="fill:none;stroke:greenyellow;" points="388,-231 388,-219 "/>
<path style="fill:none;stroke:greenyellow;" d="M388,-219C388,-213 394,-207 400,-207"/>
<polyline style="fill:none;stroke:greenyellow;" points="400,-207 572,-207 "/>
<path style="fill:none;stroke:greenyellow;" d="M572,-207C578,-207 584,-213 584,-219"/>
<polyline style="fill:none;stroke:greenyellow;" points="584,-219 584,-231 "/>
<path style="fill:none;stroke:greenyellow;" d="M584,-231C584,-237 578,-243 572,-243"/>
<text text-anchor="middle" x="486" y="-219" style="font-family:Nimbus Sans L;font-weight:bold;font-size:12.96pt;">Waiting for M.C. Release</text>
</g>
<!-- UE_Based&#45;&gt;Waiting_MC -->
<g id="edge8" class="edge"><title>UE_Based&#45;&gt;Waiting_MC</title>
<path style="fill:none;stroke:black;" d="M705,-651C711,-578 727,-347 690,-286 664,-242 641,-227 594,-225"/>
<polygon style="fill:black;stroke:black;" points="594,-221.5 584,-225 594,-228.5 594,-221.5"/>
<a xlink:title="UE&#45;Based success/\nStop UE&#45;Based Positioning,\nSend M.R.\n(confidence=68)">
</a>
<a xlink:title="UE&#45;Based success/\nStop UE&#45;Based Positioning,\nSend M.R.\n(confidence=68)">
</a>
<text text-anchor="middle" x="799" y="-455" style="font-family:Nimbus Sans L;font-weight:regular;font-size:11.34pt;">UE&#45;Based success/</text>
<text text-anchor="middle" x="799" y="-439" style="font-family:Nimbus Sans L;font-weight:regular;font-size:11.34pt;">Stop UE&#45;Based Positioning,</text>
<text text-anchor="middle" x="799" y="-423" style="font-family:Nimbus Sans L;font-weight:regular;font-size:11.34pt;">Send M.R.</text>
<text text-anchor="middle" x="799" y="-407" style="font-family:Nimbus Sans L;font-weight:regular;font-size:11.34pt;">(confidence=68)</text>
</g>
<!-- UE_Based&#45;&gt;Waiting_MC -->
<g id="edge10" class="edge"><title>UE_Based&#45;&gt;Waiting_MC</title>
<path style="fill:none;stroke:black;" d="M739,-651C806,-606 941,-502 889,-405 816,-269 744,-227 594,-225"/>
<polygon style="fill:black;stroke:black;" points="594,-221.5 584,-225 594,-228.5 594,-221.5"/>
<a xlink:title="UE&#45;Based (Futile)/\nStop UE&#45;Based Positioning,\nSend M.R.(RefPos)\n(confidence=100)">
</a>
<a xlink:title="UE&#45;Based (Futile)/\nStop UE&#45;Based Positioning,\nSend M.R.(RefPos)\n(confidence=100)">
</a>
<text text-anchor="middle" x="985" y="-455" style="font-family:Nimbus Sans L;font-weight:regular;font-size:11.34pt;">UE&#45;Based (Futile)/</text>
<text text-anchor="middle" x="985" y="-439" style="font-family:Nimbus Sans L;font-weight:regular;font-size:11.34pt;">Stop UE&#45;Based Positioning,</text>
<text text-anchor="middle" x="985" y="-423" style="font-family:Nimbus Sans L;font-weight:regular;font-size:11.34pt;">Send M.R.(RefPos)</text>
<text text-anchor="middle" x="985" y="-407" style="font-family:Nimbus Sans L;font-weight:regular;font-size:11.34pt;">(confidence=100)</text>
</g>
<!-- UE_Assisted&#45;&gt;UE_Assisted -->
<g id="edge12" class="edge"><title>UE_Assisted&#45;&gt;UE_Assisted</title>
<path style="fill:none;stroke:black;" d="M295,-460C244,-516 142,-516 142,-448 142,-385 153,-381 159,-427"/>
<polygon style="fill:black;stroke:black;" points="155.522,-427.398 160,-437 162.488,-426.701 155.522,-427.398"/>
<a xlink:title="Timer t expired/\nSend M.R,\nrestart timer t">
</a>
<a xlink:title="Timer t expired/\nSend M.R,\nrestart timer t">
</a>
<text text-anchor="middle" x="94" y="-447" style="font-family:Nimbus Sans L;font-weight:regular;font-size:11.34pt;">Timer t expired/</text>
<text text-anchor="middle" x="94" y="-431" style="font-family:Nimbus Sans L;font-weight:regular;font-size:11.34pt;">Send M.R,</text>
<text text-anchor="middle" x="94" y="-415" style="font-family:Nimbus Sans L;font-weight:regular;font-size:11.34pt;">restart timer t</text>
</g>
<!-- UE_Assisted&#45;&gt;Waiting_MC -->
<g id="edge14" class="edge"><title>UE_Assisted&#45;&gt;Waiting_MC</title>
<path style="fill:none;stroke:black;" d="M173,-414C145,-403 118,-387 101,-362 82,-334 80,-312 101,-286 120,-262 322,-230 378,-226"/>
<polygon style="fill:black;stroke:black;" points="378.398,-229.478 388,-225 377.701,-222.512 378.398,-229.478"/>
<a xlink:title="timer a4 expired/\nStop UE&#45;Based Positioning,\nSend M.R.\n(confidence=100)">
</a>
<a xlink:title="timer a4 expired/\nStop UE&#45;Based Positioning,\nSend M.R.\n(confidence=100)">
</a>
<text text-anchor="middle" x="187" y="-342" style="font-family:Nimbus Sans L;font-weight:regular;font-size:11.34pt;">timer a4 expired/</text>
<text text-anchor="middle" x="187" y="-326" style="font-family:Nimbus Sans L;font-weight:regular;font-size:11.34pt;">Stop UE&#45;Based Positioning,</text>
<text text-anchor="middle" x="187" y="-310" style="font-family:Nimbus Sans L;font-weight:regular;font-size:11.34pt;">Send M.R.</text>
<text text-anchor="middle" x="187" y="-294" style="font-family:Nimbus Sans L;font-weight:regular;font-size:11.34pt;">(confidence=100)</text>
</g>
<!-- UE_Assisted&#45;&gt;Waiting_MC -->
<g id="edge16" class="edge"><title>UE_Assisted&#45;&gt;Waiting_MC</title>
<path style="fill:none;stroke:black;" d="M288,-414C281,-383 274,-326 296,-286 317,-245 335,-228 378,-225"/>
<polygon style="fill:black;stroke:black;" points="378,-228.5 388,-225 378,-221.5 378,-228.5"/>
<a xlink:title="UE&#45;Based (Futile)/\nStop UE&#45;Based Positioning,\nSend M.R.(RefPos)\n(confidence=100)">
</a>
<a xlink:title="UE&#45;Based (Futile)/\nStop UE&#45;Based Positioning,\nSend M.R.(RefPos)\n(confidence=100)">
</a>
<text text-anchor="middle" x="382" y="-342" style="font-family:Nimbus Sans L;font-weight:regular;font-size:11.34pt;">UE&#45;Based (Futile)/</text>
<text text-anchor="middle" x="382" y="-326" style="font-family:Nimbus Sans L;font-weight:regular;font-size:11.34pt;">Stop UE&#45;Based Positioning,</text>
<text text-anchor="middle" x="382" y="-310" style="font-family:Nimbus Sans L;font-weight:regular;font-size:11.34pt;">Send M.R.(RefPos)</text>
<text text-anchor="middle" x="382" y="-294" style="font-family:Nimbus Sans L;font-weight:regular;font-size:11.34pt;">(confidence=100)</text>
</g>
<!-- UE_Assisted&#45;&gt;Waiting_MC -->
<g id="edge20" class="edge"><title>UE_Assisted&#45;&gt;Waiting_MC</title>
<path style="fill:none;stroke:red;" d="M393,-414C421,-403 449,-386 468,-362 491,-330 492,-284 490,-253"/>
<polygon style="fill:red;stroke:red;" points="493.478,-252.602 489,-243 486.512,-253.299 493.478,-252.602"/>
<a xlink:title="UE&#45;Based success/\nStop UE&#45;Based Positioning,\nSend M.R.\n(confidence=68)">
</a>
<a xlink:title="UE&#45;Based success/\nStop UE&#45;Based Positioning,\nSend M.R.\n(confidence=68)">
</a>
<text text-anchor="middle" x="588" y="-346" style="font-family:Nimbus Sans L;font-weight:bold;font-size:12.96pt;fill:red;">UE&#45;Based success/</text>
<text text-anchor="middle" x="588" y="-327" style="font-family:Nimbus Sans L;font-weight:bold;font-size:12.96pt;fill:red;">Stop UE&#45;Based Positioning,</text>
<text text-anchor="middle" x="588" y="-308" style="font-family:Nimbus Sans L;font-weight:bold;font-size:12.96pt;fill:red;">Send M.R.</text>
<text text-anchor="middle" x="588" y="-289" style="font-family:Nimbus Sans L;font-weight:bold;font-size:12.96pt;fill:red;">(confidence=68)</text>
</g>
<!-- Waiting_Facility -->
<g id="node7" class="node"><title>Waiting_Facility</title>
<polygon style="fill:greenyellow;stroke:greenyellow;" points="136,-89 12,-89 6.15804e-014,-77 3.78956e-014,-65 12,-53 136,-53 148,-65 148,-77 136,-89"/>
<path style="fill:greenyellow;stroke:greenyellow;" d="M12,-89C6,-89 7.34227e-014,-83 6.15804e-014,-77"/>
<path style="fill:greenyellow;stroke:greenyellow;" d="M3.78956e-014,-65C2.60532e-014,-59 6,-53 12,-53"/>
<path style="fill:greenyellow;stroke:greenyellow;" d="M136,-53C142,-53 148,-59 148,-65"/>
<path style="fill:greenyellow;stroke:greenyellow;" d="M148,-77C148,-83 142,-89 136,-89"/>
<polyline style="fill:none;stroke:greenyellow;" points="136,-89 12,-89 "/>
<path style="fill:none;stroke:greenyellow;" d="M12,-89C6,-89 7.34227e-014,-83 6.15804e-014,-77"/>
<polyline style="fill:none;stroke:greenyellow;" points="6.15804e-014,-77 3.78956e-014,-65 "/>
<path style="fill:none;stroke:greenyellow;" d="M3.78956e-014,-65C2.60532e-014,-59 6,-53 12,-53"/>
<polyline style="fill:none;stroke:greenyellow;" points="12,-53 136,-53 "/>
<path style="fill:none;stroke:greenyellow;" d="M136,-53C142,-53 148,-59 148,-65"/>
<polyline style="fill:none;stroke:greenyellow;" points="148,-65 148,-77 "/>
<path style="fill:none;stroke:greenyellow;" d="M148,-77C148,-83 142,-89 136,-89"/>
<text text-anchor="middle" x="74" y="-65" style="font-family:Nimbus Sans L;font-weight:bold;font-size:12.96pt;">Waiting for Facility</text>
</g>
<!-- UE_Assisted&#45;&gt;Waiting_Facility -->
<g id="edge18" class="edge"><title>UE_Assisted&#45;&gt;Waiting_Facility</title>
<path style="fill:none;stroke:black;" d="M198,-414C150,-400 98,-382 83,-362 25,-282 50,-155 65,-99"/>
<polygon style="fill:black;stroke:black;" points="68.4788,-99.584 68,-89 61.7741,-97.5725 68.4788,-99.584"/>
<a xlink:title="Receive M.C. Release/\nStop UE&#45;Based Positioning">
</a>
<a xlink:title="Receive M.C. Release/\nStop UE&#45;Based Positioning">
</a>
<text text-anchor="middle" x="133" y="-227" style="font-family:Nimbus Sans L;font-weight:regular;font-size:11.34pt;">Receive M.C. Release/</text>
<text text-anchor="middle" x="133" y="-211" style="font-family:Nimbus Sans L;font-weight:regular;font-size:11.34pt;">Stop UE&#45;Based Positioning</text>
</g>
<!-- Waiting_MC&#45;&gt;Waiting_Facility -->
<g id="edge22" class="edge"><title>Waiting_MC&#45;&gt;Waiting_Facility</title>
<path style="fill:none;stroke:red;" d="M438,-207C362,-178 214,-123 131,-93"/>
<polygon style="fill:red;stroke:red;" points="132.56,-89.8631 122,-89 129.717,-96.2598 132.56,-89.8631"/>
<a xlink:title="Receive M.C Release">
</a>
<a xlink:title="Receive M.C Release">
</a>
<text text-anchor="middle" x="393" y="-142" style="font-family:Nimbus Sans L;font-weight:bold;font-size:12.96pt;fill:red;">Receive M.C Release</text>
</g>
<!-- End -->
<g id="node8" class="node"><title>End</title>
<polygon style="fill:greenyellow;stroke:greenyellow;" points="474,-89 362,-89 350,-77 350,-65 362,-53 474,-53 486,-65 486,-77 474,-89"/>
<path style="fill:greenyellow;stroke:greenyellow;" d="M362,-89C356,-89 350,-83 350,-77"/>
<path style="fill:greenyellow;stroke:greenyellow;" d="M350,-65C350,-59 356,-53 362,-53"/>
<path style="fill:greenyellow;stroke:greenyellow;" d="M474,-53C480,-53 486,-59 486,-65"/>
<path style="fill:greenyellow;stroke:greenyellow;" d="M486,-77C486,-83 480,-89 474,-89"/>
<polyline style="fill:none;stroke:greenyellow;" points="474,-89 362,-89 "/>
<path style="fill:none;stroke:greenyellow;" d="M362,-89C356,-89 350,-83 350,-77"/>
<polyline style="fill:none;stroke:greenyellow;" points="350,-77 350,-65 "/>
<path style="fill:none;stroke:greenyellow;" d="M350,-65C350,-59 356,-53 362,-53"/>
<polyline style="fill:none;stroke:greenyellow;" points="362,-53 474,-53 "/>
<path style="fill:none;stroke:greenyellow;" d="M474,-53C480,-53 486,-59 486,-65"/>
<polyline style="fill:none;stroke:greenyellow;" points="486,-65 486,-77 "/>
<path style="fill:none;stroke:greenyellow;" d="M486,-77C486,-83 480,-89 474,-89"/>
<text text-anchor="middle" x="418" y="-65" style="font-family:Nimbus Sans L;font-weight:bold;font-size:12.96pt;">Positioning Ends</text>
</g>
<!-- Waiting_MC&#45;&gt;End -->
<g id="edge24" class="edge"><title>Waiting_MC&#45;&gt;End</title>
<path style="fill:none;stroke:black;" d="M492,-207C507,-170 536,-84 496,-72"/>
<polygon style="fill:black;stroke:black;" points="496.299,-68.5125 486,-71 495.602,-75.4778 496.299,-68.5125"/>
<a xlink:title="M.C. wait timer expired\nSend M.R (some error)">
</a>
<a xlink:title="M.C. wait timer expired\nSend M.R (some error)">
</a>
<text text-anchor="middle" x="583" y="-150" style="font-family:Nimbus Sans L;font-weight:regular;font-size:11.34pt;">M.C. wait timer expired</text>
<text text-anchor="middle" x="583" y="-134" style="font-family:Nimbus Sans L;font-weight:regular;font-size:11.34pt;">Send M.R (some error)</text>
</g>
<!-- Waiting_Facility&#45;&gt;End -->
<g id="edge26" class="edge"><title>Waiting_Facility&#45;&gt;End</title>
<path style="fill:none;stroke:red;" d="M132,-53C141,-51 150,-49 158,-48 239,-37 260,-36 340,-48 345,-49 349,-50 354,-51"/>
<polygon style="fill:red;stroke:red;" points="353.508,-54.4708 364,-53 354.881,-47.6067 353.508,-54.4708"/>
<a xlink:title="Facility wait timer expired">
</a>
<a xlink:title="Facility wait timer expired">
</a>
<text text-anchor="middle" x="249" y="-51" style="font-family:Nimbus Sans L;font-weight:bold;font-size:12.96pt;fill:red;">Facility wait timer expired</text>
</g>
<!-- Waiting_Facility&#45;&gt;End -->
<g id="edge28" class="edge"><title>Waiting_Facility&#45;&gt;End</title>
<path style="fill:none;stroke:black;" d="M149,-71C206,-71 282,-71 339,-71"/>
<polygon style="fill:black;stroke:black;" points="339,-74.5001 349,-71 339,-67.5001 339,-74.5001"/>
<a xlink:title="Receive Facility">
</a>
<a xlink:title="Receive Facility">
</a>
<text text-anchor="middle" x="249" y="-74" style="font-family:Nimbus Sans L;font-weight:regular;font-size:11.34pt;">Receive Facility</text>
</g>
</g>
</svg>
