<?xml version="1.0" encoding="UTF-8" standalone="no"?>
<!DOCTYPE svg PUBLIC "-//W3C//DTD SVG 1.0//EN"
 "http://www.w3.org/TR/2001/REC-SVG-20010904/DTD/svg10.dtd" [
 <!ATTLIST svg xmlns:xlink CDATA #FIXED "http://www.w3.org/1999/xlink">
]>
<!-- Generated by Graphviz version 2.12 (Mon Dec  4 22:04:37 UTC 2006)
     For user: Bill Gates -->
<!-- Title: finite_state_machine Pages: 1 -->
<svg width="9.50in" height="6.36in"
 xmlns="http://www.w3.org/2000/svg" xmlns:xlink="http://www.w3.org/1999/xlink">
<g id="graph0" class="graph" transform="scale(0.856338 0.856338) rotate(0) translate(4 710)">
<title>finite_state_machine</title>
<polygon style="fill:white;stroke:white;" points="-4,4 -4,-710 1061,-710 1061,4 -4,4"/>
<text text-anchor="middle" x="528" y="-8" style="font-family:Nimbus Roman No9 L;font-weight:medium;font-size:19.44pt;">Hybrid &#45; LBS &#45; UE&#45;Assisted X3P &#45; Accurate GPS Result</text>
<!-- Idle -->
<g id="node2" class="node"><title>Idle</title>
<polygon style="fill:greenyellow;stroke:greenyellow;" points="400,-686 370,-686 358,-674 358,-662 370,-650 400,-650 412,-662 412,-674 400,-686"/>
<path style="fill:greenyellow;stroke:greenyellow;" d="M370,-686C364,-686 358,-680 358,-674"/>
<path style="fill:greenyellow;stroke:greenyellow;" d="M358,-662C358,-656 364,-650 370,-650"/>
<path style="fill:greenyellow;stroke:greenyellow;" d="M400,-650C406,-650 412,-656 412,-662"/>
<path style="fill:greenyellow;stroke:greenyellow;" d="M412,-674C412,-680 406,-686 400,-686"/>
<polyline style="fill:none;stroke:greenyellow;" points="400,-686 370,-686 "/>
<path style="fill:none;stroke:greenyellow;" d="M370,-686C364,-686 358,-680 358,-674"/>
<polyline style="fill:none;stroke:greenyellow;" points="358,-674 358,-662 "/>
<path style="fill:none;stroke:greenyellow;" d="M358,-662C358,-656 364,-650 370,-650"/>
<polyline style="fill:none;stroke:greenyellow;" points="370,-650 400,-650 "/>
<path style="fill:none;stroke:greenyellow;" d="M400,-650C406,-650 412,-656 412,-662"/>
<polyline style="fill:none;stroke:greenyellow;" points="412,-662 412,-674 "/>
<path style="fill:none;stroke:greenyellow;" d="M412,-674C412,-680 406,-686 400,-686"/>
<text text-anchor="middle" x="385" y="-662" style="font-family:Nimbus Sans L;font-weight:bold;font-size:12.96pt;">Idle</text>
</g>
<!-- UE_Based -->
<g id="node3" class="node"><title>UE_Based</title>
<polygon style="fill:greenyellow;stroke:greenyellow;" points="806,-691 576,-691 564,-679 564,-657 576,-645 806,-645 818,-657 818,-679 806,-691"/>
<path style="fill:greenyellow;stroke:greenyellow;" d="M576,-691C570,-691 564,-685 564,-679"/>
<path style="fill:greenyellow;stroke:greenyellow;" d="M564,-657C564,-651 570,-645 576,-645"/>
<path style="fill:greenyellow;stroke:greenyellow;" d="M806,-645C812,-645 818,-651 818,-657"/>
<path style="fill:greenyellow;stroke:greenyellow;" d="M818,-679C818,-685 812,-691 806,-691"/>
<polyline style="fill:none;stroke:greenyellow;" points="806,-691 576,-691 "/>
<path style="fill:none;stroke:greenyellow;" d="M576,-691C570,-691 564,-685 564,-679"/>
<polyline style="fill:none;stroke:greenyellow;" points="564,-679 564,-657 "/>
<path style="fill:none;stroke:greenyellow;" d="M564,-657C564,-651 570,-645 576,-645"/>
<polyline style="fill:none;stroke:greenyellow;" points="576,-645 806,-645 "/>
<path style="fill:none;stroke:greenyellow;" d="M806,-645C812,-645 818,-651 818,-657"/>
<polyline style="fill:none;stroke:greenyellow;" points="818,-657 818,-679 "/>
<path style="fill:none;stroke:greenyellow;" d="M818,-679C818,-685 812,-691 806,-691"/>
<text text-anchor="middle" x="691" y="-671" style="font-family:Nimbus Sans L;font-weight:bold;font-size:12.96pt;">Performing UE&#45;Based positioning</text>
<text text-anchor="middle" x="691" y="-652" style="font-family:Nimbus Sans L;font-weight:bold;font-size:12.96pt;">under Hybrid Positioning</text>
</g>
<!-- Idle&#45;&gt;UE_Based -->
<g id="edge4" class="edge"><title>Idle&#45;&gt;UE_Based</title>
<path style="fill:none;stroke:red;" d="M412,-668C444,-668 500,-668 554,-668"/>
<polygon style="fill:red;stroke:red;" points="554,-671.5 564,-668 554,-664.5 554,-671.5"/>
<a xlink:title="Send M.C. (Setup)\nStart a2,a4 timer">
</a>
<a xlink:title="Send M.C. (Setup)\nStart a2,a4 timer">
</a>
<text text-anchor="middle" x="488" y="-690" style="font-family:Nimbus Sans L;font-weight:bold;font-size:12.96pt;fill:red;">Send M.C. (Setup)</text>
<text text-anchor="middle" x="488" y="-671" style="font-family:Nimbus Sans L;font-weight:bold;font-size:12.96pt;fill:red;">Start a2,a4 timer</text>
</g>
<!-- UE_Assisted -->
<g id="node4" class="node"><title>UE_Assisted</title>
<polygon style="fill:greenyellow;stroke:greenyellow;" points="405,-454 159,-454 147,-442 147,-420 159,-408 405,-408 417,-420 417,-442 405,-454"/>
<path style="fill:greenyellow;stroke:greenyellow;" d="M159,-454C153,-454 147,-448 147,-442"/>
<path style="fill:greenyellow;stroke:greenyellow;" d="M147,-420C147,-414 153,-408 159,-408"/>
<path style="fill:greenyellow;stroke:greenyellow;" d="M405,-408C411,-408 417,-414 417,-420"/>
<path style="fill:greenyellow;stroke:greenyellow;" d="M417,-442C417,-448 411,-454 405,-454"/>
<polyline style="fill:none;stroke:greenyellow;" points="405,-454 159,-454 "/>
<path style="fill:none;stroke:greenyellow;" d="M159,-454C153,-454 147,-448 147,-442"/>
<polyline style="fill:none;stroke:greenyellow;" points="147,-442 147,-420 "/>
<path style="fill:none;stroke:greenyellow;" d="M147,-420C147,-414 153,-408 159,-408"/>
<polyline style="fill:none;stroke:greenyellow;" points="159,-408 405,-408 "/>
<path style="fill:none;stroke:greenyellow;" d="M405,-408C411,-408 417,-414 417,-420"/>
<polyline style="fill:none;stroke:greenyellow;" points="417,-420 417,-442 "/>
<path style="fill:none;stroke:greenyellow;" d="M417,-442C417,-448 411,-454 405,-454"/>
<text text-anchor="middle" x="282" y="-434" style="font-family:Nimbus Sans L;font-weight:bold;font-size:12.96pt;">Performing UE&#45;Assisted positioning</text>
<text text-anchor="middle" x="282" y="-415" style="font-family:Nimbus Sans L;font-weight:bold;font-size:12.96pt;">(UE&#45;Based positioning continue)</text>
</g>
<!-- UE_Based&#45;&gt;UE_Assisted -->
<g id="edge6" class="edge"><title>UE_Based&#45;&gt;UE_Assisted</title>
<path style="fill:none;stroke:red;" d="M584,-645C548,-635 508,-621 475,-602 408,-564 344,-500 309,-462"/>
<polygon style="fill:red;stroke:red;" points="311.219,-459.221 302,-454 305.951,-463.831 311.219,-459.221"/>
<a xlink:title="Timer a2 expired/\nSend M.R\nReceive M.C.\n(Modify,Reporting Interval=t)\nStart up Timer t">
</a>
<a xlink:title="Timer a2 expired/\nSend M.R\nReceive M.C.\n(Modify,Reporting Interval=t)\nStart up Timer t">
</a>
<text text-anchor="middle" x="579" y="-586" style="font-family:Nimbus Sans L;font-weight:bold;font-size:12.96pt;fill:red;">Timer a2 expired/</text>
<text text-anchor="middle" x="579" y="-567" style="font-family:Nimbus Sans L;font-weight:bold;font-size:12.96pt;fill:red;">Send M.R</text>
<text text-anchor="middle" x="579" y="-548" style="font-family:Nimbus Sans L;font-weight:bold;font-size:12.96pt;fill:red;">Receive M.C.</text>
<text text-anchor="middle" x="579" y="-529" style="font-family:Nimbus Sans L;font-weight:bold;font-size:12.96pt;fill:red;">(Modify,Reporting Interval=t)</text>
<text text-anchor="middle" x="579" y="-510" style="font-family:Nimbus Sans L;font-weight:bold;font-size:12.96pt;fill:red;">Start up Timer t</text>
</g>
<!-- Waiting_MC -->
<g id="node5" class="node"><title>Waiting_MC</title>
<polygon style="fill:greenyellow;stroke:greenyellow;" points="553,-237 381,-237 369,-225 369,-213 381,-201 553,-201 565,-213 565,-225 553,-237"/>
<path style="fill:greenyellow;stroke:greenyellow;" d="M381,-237C375,-237 369,-231 369,-225"/>
<path style="fill:greenyellow;stroke:greenyellow;" d="M369,-213C369,-207 375,-201 381,-201"/>
<path style="fill:greenyellow;stroke:greenyellow;" d="M553,-201C559,-201 565,-207 565,-213"/>
<path style="fill:greenyellow;stroke:greenyellow;" d="M565,-225C565,-231 559,-237 553,-237"/>
<polyline style="fill:none;stroke:greenyellow;" points="553,-237 381,-237 "/>
<path style="fill:none;stroke:greenyellow;" d="M381,-237C375,-237 369,-231 369,-225"/>
<polyline style="fill:none;stroke:greenyellow;" points="369,-225 369,-213 "/>
<path style="fill:none;stroke:greenyellow;" d="M369,-213C369,-207 375,-201 381,-201"/>
<polyline style="fill:none;stroke:greenyellow;" points="381,-201 553,-201 "/>
<path style="fill:none;stroke:greenyellow;" d="M553,-201C559,-201 565,-207 565,-213"/>
<polyline style="fill:none;stroke:greenyellow;" points="565,-213 565,-225 "/>
<path style="fill:none;stroke:greenyellow;" d="M565,-225C565,-231 559,-237 553,-237"/>
<text text-anchor="middle" x="467" y="-213" style="font-family:Nimbus Sans L;font-weight:bold;font-size:12.96pt;">Waiting for M.C. Release</text>
</g>
<!-- UE_Based&#45;&gt;Waiting_MC -->
<g id="edge8" class="edge"><title>UE_Based&#45;&gt;Waiting_MC</title>
<path style="fill:none;stroke:black;" d="M692,-645C698,-572 714,-341 676,-280 648,-235 624,-221 575,-219"/>
<polygon style="fill:black;stroke:black;" points="575,-215.5 565,-219 575,-222.5 575,-215.5"/>
<a xlink:title="UE&#45;Based success/\nStop UE&#45;Based Positioning,\nSend M.R.\n(confidence=68)">
</a>
<a xlink:title="UE&#45;Based success/\nStop UE&#45;Based Positioning,\nSend M.R.\n(confidence=68)">
</a>
<text text-anchor="middle" x="785" y="-449" style="font-family:Nimbus Sans L;font-weight:regular;font-size:11.34pt;">UE&#45;Based success/</text>
<text text-anchor="middle" x="785" y="-433" style="font-family:Nimbus Sans L;font-weight:regular;font-size:11.34pt;">Stop UE&#45;Based Positioning,</text>
<text text-anchor="middle" x="785" y="-417" style="font-family:Nimbus Sans L;font-weight:regular;font-size:11.34pt;">Send M.R.</text>
<text text-anchor="middle" x="785" y="-401" style="font-family:Nimbus Sans L;font-weight:regular;font-size:11.34pt;">(confidence=68)</text>
</g>
<!-- UE_Based&#45;&gt;Waiting_MC -->
<g id="edge10" class="edge"><title>UE_Based&#45;&gt;Waiting_MC</title>
<path style="fill:none;stroke:black;" d="M725,-645C792,-600 926,-496 875,-399 802,-261 727,-221 575,-219"/>
<polygon style="fill:black;stroke:black;" points="575,-215.5 565,-219 575,-222.5 575,-215.5"/>
<a xlink:title="UE&#45;Based (Futile)/\nStop UE&#45;Based Positioning,\nSend M.R.(RefPos)\n(confidence=100)">
</a>
<a xlink:title="UE&#45;Based (Futile)/\nStop UE&#45;Based Positioning,\nSend M.R.(RefPos)\n(confidence=100)">
</a>
<text text-anchor="middle" x="971" y="-449" style="font-family:Nimbus Sans L;font-weight:regular;font-size:11.34pt;">UE&#45;Based (Futile)/</text>
<text text-anchor="middle" x="971" y="-433" style="font-family:Nimbus Sans L;font-weight:regular;font-size:11.34pt;">Stop UE&#45;Based Positioning,</text>
<text text-anchor="middle" x="971" y="-417" style="font-family:Nimbus Sans L;font-weight:regular;font-size:11.34pt;">Send M.R.(RefPos)</text>
<text text-anchor="middle" x="971" y="-401" style="font-family:Nimbus Sans L;font-weight:regular;font-size:11.34pt;">(confidence=100)</text>
</g>
<!-- UE_Assisted&#45;&gt;UE_Assisted -->
<g id="edge12" class="edge"><title>UE_Assisted&#45;&gt;UE_Assisted</title>
<path style="fill:none;stroke:black;" d="M282,-454C231,-510 129,-510 129,-442 129,-379 140,-375 146,-421"/>
<polygon style="fill:black;stroke:black;" points="142.522,-421.398 147,-431 149.488,-420.701 142.522,-421.398"/>
<a xlink:title="Timer t expired/\nSend M.R,\nrestart timer t">
</a>
<a xlink:title="Timer t expired/\nSend M.R,\nrestart timer t">
</a>
<text text-anchor="middle" x="81" y="-441" style="font-family:Nimbus Sans L;font-weight:regular;font-size:11.34pt;">Timer t expired/</text>
<text text-anchor="middle" x="81" y="-425" style="font-family:Nimbus Sans L;font-weight:regular;font-size:11.34pt;">Send M.R,</text>
<text text-anchor="middle" x="81" y="-409" style="font-family:Nimbus Sans L;font-weight:regular;font-size:11.34pt;">restart timer t</text>
</g>
<!-- UE_Assisted&#45;&gt;Waiting_MC -->
<g id="edge14" class="edge"><title>UE_Assisted&#45;&gt;Waiting_MC</title>
<path style="fill:none;stroke:black;" d="M160,-408C132,-397 105,-381 88,-356 69,-328 67,-306 88,-280 107,-257 304,-224 359,-220"/>
<polygon style="fill:black;stroke:black;" points="359.398,-223.478 369,-219 358.701,-216.512 359.398,-223.478"/>
<a xlink:title="timer a4 expired/\nStop UE&#45;Based Positioning,\nSend M.R.\n(confidence=100)">
</a>
<a xlink:title="timer a4 expired/\nStop UE&#45;Based Positioning,\nSend M.R.\n(confidence=100)">
</a>
<text text-anchor="middle" x="174" y="-336" style="font-family:Nimbus Sans L;font-weight:regular;font-size:11.34pt;">timer a4 expired/</text>
<text text-anchor="middle" x="174" y="-320" style="font-family:Nimbus Sans L;font-weight:regular;font-size:11.34pt;">Stop UE&#45;Based Positioning,</text>
<text text-anchor="middle" x="174" y="-304" style="font-family:Nimbus Sans L;font-weight:regular;font-size:11.34pt;">Send M.R.</text>
<text text-anchor="middle" x="174" y="-288" style="font-family:Nimbus Sans L;font-weight:regular;font-size:11.34pt;">(confidence=100)</text>
</g>
<!-- UE_Assisted&#45;&gt;Waiting_MC -->
<g id="edge16" class="edge"><title>UE_Assisted&#45;&gt;Waiting_MC</title>
<path style="fill:none;stroke:black;" d="M275,-408C268,-377 261,-321 283,-280 302,-241 319,-222 359,-219"/>
<polygon style="fill:black;stroke:black;" points="359,-222.5 369,-219 359,-215.5 359,-222.5"/>
<a xlink:title="UE&#45;Based (Futile)/\nStop UE&#45;Based Positioning,\nSend M.R.(RefPos)\n(confidence=100)">
</a>
<a xlink:title="UE&#45;Based (Futile)/\nStop UE&#45;Based Positioning,\nSend M.R.(RefPos)\n(confidence=100)">
</a>
<text text-anchor="middle" x="369" y="-336" style="font-family:Nimbus Sans L;font-weight:regular;font-size:11.34pt;">UE&#45;Based (Futile)/</text>
<text text-anchor="middle" x="369" y="-320" style="font-family:Nimbus Sans L;font-weight:regular;font-size:11.34pt;">Stop UE&#45;Based Positioning,</text>
<text text-anchor="middle" x="369" y="-304" style="font-family:Nimbus Sans L;font-weight:regular;font-size:11.34pt;">Send M.R.(RefPos)</text>
<text text-anchor="middle" x="369" y="-288" style="font-family:Nimbus Sans L;font-weight:regular;font-size:11.34pt;">(confidence=100)</text>
</g>
<!-- UE_Assisted&#45;&gt;Waiting_MC -->
<g id="edge20" class="edge"><title>UE_Assisted&#45;&gt;Waiting_MC</title>
<path style="fill:none;stroke:red;" d="M381,-408C409,-397 437,-380 455,-356 477,-324 476,-277 472,-247"/>
<polygon style="fill:red;stroke:red;" points="475.478,-246.602 471,-237 468.512,-247.299 475.478,-246.602"/>
<a xlink:title="UE&#45;Based success/\nStop UE&#45;Based Positioning,\nSend M.R.\n(confidence=68)">
</a>
<a xlink:title="UE&#45;Based success/\nStop UE&#45;Based Positioning,\nSend M.R.\n(confidence=68)">
</a>
<text text-anchor="middle" x="572" y="-340" style="font-family:Nimbus Sans L;font-weight:bold;font-size:12.96pt;fill:red;">UE&#45;Based success/</text>
<text text-anchor="middle" x="572" y="-321" style="font-family:Nimbus Sans L;font-weight:bold;font-size:12.96pt;fill:red;">Stop UE&#45;Based Positioning,</text>
<text text-anchor="middle" x="572" y="-302" style="font-family:Nimbus Sans L;font-weight:bold;font-size:12.96pt;fill:red;">Send M.R.</text>
<text text-anchor="middle" x="572" y="-283" style="font-family:Nimbus Sans L;font-weight:bold;font-size:12.96pt;fill:red;">(confidence=68)</text>
</g>
<!-- Waiting_Facility -->
<g id="node7" class="node"><title>Waiting_Facility</title>
<polygon style="fill:greenyellow;stroke:greenyellow;" points="136,-83 12,-83 6.15804e-014,-71 3.78956e-014,-59 12,-47 136,-47 148,-59 148,-71 136,-83"/>
<path style="fill:greenyellow;stroke:greenyellow;" d="M12,-83C6,-83 7.34227e-014,-77 6.15804e-014,-71"/>
<path style="fill:greenyellow;stroke:greenyellow;" d="M3.78956e-014,-59C2.60532e-014,-53 6,-47 12,-47"/>
<path style="fill:greenyellow;stroke:greenyellow;" d="M136,-47C142,-47 148,-53 148,-59"/>
<path style="fill:greenyellow;stroke:greenyellow;" d="M148,-71C148,-77 142,-83 136,-83"/>
<polyline style="fill:none;stroke:greenyellow;" points="136,-83 12,-83 "/>
<path style="fill:none;stroke:greenyellow;" d="M12,-83C6,-83 7.34227e-014,-77 6.15804e-014,-71"/>
<polyline style="fill:none;stroke:greenyellow;" points="6.15804e-014,-71 3.78956e-014,-59 "/>
<path style="fill:none;stroke:greenyellow;" d="M3.78956e-014,-59C2.60532e-014,-53 6,-47 12,-47"/>
<polyline style="fill:none;stroke:greenyellow;" points="12,-47 136,-47 "/>
<path style="fill:none;stroke:greenyellow;" d="M136,-47C142,-47 148,-53 148,-59"/>
<polyline style="fill:none;stroke:greenyellow;" points="148,-59 148,-71 "/>
<path style="fill:none;stroke:greenyellow;" d="M148,-71C148,-77 142,-83 136,-83"/>
<text text-anchor="middle" x="74" y="-59" style="font-family:Nimbus Sans L;font-weight:bold;font-size:12.96pt;">Waiting for Facility</text>
</g>
<!-- UE_Assisted&#45;&gt;Waiting_Facility -->
<g id="edge18" class="edge"><title>UE_Assisted&#45;&gt;Waiting_Facility</title>
<path style="fill:none;stroke:black;" d="M185,-408C136,-394 84,-376 70,-356 14,-275 46,-148 64,-93"/>
<polygon style="fill:black;stroke:black;" points="67.4788,-93.584 67,-83 60.7741,-91.5725 67.4788,-93.584"/>
<a xlink:title="Receive M.C. Release/\nStop UE&#45;Based Positioning">
</a>
<a xlink:title="Receive M.C. Release/\nStop UE&#45;Based Positioning">
</a>
<text text-anchor="middle" x="125" y="-221" style="font-family:Nimbus Sans L;font-weight:regular;font-size:11.34pt;">Receive M.C. Release/</text>
<text text-anchor="middle" x="125" y="-205" style="font-family:Nimbus Sans L;font-weight:regular;font-size:11.34pt;">Stop UE&#45;Based Positioning</text>
</g>
<!-- Waiting_MC&#45;&gt;Waiting_Facility -->
<g id="edge22" class="edge"><title>Waiting_MC&#45;&gt;Waiting_Facility</title>
<path style="fill:none;stroke:red;" d="M421,-201C348,-172 208,-118 130,-87"/>
<polygon style="fill:red;stroke:red;" points="130.585,-83.4643 120,-83 127.985,-89.9636 130.585,-83.4643"/>
<a xlink:title="Receive M.C Release">
</a>
<a xlink:title="Receive M.C Release">
</a>
<text text-anchor="middle" x="383" y="-136" style="font-family:Nimbus Sans L;font-weight:bold;font-size:12.96pt;fill:red;">Receive M.C Release</text>
</g>
<!-- End -->
<g id="node8" class="node"><title>End</title>
<polygon style="fill:greenyellow;stroke:greenyellow;" points="455,-83 343,-83 331,-71 331,-59 343,-47 455,-47 467,-59 467,-71 455,-83"/>
<path style="fill:greenyellow;stroke:greenyellow;" d="M343,-83C337,-83 331,-77 331,-71"/>
<path style="fill:greenyellow;stroke:greenyellow;" d="M331,-59C331,-53 337,-47 343,-47"/>
<path style="fill:greenyellow;stroke:greenyellow;" d="M455,-47C461,-47 467,-53 467,-59"/>
<path style="fill:greenyellow;stroke:greenyellow;" d="M467,-71C467,-77 461,-83 455,-83"/>
<polyline style="fill:none;stroke:greenyellow;" points="455,-83 343,-83 "/>
<path style="fill:none;stroke:greenyellow;" d="M343,-83C337,-83 331,-77 331,-71"/>
<polyline style="fill:none;stroke:greenyellow;" points="331,-71 331,-59 "/>
<path style="fill:none;stroke:greenyellow;" d="M331,-59C331,-53 337,-47 343,-47"/>
<polyline style="fill:none;stroke:greenyellow;" points="343,-47 455,-47 "/>
<path style="fill:none;stroke:greenyellow;" d="M455,-47C461,-47 467,-53 467,-59"/>
<polyline style="fill:none;stroke:greenyellow;" points="467,-59 467,-71 "/>
<path style="fill:none;stroke:greenyellow;" d="M467,-71C467,-77 461,-83 455,-83"/>
<text text-anchor="middle" x="399" y="-59" style="font-family:Nimbus Sans L;font-weight:bold;font-size:12.96pt;">Positioning Ends</text>
</g>
<!-- Waiting_MC&#45;&gt;End -->
<g id="edge24" class="edge"><title>Waiting_MC&#45;&gt;End</title>
<path style="fill:none;stroke:black;" d="M473,-201C488,-164 517,-78 477,-66"/>
<polygon style="fill:black;stroke:black;" points="477.299,-62.5125 467,-65 476.602,-69.4778 477.299,-62.5125"/>
<a xlink:title="M.C. wait timer expired\nSend M.R (some error)">
</a>
<a xlink:title="M.C. wait timer expired\nSend M.R (some error)">
</a>
<text text-anchor="middle" x="564" y="-144" style="font-family:Nimbus Sans L;font-weight:regular;font-size:11.34pt;">M.C. wait timer expired</text>
<text text-anchor="middle" x="564" y="-128" style="font-family:Nimbus Sans L;font-weight:regular;font-size:11.34pt;">Send M.R (some error)</text>
</g>
<!-- Waiting_Facility&#45;&gt;End -->
<g id="edge26" class="edge"><title>Waiting_Facility&#45;&gt;End</title>
<path style="fill:none;stroke:black;" d="M147,-47C152,-46 157,-45 162,-45 231,-37 250,-36 318,-45 319,-45 320,-45 321,-45"/>
<polygon style="fill:black;stroke:black;" points="320.508,-48.4708 331,-47 321.881,-41.6067 320.508,-48.4708"/>
<a xlink:title="Facility wait timer expired">
</a>
<a xlink:title="Facility wait timer expired">
</a>
<text text-anchor="middle" x="240" y="-47" style="font-family:Nimbus Sans L;font-weight:regular;font-size:11.34pt;">Facility wait timer expired</text>
</g>
<!-- Waiting_Facility&#45;&gt;End -->
<g id="edge28" class="edge"><title>Waiting_Facility&#45;&gt;End</title>
<path style="fill:none;stroke:red;" d="M149,-65C201,-65 268,-65 320,-65"/>
<polygon style="fill:red;stroke:red;" points="320,-68.5001 330,-65 320,-61.5001 320,-68.5001"/>
<a xlink:title="Receive Facility">
</a>
<a xlink:title="Receive Facility">
</a>
<text text-anchor="middle" x="240" y="-67" style="font-family:Nimbus Sans L;font-weight:bold;font-size:12.96pt;fill:red;">Receive Facility</text>
</g>
</g>
</svg>
