<?xml version="1.0" encoding="UTF-8" standalone="no"?>
<!DOCTYPE svg PUBLIC "-//W3C//DTD SVG 1.0//EN"
 "http://www.w3.org/TR/2001/REC-SVG-20010904/DTD/svg10.dtd" [
 <!ATTLIST svg xmlns:xlink CDATA #FIXED "http://www.w3.org/1999/xlink">
]>
<!-- Generated by Graphviz version 2.12 (Mon Dec  4 22:04:37 UTC 2006)
     For user: Bill Gates -->
<!-- Title: finite_state_machine Pages: 1 -->
<svg width="9.50in" height="6.24in"
 xmlns="http://www.w3.org/2000/svg" xmlns:xlink="http://www.w3.org/1999/xlink">
<g id="graph0" class="graph" transform="scale(0.882012 0.882012) rotate(0) translate(4 676)">
<title>finite_state_machine</title>
<polygon style="fill:white;stroke:white;" points="-4,4 -4,-676 1030,-676 1030,4 -4,4"/>
<text text-anchor="middle" x="513" y="-8" style="font-family:Nimbus Roman No9 L;font-weight:medium;font-size:19.44pt;">X3P Finite State Machine</text>
<!-- Idle -->
<g id="node2" class="node"><title>Idle</title>
<polygon style="fill:greenyellow;stroke:greenyellow;" points="392,-658 362,-658 350,-646 350,-634 362,-622 392,-622 404,-634 404,-646 392,-658"/>
<path style="fill:greenyellow;stroke:greenyellow;" d="M362,-658C356,-658 350,-652 350,-646"/>
<path style="fill:greenyellow;stroke:greenyellow;" d="M350,-634C350,-628 356,-622 362,-622"/>
<path style="fill:greenyellow;stroke:greenyellow;" d="M392,-622C398,-622 404,-628 404,-634"/>
<path style="fill:greenyellow;stroke:greenyellow;" d="M404,-646C404,-652 398,-658 392,-658"/>
<polyline style="fill:none;stroke:greenyellow;" points="392,-658 362,-658 "/>
<path style="fill:none;stroke:greenyellow;" d="M362,-658C356,-658 350,-652 350,-646"/>
<polyline style="fill:none;stroke:greenyellow;" points="350,-646 350,-634 "/>
<path style="fill:none;stroke:greenyellow;" d="M350,-634C350,-628 356,-622 362,-622"/>
<polyline style="fill:none;stroke:greenyellow;" points="362,-622 392,-622 "/>
<path style="fill:none;stroke:greenyellow;" d="M392,-622C398,-622 404,-628 404,-634"/>
<polyline style="fill:none;stroke:greenyellow;" points="404,-634 404,-646 "/>
<path style="fill:none;stroke:greenyellow;" d="M404,-646C404,-652 398,-658 392,-658"/>
<text text-anchor="middle" x="377" y="-634" style="font-family:Nimbus Sans L;font-weight:bold;font-size:12.96pt;">Idle</text>
</g>
<!-- UE_Based -->
<g id="node3" class="node"><title>UE_Based</title>
<polygon style="fill:greenyellow;stroke:greenyellow;" points="779,-663 549,-663 537,-651 537,-629 549,-617 779,-617 791,-629 791,-651 779,-663"/>
<path style="fill:greenyellow;stroke:greenyellow;" d="M549,-663C543,-663 537,-657 537,-651"/>
<path style="fill:greenyellow;stroke:greenyellow;" d="M537,-629C537,-623 543,-617 549,-617"/>
<path style="fill:greenyellow;stroke:greenyellow;" d="M779,-617C785,-617 791,-623 791,-629"/>
<path style="fill:greenyellow;stroke:greenyellow;" d="M791,-651C791,-657 785,-663 779,-663"/>
<polyline style="fill:none;stroke:greenyellow;" points="779,-663 549,-663 "/>
<path style="fill:none;stroke:greenyellow;" d="M549,-663C543,-663 537,-657 537,-651"/>
<polyline style="fill:none;stroke:greenyellow;" points="537,-651 537,-629 "/>
<path style="fill:none;stroke:greenyellow;" d="M537,-629C537,-623 543,-617 549,-617"/>
<polyline style="fill:none;stroke:greenyellow;" points="549,-617 779,-617 "/>
<path style="fill:none;stroke:greenyellow;" d="M779,-617C785,-617 791,-623 791,-629"/>
<polyline style="fill:none;stroke:greenyellow;" points="791,-629 791,-651 "/>
<path style="fill:none;stroke:greenyellow;" d="M791,-651C791,-657 785,-663 779,-663"/>
<text text-anchor="middle" x="664" y="-643" style="font-family:Nimbus Sans L;font-weight:bold;font-size:12.96pt;">Performing UE&#45;Based positioning</text>
<text text-anchor="middle" x="664" y="-624" style="font-family:Nimbus Sans L;font-weight:bold;font-size:12.96pt;">under Hybrid Positioning</text>
</g>
<!-- Idle&#45;&gt;UE_Based -->
<g id="edge4" class="edge"><title>Idle&#45;&gt;UE_Based</title>
<path style="fill:none;stroke:black;" d="M404,-640C433,-640 480,-640 527,-640"/>
<polygon style="fill:black;stroke:black;" points="527,-643.5 537,-640 527,-636.5 527,-643.5"/>
<a xlink:title="Send M.C. (Setup)\nStart a2,a4 timer">
</a>
<a xlink:title="Send M.C. (Setup)\nStart a2,a4 timer">
</a>
<text text-anchor="middle" x="471" y="-658" style="font-family:Nimbus Sans L;font-weight:regular;font-size:11.34pt;">Send M.C. (Setup)</text>
<text text-anchor="middle" x="471" y="-642" style="font-family:Nimbus Sans L;font-weight:regular;font-size:11.34pt;">Start a2,a4 timer</text>
</g>
<!-- UE_Assisted -->
<g id="node4" class="node"><title>UE_Assisted</title>
<polygon style="fill:greenyellow;stroke:greenyellow;" points="405,-442 159,-442 147,-430 147,-408 159,-396 405,-396 417,-408 417,-430 405,-442"/>
<path style="fill:greenyellow;stroke:greenyellow;" d="M159,-442C153,-442 147,-436 147,-430"/>
<path style="fill:greenyellow;stroke:greenyellow;" d="M147,-408C147,-402 153,-396 159,-396"/>
<path style="fill:greenyellow;stroke:greenyellow;" d="M405,-396C411,-396 417,-402 417,-408"/>
<path style="fill:greenyellow;stroke:greenyellow;" d="M417,-430C417,-436 411,-442 405,-442"/>
<polyline style="fill:none;stroke:greenyellow;" points="405,-442 159,-442 "/>
<path style="fill:none;stroke:greenyellow;" d="M159,-442C153,-442 147,-436 147,-430"/>
<polyline style="fill:none;stroke:greenyellow;" points="147,-430 147,-408 "/>
<path style="fill:none;stroke:greenyellow;" d="M147,-408C147,-402 153,-396 159,-396"/>
<polyline style="fill:none;stroke:greenyellow;" points="159,-396 405,-396 "/>
<path style="fill:none;stroke:greenyellow;" d="M405,-396C411,-396 417,-402 417,-408"/>
<polyline style="fill:none;stroke:greenyellow;" points="417,-408 417,-430 "/>
<path style="fill:none;stroke:greenyellow;" d="M417,-430C417,-436 411,-442 405,-442"/>
<text text-anchor="middle" x="282" y="-422" style="font-family:Nimbus Sans L;font-weight:bold;font-size:12.96pt;">Performing UE&#45;Assisted positioning</text>
<text text-anchor="middle" x="282" y="-403" style="font-family:Nimbus Sans L;font-weight:bold;font-size:12.96pt;">(UE&#45;Based positioning continue)</text>
</g>
<!-- UE_Based&#45;&gt;UE_Assisted -->
<g id="edge6" class="edge"><title>UE_Based&#45;&gt;UE_Assisted</title>
<path style="fill:none;stroke:black;" d="M580,-617C547,-606 508,-592 476,-574 413,-539 349,-483 312,-449"/>
<polygon style="fill:black;stroke:black;" points="314.546,-446.596 305,-442 309.596,-451.546 314.546,-446.596"/>
<a xlink:title="Timer a2 expired/\nSend M.R\nReceive M.C.\n(Modify,Reporting Interval=t)\nStart up Timer t">
</a>
<a xlink:title="Timer a2 expired/\nSend M.R\nReceive M.C.\n(Modify,Reporting Interval=t)\nStart up Timer t">
</a>
<text text-anchor="middle" x="566" y="-560" style="font-family:Nimbus Sans L;font-weight:regular;font-size:11.34pt;">Timer a2 expired/</text>
<text text-anchor="middle" x="566" y="-544" style="font-family:Nimbus Sans L;font-weight:regular;font-size:11.34pt;">Send M.R</text>
<text text-anchor="middle" x="566" y="-528" style="font-family:Nimbus Sans L;font-weight:regular;font-size:11.34pt;">Receive M.C.</text>
<text text-anchor="middle" x="566" y="-512" style="font-family:Nimbus Sans L;font-weight:regular;font-size:11.34pt;">(Modify,Reporting Interval=t)</text>
<text text-anchor="middle" x="566" y="-496" style="font-family:Nimbus Sans L;font-weight:regular;font-size:11.34pt;">Start up Timer t</text>
</g>
<!-- Waiting_MC -->
<g id="node5" class="node"><title>Waiting_MC</title>
<polygon style="fill:greenyellow;stroke:greenyellow;" points="553,-237 381,-237 369,-225 369,-213 381,-201 553,-201 565,-213 565,-225 553,-237"/>
<path style="fill:greenyellow;stroke:greenyellow;" d="M381,-237C375,-237 369,-231 369,-225"/>
<path style="fill:greenyellow;stroke:greenyellow;" d="M369,-213C369,-207 375,-201 381,-201"/>
<path style="fill:greenyellow;stroke:greenyellow;" d="M553,-201C559,-201 565,-207 565,-213"/>
<path style="fill:greenyellow;stroke:greenyellow;" d="M565,-225C565,-231 559,-237 553,-237"/>
<polyline style="fill:none;stroke:greenyellow;" points="553,-237 381,-237 "/>
<path style="fill:none;stroke:greenyellow;" d="M381,-237C375,-237 369,-231 369,-225"/>
<polyline style="fill:none;stroke:greenyellow;" points="369,-225 369,-213 "/>
<path style="fill:none;stroke:greenyellow;" d="M369,-213C369,-207 375,-201 381,-201"/>
<polyline style="fill:none;stroke:greenyellow;" points="381,-201 553,-201 "/>
<path style="fill:none;stroke:greenyellow;" d="M553,-201C559,-201 565,-207 565,-213"/>
<polyline style="fill:none;stroke:greenyellow;" points="565,-213 565,-225 "/>
<path style="fill:none;stroke:greenyellow;" d="M565,-225C565,-231 559,-237 553,-237"/>
<text text-anchor="middle" x="467" y="-213" style="font-family:Nimbus Sans L;font-weight:bold;font-size:12.96pt;">Waiting for M.C. Release</text>
</g>
<!-- UE_Based&#45;&gt;Waiting_MC -->
<g id="edge8" class="edge"><title>UE_Based&#45;&gt;Waiting_MC</title>
<path style="fill:none;stroke:black;" d="M664,-617C669,-548 679,-338 648,-280 628,-242 613,-222 575,-219"/>
<polygon style="fill:black;stroke:black;" points="575,-215.5 565,-219 575,-222.5 575,-215.5"/>
<a xlink:title="UE&#45;Based success/\nStop UE&#45;Based Positioning,\nSend M.R.\n(confidence=68)">
</a>
<a xlink:title="UE&#45;Based success/\nStop UE&#45;Based Positioning,\nSend M.R.\n(confidence=68)">
</a>
<text text-anchor="middle" x="754" y="-437" style="font-family:Nimbus Sans L;font-weight:regular;font-size:11.34pt;">UE&#45;Based success/</text>
<text text-anchor="middle" x="754" y="-421" style="font-family:Nimbus Sans L;font-weight:regular;font-size:11.34pt;">Stop UE&#45;Based Positioning,</text>
<text text-anchor="middle" x="754" y="-405" style="font-family:Nimbus Sans L;font-weight:regular;font-size:11.34pt;">Send M.R.</text>
<text text-anchor="middle" x="754" y="-389" style="font-family:Nimbus Sans L;font-weight:regular;font-size:11.34pt;">(confidence=68)</text>
</g>
<!-- UE_Based&#45;&gt;Waiting_MC -->
<g id="edge10" class="edge"><title>UE_Based&#45;&gt;Waiting_MC</title>
<path style="fill:none;stroke:black;" d="M700,-617C766,-575 894,-477 844,-387 775,-263 712,-221 575,-219"/>
<polygon style="fill:black;stroke:black;" points="575,-215.5 565,-219 575,-222.5 575,-215.5"/>
<a xlink:title="UE&#45;Based (Futile)/\nStop UE&#45;Based Positioning,\nSend M.R.(RefPos)\n(confidence=100)">
</a>
<a xlink:title="UE&#45;Based (Futile)/\nStop UE&#45;Based Positioning,\nSend M.R.(RefPos)\n(confidence=100)">
</a>
<text text-anchor="middle" x="940" y="-437" style="font-family:Nimbus Sans L;font-weight:regular;font-size:11.34pt;">UE&#45;Based (Futile)/</text>
<text text-anchor="middle" x="940" y="-421" style="font-family:Nimbus Sans L;font-weight:regular;font-size:11.34pt;">Stop UE&#45;Based Positioning,</text>
<text text-anchor="middle" x="940" y="-405" style="font-family:Nimbus Sans L;font-weight:regular;font-size:11.34pt;">Send M.R.(RefPos)</text>
<text text-anchor="middle" x="940" y="-389" style="font-family:Nimbus Sans L;font-weight:regular;font-size:11.34pt;">(confidence=100)</text>
</g>
<!-- UE_Assisted&#45;&gt;UE_Assisted -->
<g id="edge12" class="edge"><title>UE_Assisted&#45;&gt;UE_Assisted</title>
<path style="fill:none;stroke:black;" d="M282,-442C231,-495 129,-495 129,-430 129,-370 139,-366 146,-409"/>
<polygon style="fill:black;stroke:black;" points="142.522,-409.398 147,-419 149.488,-408.701 142.522,-409.398"/>
<a xlink:title="Timer t expired/\nSend M.R,\nrestart timer t">
</a>
<a xlink:title="Timer t expired/\nSend M.R,\nrestart timer t">
</a>
<text text-anchor="middle" x="81" y="-429" style="font-family:Nimbus Sans L;font-weight:regular;font-size:11.34pt;">Timer t expired/</text>
<text text-anchor="middle" x="81" y="-413" style="font-family:Nimbus Sans L;font-weight:regular;font-size:11.34pt;">Send M.R,</text>
<text text-anchor="middle" x="81" y="-397" style="font-family:Nimbus Sans L;font-weight:regular;font-size:11.34pt;">restart timer t</text>
</g>
<!-- UE_Assisted&#45;&gt;Waiting_MC -->
<g id="edge14" class="edge"><title>UE_Assisted&#45;&gt;Waiting_MC</title>
<path style="fill:none;stroke:black;" d="M160,-396C132,-385 105,-369 88,-344 72,-320 71,-302 88,-280 107,-257 304,-224 359,-220"/>
<polygon style="fill:black;stroke:black;" points="359.398,-223.478 369,-219 358.701,-216.512 359.398,-223.478"/>
<a xlink:title="timer a4 expired/\nStop UE&#45;Based Positioning,\nSend M.R.\n(confidence=100)">
</a>
<a xlink:title="timer a4 expired/\nStop UE&#45;Based Positioning,\nSend M.R.\n(confidence=100)">
</a>
<text text-anchor="middle" x="174" y="-330" style="font-family:Nimbus Sans L;font-weight:regular;font-size:11.34pt;">timer a4 expired/</text>
<text text-anchor="middle" x="174" y="-314" style="font-family:Nimbus Sans L;font-weight:regular;font-size:11.34pt;">Stop UE&#45;Based Positioning,</text>
<text text-anchor="middle" x="174" y="-298" style="font-family:Nimbus Sans L;font-weight:regular;font-size:11.34pt;">Send M.R.</text>
<text text-anchor="middle" x="174" y="-282" style="font-family:Nimbus Sans L;font-weight:regular;font-size:11.34pt;">(confidence=100)</text>
</g>
<!-- UE_Assisted&#45;&gt;Waiting_MC -->
<g id="edge16" class="edge"><title>UE_Assisted&#45;&gt;Waiting_MC</title>
<path style="fill:none;stroke:black;" d="M275,-396C269,-367 263,-317 283,-280 302,-241 319,-222 359,-219"/>
<polygon style="fill:black;stroke:black;" points="359,-222.5 369,-219 359,-215.5 359,-222.5"/>
<a xlink:title="UE&#45;Based (Futile)/\nStop UE&#45;Based Positioning,\nSend M.R.(RefPos)\n(confidence=100)">
</a>
<a xlink:title="UE&#45;Based (Futile)/\nStop UE&#45;Based Positioning,\nSend M.R.(RefPos)\n(confidence=100)">
</a>
<text text-anchor="middle" x="369" y="-330" style="font-family:Nimbus Sans L;font-weight:regular;font-size:11.34pt;">UE&#45;Based (Futile)/</text>
<text text-anchor="middle" x="369" y="-314" style="font-family:Nimbus Sans L;font-weight:regular;font-size:11.34pt;">Stop UE&#45;Based Positioning,</text>
<text text-anchor="middle" x="369" y="-298" style="font-family:Nimbus Sans L;font-weight:regular;font-size:11.34pt;">Send M.R.(RefPos)</text>
<text text-anchor="middle" x="369" y="-282" style="font-family:Nimbus Sans L;font-weight:regular;font-size:11.34pt;">(confidence=100)</text>
</g>
<!-- UE_Assisted&#45;&gt;Waiting_MC -->
<g id="edge20" class="edge"><title>UE_Assisted&#45;&gt;Waiting_MC</title>
<path style="fill:none;stroke:black;" d="M381,-396C409,-385 437,-368 455,-344 475,-316 474,-275 471,-247"/>
<polygon style="fill:black;stroke:black;" points="474.478,-246.602 470,-237 467.512,-247.299 474.478,-246.602"/>
<a xlink:title="UE&#45;Based success/\nStop UE&#45;Based Positioning,\nSend M.R.\n(confidence=68)">
</a>
<a xlink:title="UE&#45;Based success/\nStop UE&#45;Based Positioning,\nSend M.R.\n(confidence=68)">
</a>
<text text-anchor="middle" x="558" y="-330" style="font-family:Nimbus Sans L;font-weight:regular;font-size:11.34pt;">UE&#45;Based success/</text>
<text text-anchor="middle" x="558" y="-314" style="font-family:Nimbus Sans L;font-weight:regular;font-size:11.34pt;">Stop UE&#45;Based Positioning,</text>
<text text-anchor="middle" x="558" y="-298" style="font-family:Nimbus Sans L;font-weight:regular;font-size:11.34pt;">Send M.R.</text>
<text text-anchor="middle" x="558" y="-282" style="font-family:Nimbus Sans L;font-weight:regular;font-size:11.34pt;">(confidence=68)</text>
</g>
<!-- Waiting_Facility -->
<g id="node7" class="node"><title>Waiting_Facility</title>
<polygon style="fill:greenyellow;stroke:greenyellow;" points="136,-83 12,-83 6.15804e-014,-71 3.78956e-014,-59 12,-47 136,-47 148,-59 148,-71 136,-83"/>
<path style="fill:greenyellow;stroke:greenyellow;" d="M12,-83C6,-83 7.34227e-014,-77 6.15804e-014,-71"/>
<path style="fill:greenyellow;stroke:greenyellow;" d="M3.78956e-014,-59C2.60532e-014,-53 6,-47 12,-47"/>
<path style="fill:greenyellow;stroke:greenyellow;" d="M136,-47C142,-47 148,-53 148,-59"/>
<path style="fill:greenyellow;stroke:greenyellow;" d="M148,-71C148,-77 142,-83 136,-83"/>
<polyline style="fill:none;stroke:greenyellow;" points="136,-83 12,-83 "/>
<path style="fill:none;stroke:greenyellow;" d="M12,-83C6,-83 7.34227e-014,-77 6.15804e-014,-71"/>
<polyline style="fill:none;stroke:greenyellow;" points="6.15804e-014,-71 3.78956e-014,-59 "/>
<path style="fill:none;stroke:greenyellow;" d="M3.78956e-014,-59C2.60532e-014,-53 6,-47 12,-47"/>
<polyline style="fill:none;stroke:greenyellow;" points="12,-47 136,-47 "/>
<path style="fill:none;stroke:greenyellow;" d="M136,-47C142,-47 148,-53 148,-59"/>
<polyline style="fill:none;stroke:greenyellow;" points="148,-59 148,-71 "/>
<path style="fill:none;stroke:greenyellow;" d="M148,-71C148,-77 142,-83 136,-83"/>
<text text-anchor="middle" x="74" y="-59" style="font-family:Nimbus Sans L;font-weight:bold;font-size:12.96pt;">Waiting for Facility</text>
</g>
<!-- UE_Assisted&#45;&gt;Waiting_Facility -->
<g id="edge18" class="edge"><title>UE_Assisted&#45;&gt;Waiting_Facility</title>
<path style="fill:none;stroke:black;" d="M186,-396C138,-382 86,-364 72,-344 18,-267 47,-147 64,-93"/>
<polygon style="fill:black;stroke:black;" points="67.4788,-93.584 67,-83 60.7741,-91.5725 67.4788,-93.584"/>
<a xlink:title="Receive M.C. Release/\nStop UE&#45;Based Positioning">
</a>
<a xlink:title="Receive M.C. Release/\nStop UE&#45;Based Positioning">
</a>
<text text-anchor="middle" x="128" y="-221" style="font-family:Nimbus Sans L;font-weight:regular;font-size:11.34pt;">Receive M.C. Release/</text>
<text text-anchor="middle" x="128" y="-205" style="font-family:Nimbus Sans L;font-weight:regular;font-size:11.34pt;">Stop UE&#45;Based Positioning</text>
</g>
<!-- Waiting_MC&#45;&gt;Waiting_Facility -->
<g id="edge22" class="edge"><title>Waiting_MC&#45;&gt;Waiting_Facility</title>
<path style="fill:none;stroke:black;" d="M421,-201C348,-172 208,-118 130,-87"/>
<polygon style="fill:black;stroke:black;" points="130.585,-83.4643 120,-83 127.985,-89.9636 130.585,-83.4643"/>
<a xlink:title="Receive M.C Release">
</a>
<a xlink:title="Receive M.C Release">
</a>
<text text-anchor="middle" x="372" y="-136" style="font-family:Nimbus Sans L;font-weight:regular;font-size:11.34pt;">Receive M.C Release</text>
</g>
<!-- End -->
<g id="node8" class="node"><title>End</title>
<polygon style="fill:greenyellow;stroke:greenyellow;" points="455,-83 343,-83 331,-71 331,-59 343,-47 455,-47 467,-59 467,-71 455,-83"/>
<path style="fill:greenyellow;stroke:greenyellow;" d="M343,-83C337,-83 331,-77 331,-71"/>
<path style="fill:greenyellow;stroke:greenyellow;" d="M331,-59C331,-53 337,-47 343,-47"/>
<path style="fill:greenyellow;stroke:greenyellow;" d="M455,-47C461,-47 467,-53 467,-59"/>
<path style="fill:greenyellow;stroke:greenyellow;" d="M467,-71C467,-77 461,-83 455,-83"/>
<polyline style="fill:none;stroke:greenyellow;" points="455,-83 343,-83 "/>
<path style="fill:none;stroke:greenyellow;" d="M343,-83C337,-83 331,-77 331,-71"/>
<polyline style="fill:none;stroke:greenyellow;" points="331,-71 331,-59 "/>
<path style="fill:none;stroke:greenyellow;" d="M331,-59C331,-53 337,-47 343,-47"/>
<polyline style="fill:none;stroke:greenyellow;" points="343,-47 455,-47 "/>
<path style="fill:none;stroke:greenyellow;" d="M455,-47C461,-47 467,-53 467,-59"/>
<polyline style="fill:none;stroke:greenyellow;" points="467,-59 467,-71 "/>
<path style="fill:none;stroke:greenyellow;" d="M467,-71C467,-77 461,-83 455,-83"/>
<text text-anchor="middle" x="399" y="-59" style="font-family:Nimbus Sans L;font-weight:bold;font-size:12.96pt;">Positioning Ends</text>
</g>
<!-- Waiting_MC&#45;&gt;End -->
<g id="edge24" class="edge"><title>Waiting_MC&#45;&gt;End</title>
<path style="fill:none;stroke:black;" d="M473,-201C488,-164 517,-78 477,-66"/>
<polygon style="fill:black;stroke:black;" points="477.299,-62.5125 467,-65 476.602,-69.4778 477.299,-62.5125"/>
<a xlink:title="M.C. wait timer expired\nSend M.R (some error)">
</a>
<a xlink:title="M.C. wait timer expired\nSend M.R (some error)">
</a>
<text text-anchor="middle" x="564" y="-144" style="font-family:Nimbus Sans L;font-weight:regular;font-size:11.34pt;">M.C. wait timer expired</text>
<text text-anchor="middle" x="564" y="-128" style="font-family:Nimbus Sans L;font-weight:regular;font-size:11.34pt;">Send M.R (some error)</text>
</g>
<!-- Waiting_Facility&#45;&gt;End -->
<g id="edge26" class="edge"><title>Waiting_Facility&#45;&gt;End</title>
<path style="fill:none;stroke:black;" d="M147,-47C152,-46 157,-45 162,-45 231,-37 250,-36 318,-45 319,-45 321,-45 322,-45"/>
<polygon style="fill:black;stroke:black;" points="321.508,-48.4708 332,-47 322.881,-41.6067 321.508,-48.4708"/>
<a xlink:title="Facility wait timer expired">
</a>
<a xlink:title="Facility wait timer expired">
</a>
<text text-anchor="middle" x="240" y="-47" style="font-family:Nimbus Sans L;font-weight:regular;font-size:11.34pt;">Facility wait timer expired</text>
</g>
<!-- Waiting_Facility&#45;&gt;End -->
<g id="edge28" class="edge"><title>Waiting_Facility&#45;&gt;End</title>
<path style="fill:none;stroke:black;" d="M149,-65C201,-65 268,-65 320,-65"/>
<polygon style="fill:black;stroke:black;" points="320,-68.5001 330,-65 320,-61.5001 320,-68.5001"/>
<a xlink:title="Receive Facility">
</a>
<a xlink:title="Receive Facility">
</a>
<text text-anchor="middle" x="240" y="-67" style="font-family:Nimbus Sans L;font-weight:regular;font-size:11.34pt;">Receive Facility</text>
</g>
</g>
</svg>
